<svg width="317" height="317" viewBox="0 0 317 317" fill="none" xmlns="http://www.w3.org/2000/svg">
<g clip-path="url(#clip0_583_11203)">
<path d="M163 832L163 604.75H389L389 832H163Z" fill="#B0A6F3"/>
<path d="M163 377.5L163 150.25L389 150.25L389 377.5L163 377.5Z" fill="#B0A6F3"/>
<path d="M163 377.5L163 150.25L389 150.25L389 377.5L163 377.5Z" fill="#B0A6F3"/>
<path d="M163 150.25L163 -77L389 -77V150.25L163 150.25Z" fill="#FFDD19"/>
<path d="M163 832L163 604.75H389L389 832H163Z" fill="#2E0880"/>
<path d="M163 604.75L163 377.5L389 377.5V604.75H163Z" fill="#449C7C"/>
<path d="M-63 604.75L-63 377.5H163L163 604.75H-63Z" fill="#2E0880"/>
<path d="M-63 150.25L-63 -77L163 -77L163 150.25L-63 150.25Z" fill="#2E0880"/>
<path d="M163 832H-63L-63 604.75H163L163 832Z" fill="#FFFFE6"/>
<path d="M163 377.5H-63L-63 150.25L163 150.25L163 377.5Z" fill="#BFE444"/>
<path d="M280.403 832C215.563 832 163 779.146 163 713.948C163 653.64 211.621 604.75 271.597 604.75H389L389 832H280.403Z" fill="#FFDD19"/>
<path d="M389 150.25C264.184 150.25 163 48.5067 163 -77L389 -77V150.25Z" fill="#A3CD1A"/>
<path d="M389 377.5C264.184 377.5 163 275.757 163 150.25L389 150.25L389 377.5Z" fill="#2E0880"/>
<path d="M-63 604.75L-63 377.5H163L163 604.75H-63Z" fill="#2E0880"/>
<path d="M-63 150.25L-63 -77L163 -77L163 150.25L-63 150.25Z" fill="#FFF099"/>
<path d="M163 832H-63L-63 604.75C61.8164 604.75 163 706.493 163 832Z" fill="#BFE444"/>
<path d="M163 377.5H-63L-63 150.25C61.8164 150.25 163 251.993 163 377.5Z" fill="#449C7C"/>
<path d="M163 604.75L163 377.5L389 377.5C389 503.007 287.816 604.75 163 604.75Z" fill="#5BCFA4"/>
</g>
<defs>
<clipPath id="clip0_583_11203">
<rect width="317" height="317" fill="white"/>
</clipPath>
</defs>
</svg>
