<svg width="24" height="24" viewBox="0 0 24 24" fill="none" xmlns="http://www.w3.org/2000/svg">
<path d="M5.598 7L11.345 12.12C11.5281 12.2831 11.7648 12.3732 12.01 12.3732C12.2552 12.3732 12.4919 12.2831 12.675 12.12L18.423 7H5.598ZM20 8.273L14.006 13.614C13.4565 14.1037 12.7461 14.3744 12.01 14.3744C11.2739 14.3744 10.5635 14.1037 10.014 13.614L4 8.254V17H20V8.273ZM4 5H20C20.5304 5 21.0391 5.21071 21.4142 5.58579C21.7893 5.96086 22 6.46957 22 7V17C22 17.5304 21.7893 18.0391 21.4142 18.4142C21.0391 18.7893 20.5304 19 20 19H4C3.46957 19 2.96086 18.7893 2.58579 18.4142C2.21071 18.0391 2 17.5304 2 17V7C2 6.46957 2.21071 5.96086 2.58579 5.58579C2.96086 5.21071 3.46957 5 4 5V5Z" fill="#FFFFE6"/>
</svg>
