<svg width="401" height="75" viewBox="0 0 401 75" fill="none" xmlns="http://www.w3.org/2000/svg">
<path d="M50.7792 0.5L34.2792 17.5L68.2792 56.5L102.779 17.5L86.2792 0.5H50.7792Z" fill="#FF0000" stroke="#FF0000"/>
<g opacity="0.4">
<path d="M39.5792 0.5L23.0792 17.5L57.0792 56.5L91.5792 17.5L75.0792 0.5H39.5792Z" fill="#FF0000" stroke="#FF0000"/>
</g>
<g opacity="0.2">
<path d="M28.3792 0.5L11.8792 17.5L45.8792 56.5L80.3792 17.5L63.8792 0.5H28.3792Z" fill="#FF0000" stroke="#FF0000"/>
</g>
<g opacity="0.1">
<path d="M17.1792 0.5L0.679161 17.5L34.6792 56.5L69.1792 17.5L52.6792 0.5H17.1792Z" fill="#FF0000" stroke="#FF0000"/>
</g>
<path d="M132.731 6.1V9.31H123.116V15.73H131.231V18.955H123.116V27.79H119.051V6.1H132.731Z" fill="black"/>
<path d="M147.747 27.79H146.081C145.731 27.79 145.457 27.74 145.257 27.64C145.057 27.53 144.906 27.315 144.806 26.995L144.476 25.9C144.086 26.25 143.701 26.56 143.321 26.83C142.951 27.09 142.567 27.31 142.167 27.49C141.767 27.67 141.342 27.805 140.892 27.895C140.442 27.985 139.941 28.03 139.391 28.03C138.741 28.03 138.141 27.945 137.591 27.775C137.041 27.595 136.567 27.33 136.167 26.98C135.777 26.63 135.471 26.195 135.251 25.675C135.031 25.155 134.921 24.55 134.921 23.86C134.921 23.28 135.071 22.71 135.372 22.15C135.681 21.58 136.191 21.07 136.901 20.62C137.611 20.16 138.556 19.78 139.736 19.48C140.917 19.18 142.382 19.01 144.132 18.97V18.07C144.132 17.04 143.911 16.28 143.471 15.79C143.041 15.29 142.411 15.04 141.581 15.04C140.981 15.04 140.481 15.11 140.081 15.25C139.681 15.39 139.331 15.55 139.031 15.73C138.741 15.9 138.472 16.055 138.222 16.195C137.972 16.335 137.696 16.405 137.396 16.405C137.146 16.405 136.931 16.34 136.751 16.21C136.571 16.08 136.426 15.92 136.316 15.73L135.641 14.545C137.411 12.925 139.546 12.115 142.046 12.115C142.946 12.115 143.746 12.265 144.446 12.565C145.156 12.855 145.757 13.265 146.247 13.795C146.737 14.315 147.106 14.94 147.356 15.67C147.616 16.4 147.747 17.2 147.747 18.07V27.79ZM140.546 25.48C140.926 25.48 141.276 25.445 141.596 25.375C141.916 25.305 142.217 25.2 142.497 25.06C142.786 24.92 143.061 24.75 143.321 24.55C143.591 24.34 143.862 24.095 144.132 23.815V21.22C143.051 21.27 142.146 21.365 141.416 21.505C140.696 21.635 140.117 21.805 139.677 22.015C139.237 22.225 138.921 22.47 138.731 22.75C138.551 23.03 138.461 23.335 138.461 23.665C138.461 24.315 138.651 24.78 139.031 25.06C139.421 25.34 139.926 25.48 140.546 25.48Z" fill="black"/>
<path d="M160.525 15.4C160.425 15.56 160.32 15.675 160.21 15.745C160.1 15.805 159.96 15.835 159.79 15.835C159.61 15.835 159.415 15.785 159.205 15.685C159.005 15.585 158.77 15.475 158.5 15.355C158.23 15.225 157.92 15.11 157.57 15.01C157.23 14.91 156.825 14.86 156.355 14.86C155.625 14.86 155.05 15.015 154.63 15.325C154.21 15.635 154 16.04 154 16.54C154 16.87 154.105 17.15 154.315 17.38C154.535 17.6 154.82 17.795 155.17 17.965C155.53 18.135 155.935 18.29 156.385 18.43C156.835 18.56 157.295 18.705 157.765 18.865C158.235 19.025 158.695 19.21 159.145 19.42C159.595 19.62 159.995 19.88 160.345 20.2C160.705 20.51 160.99 20.885 161.2 21.325C161.42 21.765 161.53 22.295 161.53 22.915C161.53 23.655 161.395 24.34 161.125 24.97C160.855 25.59 160.46 26.13 159.94 26.59C159.42 27.04 158.775 27.395 158.005 27.655C157.245 27.905 156.37 28.03 155.38 28.03C154.85 28.03 154.33 27.98 153.82 27.88C153.32 27.79 152.835 27.66 152.365 27.49C151.905 27.32 151.475 27.12 151.075 26.89C150.685 26.66 150.34 26.41 150.04 26.14L150.895 24.73C151.005 24.56 151.135 24.43 151.285 24.34C151.435 24.25 151.625 24.205 151.855 24.205C152.085 24.205 152.3 24.27 152.5 24.4C152.71 24.53 152.95 24.67 153.22 24.82C153.49 24.97 153.805 25.11 154.165 25.24C154.535 25.37 155 25.435 155.56 25.435C156 25.435 156.375 25.385 156.685 25.285C157.005 25.175 157.265 25.035 157.465 24.865C157.675 24.695 157.825 24.5 157.915 24.28C158.015 24.05 158.065 23.815 158.065 23.575C158.065 23.215 157.955 22.92 157.735 22.69C157.525 22.46 157.24 22.26 156.88 22.09C156.53 21.92 156.125 21.77 155.665 21.64C155.215 21.5 154.75 21.35 154.27 21.19C153.8 21.03 153.335 20.845 152.875 20.635C152.425 20.415 152.02 20.14 151.66 19.81C151.31 19.48 151.025 19.075 150.805 18.595C150.595 18.115 150.49 17.535 150.49 16.855C150.49 16.225 150.615 15.625 150.865 15.055C151.115 14.485 151.48 13.99 151.96 13.57C152.45 13.14 153.055 12.8 153.775 12.55C154.505 12.29 155.345 12.16 156.295 12.16C157.355 12.16 158.32 12.335 159.19 12.685C160.06 13.035 160.785 13.495 161.365 14.065L160.525 15.4Z" fill="black"/>
<path d="M169.54 28.03C168.21 28.03 167.185 27.655 166.465 26.905C165.745 26.145 165.385 25.1 165.385 23.77V15.175H163.825C163.625 15.175 163.45 15.11 163.3 14.98C163.16 14.85 163.09 14.655 163.09 14.395V12.925L165.565 12.52L166.345 8.32C166.385 8.12 166.475 7.965 166.615 7.855C166.765 7.745 166.95 7.69 167.17 7.69H169.09V12.535H173.14V15.175H169.09V23.515C169.09 23.995 169.21 24.37 169.45 24.64C169.69 24.91 170.01 25.045 170.41 25.045C170.64 25.045 170.83 25.02 170.98 24.97C171.14 24.91 171.275 24.85 171.385 24.79C171.505 24.73 171.61 24.675 171.7 24.625C171.79 24.565 171.88 24.535 171.97 24.535C172.08 24.535 172.17 24.565 172.24 24.625C172.31 24.675 172.385 24.755 172.465 24.865L173.575 26.665C173.035 27.115 172.415 27.455 171.715 27.685C171.015 27.915 170.29 28.03 169.54 28.03Z" fill="black"/>
<path d="M180.467 19.315V27.79H176.432V6.1H183.047C184.527 6.1 185.792 6.255 186.842 6.565C187.902 6.865 188.767 7.29 189.437 7.84C190.117 8.39 190.612 9.05 190.922 9.82C191.242 10.58 191.402 11.42 191.402 12.34C191.402 13.07 191.292 13.76 191.072 14.41C190.862 15.06 190.552 15.65 190.142 16.18C189.742 16.71 189.242 17.175 188.642 17.575C188.052 17.975 187.377 18.295 186.617 18.535C187.127 18.825 187.567 19.24 187.937 19.78L193.367 27.79H189.737C189.387 27.79 189.087 27.72 188.837 27.58C188.597 27.44 188.392 27.24 188.222 26.98L183.662 20.035C183.492 19.775 183.302 19.59 183.092 19.48C182.892 19.37 182.592 19.315 182.192 19.315H180.467ZM180.467 16.42H182.987C183.747 16.42 184.407 16.325 184.967 16.135C185.537 15.945 186.002 15.685 186.362 15.355C186.732 15.015 187.007 14.615 187.187 14.155C187.367 13.695 187.457 13.19 187.457 12.64C187.457 11.54 187.092 10.695 186.362 10.105C185.642 9.515 184.537 9.22 183.047 9.22H180.467V16.42Z" fill="black"/>
<path d="M199.135 12.4V22.18C199.135 23.12 199.35 23.85 199.78 24.37C200.22 24.88 200.875 25.135 201.745 25.135C202.385 25.135 202.985 24.995 203.545 24.715C204.105 24.425 204.635 24.03 205.135 23.53V12.4H208.84V27.79H206.575C206.095 27.79 205.78 27.565 205.63 27.115L205.375 25.885C205.055 26.205 204.725 26.5 204.385 26.77C204.045 27.03 203.68 27.255 203.29 27.445C202.91 27.625 202.495 27.765 202.045 27.865C201.605 27.975 201.13 28.03 200.62 28.03C199.78 28.03 199.035 27.89 198.385 27.61C197.745 27.32 197.205 26.915 196.765 26.395C196.325 25.875 195.99 25.26 195.76 24.55C195.54 23.83 195.43 23.04 195.43 22.18V12.4H199.135Z" fill="black"/>
<path d="M212.841 27.79V5.5H216.546V14.29C217.156 13.64 217.846 13.125 218.616 12.745C219.386 12.355 220.286 12.16 221.316 12.16C222.156 12.16 222.921 12.335 223.611 12.685C224.311 13.025 224.911 13.525 225.411 14.185C225.921 14.845 226.311 15.66 226.581 16.63C226.861 17.6 227.001 18.715 227.001 19.975C227.001 21.125 226.846 22.19 226.536 23.17C226.226 24.15 225.781 25 225.201 25.72C224.631 26.44 223.936 27.005 223.116 27.415C222.306 27.815 221.396 28.015 220.386 28.015C219.916 28.015 219.486 27.965 219.096 27.865C218.706 27.775 218.351 27.645 218.031 27.475C217.711 27.305 217.411 27.1 217.131 26.86C216.861 26.61 216.601 26.335 216.351 26.035L216.186 27.07C216.126 27.33 216.021 27.515 215.871 27.625C215.731 27.735 215.536 27.79 215.286 27.79H212.841ZM220.041 15.04C219.271 15.04 218.611 15.205 218.061 15.535C217.521 15.855 217.016 16.31 216.546 16.9V23.8C216.966 24.32 217.421 24.685 217.911 24.895C218.411 25.095 218.951 25.195 219.531 25.195C220.091 25.195 220.596 25.09 221.046 24.88C221.496 24.67 221.876 24.35 222.186 23.92C222.506 23.49 222.751 22.95 222.921 22.3C223.091 21.64 223.176 20.865 223.176 19.975C223.176 19.075 223.101 18.315 222.951 17.695C222.811 17.065 222.606 16.555 222.336 16.165C222.066 15.775 221.736 15.49 221.346 15.31C220.966 15.13 220.531 15.04 220.041 15.04Z" fill="black"/>
<path d="M234.867 32.02C234.757 32.28 234.612 32.475 234.432 32.605C234.262 32.745 233.997 32.815 233.637 32.815H230.877L233.757 26.65L227.532 12.4H230.772C231.072 12.4 231.302 12.47 231.462 12.61C231.622 12.75 231.742 12.91 231.822 13.09L235.107 21.07C235.217 21.33 235.312 21.6 235.392 21.88C235.472 22.16 235.542 22.44 235.602 22.72C235.682 22.43 235.767 22.15 235.857 21.88C235.957 21.61 236.062 21.335 236.172 21.055L239.262 13.09C239.342 12.89 239.472 12.725 239.652 12.595C239.842 12.465 240.052 12.4 240.282 12.4H243.252L234.867 32.02Z" fill="black"/>
<path d="M242.468 25.75C242.468 25.44 242.523 25.145 242.633 24.865C242.753 24.585 242.913 24.345 243.113 24.145C243.323 23.945 243.568 23.785 243.848 23.665C244.128 23.545 244.428 23.485 244.748 23.485C245.058 23.485 245.353 23.545 245.633 23.665C245.913 23.785 246.153 23.945 246.353 24.145C246.553 24.345 246.713 24.585 246.833 24.865C246.953 25.145 247.013 25.44 247.013 25.75C247.013 26.07 246.953 26.37 246.833 26.65C246.713 26.92 246.553 27.155 246.353 27.355C246.153 27.555 245.913 27.71 245.633 27.82C245.353 27.94 245.058 28 244.748 28C244.428 28 244.128 27.94 243.848 27.82C243.568 27.71 243.323 27.555 243.113 27.355C242.913 27.155 242.753 26.92 242.633 26.65C242.523 26.37 242.468 26.07 242.468 25.75Z" fill="black"/>
<path d="M254.036 12.4V27.79H250.331V12.4H254.036ZM254.591 7.915C254.591 8.235 254.526 8.535 254.396 8.815C254.266 9.095 254.091 9.34 253.871 9.55C253.661 9.76 253.411 9.93 253.121 10.06C252.831 10.18 252.521 10.24 252.191 10.24C251.871 10.24 251.566 10.18 251.276 10.06C250.996 9.93 250.751 9.76 250.541 9.55C250.331 9.34 250.161 9.095 250.031 8.815C249.911 8.535 249.851 8.235 249.851 7.915C249.851 7.585 249.911 7.275 250.031 6.985C250.161 6.695 250.331 6.445 250.541 6.235C250.751 6.025 250.996 5.86 251.276 5.74C251.566 5.61 251.871 5.545 252.191 5.545C252.521 5.545 252.831 5.61 253.121 5.74C253.411 5.86 253.661 6.025 253.871 6.235C254.091 6.445 254.266 6.695 254.396 6.985C254.526 7.275 254.591 7.585 254.591 7.915Z" fill="black"/>
<path d="M264.805 12.16C265.955 12.16 266.995 12.345 267.925 12.715C268.865 13.085 269.665 13.61 270.325 14.29C270.985 14.97 271.495 15.8 271.855 16.78C272.215 17.76 272.395 18.855 272.395 20.065C272.395 21.285 272.215 22.385 271.855 23.365C271.495 24.345 270.985 25.18 270.325 25.87C269.665 26.56 268.865 27.09 267.925 27.46C266.995 27.83 265.955 28.015 264.805 28.015C263.655 28.015 262.61 27.83 261.67 27.46C260.73 27.09 259.925 26.56 259.255 25.87C258.595 25.18 258.08 24.345 257.71 23.365C257.35 22.385 257.17 21.285 257.17 20.065C257.17 18.855 257.35 17.76 257.71 16.78C258.08 15.8 258.595 14.97 259.255 14.29C259.925 13.61 260.73 13.085 261.67 12.715C262.61 12.345 263.655 12.16 264.805 12.16ZM264.805 25.165C266.085 25.165 267.03 24.735 267.64 23.875C268.26 23.015 268.57 21.755 268.57 20.095C268.57 18.435 268.26 17.17 267.64 16.3C267.03 15.43 266.085 14.995 264.805 14.995C263.505 14.995 262.545 15.435 261.925 16.315C261.305 17.185 260.995 18.445 260.995 20.095C260.995 21.745 261.305 23.005 261.925 23.875C262.545 24.735 263.505 25.165 264.805 25.165Z" fill="black"/>
<path d="M122.215 44.7192V49.6021C122.482 49.6021 123.032 49.6086 123.865 49.6216C124.705 49.6346 125.353 49.6411 125.809 49.6411C127.052 49.6411 127.918 49.436 128.406 49.0259C128.895 48.6092 129.139 47.9517 129.139 47.0532C129.139 46.2655 128.904 45.6795 128.436 45.2954C127.967 44.9113 127.182 44.7192 126.082 44.7192H122.215ZM131.473 57.8149H129.52L127.527 53.2837C126.987 52.0662 126.642 51.3338 126.492 51.0864C126.017 51.119 125.454 51.1353 124.803 51.1353L122.215 51.0571V57.8149H120.486V43.2056H125.105C125.639 43.2056 126.111 43.2186 126.521 43.2446C126.932 43.2707 127.339 43.3195 127.742 43.3911C128.152 43.4562 128.507 43.5506 128.807 43.6743C129.106 43.7915 129.386 43.9478 129.646 44.1431C129.907 44.3319 130.115 44.5597 130.271 44.8267C130.434 45.0936 130.561 45.4126 130.652 45.7837C130.744 46.1483 130.789 46.5617 130.789 47.0239C130.789 47.9354 130.548 48.7199 130.066 49.3774C129.591 50.035 128.914 50.4907 128.035 50.7446C128.035 50.7576 128.1 50.8748 128.23 51.0962C128.361 51.3175 128.514 51.591 128.689 51.9165C128.872 52.2355 129.012 52.5024 129.109 52.7173L131.473 57.8149ZM133.162 54.2407V47.1021H134.803V54.2603C134.803 54.729 134.868 55.1261 134.998 55.4517C135.135 55.7772 135.327 56.0311 135.574 56.2134C135.828 56.3892 136.111 56.5161 136.424 56.5942C136.743 56.6724 137.107 56.7114 137.518 56.7114C138.364 56.7114 139.021 56.5259 139.49 56.1548C139.966 55.7837 140.203 55.1522 140.203 54.2603V47.1021H141.844V54.2407C141.844 54.7876 141.766 55.2791 141.609 55.7153C141.453 56.1515 141.242 56.5161 140.975 56.8091C140.714 57.0955 140.398 57.3332 140.027 57.522C139.656 57.7108 139.262 57.8475 138.846 57.9321C138.436 58.0168 137.993 58.0591 137.518 58.0591C137.049 58.0591 136.606 58.0168 136.189 57.9321C135.773 57.8475 135.376 57.7108 134.998 57.522C134.627 57.3267 134.305 57.0858 134.031 56.7993C133.764 56.5063 133.553 56.1418 133.396 55.7056C133.24 55.2694 133.162 54.7811 133.162 54.2407ZM149.148 48.2349C148.113 48.2349 147.319 48.5929 146.766 49.3091C146.219 50.0187 145.945 51.0636 145.945 52.4438C145.945 55.2694 147.01 56.6821 149.139 56.6821C149.666 56.6821 150.128 56.5747 150.525 56.3599C150.929 56.1385 151.245 55.8325 151.473 55.4419C151.707 55.0448 151.88 54.5988 151.99 54.104C152.107 53.6092 152.166 53.0591 152.166 52.4536C152.166 51.6333 152.068 50.9172 151.873 50.3052C151.684 49.6932 151.359 49.1951 150.896 48.811C150.434 48.4269 149.852 48.2349 149.148 48.2349ZM149.314 46.8774C150.265 46.8774 151.085 47.1183 151.775 47.6001C152.466 48.0819 152.983 48.7362 153.328 49.563C153.673 50.3898 153.846 51.3371 153.846 52.4048C153.846 53.5116 153.673 54.4849 153.328 55.3247C152.99 56.1646 152.472 56.8286 151.775 57.3169C151.085 57.7987 150.258 58.0396 149.295 58.0396C148.585 58.0396 147.938 57.8866 147.352 57.5806C146.766 57.2746 146.277 56.8579 145.887 56.3306L145.721 57.8149H144.324V42.9419L145.955 42.8442V46.3892C145.955 47.2616 145.942 48.0103 145.916 48.6353C146.294 48.0949 146.782 47.6685 147.381 47.356C147.986 47.0369 148.631 46.8774 149.314 46.8774ZM154.686 47.1021H156.414L159.793 56.0181L162.801 47.1021H164.529C161.639 55.0578 160.145 59.1593 160.047 59.4067C159.598 60.533 159.054 61.3566 158.416 61.8774C157.778 62.4048 156.938 62.6685 155.896 62.6685C155.584 62.6685 155.255 62.6424 154.91 62.5903L154.813 61.2036C155.177 61.2297 155.451 61.2427 155.633 61.2427C156.369 61.2427 156.925 61.106 157.303 60.8325C157.687 60.5656 158.029 60.061 158.328 59.3188C158.595 58.6353 158.794 58.1079 158.924 57.7368L154.686 47.1021ZM177.664 56.9263L173.23 46.6138L172.859 45.6274L172.928 49.1626V57.8149H171.346V43.3716H173.533L178.563 54.8755L183.543 43.3716H185.672V57.8149H184.031V49.1235L184.1 45.6665L183.738 46.6528L179.314 56.9263H177.664ZM191.883 56.7212C192.658 56.7212 193.338 56.5096 193.924 56.0864C194.516 55.6567 194.897 55.0806 195.066 54.3579V52.5513C195.034 52.5513 194.835 52.5675 194.471 52.6001C194.113 52.6326 193.878 52.6522 193.768 52.6587C192.355 52.7824 191.369 53.0135 190.809 53.3521C190.255 53.6906 189.979 54.2342 189.979 54.9829C189.979 55.5558 190.148 55.9888 190.486 56.2817C190.825 56.5747 191.29 56.7212 191.883 56.7212ZM195.428 57.8149C195.33 57.3983 195.236 56.9491 195.145 56.4673C194.552 57.0597 193.995 57.4699 193.475 57.6978C192.954 57.9256 192.342 58.0396 191.639 58.0396C190.636 58.0396 189.829 57.7791 189.217 57.2583C188.611 56.731 188.309 55.9757 188.309 54.9927C188.309 53.8989 188.722 53.0884 189.549 52.561C190.382 52.0337 191.58 51.7049 193.143 51.5747C193.357 51.5552 193.68 51.5291 194.109 51.4966C194.546 51.4575 194.871 51.4282 195.086 51.4087V50.4614C195.086 49.7062 194.91 49.1463 194.559 48.7817C194.207 48.4172 193.654 48.2349 192.898 48.2349C191.844 48.2349 190.779 48.4953 189.705 49.0161C189.673 48.938 189.588 48.7134 189.451 48.3423C189.314 47.9647 189.243 47.7694 189.236 47.7563C189.712 47.4894 190.275 47.2778 190.926 47.1216C191.583 46.9588 192.251 46.8774 192.928 46.8774C194.262 46.8774 195.223 47.1704 195.809 47.7563C196.401 48.3358 196.697 49.3254 196.697 50.7251V57.8149H195.428ZM201.434 47.1021V57.8149H199.793V47.1021H201.434ZM201.434 43.2056V45.1392H199.793V43.2056H201.434ZM204.51 57.8149V47.1021H205.877L206.082 48.6353C206.505 48.1079 207.033 47.6847 207.664 47.3657C208.302 47.0402 208.989 46.8774 209.725 46.8774C210.962 46.8774 211.876 47.2257 212.469 47.9224C213.061 48.6125 213.357 49.6769 213.357 51.1157V57.8149H211.727C211.727 53.5181 211.723 51.2166 211.717 50.9106C211.691 49.9992 211.505 49.3319 211.16 48.9087C210.822 48.4855 210.252 48.2739 209.451 48.2739C208.611 48.2739 207.911 48.4757 207.352 48.8794C206.792 49.283 206.427 49.8071 206.258 50.4517C206.193 50.8879 206.16 51.3892 206.16 51.9556V57.8149H204.51ZM219.49 58.0103C218.436 58.0103 217.687 57.7531 217.244 57.2388C216.801 56.7244 216.567 55.8944 216.541 54.7485V48.313H214.949L215.018 47.2388L216.531 47.1021L217.088 44.6509L218.162 44.6118V47.1021H221.141V48.313H218.162V54.4556C218.162 55.2694 218.286 55.8423 218.533 56.1743C218.781 56.5063 219.204 56.6724 219.803 56.6724C220.018 56.6724 220.483 56.6203 221.199 56.5161L221.268 57.8052C220.493 57.9419 219.9 58.0103 219.49 58.0103ZM229.061 49.0845C228.585 48.5116 227.931 48.2251 227.098 48.2251C226.264 48.2251 225.584 48.5213 225.057 49.1138C224.529 49.6997 224.22 50.5037 224.129 51.5259H229.783C229.783 50.4647 229.542 49.6509 229.061 49.0845ZM227.42 58.0396C225.864 58.0396 224.637 57.5448 223.738 56.5552C222.846 55.5656 222.4 54.2114 222.4 52.4927C222.4 50.8325 222.833 49.4881 223.699 48.4595C224.565 47.4243 225.704 46.897 227.117 46.8774C228.445 46.8774 229.497 47.3332 230.271 48.2446C231.053 49.1496 231.443 50.3605 231.443 51.8774C231.443 51.9556 231.44 52.0988 231.434 52.3071C231.434 52.5155 231.434 52.6652 231.434 52.7563H224.08C224.1 53.9738 224.412 54.9243 225.018 55.6079C225.63 56.285 226.45 56.6235 227.479 56.6235C228.611 56.6235 229.747 56.3241 230.887 55.7251L231.141 57.0435C230.053 57.7075 228.813 58.0396 227.42 58.0396ZM233.709 57.8149V47.1021H235.076L235.281 48.6353C235.704 48.1079 236.232 47.6847 236.863 47.3657C237.501 47.0402 238.188 46.8774 238.924 46.8774C240.161 46.8774 241.076 47.2257 241.668 47.9224C242.26 48.6125 242.557 49.6769 242.557 51.1157V57.8149H240.926C240.926 53.5181 240.923 51.2166 240.916 50.9106C240.89 49.9992 240.704 49.3319 240.359 48.9087C240.021 48.4855 239.451 48.2739 238.65 48.2739C237.811 48.2739 237.111 48.4757 236.551 48.8794C235.991 49.283 235.626 49.8071 235.457 50.4517C235.392 50.8879 235.359 51.3892 235.359 51.9556V57.8149H233.709ZM248.367 56.7212C249.142 56.7212 249.822 56.5096 250.408 56.0864C251.001 55.6567 251.382 55.0806 251.551 54.3579V52.5513C251.518 52.5513 251.32 52.5675 250.955 52.6001C250.597 52.6326 250.363 52.6522 250.252 52.6587C248.839 52.7824 247.853 53.0135 247.293 53.3521C246.74 53.6906 246.463 54.2342 246.463 54.9829C246.463 55.5558 246.632 55.9888 246.971 56.2817C247.309 56.5747 247.775 56.7212 248.367 56.7212ZM251.912 57.8149C251.814 57.3983 251.72 56.9491 251.629 56.4673C251.036 57.0597 250.48 57.4699 249.959 57.6978C249.438 57.9256 248.826 58.0396 248.123 58.0396C247.12 58.0396 246.313 57.7791 245.701 57.2583C245.096 56.731 244.793 55.9757 244.793 54.9927C244.793 53.8989 245.206 53.0884 246.033 52.561C246.867 52.0337 248.064 51.7049 249.627 51.5747C249.842 51.5552 250.164 51.5291 250.594 51.4966C251.03 51.4575 251.355 51.4282 251.57 51.4087V50.4614C251.57 49.7062 251.395 49.1463 251.043 48.7817C250.691 48.4172 250.138 48.2349 249.383 48.2349C248.328 48.2349 247.264 48.4953 246.189 49.0161C246.157 48.938 246.072 48.7134 245.936 48.3423C245.799 47.9647 245.727 47.7694 245.721 47.7563C246.196 47.4894 246.759 47.2778 247.41 47.1216C248.068 46.9588 248.735 46.8774 249.412 46.8774C250.747 46.8774 251.707 47.1704 252.293 47.7563C252.885 48.3358 253.182 49.3254 253.182 50.7251V57.8149H251.912ZM255.994 57.8149V47.1021H257.361L257.566 48.6353C257.99 48.1079 258.517 47.6847 259.148 47.3657C259.786 47.0402 260.473 46.8774 261.209 46.8774C262.446 46.8774 263.361 47.2257 263.953 47.9224C264.546 48.6125 264.842 49.6769 264.842 51.1157V57.8149H263.211C263.211 53.5181 263.208 51.2166 263.201 50.9106C263.175 49.9992 262.99 49.3319 262.645 48.9087C262.306 48.4855 261.736 48.2739 260.936 48.2739C260.096 48.2739 259.396 48.4757 258.836 48.8794C258.276 49.283 257.911 49.8071 257.742 50.4517C257.677 50.8879 257.645 51.3892 257.645 51.9556V57.8149H255.994ZM272.088 58.0396C270.512 58.0396 269.279 57.5285 268.387 56.5063C267.501 55.4842 267.059 54.1463 267.059 52.4927C267.065 50.826 267.518 49.4751 268.416 48.4399C269.321 47.3983 270.558 46.8774 272.127 46.8774C272.68 46.8774 273.214 46.9458 273.729 47.0825C274.249 47.2192 274.66 47.3983 274.959 47.6196L274.51 48.8892C273.748 48.479 272.944 48.2739 272.098 48.2739C271.063 48.2739 270.242 48.6515 269.637 49.4067C269.038 50.1619 268.738 51.1938 268.738 52.5024C268.738 53.7785 269.035 54.7909 269.627 55.5396C270.226 56.2817 271.053 56.6528 272.107 56.6528C272.947 56.6528 273.807 56.425 274.686 55.9692L274.891 57.2681C274.181 57.7824 273.247 58.0396 272.088 58.0396ZM283.182 49.0845C282.706 48.5116 282.052 48.2251 281.219 48.2251C280.385 48.2251 279.705 48.5213 279.178 49.1138C278.65 49.6997 278.341 50.5037 278.25 51.5259H283.904C283.904 50.4647 283.663 49.6509 283.182 49.0845ZM281.541 58.0396C279.985 58.0396 278.758 57.5448 277.859 56.5552C276.967 55.5656 276.521 54.2114 276.521 52.4927C276.521 50.8325 276.954 49.4881 277.82 48.4595C278.686 47.4243 279.826 46.897 281.238 46.8774C282.566 46.8774 283.618 47.3332 284.393 48.2446C285.174 49.1496 285.564 50.3605 285.564 51.8774C285.564 51.9556 285.561 52.0988 285.555 52.3071C285.555 52.5155 285.555 52.6652 285.555 52.7563H278.201C278.221 53.9738 278.533 54.9243 279.139 55.6079C279.751 56.285 280.571 56.6235 281.6 56.6235C282.732 56.6235 283.869 56.3241 285.008 55.7251L285.262 57.0435C284.174 57.7075 282.934 58.0396 281.541 58.0396ZM287.498 60.5298C287.518 60.341 287.573 59.8397 287.664 59.0259C287.762 58.2186 287.837 57.5382 287.889 56.9849C287.941 56.4315 287.98 55.9465 288.006 55.5298H289.93V55.9595C289.611 57.2485 289.142 58.772 288.523 60.5298H287.498ZM308.143 50.6274C308.143 48.6092 307.622 47.1411 306.58 46.2231C305.538 45.3052 304.021 44.8462 302.029 44.8462H299.764V56.3403H302.313C304.214 56.3403 305.659 55.8618 306.648 54.9048C307.645 53.9412 308.143 52.5155 308.143 50.6274ZM309.949 50.5786C309.949 52.9289 309.282 54.7225 307.947 55.9595C306.613 57.1965 304.751 57.8149 302.361 57.8149H298.074V43.3716H302.078C303.283 43.3716 304.36 43.5148 305.311 43.8013C306.261 44.0812 307.085 44.5109 307.781 45.0903C308.484 45.6632 309.021 46.4152 309.393 47.3462C309.764 48.2707 309.949 49.3481 309.949 50.5786ZM313.631 52.4829C313.631 53.7524 313.911 54.7713 314.471 55.5396C315.037 56.3013 315.861 56.6821 316.941 56.6821C318.009 56.6821 318.813 56.3013 319.354 55.5396C319.9 54.7778 320.174 53.7524 320.174 52.4634C320.174 51.1548 319.904 50.1261 319.363 49.3774C318.829 48.6222 318.012 48.2446 316.912 48.2446C315.844 48.2446 315.031 48.6287 314.471 49.397C313.911 50.1652 313.631 51.1938 313.631 52.4829ZM321.863 52.4536C321.863 54.1138 321.421 55.4614 320.535 56.4966C319.65 57.5252 318.426 58.0396 316.863 58.0396C315.359 58.0396 314.161 57.5187 313.27 56.4771C312.384 55.4354 311.941 54.0975 311.941 52.4634C311.941 50.7967 312.387 49.4491 313.279 48.4204C314.171 47.3918 315.395 46.8774 316.951 46.8774C318.481 46.8774 319.682 47.395 320.555 48.4302C321.427 49.4588 321.863 50.8 321.863 52.4536ZM324.178 57.8149V47.1021H325.545L325.75 48.6353C326.173 48.1079 326.701 47.6847 327.332 47.3657C327.97 47.0402 328.657 46.8774 329.393 46.8774C330.63 46.8774 331.544 47.2257 332.137 47.9224C332.729 48.6125 333.025 49.6769 333.025 51.1157V57.8149H331.395C331.395 53.5181 331.391 51.2166 331.385 50.9106C331.359 49.9992 331.173 49.3319 330.828 48.9087C330.49 48.4855 329.92 48.2739 329.119 48.2739C328.279 48.2739 327.579 48.4757 327.02 48.8794C326.46 49.283 326.095 49.8071 325.926 50.4517C325.861 50.8879 325.828 51.3892 325.828 51.9556V57.8149H324.178ZM341.912 49.0845C341.437 48.5116 340.783 48.2251 339.949 48.2251C339.116 48.2251 338.436 48.5213 337.908 49.1138C337.381 49.6997 337.072 50.5037 336.98 51.5259H342.635C342.635 50.4647 342.394 49.6509 341.912 49.0845ZM340.271 58.0396C338.716 58.0396 337.488 57.5448 336.59 56.5552C335.698 55.5656 335.252 54.2114 335.252 52.4927C335.252 50.8325 335.685 49.4881 336.551 48.4595C337.417 47.4243 338.556 46.897 339.969 46.8774C341.297 46.8774 342.348 47.3332 343.123 48.2446C343.904 49.1496 344.295 50.3605 344.295 51.8774C344.295 51.9556 344.292 52.0988 344.285 52.3071C344.285 52.5155 344.285 52.6652 344.285 52.7563H336.932C336.951 53.9738 337.264 54.9243 337.869 55.6079C338.481 56.285 339.301 56.6235 340.33 56.6235C341.463 56.6235 342.599 56.3241 343.738 55.7251L343.992 57.0435C342.905 57.7075 341.665 58.0396 340.271 58.0396ZM353.328 44.7192V49.6021C353.595 49.6021 354.145 49.6086 354.979 49.6216C355.818 49.6346 356.466 49.6411 356.922 49.6411C358.165 49.6411 359.031 49.436 359.52 49.0259C360.008 48.6092 360.252 47.9517 360.252 47.0532C360.252 46.2655 360.018 45.6795 359.549 45.2954C359.08 44.9113 358.296 44.7192 357.195 44.7192H353.328ZM362.586 57.8149H360.633L358.641 53.2837C358.1 52.0662 357.755 51.3338 357.605 51.0864C357.13 51.119 356.567 51.1353 355.916 51.1353L353.328 51.0571V57.8149H351.6V43.2056H356.219C356.753 43.2056 357.225 43.2186 357.635 43.2446C358.045 43.2707 358.452 43.3195 358.855 43.3911C359.266 43.4562 359.62 43.5506 359.92 43.6743C360.219 43.7915 360.499 43.9478 360.76 44.1431C361.02 44.3319 361.229 44.5597 361.385 44.8267C361.548 45.0936 361.674 45.4126 361.766 45.7837C361.857 46.1483 361.902 46.5617 361.902 47.0239C361.902 47.9354 361.661 48.7199 361.18 49.3774C360.704 50.035 360.027 50.4907 359.148 50.7446C359.148 50.7576 359.214 50.8748 359.344 51.0962C359.474 51.3175 359.627 51.591 359.803 51.9165C359.985 52.2355 360.125 52.5024 360.223 52.7173L362.586 57.8149ZM366.57 47.1021V57.8149H364.93V47.1021H366.57ZM366.57 43.2056V45.1392H364.93V43.2056H366.57ZM373.807 56.4185C374.36 56.4185 374.845 56.3208 375.262 56.1255C375.678 55.9302 376.004 55.66 376.238 55.3149C376.473 54.9699 376.645 54.5858 376.756 54.1626C376.873 53.7394 376.932 53.2772 376.932 52.7759V51.9849C376.932 51.464 376.873 50.9855 376.756 50.5493C376.639 50.1066 376.456 49.7127 376.209 49.3677C375.968 49.0161 375.643 48.7427 375.232 48.5474C374.829 48.3521 374.357 48.2544 373.816 48.2544C373.367 48.2544 372.957 48.339 372.586 48.5083C372.221 48.6776 371.919 48.9022 371.678 49.1821C371.443 49.4556 371.242 49.7778 371.072 50.1489C370.91 50.5135 370.792 50.8846 370.721 51.2622C370.649 51.6398 370.613 52.0207 370.613 52.4048C370.613 52.7824 370.652 53.1567 370.73 53.5278C370.809 53.8989 370.932 54.2603 371.102 54.6118C371.271 54.9634 371.476 55.2726 371.717 55.5396C371.958 55.8 372.257 56.0116 372.615 56.1743C372.98 56.3371 373.377 56.4185 373.807 56.4185ZM371.297 62.7173L371.15 61.2427H373.143C373.696 61.2427 374.178 61.2036 374.588 61.1255C374.998 61.0474 375.34 60.9172 375.613 60.7349C375.887 60.5591 376.108 60.3605 376.277 60.1392C376.447 59.9243 376.574 59.6411 376.658 59.2896C376.749 58.9445 376.808 58.5994 376.834 58.2544C376.867 57.9159 376.883 57.4992 376.883 57.0044V56.0571C376.492 56.617 376.04 57.05 375.525 57.356C375.011 57.6554 374.357 57.8052 373.563 57.8052C372.951 57.8052 372.384 57.701 371.863 57.4927C371.349 57.2778 370.913 56.9946 370.555 56.6431C370.203 56.2915 369.9 55.8846 369.646 55.4224C369.399 54.9601 369.217 54.4816 369.1 53.9868C368.989 53.492 368.934 52.994 368.934 52.4927C368.934 51.7114 369.028 50.9888 369.217 50.3247C369.412 49.6606 369.699 49.0682 370.076 48.5474C370.454 48.0265 370.949 47.6196 371.561 47.3267C372.179 47.0272 372.885 46.8774 373.68 46.8774C374.383 46.8774 374.995 47.0142 375.516 47.2876C376.043 47.5545 376.515 47.9679 376.932 48.5278V47.1021H378.523V57.0435C378.523 57.4992 378.51 57.8963 378.484 58.2349C378.465 58.5799 378.41 58.9608 378.318 59.3774C378.234 59.7941 378.117 60.1522 377.967 60.4517C377.817 60.7511 377.605 61.0506 377.332 61.3501C377.065 61.6561 376.743 61.9002 376.365 62.0825C375.994 62.2713 375.532 62.4243 374.979 62.5415C374.425 62.6587 373.8 62.7173 373.104 62.7173H371.297ZM388.465 57.8149V51.3403C388.465 50.2661 388.292 49.4849 387.947 48.9966C387.609 48.5083 387.013 48.2642 386.16 48.2642C385.34 48.2642 384.646 48.4692 384.08 48.8794C383.52 49.2896 383.156 49.8201 382.986 50.4712C382.928 50.9595 382.898 51.5031 382.898 52.1021V57.8149H381.268V42.9419L382.898 42.8442V47.1997C382.898 47.5708 382.885 48.0298 382.859 48.5767C383.777 47.4438 384.995 46.8774 386.512 46.8774C388.901 46.8774 390.096 48.2804 390.096 51.0864V57.8149H388.465ZM395.525 58.0103C394.471 58.0103 393.722 57.7531 393.279 57.2388C392.837 56.7244 392.602 55.8944 392.576 54.7485V48.313H390.984L391.053 47.2388L392.566 47.1021L393.123 44.6509L394.197 44.6118V47.1021H397.176V48.313H394.197V54.4556C394.197 55.2694 394.321 55.8423 394.568 56.1743C394.816 56.5063 395.239 56.6724 395.838 56.6724C396.053 56.6724 396.518 56.6203 397.234 56.5161L397.303 57.8052C396.528 57.9419 395.936 58.0103 395.525 58.0103Z" fill="black"/>
</svg>
