<svg fill="none" height="89" width="464" xmlns="http://www.w3.org/2000/svg" xmlns:xlink="http://www.w3.org/1999/xlink"><clipPath id="a"><path d="m0 4h464v67h-464z"/></clipPath><g clip-path="url(#a)" fill="#faf096"><path d="m461.102 20.35c-.09-.089-.179-.133-.268-.222.045-.089.045-.178.089-.222.758.089 1.338-.045 1.204-.978.624-.355 1.115-.977 1.828-1.2-.312-.577-1.07-.044-1.382-.755.803-.044 1.338-.31 1.249-1.155-.09-.888-.848-.4-1.293-.533-.714-.222-1.606.089-2.185-.4-.491-.4-.758-.266-1.293-.133-.625.178-1.204.933-1.784.489-.669-.489-1.115-1.244-1.605-1.955-.089-.089 0-.444.133-.578.268-.266.313.045.446.222.179.223.491.178.446 0-.089-.622.714-.755.625-1.377-.045-.622-.892-.222-.937-.755.223-.4.803.044.937-.489-.491-.489-1.338.045-1.739-.4-.58-.666-1.071-.577-1.517-.044-.49.577.223.8.446 1.066.312.311.223.622.09.889-.134.266-.58.222-.669.088-.402-.71-.847-.133-1.249-.088-.535 0-1.025.71-1.65 0-.223-.267-1.204-.49-1.516-.045-.802 1.155-1.382.267-2.14.045.713-1.2 1.784-.622 2.72-.711.357-.045.847.266.981-.267s.312-1.155 0-1.6c-.223-.31-.758-.355-.981.223 0 .044-.178.089-.223.044-.758-.533-1.561-.4-2.363-.177-.937.222-.758-.845-1.16-.978-1.159-.355-2.363-.355-3.567-.489-1.427-.177-2.72.622-4.102.711-2.542.178-4.994-.533-7.446-1.066-.09-.044-.223-.133-.268-.222-.357-.711-.847-.711-1.561-.489-.579.178-1.248-.222-1.828.4-.401.444-1.962-.089-2.274-.71.669 0 1.338.266 2.096.043-.981-1.244-1.962-1.377-2.586-.533-1.115-.266-1.472.933-2.23 1.289-1.025-.578-2.229-.4-3.344-.711-1.249-.356-2.452-.8-3.656-1.289-1.561-.666-2.23-.266-2.899 1.422-.133.356-1.783.933-1.962.667-.401-.667-1.025-.49-1.56-.578-.312-.044-.58 0-.625-.444-.089-.978-.535-.844-1.114-.356-1.249.978-2.854.311-4.192.8-.089.045-.267-.044-.356-.089-1.16-1.11-2.052-.089-2.988.356-.49.177-.268.31 0 .577.491.489 2.854 1.111 3.612.622.669-.4.892-.31 1.427.178.669.578.446.977.223 1.644-.268.844-.803.355-1.249.4-.357.044-.803-.133-1.115 0-2.006.755-4.102.71-6.153.489-.312-.045-.803.133-.892-.4.179-.49.892.177.981-.667-1.694-.266-3.077.844-4.726.978-.758.044-1.249.71-2.364.266-.802-.31-1.293-.31-1.293-1.244 0-.266.089-.666-.356-.622-.357 0-.803-.31-1.071.045-.178.266-.222.666.134.888.357.222.089.667.268.889.446.577.446 1.11-.045 1.732-.535.667-1.115.49-1.917.223 1.56-1.067-.089-2.222.312-3.288.045-.178-.312-.178-.535-.222-.268-.045-.669.089-.803-.178-.312-.622-.579-.178-.847 0-.446.222-.49.578-.267.933.133.222.49.311.089.667-.535.488-.535.888.312 1.066.579.133.312.577.267.933-.044.266 0 .666-.446.577-.624-.133-1.07.356-1.56.356-.535 0-.892.8-1.338.4-.936-.845-1.248.133-1.783.488-.179-.088-.313-.088-.402-.044-.713-.133-1.382-.222-2.14.222-1.382.755-2.007.356-2.542-1.11-.401.266-1.07.844-1.114.8-.803-.8-1.561.266-2.364-.045-.535-.222-.758.4-1.07.71.312.312.758.09.981.49-1.025.4-.446 1.51-.936 2.265-.535-.4-.892-.844-.803-1.51.134-.267.134-.49.134-.711.134-1.022-.134-1.289-1.159-1.51-.268-.223-.402-.712-.937-.623-.49.133-.312.489-.356.8-.313.133-.669.222-.937 0-1.07-1.066-1.783-.356-2.452.489h-.402c-.49-.178-1.159-.445-1.382-.045-.223.356-.401.844-.847 1.289.892.088 1.65-.445 2.319.222.178.178.401-.133.445-.444.758-.4 1.026.71 1.739.577.134.356.848-.089.758.578-.044.31-.222.577-.535.533-.847-.045-1.471.577-2.229.8-.803-.134-.268.888-.758.977a.338.338 0 0 0 -.178-.044c-.045-.134-.09-.223-.09-.356.045-.977 0-1.733-1.204-.755-.133.089-.401.044-.624 0-.58 0-1.382 0-1.694.178-1.16.622-1.07.71-1.383-.356-.758.755-1.649.311-2.452.267-1.159-.09-1.561.31-1.248 1.377a1.047 1.047 0 0 0 -.357.4c-.847.8-1.962.977-3.166.888-.134-1.021.401-1.421 1.338-1.377.267 0 .579.222.758-.222.133-.355.044-.666-.268-.889-.981-.71-2.096-1.155-3.299-1.244-.09 0-.313.045-.313.134-.713 1.688-2.14.844-2.943.533-1.203-.444-2.051-1.022-3.388-.222-.758.444-.803.577-.312 1.2.49.666 1.07.71 1.649.31.357-.266.625-.31.937 0-.892.844.401 1.155.49 1.822-.892.267-2.185-.667-2.497 1.066 0-1.2-.802-1.6-1.56-2.044-.669-.4-1.071-.533-1.115.4-.045.8-.446.933-1.07.756-1.338-.445-2.765.31-4.103-.356-.535-.222-1.114-.222-1.293.667-.044.266-.446.755-.981.71-.624 0-.446-.444-.49-.8-.045-.31-.312-.355-.58-.4-.312-.044-.446-.221-.401-.532.044-.267.134-.533.446-.489.446.044.713-.178.981-.444.446-.489.446-1.067.089-1.555-.268-.4-.714-.889-1.07-.49-.624.712-1.427.845-2.631.89.758.444 1.427.444 1.248 1.288-.178.889-.713.578-1.203.622-.491.044-.848.355-1.026.844-.357.933-.713 1.022-1.694.755.401-.4.802-.755 1.204-1.155-1.249-.222-1.249-.222-2.275.09-.312.088-.579.132-.802-.09-.535-.622-1.07-.488-1.739-.133-1.918.933-1.962.889-2.007-1.244.937-.533 1.784-.311 2.497.355.402-.266.179-1.2.758-.844.714.445 1.249-.089 1.829.045.401.088.758.177.802-.445.045-.666-.446-.577-.847-.622-.981-.222-2.051.49-2.988-.222-.223-.177-.535-.089-.847-.355-.758-.711-1.56 0-2.274.222-.624.178.312.489.179.844-.134.444-.045 1.022-.58 1.289-.446.266-.669.933-1.338.71-.089-.533.223-.933.357-1.377.089-.178.624-.222.223-.578-.312-.222-.491-.666-.981-.577-.446.089-.401.4-.357.666.134.534-.312.8-.535 1.111a.34.34 0 0 1 -.178.089c.044-.044.133-.044.178-.089-.178.045-.535.089-.446-.133.179-.4.714-.711.312-1.155-.312-.311-.847-.223-1.159-.134-.58.445.669.711.045.845-.446.088-.981.888-1.561.177-.045-.089-.089-.089-.134-.089 0-.133-.089-.355 0-.444.714-.755.624-1.2-.49-1.244-.491-.044-.981.089-1.293-.489-.045-.133-.491-.133-.669-.044-.089.044-.179.355-.179.533 0 .311.223.356.491.4.357.044.758-.089 1.025.267.09.222.223.444.223.71.223 1.689 0 1.866-1.649 1.6-.848-.133-1.294-.711-1.918-1.066-.357-.223-.802-.49-.981.133-.312 1.022-.936 1.244-1.873 1.022-.223-.045-.579-.09-.713.044-.981.933-1.159.133-1.293-.755-.223.178-.268.266-.401.31-.402.223-.625.845-1.249.578-.58-.222-.223-.71-.267-1.11-.09-.711-.714-.622-.892-.356-.312.445-.847.178-1.249.667.624.133 1.07.222 1.472.31-.223 1.156-1.516 1.334-1.828 2.355-.848-.577-1.606-1.332-2.765-1.2-.268.045-.535-.044-.58-.355-.133-1.066-1.07-1.11-1.783-1.377-1.65-.622-2.364 1.022-3.523 1.422.223.578.981.089.937.8-2.007.177-3.211-.578-3.612-2.222-.312.178-.491.622-.937.444-1.427-.488-1.605.4-1.605 1.467 0 .444-.044.933-.044 1.377-1.427.844-1.472.844-2.096-.755-.268-.622-.937-.356-1.472-.49-.535-.088-.847.4-1.07.667-.134.178.491.578.357 1.067-.223.71.267.8.803.888.713.09 1.471-.044 2.184.4-1.649.311-3.121 1.244-4.949 1.022-.803-.089-1.694 1.066-2.72.222-1.115 1.067-1.694.222-2.363-.622-.223-.31-.446-.844-1.026-.71-.624.133-.357.666-.49 1.021-.357 1.022-1.026 1.289-2.007.844-.669-.31-1.248-.977-2.096-.177-.267.222-1.203.044-1.516-.267-.624-.666-.936-.311-1.426.089-1.026.8-2.141 1.466-3.389 1.866-2.007-.533-3.969 1.377-5.975-.044-.089-.045-.312 0-.357.044-.803 1.155-2.007.533-3.077.755-.312-.31-.446-.8-1.159-.4-.758.4-1.694.711-2.452-.266-.268-.356-.536-.09-.892 0-1.695.488-3.434 1.288-5.217.8-.937-.223-1.561-.134-2.319.266-.535.267-1.204.133-1.739-.044-.446-.134-.134-.667-.178-1.022 0-.311-.134-.489-.402-.533-.133 0-.445.088-.445.088.044.445.624.89.178 1.289-.58.533-1.026-.622-1.249-.4-.579.71-1.07.755-1.828.311-.357-.222-.624.489-1.115.355-.758-.177-1.516-.044-2.318-.577-1.115-.755-1.293.578-1.784 1.2-.847.177-1.56.044-2.006-.8-.134-.222-.179-.4-.535-.178-1.115.711-2.453.4-3.345-.044-1.025-.534-1.382-.49-1.605.622-.58-.534 0-1.155-.446-1.644-.356.266-.758.444-1.248.4-1.293-.178-2.631-.223-3.835.266-.58.222-1.739 0-1.561 1.2.045.488 1.071.444.58 1.333-.312.533 1.026.488 1.115 1.2 0 .088 0 .133-.045.31-.624-.044-1.248-.044-1.873-.088-.312 0-.624 0-.579-.445.089-.8-.535-.71-.981-.755-.714-.045-.491.489-.58.844-.089.578-1.204.889-1.739.755-1.516-.488-.044-1.11-.134-1.688 0-.089.491-.222.223-.533-.178-.178-.579-.222-.669-.089-.178.355-.802.355-.713.755.178 1.466-1.516 1.111-1.917 2-.089.133-.268-.09-.357-.134-1.07-.355-2.229-.8-3.3-.444-.891.267-1.828.444-2.541.178-1.16-.444-2.319.044-3.434-.222-.981-.267-1.783.133-2.586.444-.401.178-.802.267-1.248.4-.848.222-1.873-.178-2.631.533.58.666 1.115 1.288 1.783 2 .134-.667.223-1.111.357-1.867.491 1.244 2.185.356 2.319 1.955-.714-.089-1.338.133-2.007.4-.758.311-1.694 1.6-2.408-.133-.133.089-.267.133-.401.222-1.65.755-3.478.489-5.217.8-1.427.266-2.943-.445-4.459-.356-.267 0-.58.045-.758-.31-.535-1.334-1.962-.845-2.675-.8-1.115.088-2.141.577-3.255.088-.625-.266-.937.667-1.606.4-.713-.31-1.293 0-1.783.489-.312.31-.312.444-.669 0-1.159-1.244-2.006-1.155-3.077.31-.267.4-.668.356-.936.045-.268-.355-.58-.577-.936-.355-.402.222-.313.755-.268 1.155.089.533.58.311.936.4.491.133 1.071-.044 1.739.355-1.025.445-1.917.667-2.675 1.244-.981-.177-2.051-.755-2.586.711 0 .045-.178 0-.223 0 0-.31-.089-.577-.491-.489-.847-.4-1.516-.222-2.095.49-.223.266-.089.888-.714.799.179-.4.491-.889-.178-1.066-.714-.178-1.472-.311-2.185-.09-.045 0-.045.267 0 .312.713.888-.178.888-.669 1.155-.713-.133-.49-.666-.49-1.066.044-.534-.446-.8-.669-.578-.714.622-1.784.089-2.363.933-.402.578-.669.355-.937-.133-.089-.178-.267-.444-.579-.356-.758.356-1.517.09-2.319.09-.178 0-.446-.045-.446.266 0 .266.268.266.446.355.134.356-.357.978.49 1.022.134.622-.802.444-.758.978-.535-.178-1.159-.711-1.516.266-.446.267-.847.578-1.427.045-.579-.534-1.382-.445-2.095-.045-.535.133-.714.8-1.293.8-1.16.044-2.274-.045-3.434-.222-2.898-.489-5.886-.933-8.739.266-.312.134-.179.311 0 .445.044.444.178.933-.491 1.022-.535 0-.357-.4-.446-.711-.178-.578-.936-.356-1.204-.8-.49.4-.089.666.09 1.022.178.355.267.844-.402.933-.624-.311-.579-.8-.535-1.378.045-.355.178-.844-.446-.844-.713.045-1.07-.355-1.427-.844-.446-.71-.847-.355-1.337 0-.535.4-.58.711-.045 1.2.223.222.892.622.223 1.155-.446.622-1.516-.311-1.828.71-.357-.044-.535.134-.535.49-.758-.534-1.472-1.333-2.542-.667-.847-.355-1.739.311-2.72-.178-.624-.31-.981.756-1.382 1.733-.134-.666-.624-.844-.624-1.066 0-1.067-.669-.755-1.07-.444-1.16.888-2.631-.045-3.88.666-.446.267-1.293.133-1.783-.444-.669.977-1.472.355-2.23.222-.223-.045-.446.044-.669.222-1.337.977-2.185.844-3.255-.355-.089-.09-.223-.134-.312-.178-1.427-.622-2.675.222-2.72 1.821-.178.311.09.756-.267 1.022-.223-.044-.402-.088-.535-.266-.223-.267-.134-.8-.625-.889-.58-.089-.133.8-.668.8-.313-.222.044-.8-.357-.8-.268 0-.67.356-.803.667-.312.71.58.666.892 1.066-.58.444-1.115.133-1.65.178-.446.044-.98-.134-1.07.533-.669-.045-1.338-.356-2.051-.222h-.49c-.447-.09-.982-.045-1.115-.711-.045-.222-.49-.711-.758-.444-.58.71-1.204.222-1.829.266-.356.044-.758-.267-.891.311-1.204-.222-2.007.489-2.765 1.288-.401-.31-.669-1.155-1.16-.844-.802.534-1.694.578-2.496.978-.58.31-1.115.355-1.516 0-.758-.622-1.383-.267-2.051.089-.179.089-.402.533-.58.266-.669-.977-1.16-.089-1.605.178-.714.444-1.427-.4-2.096.089.09-.978-.847-.711-1.204-1.066-1.516-1.378-2.542.933-3.835.4 0 0-.089.088-.044.088.624.755-.58 1.2-.357 1.866-.535-.355-1.07-1.11-1.739-.133-.758.044-1.56.755-2.319-.222-.223-.267-1.07.489-.98.888.178.622.044.711-.803.534.134-.8-.535-.578-.892-.711-.401-.134-.58.089-.624.533-.045.622-.535.533-.847.4-1.115-.533-1.338.133-1.472.977-.669-.71-1.516-.755-2.452-.8-.714-.044-1.249.845-1.784.4-1.026-.844-2.007-.222-2.987-.133-.446-.222-.937-.4-1.026.311-.045.489-.312.889-.714.933-.535.044-.223-.489-.356-.755-.134-.267-.401-.222-.67-.222-.222 0-.4.177-.267.31.67.845-.356 1.2-.535 1.778-.892-.444-1.873-.222-2.809-.222-.223-.045-.446-.045-.49.222-.981-.4-1.962.977-2.943 0-.446.755-1.472 0-1.962.71-.803.178-1.74-.177-2.453.49-1.382-.178-2.408.533-3.433 1.243-.803-.622-3.389-.31-4.236.534-.49.088-1.026-.134-1.427.266-.892.978-2.096 1.244-3.344 1.466-.045-.133-.09-.4-.223-.4-1.16-.266-2.319.045-3.433.045-.892 0-1.561.666-2.542.577-.714-.044-1.873-.044-2.497.8.045.045.045.09.045.134 0-.045-.045-.09-.045-.134l-2.943.4c-.045 0-.09.222-.134.311-.49.089-.713.711-1.337.489-.759-.267-1.115.222-1.383.844h-.044c-1.115-.044-2.23.133-3.345.178-1.07.044-.713.488-.49 1.022-.713.533-.936 1.421-1.56 2.043-.402.4.088.533.445.533 1.07.09 2.185.311 3.255.223 1.204-.09 2.497-.223 3.567-.667.803-.355 1.472-.577 2.364-.355.668.177 1.471.266 2.05-.222.58-.49 1.205-.49 1.874-.534h1.248c.847.09 1.65-.4 2.542-.222.089.4.312.311.624.311 2.007.134 3.79-1.11 5.752-.888.803.222 1.784.577 2.363-.178.446-.578.892-.489 1.383-.578 1.382-.088 2.72-.177 4.102-.266.312.089.713.133.892.31.668.8 1.025.49 1.426-.266.09-.133.313-.222.49-.31.313.133.67.088.982.4.624.532 1.427.754 2.051-.09.178 0 .312-.044.49-.044.892.355 1.115-1.11 2.007-.755-.045 0-.09-.045-.134-.09.045 0 .09.045.134.09.446.088.624.8 1.248.444.357 0 .759.222.937-.267.134-.355.044-.666-.401-.71 0-.134 0-.312.044-.445.67-.089 1.293-.178 1.962-.266.714-.09 1.204.133 1.293.933-1.248 0-1.114 1.377-2.006 1.866 2.72.666 3.344.533 4.191-.933-.535-.578-1.783.488-2.006-.845.267-.488.535-.222.802 0 .134.223.357.223.535.178.758.311 1.249-.71 2.007-.444.847-.711 2.185-.711 2.809-1.777.09 0 .134.044.223 0 .134.622.535.4.98.355.625-.044 1.383-.533 1.83.356-1.25.4-2.23 1.555-3.702 1.288-.669-.089-.803.444-1.16.889.893.177 1.695.31 2.632-.223-.981.933-.446.978.312 1.067.624.089 1.025-.267 1.56-.311.134 0 .313.666.58.133.178-.355.09-.755-.49-.8-.179 0-.446-.044-.402-.4.49-.088 1.16-.444 1.472-.266.49.31.758.489 1.248 0 .312-.311.847-.178 1.204-.045.49.178.134.667.178.978 0 .355-.267.755.357 1.155-.044-1.155.67-2 .803-3.021.134 0 .312 0 .446.044.089.222.223.622.446.356.4-.489 1.114-.667 1.382-1.333.267-.711.624-.711 1.115-.045.178.267.312.534.4.845.313.977.937 1.155 2.052.577-.936-.266-1.605-.71-1.516-1.733-.134-.977.49-1.155 1.293-1.022.134.045.312.09.446.134 0 .8-.936.133-1.115.666 1.204 1.289 2.14 1.289 3.21 0 .18 0 .313-.044.491-.044.357.044.714.089 1.07.177.223.045.446 0 .446-.222.045-.31-.223-.4-.49-.4 0-.133-.045-.31-.045-.444.312-.489.937-.844 1.07-.178.179.89.892.89 1.383 1.289-.134-.489 0-.933.178-1.333.624.044 1.16-.178 1.694-.444.535.133.892.844 1.561.4.045.488 0 .755-.669.755-.401 0-1.115.444-.847.888.312.623-.09 2.533 1.739 1.245.09-.045.223 0 .357.044 1.516.222 3.076-.044 4.592.355.313.09.625.134.892-.222.268-.355.624-.222.981.045-.178.533-.892.577-1.025 1.155 1.471.844 1.516-.311 1.65-1.244.4.222.534.577 1.114.222.714-.4 1.74-1.066 2.765 0 .58.578 1.293 0 1.337-.844.045-.889-.936-.356-1.159-1.022-.267-.71-.98-1.066-1.694-.222-.268-.4-.09-.756-.134-1.067.357-.044.624-.177.178-.488-.044-.978.223-1.422 1.16-.622.178.177.446.222.624.355.98.933.758 0 .802-.489.803-.088.758.978 1.427 1.067.313.444-.936.71-.178 1.066.446.222 1.16-.044 1.56-.4.58-.444-.49-.533-.311-.977.044 0 .089-.045.133-.09.49-.132 1.695.49.937-.932.446-.755 1.337-.622 2.006-.755.758-.134 1.56.977 1.115 1.555-.669.8-.045 1.288.09 1.954.49-.222.177-.8.668-.933.312.356.624.711 1.07 1.244.045-.71.847-1.288.624-1.466-.535-.533-.178-1.11-.312-1.644.624-.4.446.711.981.534 0 .622-.134 1.332.09 1.866.222.488.089.577-.224.844-.58.577-1.114 1.333-1.917.222-.09-.133-.49-.222-.758.133.669.578 1.026 1.6 2.319.978.312-.178.936-.134 1.204.177.624.845 1.337.311 2.051.534-.045-.534-.312-.49-.491-.534-.535-.177-.936-.577-.847-1.155.134-.71.758-.266 1.159-.355.313-.045.848.178.937-.178.312-1.555 1.427-1.155 2.408-1.11 1.07.044 1.605-.534 1.337-1.422-.044-.134-.401-.223-.223-.445.134-.177.402-.133.58 0 1.249.933 3.077.4 4.147 1.777.312.4.713-.044 1.025-.355.179-.133.58-.222.179-.489-.58-.444-.134-1.022-.268-1.51.491-.045.981-.045 1.472-.09.535.045.49.445.535.8-.312.267-.58.534-.892.8-.713.667.357 1.155.178 1.822-.044.133.179.355.312.222.937-.8.58.133.625.444.044.49-.134.889.669.445.267-.134 1.426-.045 1.783.177 1.026.711 1.115.223 1.204-.577.089-.889.178-1.822 1.293-.578.089.133.491.178.58.09 1.159-.845 1.516-.09 1.828.843.178.622.758.356 1.159.445.357.044.402-.4.313-.534-.803-1.066.356-1.288.802-1.688.401-.355 1.293-.4 1.427.089.49 1.866 1.159.444 1.65.133.535-.355.981-.888 1.65-.577 1.248.577 2.586 0 3.834.31.446.09 1.026-.133 1.338.445-.045 0-.045.044-.089.089-.312.222-1.159-.4-.892.533.045.222.268.755.669.578.446-.178.223-.667.267-.978.223 0 .491.133.625.044.669-.577 1.159-.355 1.872.134.313.222.625.8 1.204.666.981-.266 2.007-.089 2.899-.355.446-.134 2.586.4 1.427-1.555-.09-.178.401-.756.891-.578 1.16.444 1.472.311 1.784-.977.045-.178.089-.445.134-.445 1.471-.088.669-.977.579-1.644.535-.088.491.667.981.622-.535 1.778-1.159 3.377-3.388 3.644.713.31 1.382 1.2 2.095.044.045-.044.268-.089.312-.044.402.71 1.249.266 1.65.622.535.489 1.382-.134 1.695.489.446.933.981.266 1.471.177.58-.089 1.07-.4 1.07-1.066 0-1.066 1.07-1.777 1.561-1.688.936.177 2.408-.889 2.898 1.021.134.534-.044 1.2.491 1.733.356-.4.312-.888.356-1.333.09-1.288.491-1.51 1.606-.844.089.045.223.222.267.222 1.293-.8 2.631-.044 3.924-.133 1.338-.133 1.739-.622 1.427-1.866.401.311 2.72.844 3.166.666.356-.177.713-.355.847-.8.134-.488-.134-.666-.58-.71-.312-.045-.312-.311-.356-.578-.045-.533-.313-.888-.848-1.11v-.49c1.739-.31 2.72 1.645 4.459 1.511 0 0 .045.222.09.356.267 1.777.535 1.955 2.407 1.6-.356-.623-.312-1.6-1.114-1.867-.535-.178-.937-.355-.625-.888.268-.445 1.204-.223 1.249-.134.312 1.6 1.471.222 2.096.622.267.178.802-.044.981.134.579.666.981.177 1.382-.134.58-.488.981-.444 1.07.4.045.222.089.356.268.489.579.4.713 1.377 1.961.844.536-.222 2.052.045 2.275-.355.891-1.467 3.032-.356 3.701-1.955 0-.045.222-.045.356 0 .624.089 1.16 0 1.739-.222.624-.223 1.249-.8 2.051-.534 1.695.178 1.962 1.778 2.631 2.888.312.534.58.534.981.622.58.09.535-.355.624-.71.09-.4-.044-.889.491-1.6.134 1.555.981 2.488 1.427 3.643.178.445.356.533.713.445.491-.134.401-.622.223-.8-.58-.578.178-1.866-1.159-1.955-.045 0-.045-.311-.045-.489.045-.31 0-.977.268-.8.624.311.758-.666 1.427-.222.936.622 2.318.8 3.255.445 1.828-.711 3.656-.8 5.484-.445 1.115.178 1.828-.222 2.586-.933 1.026-.933 1.873-.71 2.185.578.223 1.022.803 1.333 1.739 1.377.58 0 1.249-.089 1.65.756.312-1.333 1.07-1.6 2.185-1.556.892.045 1.694.756 2.319.667 1.025-.133 2.185-.666 2.675-1.866.803.133 1.561.578 2.007 1.155.758 1.022 2.095.844 2.72.711.847-.178 1.649-.044 2.452-.133 1.204-.134 1.65.355 1.516 1.51 0 .045.134.09.223.178.312-.267.58-.533.892-.8.847-.755.758-1.644-.134-2.31-.58-.444-.134-.977-.134-1.466 0-.445.223-.578.624-.533.491.044.892 0 .937.71.044.756.624.667.936.267.937-1.11 1.739-.8 2.631 0 .58.71 1.427.71 1.962-.044.178-.267.267-.578.089-.8s-.624-.311-.802-.089c-.402.622-.981.222-1.472.355-.089-.666-.847-.577-1.471-1.155 1.159.134 1.917 0 2.274-.933.089-.178.312-.4.401-.4 1.115.223 2.363-.666 3.344.445-.223.4-.535.177-.802.177-.313 0-.758-.177-.714.356 0 .4-.357.977.357 1.155.357.089.49.4.758.533.49.222.446 1.422 1.427.889.624-.356 1.337.178 1.962-.178.089-.044.089-.222.133-.355.357-.09.714.177 1.026-.223.936-1.155 2.051-.177 2.497.267.981.933 1.293.71 1.739-.311.268-.578.936-.311 1.338-.133.312.133.312.622-.089.888-.625.4-.357.978-.223 1.51.446-.71 1.783-.977 1.025-2.265-.089-.133 0-.444.134-.578.535-.577 1.828-.355 2.408.4-.179.445-.892-.089-.981.578.936.178 1.605.844 2.586.889.535.044 1.026.977 1.694.088.09.045.179.134.268.178.892.71 1.784.622 2.542-.133.49-.489 1.07-.533 1.426-.222.848.666 1.784.177 2.275-.134.758-.488 1.114-1.777 2.318-.622.045.045.223.045.223 0 .401-.755 1.204-.266 1.784-.488.044-.445-.312-.578-.491-.845-.535-.8-.356-1.999.491-2.043 1.293-.045 2.631-1.155 3.968.133-.49-.755-.446-1.066.446-.977.357.044.669.088.847.444.58 1.288 2.007.444 2.943 1.155-.981.622-.669.889.268.844.802 0 1.516.133 2.185.667.356.31.802.666 1.516.177.312-.177.758-.666 1.427-.488 1.337.4 2.452-.223 3.522-.933 1.561-1.067 2.23-.845 3.255.844.312.488.669 1.11 1.516.355.937-.844 2.542.222 3.567-.888.045-.045.223 0 .223.044.491.666.937.355 1.338-.089.312-.355.357-.089.624.045 1.115.577 2.542 0 3.567.977.045.044.223.044.223 0 .536-.755 1.294-.311 1.962-.311 1.249 0 2.274.977 3.701.4 1.249-.489 1.695-.8 1.16-2.133-.223-.533.401-1.6.758-1.377.891.71 1.516-.044 2.006-.4.624-.489 1.026-.31 1.338.178.223.355.401.489.803.444.535-.044.356-.489.356-.8.357-.31.892-.222.981.045.179.533.223 1.155-.401 1.51-.223 0-.401.622-.669.09-.178-.312-.535-.49-.713-.312-.892.755-1.873.311-2.81.267-.847-.045-.847.444-.535.933.58.977 1.472.888 2.364.577.178-.044.446-.31.446-.088-.045 1.288.758.4 1.203.488.402.09.758 0 1.071.445.178.266.356.844.936.622.803.044 1.427.755 2.14.71 1.516-.044 3.166.134 4.415-1.155.579-.577 1.114-.533 1.917-.044.713.444 1.249.977 1.784 1.555.223.267.535.622.802.4.937-.844 1.918-.222 2.854-.222.847 0 1.427-.134 1.784-.978.223-.533 1.203-.533 1.739-.444.713.089 1.159 1.288 1.917.533.713-.71 1.471-.71 2.274-.578.936.134 2.096-.488 2.72-.177 1.204.622 2.408.444 3.567.666.892.178.892-.4.981-1.022.089-.444-.624-.488-.312-.977.312-.045.669-.178.892.222.267.489.802.533 1.07.4 1.248-.711 2.452-.489 3.745-.222 1.427.31 2.943-.045 4.37.31.179.045.446.045.625 0 1.382-.4 2.809-.621 4.236-.577 1.56.045 3.076-.266 4.592-.578.714-.133 1.561-.932 2.408-.222 1.204 1.022 1.917.933 3.166-.444-.713.089-.981-.71-1.516-.71-1.516.044-.892-.845-.758-1.867.401.933 1.115.889 1.605 1.289.981.755 1.917.177 1.962-.933 0-.09.089-.222.178-.267.313-.311.714-.8 1.16-.4.624.533-.179.889-.357 1.289.535.355.936.177 1.249-.222.847-.978 1.917-1.022 3.076-.845 1.382.223 2.765.4 4.058-.355-.178-.667-.758-.978-1.427-1.11.312-.312.49-.578.713-.756.446-.356.892-.711 1.561-.489.714.267.312.755.401 1.155.134.8.58.489.981.311.714-.355 1.427-.666 1.561.578.045.266.223.444.401.178.223-.445 1.561-.045.803-1.244-.312-.445.535-1.022.758-1.022.713 0 1.115-.711 1.739-.578-.089-1.155-1.159-.844-1.873-1.333.58-.178 1.293-.133 1.204-.977 0-.178.223-.222.401-.222 1.829.266 3.3-.933 5.039-1.111.401-.045.713-.756 1.07-.4.669.71 1.427.222 1.739-.044.981-.756 2.274.355 3.166-.623.312.267.669.49.713.934.045.266.045.666-.401.622-1.025-.134-2.051.266-2.987.222-1.606-.09-3.032.355-4.548.71-.491.134-.714.356-.58.756.134.444.535.489.936.222.624-.444 1.115-.355 1.784.089.624.4 1.516.666 2.274-.089.401-.4.847-.889 1.471-.044.179.266.892.4 1.383.044.624-.489 1.337-.267 2.006-.044 1.338.4 2.809 0 4.058.71.044 0 .134-.088.178-.133.803-.31 2.007-.222 1.828-1.644 0-.089.312-.222.491-.355.357-.267.624-.578.58-1.11 0-.356-.179-.845.445-1.112.09.711 1.516.845.625 1.91-.134.179.267.223.446.267 1.248.356 1.739-.222 1.739-1.421 1.07.444 1.605 1.066 1.337 2.266-.178.888.58 1.421 1.338.888.803-.533 1.427-.133 2.408-.044-.58.488-.981.8-1.338 1.11.803.8 1.204-.488 1.873-.177.178.089.624.266.758-.178.089-.267.089-.533-.178-.8a9.976 9.976 0 0 1 -1.115-1.288c-.179-.222-.268-.444-.535-.133-.535.577-1.115.088-1.65.133-.223 0-.847-1.333-.758-1.466.401-.445 2.006-.578 2.497-.09.312.267.669.356.892.179.713-.667 2.006-.134 2.586-1.2.089-.133.847-.133 1.07.089.936.888 2.096.489 3.166.71.312.045.624.045.758-.444.178-.8.669-.666 1.07-.222.446.533 1.115.533 1.427.222.312-.31.401-.933-.089-1.466-.446-.489-.134-1.155 0-1.688.134-.622.713-.222 1.07-.267.312-.044.446-.133.49-.444.402 0 .803-.178 1.115.355.179.312.624.49.981-.088.892-1.467 3.166-1.422 4.192.044-.402.178-.848.089-1.249 0-.446-.089-.892-.133-.892.489-.044.71.758.666.892.533.936-.711 1.694.089 2.542.178 1.114.088 1.649.755 2.229 1.732-.892-.266-1.293.533-2.096.445-1.605-.178-2.63-1.289-3.923-2-.357-.222-.669-.755-1.115-.4-.491.445-.089 1.022.312 1.2.936.4 1.204 1.2 1.338 2.044.044.222.133.4.356.4 2.141.355 4.236.4 6.243-.533.223-.09.223-.312.089-.4-.847-.534.089-.667.223-.845.357-.355.803-.622.446-1.332-.401.533-.981.533-1.516.4-.491-.134-.357-.756-.312-.756.802-.044.892-1.022 1.56-1.2 1.918-.444 3.835-.621 5.752-.621.402 0 1.115.444 1.16-.445.044-.755-.625-.488-1.026-.577-.669-.09-1.516-1.111-1.427-1.689.045-.222.134-.444.357-.4 1.07.223 1.828-.177 2.72-.8.312-.221.936-.666 1.561-.444 1.204.4 2.318-.622 3.478-.222.089.045.223 0 .223-.044.267-1.066 1.516-1.377 1.872-2.222.491-1.244.803-.666 1.293-.133.536.622 4.326 1.2 4.95.755.223-.177.49-.355.58-.577.267-.933.847-1.289 1.739-1.067.312.045.49-.133.49-.4 0-.577.401-.488.803-.532 2.408-.178 2.541-.356 2.586-2.8v-1.998c-.401-3.021-.401-3.021-3.344-3.199zm-288.941 28.257c.089 0 .178-.044.267-.044-.089.044-.178.044-.267.044zm-17.792-.488c0 .089-.044.133-.044.177 0-.044 0-.088-.045-.177zm-82.892 11.596c.09-.045.178-.089.268-.178-.045.133-.134.178-.268.178zm2.23-3.244.089-.088v.044c-.045 0-.045 0-.09.044zm-18.817 1.022v-.044.044s0-.044 0 0zm-28.36 5.465s0 .045 0 0c0 .045 0 .045 0 0zm270.17-39.986c-.134 0-.268-.045-.402-.045.134 0 .268 0 .402.044zm115.665-7.51h-.089zm-42.851 10.486c-.044 0-.044 0 0 0-.044 0 0 0 0 0zm57.075 9.242a.404.404 0 0 1 .179.355c-.045-.089-.09-.222-.179-.355z"/><path d="m22.072 68.867c-.803 1.067-1.249-.133-1.873-.266a4.136 4.136 0 0 0 -1.293-.178c-.981.044-1.828.533-2.81.4-.713-.089-1.248.044-1.159.977-.624-.133-.267-.933-.847-.8-.58.09-.936.534-1.204.978-.267.356.045.755.357.933.669.356 1.293 0 1.694-.444.848-.889 2.32-1.11 2.943-.711 1.472.933 2.72.044 4.058.089.401 0 .401-.356.401-.667.045-.222-.178-.4-.267-.31zm222.012-12.751c-1.026.222-1.605 1.51-2.899 1.155-.49-.133-.49.533-.401.711.178.311.312 1.022.892.666.357-.222.713-.177 1.204-.222.624.578 1.025-.488 1.694-.355.312.089.847.311.847-.311.045-.533.402-1.155 0-1.555-.267-.311-.802-.178-1.337-.089zm-52.839 1.422c-.847-.09-.535-.8-.803-1.155-1.382.088-.668 2.088-2.095 2.088 0 .044 0 .089.044.133.848.8-.223.889-.535 1.155-.267.267-.267.489-.223.756 0 .222.223.222.357.266.669.133 2.23-.8 2.319-1.422.089-.533.044-.933.802-.977.491 0 .58-.8.134-.844zm-67.955 7.242c-.668.31-1.471.31-1.917-.267-.802-1.11-1.204-1.288-1.962-.489-.044.045-.089.045-.134.045-1.204.178-.668.933-.49 1.6.312-.8.535-1.422 1.471-.534.268.267.758.445 1.115.622.847.445 1.695.311 2.363-.444.179-.178.179-.489 0-.71-.133-.179-.267.088-.446.177zm253.671-53.36c.58-.533.847-.311 1.427.089 1.025.71 1.917.266 2.051-.711.089-.933-.892-.533-1.115-1.067-.178-.4-.446.178-.579.311-.491.4-.937.578-1.561.445-.446-.09-.892-.09-1.561-.134.714 1.111 1.026 1.378 1.338 1.067zm-105.767 42.519c-.668-.089-1.114.355-1.337.844-.312.711.624.533.713.755.312.89.981-.088 1.159.223.58.977.669-.445 1.071-.178.133-.355.133-.622-.134-1.022-.357-.578-.892-.533-1.472-.622zm64.655-34.299c.357-.267.803-.845 1.115-.4.714.932.847-.178 1.249-.223-.669-.31-1.472-.666-1.695-.888-.312-.356-.624-.8-1.204-.534-.624.312-.802.934-.758 1.556.089.666.758.933 1.293.488zm-308.872 48.472c-.535.578-1.249.4-2.007.533 1.293 1.689 1.65 1.733 2.81.711.534-.444.579-1.022.311-1.422-.312-.533-.847-.177-1.114.178zm369.247-60.469c.624-.4.847-.355 1.293.178.267.355.936.311 1.248.089.223-.133.179-.711.179-1.067-.045-.577-.58-.31-.892-.4-.936-.266-1.695.623-2.72.49.401.177.446 1.021.892.71zm-284.036 36.566c.535.4 1.248.577 2.006.222.268-.133.357-.311.357-.533 0-.311-.134-.489-.446-.489-1.026-.044-2.051-.133-3.077-.178.312.578.758.711 1.16.978zm14.001 19.105c1.114 1.2 2.318 1.2 3.745.222-1.382-.4-2.586-.267-3.745-.222zm228.031-47.94c.535 0 1.07 0 1.293.844.491-.622.357-1.11.446-1.555.045-.222.134-.533-.134-.666-.312-.178-.401.31-.579.266-.357-.044-.401.845-.847.311-.268-.31-.446-.355-.58.09-.089.31-.134.71.401.71zm-236.325 29.456c.401-.044.936-.132.758-.31-.49-.4 0-1.466-.981-1.377-.446.044-1.025.444-.936.755.178.489.535 1.066 1.159.933zm61.534-10.884c.267.177.357.888.758.577.58-.4 1.516-.178 1.783-1.11-.668-.711-1.203.444-1.872.044-.223-.133-.268-.622-.669-.311-.223.267-.268.622 0 .8zm32.506-4.044c.089.134.579.134.668-.088.134-.356.134-.711.134-1.111 0-.355-.446-.4-.579-.311-.58.533-1.383.222-2.319.578.936.444 1.65.31 2.096.933zm-116.915 17.639c-.847-1.155-.891-1.2-1.917-.666-.713.355-.312.977-.312 1.732.713-.577 1.249-1.155 2.23-1.066zm296.477-37.498c.491 0 1.07.177 1.026-.578-.089-.844-.803-.4-1.204-.489-.357-.089-.937-.222-.937.444.045.889.758.49 1.115.623zm57.699 25.591c-.312.533-.847.267-1.248.489.356 1.11 1.07.577 1.65.488.312-.044.713.311.847-.133.044-.178-.223-.489-.402-.71-.178-.312-.713-.356-.847-.134zm-199.984-8.93c.312-.045.401-.223.446-.49.044-.266 0-.532-.357-.532-.58 0-1.115-.311-1.695 0 .268.844.848 1.11 1.606 1.022zm195.659 9.952c.936.577 1.65-.311 2.631-.311-.892-1.2-1.65-1.022-2.631.31zm-50.208-27.902c.178.044.58-.133.446-.222-.491-.4.045-1.378-1.07-1.51-.223-.045-.446.266-.402.621.134.578.402 1.022 1.026 1.111zm-233.516 29.279c.268.489.669.489 1.026.178.178-.178.668-.222.49-.578-.178-.4-.669-.222-1.025-.266-.268-.045-.58 0-.848 0-.133.444.268.444.357.666zm71.477-11.152c.312-.488.937-.266 1.293-.888-.535-.045-1.025-.09-1.56-.134-.268 0-.535.045-.535.356 0 .178 0 .489.133.578.179.133.625.177.669.088zm185.315 17.55c-.491-.044-.847.355-.936.666-.179.49.401.356.624.445.401.044.802.089.847-.445.045-.444-.089-.666-.535-.666zm-173.231-17.594c.357-.089.357-.533.223-.711-.357-.622-.936-.356-1.739-.311.58.489.669 1.244 1.516 1.022zm-205.87 40.386c-.402.311-1.249.623-.981 1.111.267.578.802-.089 1.204-.266.178-.09.4-.045.624-.045-.49-.177-.178-1.288-.847-.8zm350.341-20.348c-.402-.09-.892-.311-1.294.089.09.577.759.222.937.622s.535.31.847.222c.089 0 .178-.222.134-.267-.179-.222-.357-.622-.624-.666zm-331.391 19.149c.58 1.022.58 1.022 2.007.133-.714-.177-1.338-.177-2.007-.133zm248.855-9.597c-.312.089-.357.444-.267.622.356.711.936.355 1.516.267-.402-.356-.491-1.111-1.249-.889zm-244.263 9.33c-.4-.044-.49.222-.534.533-.045.4.223.49.535.534.446.044.624-.222.624-.622s-.312-.4-.624-.445zm109.379-5.242c-.446 0-.401.31-.446.622-.044.4.268.488.58.488.401.045.491-.222.491-.533.044-.444-.223-.577-.625-.577zm-146.031 7.019c0-.488-.357-.622-.713-.71-.268-.09-.535.044-.446.4.09.355.401.621.758.755.267.133.401-.133.401-.445zm-25.728-.666c.669.311 1.293.178 2.007.133-.536-.888-.536-.888-2.007-.133zm95.466-3.554c-.356.266-.936.355-.936.977 0 .178 0 .4.312.489.223-.356.803-.445.847-1.022 0-.222-.089-.578-.223-.444zm185.181-7.776c-.089.09-.312.134-.446.178.09 1.6.848-.222 1.204.222.089.134.58-.133.402-.4-.312-.4-.758-.488-1.16 0zm-92.702-20.348c.045 0 .09-.134.179-.267-.624-.31-1.249-.222-1.918-.222-.044 0-.133.267-.089.311.58.4 1.204.222 1.828.178zm85.613-11.952c.222.311.758-.222.49-.578-.401-.488-.936-.31-1.516-.177.178.577.758.355 1.026.755zm154.369-18.483c.178-.089.624.134.624-.266 0-.533-.535-.4-.892-.445-.267-.044-.713-.044-.668.356.044.4.535.31.936.355zm22.652 28.746c-.357.045-.402.267-.402.534 0 .4.179.622.58.622.267 0 .58-.045.49-.356-.133-.31-.312-.666-.668-.8zm-356.985 28.524c-.446-.044-.402.311-.446.578-.045.444.267.444.535.444.401.045.49-.222.49-.844.045-.089-.267-.133-.58-.178zm58.769.355c.49.09.223.978.936.667.223-.089.535-.489.491-.533-.357-.533-.847-.311-1.427-.133zm124.316-39.364c-.491-.844-.937-1.11-1.605-.089.579.267 1.07.311 1.605.089zm-37.277 4.932c.178 0 .49.044.58-.09.222-.31-.179-.355-.313-.532-.178-.267.179-.667-.356-.889-.357.311-.179.666-.223.977-.045.223-.045.534.312.534zm30.098-2.8c.267-.044.312-.444.223-.622-.178-.577-.624-.355-1.07-.133.446.09.267.844.847.755zm-42.717 2.755c.268-.133.49-.4.713-.622-.044-.31-.267-.31-.49-.355-.446-.045-.58.222-.58.622.045.222.089.489.357.355zm49.004-2.799c.089 0 .223-.489.178-.666-.223-.578-.624-.311-1.07-.09.446.09.312.845.892.756zm176.62-15.328c.446 0 .356-.356.401-.622.045-.222 0-.4-.401-.356 0 .4-.625.267-.58.711 0 .311.312.267.58.267zm-179.385 44.207c1.16.223 1.16.223.803-1.021-.089.577-.49.622-.803 1.021zm-147.903 9.02c-.402-.045-.669.044-.625.488 0 .178-.044.4.312.49.223-.179.491-.356.625-.623.133-.222-.134-.31-.312-.355zm262.41-17.595c-.268-.31-.535-.577-.803-.888-.312 1.11-.312 1.11.803.888zm-345.481 20.66c.446.178.936.356 1.472.09-.625-.49-.625-.49-1.472-.09zm168.192-9.152c-.535.133-.312.577-.223 1.2.357-.49.892-.534.847-.978 0-.311-.401-.267-.624-.222zm172.428-46.296c-.713-.355-1.203-.355-1.917-.089.669.356 1.159.356 1.917.089zm-103.893 44.74c.401.49.936.312 1.426.356-.267-1.11-.936-.31-1.426-.355zm-187.857 7.465c-.223-.044-.446 0-.49.267-.045.266.133.355.356.4.223 0 .491.088.625-.223.044-.4-.223-.4-.49-.444zm85.523-4.443c-.267.178-.669.311-.758.666-.044.134.089.311.357.311.223-.222.49-.444.669-.71.089-.134-.045-.4-.268-.267zm-147.814.044c.223 0 .4-.089.4-.355-.133-.267-.356-.311-.623-.311-.223 0-.446.089-.357.355.044.356.357.356.58.311zm166.72 1.911c-.223-.045-.401.089-.312.355.089.311.401.222.624.222.179 0 .268-.133.313-.31-.134-.267-.402-.223-.625-.267z"/></g><g fill="#cf4229"><path d="m57.337 76.741h7.77v-33.85h45.45v-7.45h-45.45v-12.35h45.45v-7.45h-53.22zm70.02-61.1h-7.77v61.1h70.93v-7.44h-63.16zm85.92-.63a12.49 12.49 0 0 0 -9.18 3.47c-4 4.06-4.62 7.95-4.62 27.71s.64 23.65 4.6 27.7a12.506 12.506 0 0 0 9.2 3.49c6.27 0 13-4.34 13-13.88v-21h-15.29v7.45h7.54v13.43c0 4.13-2 6.59-5.24 6.59a4.886 4.886 0 0 1 -3.63-1.23c-1.95-2.14-2.41-4.48-2.41-22.51s.46-20.36 2.39-22.48a4.893 4.893 0 0 1 3.65-1.26c1.57 0 5.24 0 5.24 7.71v2.3h7.77v-2.3c0-5-1.28-8.87-3.85-11.62a12.458 12.458 0 0 0 -9.17-3.57zm74.99 25.37c2-2 3.06-4.87 3.06-8.65 0-16-8.26-16-13.72-16h-42.76v61.02h7.77v-33.14h29.73l14.26 33.14h7.76l-14.7-33.55c2.8-.03 6.13-.48 8.6-2.82zm-4.7-9.31c0 4.44-.86 5.22-5.73 5.22h-35.22v-13.2h35.22c4.07 0 5.73.29 5.73 7.93zm36-15.43h-3.22l-13.13 61.11h7.77l3.34-17h9.41l3.41 17h7.76l-12.92-61.11zm-3.74 36.67 3.16-16.09 3.22 16.09zm70.19 14.43-34.88-35.34h-7.41v45.34h7.76v-33.9l33.37 33.9h8.59l.27-45.34h-7.77z"/><path d="m343.727 15.641v7.45h58.8v53.65h7.77v-53.65h31.73v-7.45zm-161.19 45.36h7.75l-22.44-45.36h-7.75v.06h-1.11l-22.46 45.3h7.87l5.73-11.56h26.69zm-29.15-18.14 10.09-20.38 10.09 20.38z"/></g></svg>