<svg width="173" height="147" viewBox="0 0 173 147" fill="none" xmlns="http://www.w3.org/2000/svg">
<path d="M39.3745 47.9839L39.3746 1.18278C39.3746 0.58307 39.8577 0.0969081 40.4537 0.0969082C66.1413 0.0969116 86.9652 21.0505 86.9652 46.898V47.9839L39.3745 47.9839Z" fill="#FFDD19"/>
<path d="M86.965 47.7669V46.9256C86.965 21.0622 107.802 0.0957043 133.505 0.0957031C134.085 0.0957031 134.556 0.568986 134.556 1.15281V41.5276C134.556 44.9735 131.78 47.7669 128.355 47.7669H86.965Z" fill="#B0A6F3"/>
<path d="M39.3745 47.7669H86.965L86.9652 72.0203C86.9652 84.9536 76.5456 95.4382 63.6922 95.4382C50.262 95.4382 39.3745 84.483 39.3745 70.9691V47.7669Z" fill="#2E0880"/>
<path d="M111.097 47.7669C124.055 47.7669 134.56 58.3374 134.56 71.3767C134.56 84.6655 123.854 95.4382 110.648 95.4382L88.4538 95.4382C87.6342 95.4382 86.9697 94.7696 86.9697 93.9448V47.7669H111.097Z" fill="#449C7C"/>
<path d="M56.7366 47.9839L56.7366 24.0404C69.8784 24.0404 80.5319 34.7603 80.5319 47.9839L56.7366 47.9839Z" fill="#449C7C"/>
<path d="M93.3934 47.7669C93.3934 34.6625 104.165 24.0392 117.189 24.0392V47.7669H93.3934Z" fill="#2E0880"/>
<path d="M56.7366 47.7669H80.5319V59.7858C80.5319 66.2524 75.3221 71.4947 68.8954 71.4947C62.1803 71.4947 56.7366 66.0171 56.7366 59.2602V47.7669Z" fill="#FFF099"/>
<path d="M105.51 47.7669C111.96 47.7669 117.189 53.0282 117.189 59.5184C117.189 66.1327 111.86 71.4947 105.286 71.4947H93.3934L93.3934 47.7669H105.51Z" fill="#BFE444"/>
<path d="M87.1007 7.21369C90.3565 7.21369 93.0495 9.86951 93.0495 13.1456C93.0495 16.4217 90.3565 19.0776 87.1007 19.0776C83.8448 19.0776 81.1518 16.4218 81.1518 13.1456C81.1518 9.86951 83.8448 7.21369 87.1007 7.21369Z" fill="#B33C3C"/>
<path d="M15.5431 135.465L20.2982 121.029C20.3771 120.788 20.4875 120.628 20.6294 120.548C20.7714 120.468 21.008 120.427 21.3392 120.427H23.7759C24.2018 120.427 24.5014 120.46 24.6749 120.524C24.8484 120.588 24.9903 120.772 25.1007 121.077L30.0452 134.96C30.2029 135.328 30.3054 135.633 30.3527 135.874C30.4158 136.098 30.5104 136.211 30.6366 136.211C30.7943 136.211 30.9047 136.098 30.9678 135.874C31.0309 135.649 31.1177 135.345 31.2281 134.96L34.067 125.047C34.1774 124.726 34.1853 124.518 34.0906 124.421C34.0118 124.325 33.7831 124.277 33.4046 124.277H30.8732C30.5578 124.277 30.3527 124.229 30.2581 124.133C30.1635 124.02 30.1162 123.82 30.1162 123.531V121.077C30.1162 120.804 30.1635 120.628 30.2581 120.548C30.3527 120.468 30.5341 120.427 30.8022 120.427H42.1106C42.4102 120.427 42.6074 120.492 42.702 120.62C42.7966 120.732 42.844 120.949 42.844 121.27V123.411C42.844 123.764 42.7966 123.996 42.702 124.109C42.6232 124.221 42.4024 124.277 42.0396 124.277H39.6265C39.1849 124.277 38.8931 124.317 38.7512 124.397C38.625 124.478 38.5067 124.694 38.3963 125.047L32.3873 145.089C32.2769 145.458 32.1665 145.706 32.0561 145.835C31.9615 145.979 31.6618 146.051 31.1571 146.051H28.4601C27.9554 146.051 27.6321 145.995 27.4902 145.883C27.364 145.786 27.222 145.562 27.0643 145.209L22.1672 131.639C22.0095 131.238 21.8991 130.901 21.836 130.629C21.7729 130.34 21.6704 130.196 21.5284 130.196C21.4023 130.196 21.2919 130.332 21.1972 130.605C21.1026 130.861 20.9922 131.174 20.866 131.543L16.2764 145.161C16.1503 145.514 16.0241 145.746 15.8979 145.859C15.7875 145.987 15.4721 146.051 14.9516 146.051H12.3966C11.8761 146.051 11.537 145.995 11.3793 145.883C11.2216 145.786 11.0797 145.546 10.9535 145.161L4.21106 124.951C4.1322 124.678 4.03757 124.502 3.92717 124.421C3.81676 124.325 3.58019 124.277 3.21744 124.277H0.638756C0.339093 124.277 0.157717 124.213 0.0946305 124.085C0.0315435 123.94 0 123.724 0 123.435V121.221C0 120.901 0.0394294 120.692 0.118288 120.596C0.212919 120.484 0.410066 120.427 0.709729 120.427H14.8333C15.1803 120.427 15.409 120.484 15.5194 120.596C15.6298 120.692 15.685 120.933 15.685 121.318V123.291C15.685 123.676 15.6456 123.94 15.5667 124.085C15.4879 124.213 15.2513 124.277 14.857 124.277H11.8525C11.4897 124.277 11.2847 124.317 11.2374 124.397C11.2058 124.462 11.2295 124.622 11.3083 124.879L14.5494 135.489C14.6598 135.81 14.7229 136.066 14.7387 136.259C14.7702 136.435 14.857 136.523 14.9989 136.523C15.1567 136.523 15.2513 136.435 15.2828 136.259C15.3301 136.066 15.4169 135.802 15.5431 135.465Z" fill="#2E0880"/>
<path d="M44.4579 124.277H41.8792C41.5006 124.277 41.2641 124.221 41.1694 124.109C41.0748 123.98 41.0275 123.732 41.0275 123.363V121.342C41.0275 120.973 41.1142 120.732 41.2877 120.62C41.4612 120.492 41.7136 120.427 42.0448 120.427H50.8927C51.2082 120.427 51.4605 120.508 51.6498 120.668C51.839 120.812 51.9337 121.077 51.9337 121.462V123.291C51.9337 123.9 51.9889 124.229 52.0993 124.277C52.2254 124.325 52.4068 124.189 52.6434 123.868C53.4477 122.729 54.465 121.751 55.6952 120.933C56.9254 120.115 58.5578 119.706 60.5924 119.706C62.5165 119.706 64.0779 120.018 65.2766 120.644C66.4752 121.254 67.3505 122.152 67.9026 123.339C68.4546 124.526 68.7306 125.977 68.7306 127.694V140.541C68.7306 140.991 68.7779 141.279 68.8725 141.408C68.9829 141.536 69.2668 141.6 69.7242 141.6H72.2556C72.5395 141.6 72.7287 141.656 72.8233 141.768C72.9337 141.881 72.989 142.089 72.989 142.394V144.559C72.989 144.976 72.9101 145.233 72.7524 145.329C72.6104 145.409 72.3344 145.45 71.9244 145.45H59.0546C58.7076 145.45 58.4947 145.385 58.4159 145.257C58.3528 145.113 58.3212 144.864 58.3212 144.511V142.49C58.3212 142.185 58.3528 141.961 58.4159 141.817C58.4947 141.672 58.684 141.6 58.9836 141.6H60.6397C61.0497 141.6 61.31 141.552 61.4204 141.456C61.5465 141.343 61.6096 141.079 61.6096 140.662V128.343C61.6096 126.803 61.3494 125.681 60.8289 124.975C60.3085 124.253 59.4726 123.892 58.3212 123.892C57.2487 123.892 56.263 124.213 55.364 124.854C54.465 125.48 53.7474 126.386 53.2112 127.573C52.6749 128.76 52.4068 130.18 52.4068 131.832V140.638C52.4068 140.991 52.462 141.239 52.5724 141.383C52.6986 141.528 52.9509 141.6 53.3295 141.6H54.8199C55.1669 141.6 55.4034 141.648 55.5296 141.744C55.6558 141.841 55.7189 142.073 55.7189 142.442V144.632C55.7189 145 55.64 145.233 55.4823 145.329C55.3404 145.409 55.1117 145.45 54.7962 145.45H41.7372C41.4218 145.45 41.2246 145.393 41.1458 145.281C41.0669 145.153 41.0275 144.912 41.0275 144.559V142.49C41.0275 142.105 41.0906 141.865 41.2168 141.768C41.3429 141.656 41.5795 141.6 41.9265 141.6H44.2922C44.7023 141.6 44.9704 141.56 45.0966 141.48C45.2228 141.4 45.2859 141.159 45.2859 140.758V125.047C45.2859 124.71 45.2307 124.502 45.1203 124.421C45.0099 124.325 44.7891 124.277 44.4579 124.277Z" fill="#2E0880"/>
<path d="M82.9067 132.939C82.9067 134.607 83.1354 136.122 83.5928 137.486C84.0659 138.849 84.7204 139.94 85.5563 140.758C86.3922 141.576 87.3701 141.985 88.4899 141.985C89.4993 141.985 90.3904 141.576 91.1632 140.758C91.9518 139.94 92.5669 138.849 93.0085 137.486C93.4501 136.122 93.6709 134.607 93.6709 132.939C93.6709 131.27 93.4501 129.755 93.0085 128.391C92.5669 127.028 91.9518 125.937 91.1632 125.119C90.3904 124.301 89.4993 123.892 88.4899 123.892C87.3701 123.892 86.3922 124.301 85.5563 125.119C84.7204 125.937 84.0659 127.028 83.5928 128.391C83.1354 129.755 82.9067 131.27 82.9067 132.939ZM72.1661 111.766C71.9138 111.766 71.7403 111.726 71.6456 111.646C71.5668 111.549 71.5274 111.373 71.5274 111.116V108.47C71.5274 108.245 71.5668 108.101 71.6456 108.037C71.7403 107.957 71.8901 107.916 72.0951 107.916H82.1496C82.402 107.916 82.5912 107.949 82.7174 108.013C82.8436 108.077 82.9067 108.245 82.9067 108.518V123.676C82.9067 124.093 82.9224 124.333 82.954 124.397C83.0013 124.445 83.088 124.381 83.2142 124.205C84.0501 122.841 85.0595 121.759 86.2424 120.957C87.4253 120.155 88.9315 119.754 90.761 119.754C92.7167 119.754 94.4831 120.267 96.0603 121.294C97.6533 122.32 98.915 123.82 99.8455 125.793C100.792 127.75 101.265 130.132 101.265 132.939C101.265 135.746 100.776 138.135 99.7982 140.108C98.8204 142.081 97.5192 143.589 95.8947 144.632C94.2702 145.658 92.4801 146.171 90.5244 146.171C88.7895 146.171 87.3543 145.827 86.2187 145.137C85.0832 144.431 84.129 143.413 83.3562 142.081C83.1985 141.809 83.0802 141.704 83.0013 141.768C82.9382 141.817 82.9067 142.097 82.9067 142.611V144.583C82.9067 144.904 82.8436 145.129 82.7174 145.257C82.607 145.385 82.3941 145.45 82.0787 145.45H72.1661C71.9138 145.45 71.7403 145.418 71.6456 145.353C71.5668 145.273 71.5274 145.097 71.5274 144.824V142.177C71.5274 141.921 71.5826 141.76 71.693 141.696C71.8191 141.632 72.0005 141.6 72.2371 141.6H75.147C75.4309 141.6 75.6043 141.552 75.6674 141.456C75.7463 141.359 75.7857 141.167 75.7857 140.878V112.343C75.7857 111.958 75.6359 111.766 75.3362 111.766H72.1661Z" fill="#2E0880"/>
<path d="M105.286 141.841C105.286 141.039 105.475 140.317 105.853 139.675C106.248 139.018 106.768 138.496 107.415 138.111C108.062 137.71 108.779 137.51 109.568 137.51C110.341 137.51 111.05 137.71 111.697 138.111C112.344 138.496 112.856 139.018 113.235 139.675C113.629 140.317 113.826 141.039 113.826 141.841C113.826 142.627 113.629 143.348 113.235 144.006C112.856 144.664 112.344 145.185 111.697 145.57C111.05 145.971 110.341 146.171 109.568 146.171C108.779 146.171 108.062 145.971 107.415 145.57C106.768 145.185 106.248 144.664 105.853 144.006C105.475 143.348 105.286 142.627 105.286 141.841Z" fill="#2E0880"/>
<path d="M121.957 125.263C121.957 124.863 121.91 124.598 121.815 124.47C121.736 124.341 121.507 124.277 121.129 124.277H118.479C118.132 124.277 117.911 124.229 117.817 124.133C117.738 124.02 117.699 123.796 117.699 123.459V121.342C117.699 120.973 117.754 120.732 117.864 120.62C117.975 120.492 118.195 120.427 118.527 120.427H127.8C128.084 120.427 128.289 120.476 128.415 120.572C128.542 120.652 128.605 120.853 128.605 121.173V123.387C128.605 123.852 128.636 124.133 128.699 124.229C128.762 124.325 128.889 124.197 129.078 123.844C129.74 122.657 130.647 121.671 131.798 120.885C132.966 120.099 134.464 119.706 136.293 119.706C138.06 119.706 139.566 120.187 140.812 121.149C142.074 122.096 142.705 123.443 142.705 125.191C142.705 125.945 142.539 126.699 142.208 127.453C141.877 128.191 141.388 128.808 140.741 129.306C140.094 129.803 139.298 130.051 138.352 130.051C137.185 130.051 136.215 129.747 135.442 129.137C134.669 128.528 134.283 127.734 134.283 126.755C134.283 126.098 134.385 125.584 134.59 125.215C134.795 124.846 135 124.558 135.205 124.349C135.426 124.141 135.536 123.94 135.536 123.748C135.536 123.571 135.458 123.427 135.3 123.315C135.158 123.202 134.882 123.146 134.472 123.146C133.557 123.146 132.682 123.571 131.846 124.421C131.026 125.255 130.355 126.37 129.835 127.766C129.33 129.145 129.078 130.661 129.078 132.313V140.686C129.078 141.055 129.125 141.303 129.22 141.432C129.314 141.544 129.551 141.6 129.93 141.6H132.697C132.997 141.6 133.179 141.656 133.242 141.768C133.305 141.881 133.336 142.089 133.336 142.394V144.583C133.336 144.92 133.297 145.153 133.218 145.281C133.155 145.393 132.966 145.45 132.65 145.45H118.55C118.251 145.45 118.03 145.401 117.888 145.305C117.762 145.209 117.699 145.008 117.699 144.704V142.298C117.699 141.977 117.754 141.784 117.864 141.72C117.99 141.64 118.195 141.6 118.479 141.6H120.916C121.31 141.6 121.578 141.552 121.72 141.456C121.878 141.359 121.957 141.119 121.957 140.734V125.263Z" fill="#2E0880"/>
<path d="M154.111 132.939C154.111 134.607 154.339 136.122 154.797 137.486C155.27 138.849 155.924 139.94 156.76 140.758C157.596 141.576 158.574 141.985 159.694 141.985C160.703 141.985 161.594 141.576 162.367 140.758C163.156 139.94 163.771 138.849 164.212 137.486C164.654 136.122 164.875 134.607 164.875 132.939C164.875 131.27 164.654 129.755 164.212 128.391C163.771 127.028 163.156 125.937 162.367 125.119C161.594 124.301 160.703 123.892 159.694 123.892C158.574 123.892 157.596 124.301 156.76 125.119C155.924 125.937 155.27 127.028 154.797 128.391C154.339 129.755 154.111 131.27 154.111 132.939ZM143.37 111.766C143.118 111.766 142.944 111.726 142.85 111.646C142.771 111.549 142.731 111.373 142.731 111.116V108.47C142.731 108.245 142.771 108.101 142.85 108.037C142.944 107.957 143.094 107.916 143.299 107.916H153.354C153.606 107.916 153.795 107.949 153.921 108.013C154.047 108.077 154.111 108.245 154.111 108.518V123.676C154.111 124.093 154.126 124.333 154.158 124.397C154.205 124.445 154.292 124.381 154.418 124.205C155.254 122.841 156.263 121.759 157.446 120.957C158.629 120.155 160.135 119.754 161.965 119.754C163.921 119.754 165.687 120.267 167.264 121.294C168.857 122.32 170.119 123.82 171.049 125.793C171.996 127.75 172.469 130.132 172.469 132.939C172.469 135.746 171.98 138.135 171.002 140.108C170.024 142.081 168.723 143.589 167.099 144.632C165.474 145.658 163.684 146.171 161.728 146.171C159.993 146.171 158.558 145.827 157.423 145.137C156.287 144.431 155.333 143.413 154.56 142.081C154.402 141.809 154.284 141.704 154.205 141.768C154.142 141.817 154.111 142.097 154.111 142.611V144.583C154.111 144.904 154.047 145.129 153.921 145.257C153.811 145.385 153.598 145.45 153.283 145.45H143.37C143.118 145.45 142.944 145.418 142.85 145.353C142.771 145.273 142.731 145.097 142.731 144.824V142.177C142.731 141.921 142.786 141.76 142.897 141.696C143.023 141.632 143.204 141.6 143.441 141.6H146.351C146.635 141.6 146.808 141.552 146.871 141.456C146.95 141.359 146.99 141.167 146.99 140.878V112.343C146.99 111.958 146.84 111.766 146.54 111.766H143.37Z" fill="#2E0880"/>
</svg>
