<svg width="147" height="61" viewBox="0 0 147 61" fill="none" xmlns="http://www.w3.org/2000/svg">
<path d="M0 35.2908L3.29978e-06 9.95451C3.34206e-06 9.62985 0.261396 9.36666 0.58384 9.36666C14.4812 9.36666 25.7472 20.7101 25.7472 34.703V35.2908L0 35.2908Z" fill="#FFDD19"/>
<path d="M25.748 35.1735V34.718C25.748 20.7166 37.021 9.36613 50.9269 9.36613C51.2408 9.36613 51.4953 9.62234 51.4953 9.9384V29.8226C51.4953 32.7778 49.1159 35.1735 46.1809 35.1735L25.748 35.1735Z" fill="#B0A6F3"/>
<path d="M0 35.1735H25.7472V48.3033C25.7472 55.305 20.11 60.9809 13.1562 60.9809C5.89023 60.9809 0 55.0502 0 47.7343V35.1735Z" fill="#2E0880"/>
<path d="M38.802 35.1735C45.8127 35.1735 51.4961 40.8959 51.4961 47.9549C51.4961 55.149 45.704 60.9809 38.559 60.9809H26.5518C26.1084 60.9809 25.7489 60.6189 25.7489 60.1724L25.7489 35.1735H38.802Z" fill="#449C7C"/>
<path d="M9.39146 35.2907L9.39146 22.3286C16.5014 22.3286 22.2651 28.132 22.2651 35.2907H9.39146Z" fill="#449C7C"/>
<path d="M29.225 35.1735C29.225 28.0792 35.0528 22.3282 42.0987 22.3282V35.1735L29.225 35.1735Z" fill="#2E0880"/>
<path d="M9.39146 35.1737H22.2651V41.6802C22.2651 45.181 19.4465 48.019 15.9696 48.019C12.3366 48.019 9.39146 45.0536 9.39146 41.3956V35.1737Z" fill="#FFF099"/>
<path d="M35.7807 35.1735C39.2702 35.1735 42.0991 38.0218 42.0991 41.5353C42.0991 45.116 39.2161 48.0188 35.6598 48.0188H29.2255L29.225 35.1735H35.7807Z" fill="#BFE444"/>
<path d="M25.6915 13.2194C27.4529 13.2194 28.9099 14.6571 28.9099 16.4307C28.9099 18.2043 27.4529 19.642 25.6915 19.642C23.93 19.642 22.4731 18.2043 22.4731 16.4307C22.4731 14.6571 23.93 13.2194 25.6915 13.2194Z" fill="#B33C3C"/>
<path d="M71.016 20.5815L74.5963 9.79642C74.6556 9.61667 74.7388 9.49683 74.8456 9.43691C74.9525 9.377 75.1306 9.34704 75.38 9.34704H77.2147C77.5353 9.34704 77.761 9.37101 77.8916 9.41894C78.0222 9.46687 78.1291 9.60468 78.2122 9.83237L81.935 20.204C82.0538 20.4796 82.131 20.7073 82.1666 20.887C82.2141 21.0548 82.2853 21.1387 82.3803 21.1387C82.4991 21.1387 82.5822 21.0548 82.6297 20.887C82.6772 20.7193 82.7425 20.4916 82.8256 20.204L84.9631 12.7983C85.0462 12.5586 85.0522 12.4028 84.9809 12.3309C84.9216 12.259 84.7494 12.2231 84.4644 12.2231H82.5584C82.3209 12.2231 82.1666 12.1871 82.0953 12.1152C82.0241 12.0313 81.9884 11.8815 81.9884 11.6658V9.83237C81.9884 9.62865 82.0241 9.49683 82.0953 9.43691C82.1666 9.377 82.3031 9.34704 82.505 9.34704H91.0194C91.245 9.34704 91.3934 9.39497 91.4647 9.49084C91.5359 9.57472 91.5716 9.7365 91.5716 9.97617V11.5759C91.5716 11.8396 91.5359 12.0133 91.4647 12.0972C91.4053 12.1811 91.2391 12.2231 90.9659 12.2231H89.1491C88.8166 12.2231 88.5969 12.253 88.49 12.3129C88.395 12.3728 88.3059 12.5346 88.2228 12.7983L83.6984 27.7715C83.6153 28.0471 83.5322 28.2329 83.4491 28.3287C83.3778 28.4366 83.1522 28.4905 82.7722 28.4905H80.7416C80.3616 28.4905 80.1181 28.4486 80.0113 28.3647C79.9163 28.2928 79.8094 28.125 79.6906 27.8614L76.0035 17.7234C75.8847 17.4238 75.8016 17.1722 75.7541 16.9685C75.7066 16.7528 75.6294 16.6449 75.5225 16.6449C75.4275 16.6449 75.3444 16.7468 75.2731 16.9505C75.2019 17.1422 75.1188 17.3759 75.0238 17.6515L71.5682 27.8254C71.4732 28.0891 71.3782 28.2628 71.2831 28.3467C71.2 28.4426 70.9625 28.4905 70.5707 28.4905H68.6469C68.255 28.4905 67.9997 28.4486 67.881 28.3647C67.7622 28.2928 67.6553 28.113 67.5603 27.8254L62.4838 12.7264C62.4244 12.5226 62.3532 12.3908 62.27 12.3309C62.1869 12.259 62.0088 12.2231 61.7357 12.2231H59.7941C59.5685 12.2231 59.4319 12.1751 59.3844 12.0793C59.3369 11.9714 59.3132 11.8096 59.3132 11.5939V9.94022C59.3132 9.70055 59.3429 9.54477 59.4022 9.47287C59.4735 9.38898 59.6219 9.34704 59.8475 9.34704H70.4816C70.7428 9.34704 70.915 9.38898 70.9981 9.47287C71.0813 9.54477 71.1228 9.72452 71.1228 10.0121V11.4861C71.1228 11.7737 71.0931 11.9714 71.0338 12.0793C70.9744 12.1751 70.7963 12.2231 70.4994 12.2231H68.2372C67.9641 12.2231 67.8097 12.253 67.7741 12.3129C67.7503 12.3609 67.7682 12.4807 67.8275 12.6724L70.2678 20.5994C70.351 20.8391 70.3985 21.0308 70.4103 21.1746C70.4341 21.3065 70.4994 21.3724 70.6063 21.3724C70.725 21.3724 70.7963 21.3065 70.82 21.1746C70.8557 21.0308 70.921 20.8331 71.016 20.5815Z" fill="#2E0880"/>
<path d="M92.7867 12.2231H90.8451C90.5602 12.2231 90.382 12.1811 90.3108 12.0972C90.2395 12.0014 90.2039 11.8156 90.2039 11.54V10.0301C90.2039 9.75448 90.2692 9.57472 90.3998 9.49084C90.5305 9.39497 90.7205 9.34704 90.9698 9.34704H97.6317C97.8692 9.34704 98.0592 9.40696 98.2017 9.52679C98.3442 9.63464 98.4155 9.83237 98.4155 10.12V11.4861C98.4155 11.9414 98.457 12.1871 98.5401 12.2231C98.6351 12.259 98.7717 12.1571 98.9498 11.9175C99.5555 11.0667 100.321 10.3357 101.248 9.72452C102.174 9.11336 103.403 8.80779 104.935 8.80779C106.384 8.80779 107.559 9.04146 108.462 9.50882C109.364 9.96418 110.023 10.6353 110.439 11.522C110.854 12.4088 111.062 13.4933 111.062 14.7755V24.3742C111.062 24.7097 111.098 24.9254 111.169 25.0213C111.252 25.1172 111.466 25.1651 111.81 25.1651H113.716C113.93 25.1651 114.073 25.207 114.144 25.2909C114.227 25.3748 114.269 25.5306 114.269 25.7583V27.376C114.269 27.6876 114.209 27.8793 114.09 27.9512C113.984 28.0112 113.776 28.0411 113.467 28.0411H103.777C103.516 28.0411 103.355 27.9932 103.296 27.8973C103.249 27.7895 103.225 27.6037 103.225 27.3401V25.8302C103.225 25.6025 103.249 25.4347 103.296 25.3269C103.355 25.219 103.498 25.1651 103.724 25.1651H104.97C105.279 25.1651 105.475 25.1292 105.558 25.0573C105.653 24.9734 105.701 24.7756 105.701 24.4641V15.2608C105.701 14.1104 105.505 13.2716 105.113 12.7443C104.721 12.2051 104.092 11.9355 103.225 11.9355C102.417 11.9355 101.675 12.1751 100.998 12.6545C100.321 13.1218 99.7811 13.7989 99.3773 14.6856C98.9736 15.5724 98.7717 16.6329 98.7717 17.8672V24.4461C98.7717 24.7097 98.8133 24.8955 98.8964 25.0033C98.9914 25.1112 99.1814 25.1651 99.4664 25.1651H100.589C100.85 25.1651 101.028 25.2011 101.123 25.273C101.218 25.3449 101.265 25.5186 101.265 25.7942V27.43C101.265 27.7056 101.206 27.8793 101.087 27.9512C100.98 28.0112 100.808 28.0411 100.571 28.0411H90.7383C90.5008 28.0411 90.3523 27.9992 90.293 27.9153C90.2336 27.8194 90.2039 27.6397 90.2039 27.376V25.8302C90.2039 25.5426 90.2514 25.3628 90.3464 25.2909C90.4414 25.207 90.6195 25.1651 90.8808 25.1651H92.662C92.9708 25.1651 93.1726 25.1351 93.2676 25.0752C93.3626 25.0153 93.4101 24.8356 93.4101 24.536V12.7983C93.4101 12.5466 93.3686 12.3908 93.2855 12.3309C93.2023 12.259 93.0361 12.2231 92.7867 12.2231Z" fill="#2E0880"/>
<path d="M121.736 18.6941C121.736 19.9404 121.908 21.0728 122.252 22.0914C122.609 23.11 123.101 23.9248 123.731 24.536C124.36 25.1471 125.096 25.4527 125.94 25.4527C126.7 25.4527 127.371 25.1471 127.952 24.536C128.546 23.9248 129.009 23.11 129.342 22.0914C129.674 21.0728 129.841 19.9404 129.841 18.6941C129.841 17.4478 129.674 16.3154 129.342 15.2968C129.009 14.2782 128.546 13.4633 127.952 12.8522C127.371 12.241 126.7 11.9355 125.94 11.9355C125.096 11.9355 124.36 12.241 123.731 12.8522C123.101 13.4633 122.609 14.2782 122.252 15.2968C121.908 16.3154 121.736 17.4478 121.736 18.6941ZM113.649 2.87601C113.459 2.87601 113.328 2.84605 113.257 2.78614C113.198 2.71424 113.168 2.58242 113.168 2.39069V0.413427C113.168 0.245659 113.198 0.137808 113.257 0.0898753C113.328 0.0299584 113.441 0 113.596 0H121.166C121.356 0 121.498 0.0239665 121.593 0.0718994C121.688 0.119834 121.736 0.245659 121.736 0.449376V11.7737C121.736 12.0852 121.748 12.265 121.771 12.3129C121.807 12.3489 121.872 12.3009 121.967 12.1691C122.597 11.1505 123.357 10.3417 124.247 9.74249C125.138 9.14332 126.272 8.84374 127.65 8.84374C129.122 8.84374 130.452 9.22721 131.64 9.99414C132.839 10.7611 133.789 11.8815 134.49 13.3555C135.202 14.8175 135.558 16.597 135.558 18.6941C135.558 20.7912 135.19 22.5767 134.454 24.0507C133.718 25.5246 132.738 26.651 131.515 27.43C130.292 28.1969 128.944 28.5804 127.471 28.5804C126.165 28.5804 125.085 28.3227 124.23 27.8074C123.375 27.2802 122.656 26.5192 122.074 25.5246C121.956 25.3209 121.866 25.243 121.807 25.2909C121.76 25.3269 121.736 25.5366 121.736 25.9201V27.394C121.736 27.6337 121.688 27.8015 121.593 27.8973C121.51 27.9932 121.35 28.0411 121.112 28.0411H113.649C113.459 28.0411 113.328 28.0172 113.257 27.9692C113.198 27.9093 113.168 27.7775 113.168 27.5738V25.5965C113.168 25.4048 113.21 25.2849 113.293 25.237C113.388 25.1891 113.524 25.1651 113.702 25.1651H115.893C116.107 25.1651 116.238 25.1292 116.285 25.0573C116.345 24.9854 116.374 24.8416 116.374 24.6259V3.30741C116.374 3.01981 116.261 2.87601 116.036 2.87601H113.649Z" fill="#2E0880"/>
<path d="M61.0944 57.7274C61.0944 57.1283 61.2369 56.589 61.5219 56.1097C61.8188 55.6184 62.2107 55.2289 62.6975 54.9413C63.1844 54.6417 63.7247 54.4919 64.3185 54.4919C64.9004 54.4919 65.4347 54.6417 65.9216 54.9413C66.4085 55.2289 66.7944 55.6184 67.0794 56.1097C67.3763 56.589 67.5247 57.1283 67.5247 57.7274C67.5247 58.3146 67.3763 58.8539 67.0794 59.3452C66.7944 59.8365 66.4085 60.226 65.9216 60.5136C65.4347 60.8132 64.9004 60.9629 64.3185 60.9629C63.7247 60.9629 63.1844 60.8132 62.6975 60.5136C62.2107 60.226 61.8188 59.8365 61.5219 59.3452C61.2369 58.8539 61.0944 58.3146 61.0944 57.7274Z" fill="#2E0880"/>
<path d="M73.6466 45.3426C73.6466 45.043 73.611 44.8453 73.5398 44.7494C73.4804 44.6536 73.3082 44.6056 73.0232 44.6056H71.0282C70.767 44.6056 70.6007 44.5697 70.5295 44.4978C70.4701 44.4139 70.4404 44.2461 70.4404 43.9945V42.4127C70.4404 42.1371 70.482 41.9573 70.5651 41.8734C70.6482 41.7775 70.8145 41.7296 71.0638 41.7296H78.0463C78.2601 41.7296 78.4145 41.7656 78.5095 41.8375C78.6045 41.8974 78.652 42.0472 78.652 42.2868V43.9406C78.652 44.2881 78.6757 44.4978 78.7232 44.5697C78.7707 44.6416 78.8657 44.5457 79.0082 44.2821C79.507 43.3953 80.1898 42.6583 81.0566 42.0711C81.9354 41.484 83.0635 41.1904 84.441 41.1904C85.771 41.1904 86.9051 41.5499 87.8432 42.2689C88.7932 42.9759 89.2682 43.9825 89.2682 45.2887C89.2682 45.8519 89.1435 46.4151 88.8941 46.9783C88.6447 47.5296 88.2766 47.9909 87.7897 48.3624C87.3029 48.7339 86.7032 48.9196 85.9907 48.9196C85.1119 48.9196 84.3816 48.692 83.7998 48.2366C83.2179 47.7812 82.9269 47.188 82.9269 46.4571C82.9269 45.9657 83.0041 45.5823 83.1585 45.3067C83.3129 45.031 83.4673 44.8153 83.6216 44.6596C83.7879 44.5038 83.871 44.354 83.871 44.2102C83.871 44.0784 83.8116 43.9705 83.6929 43.8866C83.586 43.8027 83.3782 43.7608 83.0694 43.7608C82.3807 43.7608 81.7216 44.0784 81.0923 44.7135C80.4748 45.3366 79.9701 46.1695 79.5782 47.212C79.1982 48.2426 79.0082 49.375 79.0082 50.6093V56.8646C79.0082 57.1403 79.0438 57.326 79.1151 57.4219C79.1863 57.5057 79.3644 57.5477 79.6495 57.5477H81.7335C81.9591 57.5477 82.0957 57.5896 82.1432 57.6735C82.1907 57.7574 82.2144 57.9132 82.2144 58.1409V59.7766C82.2144 60.0282 82.1848 60.202 82.1254 60.2979C82.0779 60.3818 81.9354 60.4237 81.6979 60.4237H71.0816C70.856 60.4237 70.6898 60.3877 70.5829 60.3158C70.4879 60.2439 70.4404 60.0942 70.4404 59.8665V58.069C70.4404 57.8293 70.482 57.6855 70.5651 57.6376C70.6601 57.5776 70.8145 57.5477 71.0282 57.5477H72.8629C73.1598 57.5477 73.3616 57.5117 73.4685 57.4398C73.5873 57.3679 73.6466 57.1882 73.6466 56.9006V45.3426Z" fill="#2E0880"/>
<path d="M97.856 51.0767C97.856 52.3229 98.0282 53.4554 98.3726 54.474C98.7288 55.4925 99.2216 56.3074 99.851 56.9186C100.48 57.5297 101.217 57.8353 102.06 57.8353C102.82 57.8353 103.491 57.5297 104.073 56.9186C104.666 56.3074 105.129 55.4925 105.462 54.474C105.794 53.4554 105.961 52.3229 105.961 51.0767C105.961 49.8304 105.794 48.698 105.462 47.6794C105.129 46.6608 104.666 45.8459 104.073 45.2348C103.491 44.6236 102.82 44.318 102.06 44.318C101.217 44.318 100.48 44.6236 99.851 45.2348C99.2216 45.8459 98.7288 46.6608 98.3726 47.6794C98.0282 48.698 97.856 49.8304 97.856 51.0767ZM89.7692 35.2586C89.5792 35.2586 89.4485 35.2286 89.3773 35.1687C89.3179 35.0968 89.2882 34.965 89.2882 34.7733V32.796C89.2882 32.6282 89.3179 32.5204 89.3773 32.4725C89.4485 32.4125 89.5613 32.3826 89.7157 32.3826H97.286C97.476 32.3826 97.6185 32.4065 97.7135 32.4545C97.8085 32.5024 97.856 32.6282 97.856 32.832V44.1563C97.856 44.4678 97.8679 44.6476 97.8916 44.6955C97.9273 44.7315 97.9926 44.6835 98.0876 44.5517C98.717 43.5331 99.477 42.7242 100.368 42.1251C101.258 41.5259 102.392 41.2263 103.77 41.2263C105.242 41.2263 106.572 41.6098 107.76 42.3767C108.959 43.1437 109.909 44.2641 110.61 45.7381C111.322 47.2 111.678 48.9796 111.678 51.0767C111.678 53.1737 111.31 54.9593 110.574 56.4332C109.838 57.9072 108.858 59.0336 107.635 59.8125C106.412 60.5795 105.064 60.9629 103.592 60.9629C102.285 60.9629 101.205 60.7053 100.35 60.19C99.4948 59.6628 98.7763 58.9018 98.1945 57.9072C98.0757 57.7035 97.9866 57.6256 97.9273 57.6735C97.8798 57.7095 97.856 57.9192 97.856 58.3026V59.7766C97.856 60.0163 97.8085 60.184 97.7135 60.2799C97.6304 60.3758 97.4701 60.4237 97.2326 60.4237H88.4094C88.2194 60.4237 88.0888 60.3997 88.0176 60.3518C87.9582 60.2919 87.9285 60.1601 87.9285 59.9563V57.9791C87.9285 57.7874 87.97 57.6675 88.0532 57.6196C88.1482 57.5717 88.2848 57.5477 88.4629 57.5477H92.0135C92.2273 57.5477 92.3579 57.5117 92.4054 57.4398C92.4648 57.3679 92.4945 57.2241 92.4945 57.0084V35.69C92.4945 35.4024 92.3817 35.2586 92.156 35.2586H89.7692Z" fill="#2E0880"/>
</svg>
