<svg width="277" height="114" viewBox="0 0 277 114" fill="none" xmlns="http://www.w3.org/2000/svg">
<path d="M0 65.9531L6.20918e-06 18.6033C6.28874e-06 17.9966 0.491868 17.5047 1.09861 17.5047C27.2492 17.5047 48.4484 38.7039 48.4484 64.8545L48.4484 65.9531L0 65.9531Z" fill="#FFDD19"/>
<path d="M48.4502 65.7339L48.4502 64.8826C48.4502 38.716 69.6624 17.5037 95.8291 17.5037C96.4198 17.5037 96.8986 17.9825 96.8986 18.5732L96.8986 55.7339C96.8986 61.2567 92.4215 65.7339 86.8986 65.7339L48.4502 65.7339Z" fill="#B0A6F3"/>
<path d="M0 65.7339L48.4484 65.7339L48.4484 90.2716C48.4484 103.357 37.841 113.964 24.756 113.964C11.0836 113.964 0 102.88 0 89.2081L0 65.7339Z" fill="#2E0880"/>
<path d="M73.0134 65.7339C86.2056 65.7339 96.8999 76.4283 96.8999 89.6204C96.8999 103.065 86.0009 113.964 72.5563 113.964L49.9623 113.964C49.1279 113.964 48.4515 113.288 48.4515 112.453L48.4515 65.7339L73.0134 65.7339Z" fill="#449C7C"/>
<path d="M17.6719 65.9531L17.6719 41.7289C31.0505 41.7289 41.8961 52.5745 41.8961 65.9531L17.6719 65.9531Z" fill="#449C7C"/>
<path d="M54.9927 65.7339C54.9927 52.4758 65.9588 41.7279 79.2169 41.7279L79.2169 65.7339L54.9927 65.7339Z" fill="#2E0880"/>
<path d="M17.6719 65.7344L41.8961 65.7344L41.8961 77.8941C41.8961 84.4366 36.5924 89.7404 30.0499 89.7404C23.2137 89.7404 17.6719 84.1985 17.6719 77.3624L17.6719 65.7344Z" fill="#FFF099"/>
<path d="M67.3286 65.7339C73.8948 65.7339 79.2178 71.0569 79.2178 77.6231C79.2178 84.315 73.7929 89.7399 67.101 89.7399L54.9936 89.7399L54.9936 65.7339L67.3286 65.7339Z" fill="#BFE444"/>
<path d="M48.9566 24.7051C52.2712 24.7051 55.0127 27.392 55.0127 30.7066C55.0127 34.0211 52.2712 36.7081 48.9566 36.7081C45.6421 36.7081 42.9006 34.0211 42.9006 30.7066C42.9006 27.392 45.6421 24.7051 48.9566 24.7051Z" fill="#B33C3C"/>
<path d="M133.63 38.4637L140.368 18.3081C140.479 17.9721 140.636 17.7482 140.837 17.6362C141.038 17.5242 141.373 17.4682 141.842 17.4682H145.295C145.898 17.4682 146.323 17.513 146.568 17.6026C146.814 17.6922 147.015 17.9497 147.172 18.3752L154.177 37.7583C154.4 38.2734 154.546 38.6989 154.613 39.0348C154.702 39.3483 154.836 39.5051 155.015 39.5051C155.238 39.5051 155.395 39.3483 155.484 39.0348C155.573 38.7213 155.696 38.2958 155.853 37.7583L159.875 23.9181C160.031 23.4701 160.042 23.179 159.908 23.0446C159.797 22.9103 159.473 22.8431 158.936 22.8431H155.35C154.903 22.8431 154.613 22.7759 154.478 22.6415C154.344 22.4848 154.277 22.2048 154.277 21.8017V18.3752C154.277 17.9945 154.344 17.7482 154.478 17.6362C154.613 17.5242 154.87 17.4682 155.249 17.4682H171.271C171.695 17.4682 171.975 17.5578 172.109 17.737C172.243 17.8937 172.31 18.1961 172.31 18.644V21.6337C172.31 22.1264 172.243 22.4512 172.109 22.6079C171.997 22.7647 171.684 22.8431 171.17 22.8431H167.751C167.126 22.8431 166.712 22.8991 166.511 23.011C166.333 23.123 166.165 23.4254 166.009 23.9181L157.495 51.9008C157.339 52.4159 157.182 52.763 157.026 52.9422C156.892 53.1438 156.467 53.2445 155.752 53.2445H151.931C151.216 53.2445 150.758 53.1662 150.557 53.0094C150.378 52.875 150.177 52.5615 149.954 52.0688L143.015 33.1225C142.792 32.5626 142.636 32.0923 142.546 31.7116C142.457 31.3085 142.312 31.1069 142.11 31.1069C141.932 31.1069 141.775 31.2973 141.641 31.678C141.507 32.0363 141.351 32.473 141.172 32.9881L134.67 52.0016C134.491 52.4943 134.312 52.819 134.133 52.9758C133.977 53.155 133.53 53.2445 132.793 53.2445H129.173C128.435 53.2445 127.955 53.1662 127.731 53.0094C127.508 52.875 127.307 52.5391 127.128 52.0016L117.576 23.7837C117.464 23.403 117.33 23.1566 117.173 23.0446C117.017 22.9103 116.682 22.8431 116.168 22.8431H112.514C112.09 22.8431 111.833 22.7535 111.743 22.5743C111.654 22.3728 111.609 22.0704 111.609 21.6673V18.5768C111.609 18.1289 111.665 17.8378 111.777 17.7034C111.911 17.5466 112.19 17.4682 112.615 17.4682H132.625C133.117 17.4682 133.441 17.5466 133.597 17.7034C133.753 17.8378 133.832 18.1737 133.832 18.7112V21.4658C133.832 22.0033 133.776 22.3728 133.664 22.5743C133.552 22.7535 133.217 22.8431 132.658 22.8431H128.402C127.888 22.8431 127.597 22.8991 127.53 23.011C127.486 23.1006 127.519 23.3246 127.631 23.6829L132.223 38.4973C132.379 38.9452 132.469 39.3035 132.491 39.5723C132.536 39.8186 132.658 39.9418 132.86 39.9418C133.083 39.9418 133.217 39.8186 133.262 39.5723C133.329 39.3035 133.452 38.934 133.63 38.4637Z" fill="#2E0880"/>
<path d="M174.596 22.8431H170.943C170.407 22.8431 170.072 22.7647 169.937 22.6079C169.803 22.4288 169.736 22.0816 169.736 21.5666V18.7448C169.736 18.2297 169.859 17.8937 170.105 17.737C170.351 17.5578 170.708 17.4682 171.178 17.4682H183.713C184.16 17.4682 184.518 17.5802 184.786 17.8042C185.054 18.0057 185.188 18.3752 185.188 18.9127V21.4658C185.188 22.3168 185.266 22.7759 185.423 22.8431C185.601 22.9103 185.858 22.7199 186.194 22.272C187.333 20.6819 188.774 19.3158 190.517 18.1737C192.26 17.0315 194.573 16.4605 197.455 16.4605C200.182 16.4605 202.394 16.8972 204.092 17.7706C205.79 18.6216 207.03 19.8757 207.812 21.533C208.595 23.1902 208.986 25.217 208.986 27.6133V45.5518C208.986 46.1789 209.053 46.582 209.187 46.7611C209.343 46.9403 209.745 47.0299 210.393 47.0299H213.98C214.382 47.0299 214.65 47.1083 214.784 47.265C214.941 47.4218 215.019 47.7129 215.019 48.1384V51.1618C215.019 51.7441 214.907 52.1024 214.684 52.2368C214.482 52.3487 214.091 52.4047 213.51 52.4047H195.277C194.785 52.4047 194.484 52.3151 194.372 52.136C194.282 51.9344 194.238 51.5873 194.238 51.0946V48.2728C194.238 47.8473 194.282 47.5338 194.372 47.3322C194.484 47.1307 194.752 47.0299 195.176 47.0299H197.523C198.103 47.0299 198.472 46.9627 198.629 46.8283C198.807 46.6716 198.897 46.302 198.897 45.7198V28.5203C198.897 26.3703 198.528 24.8027 197.791 23.8173C197.053 22.8095 195.869 22.3056 194.238 22.3056C192.718 22.3056 191.322 22.7535 190.048 23.6493C188.774 24.5227 187.758 25.788 186.998 27.4453C186.238 29.1025 185.858 31.0845 185.858 33.3912V45.6862C185.858 46.1789 185.937 46.526 186.093 46.7275C186.272 46.9291 186.629 47.0299 187.166 47.0299H189.277C189.769 47.0299 190.104 47.0971 190.283 47.2314C190.461 47.3658 190.551 47.6905 190.551 48.2056V51.2626C190.551 51.7777 190.439 52.1024 190.216 52.2368C190.015 52.3487 189.691 52.4047 189.244 52.4047H170.742C170.295 52.4047 170.016 52.3263 169.904 52.1696C169.792 51.9904 169.736 51.6545 169.736 51.1618V48.2728C169.736 47.7353 169.826 47.3994 170.004 47.265C170.183 47.1083 170.518 47.0299 171.01 47.0299H174.362C174.943 47.0299 175.323 46.9739 175.501 46.8619C175.68 46.7499 175.77 46.414 175.77 45.8541V23.9181C175.77 23.4478 175.691 23.1566 175.535 23.0446C175.378 22.9103 175.066 22.8431 174.596 22.8431Z" fill="#2E0880"/>
<path d="M229.07 34.9365C229.07 37.2656 229.394 39.3819 230.042 41.2855C230.712 43.1891 231.64 44.712 232.824 45.8541C234.008 46.9963 235.394 47.5674 236.98 47.5674C238.41 47.5674 239.673 46.9963 240.768 45.8541C241.885 44.712 242.756 43.1891 243.382 41.2855C244.008 39.3819 244.321 37.2656 244.321 34.9365C244.321 32.6074 244.008 30.491 243.382 28.5874C242.756 26.6839 241.885 25.161 240.768 24.0188C239.673 22.8767 238.41 22.3056 236.98 22.3056C235.394 22.3056 234.008 22.8767 232.824 24.0188C231.64 25.161 230.712 26.6839 230.042 28.5874C229.394 30.491 229.07 32.6074 229.07 34.9365ZM213.853 5.37484C213.495 5.37484 213.25 5.31885 213.116 5.20688C213.004 5.07251 212.948 4.82616 212.948 4.46784V0.772634C212.948 0.4591 213.004 0.257543 213.116 0.167964C213.25 0.0559879 213.462 0 213.752 0H227.997C228.355 0 228.623 0.0447898 228.802 0.134369C228.981 0.223952 229.07 0.459101 229.07 0.839818V22.0033C229.07 22.5855 229.092 22.9215 229.137 23.011C229.204 23.0782 229.327 22.9887 229.506 22.7423C230.69 20.8387 232.12 19.327 233.796 18.2073C235.472 17.0875 237.606 16.5276 240.198 16.5276C242.969 16.5276 245.471 17.2443 247.706 18.6776C249.963 20.1109 251.75 22.2048 253.069 24.9594C254.409 27.6916 255.08 31.0173 255.08 34.9365C255.08 38.8556 254.387 42.1925 253.002 44.9471C251.616 47.7017 249.773 49.8069 247.471 51.2626C245.17 52.6959 242.633 53.4125 239.863 53.4125C237.405 53.4125 235.371 52.931 233.762 51.968C232.154 50.9826 230.802 49.5605 229.707 47.7017C229.483 47.321 229.316 47.1754 229.204 47.265C229.115 47.3322 229.07 47.7241 229.07 48.4408V51.1954C229.07 51.6433 228.981 51.9568 228.802 52.136C228.645 52.3151 228.344 52.4047 227.897 52.4047H213.853C213.495 52.4047 213.25 52.3599 213.116 52.2703C213.004 52.1584 212.948 51.912 212.948 51.5313V47.8361C212.948 47.4778 213.026 47.2538 213.183 47.1642C213.361 47.0747 213.618 47.0299 213.953 47.0299H218.076C218.478 47.0299 218.724 46.9627 218.814 46.8283C218.925 46.694 218.981 46.4252 218.981 46.0221V6.18107C218.981 5.64358 218.769 5.37484 218.344 5.37484H213.853Z" fill="#2E0880"/>
<path d="M114.961 107.884C114.961 106.764 115.229 105.757 115.766 104.861C116.324 103.943 117.062 103.215 117.978 102.677C118.894 102.117 119.911 101.837 121.028 101.837C122.123 101.837 123.128 102.117 124.044 102.677C124.961 103.215 125.687 103.943 126.223 104.861C126.782 105.757 127.061 106.764 127.061 107.884C127.061 108.981 126.782 109.989 126.223 110.907C125.687 111.826 124.961 112.553 124.044 113.091C123.128 113.651 122.123 113.931 121.028 113.931C119.911 113.931 118.894 113.651 117.978 113.091C117.062 112.553 116.324 111.826 115.766 110.907C115.229 109.989 114.961 108.981 114.961 107.884Z" fill="#2E0880"/>
<path d="M138.581 84.7386C138.581 84.1788 138.514 83.8092 138.38 83.6301C138.268 83.4509 137.944 83.3613 137.408 83.3613H133.654C133.162 83.3613 132.849 83.2942 132.715 83.1598C132.603 83.003 132.547 82.6895 132.547 82.2192V79.263C132.547 78.7479 132.626 78.412 132.782 78.2552C132.938 78.0761 133.251 77.9865 133.721 77.9865H146.859C147.262 77.9865 147.552 78.0537 147.731 78.1881C147.91 78.3 147.999 78.58 147.999 79.0279V82.1184C147.999 82.7679 148.044 83.1598 148.133 83.2942C148.223 83.4285 148.401 83.2494 148.669 82.7567C149.608 81.0994 150.893 79.7221 152.524 78.6248C154.178 77.5274 156.3 76.9787 158.892 76.9787C161.395 76.9787 163.529 77.6506 165.294 78.9943C167.082 80.3156 167.976 82.1968 167.976 84.6379C167.976 85.6905 167.741 86.743 167.272 87.7956C166.803 88.8258 166.11 89.688 165.194 90.3822C164.278 91.0765 163.149 91.4236 161.808 91.4236C160.155 91.4236 158.781 90.9981 157.686 90.1471C156.591 89.2961 156.043 88.1875 156.043 86.8214C156.043 85.9032 156.189 85.1866 156.479 84.6715C156.77 84.1564 157.06 83.7533 157.351 83.4621C157.663 83.171 157.82 82.8911 157.82 82.6223C157.82 82.376 157.708 82.1744 157.485 82.0176C157.283 81.8609 156.892 81.7825 156.311 81.7825C155.015 81.7825 153.775 82.376 152.591 83.5629C151.429 84.7275 150.479 86.2839 149.742 88.2323C149.027 90.1583 148.669 92.2746 148.669 94.5813V106.272C148.669 106.787 148.736 107.134 148.871 107.313C149.005 107.47 149.34 107.548 149.876 107.548H153.798C154.222 107.548 154.479 107.627 154.569 107.783C154.658 107.94 154.703 108.231 154.703 108.657V111.714C154.703 112.184 154.647 112.509 154.535 112.688C154.446 112.845 154.178 112.923 153.731 112.923H133.754C133.33 112.923 133.017 112.856 132.816 112.721C132.637 112.587 132.547 112.307 132.547 111.882V108.522C132.547 108.074 132.626 107.806 132.782 107.716C132.961 107.604 133.251 107.548 133.654 107.548H137.106C137.664 107.548 138.044 107.481 138.245 107.347C138.469 107.212 138.581 106.876 138.581 106.339V84.7386Z" fill="#2E0880"/>
<path d="M184.135 95.4547C184.135 97.7838 184.459 99.9002 185.107 101.804C185.778 103.707 186.705 105.23 187.889 106.372C189.074 107.515 190.459 108.086 192.046 108.086C193.476 108.086 194.738 107.515 195.833 106.372C196.95 105.23 197.822 103.707 198.447 101.804C199.073 99.9002 199.386 97.7838 199.386 95.4547C199.386 93.1256 199.073 91.0093 198.447 89.1057C197.822 87.2021 196.95 85.6793 195.833 84.5371C194.738 83.3949 193.476 82.8239 192.046 82.8239C190.459 82.8239 189.074 83.3949 187.889 84.5371C186.705 85.6793 185.778 87.2021 185.107 89.1057C184.459 91.0093 184.135 93.1256 184.135 95.4547ZM168.918 65.8931C168.561 65.8931 168.315 65.8371 168.181 65.7251C168.069 65.5908 168.013 65.3444 168.013 64.9861V61.2909C168.013 60.9774 168.069 60.7758 168.181 60.6862C168.315 60.5743 168.527 60.5183 168.818 60.5183H183.063C183.42 60.5183 183.688 60.5631 183.867 60.6526C184.046 60.7422 184.135 60.9774 184.135 61.3581V82.5215C184.135 83.1038 184.158 83.4397 184.202 83.5293C184.269 83.5965 184.392 83.5069 184.571 83.2606C185.755 81.357 187.185 79.8453 188.861 78.7255C190.537 77.6058 192.671 77.0459 195.263 77.0459C198.034 77.0459 200.537 77.7626 202.771 79.1958C205.028 80.6291 206.816 82.7231 208.134 85.4777C209.475 88.2099 210.145 91.5356 210.145 95.4547C210.145 99.3739 209.452 102.711 208.067 105.465C206.682 108.22 204.838 110.325 202.537 111.781C200.235 113.214 197.699 113.931 194.928 113.931C192.47 113.931 190.437 113.449 188.828 112.486C187.219 111.501 185.867 110.079 184.772 108.22C184.549 107.839 184.381 107.694 184.269 107.783C184.18 107.85 184.135 108.242 184.135 108.959V111.714C184.135 112.162 184.046 112.475 183.867 112.654C183.711 112.833 183.409 112.923 182.962 112.923H166.36C166.002 112.923 165.756 112.878 165.622 112.789C165.511 112.677 165.455 112.43 165.455 112.05V108.354C165.455 107.996 165.533 107.772 165.689 107.683C165.868 107.593 166.125 107.548 166.46 107.548H173.142C173.544 107.548 173.79 107.481 173.879 107.347C173.991 107.212 174.047 106.943 174.047 106.54V66.6993C174.047 66.1618 173.834 65.8931 173.41 65.8931H168.918Z" fill="#2E0880"/>
<path d="M222.886 76.4143V75.5319H226.28V76.4143H222.886ZM221.609 77.5352L224.02 72.3919H225.162L227.597 77.5352H226.447L224.337 72.9007H224.845L222.751 77.5352H221.609Z" fill="#2E0880"/>
<path d="M232.295 76.8595H231.922L233.366 73.5843H234.492L232.596 77.5352H231.621L229.765 73.5843H230.899L232.295 76.8595Z" fill="#2E0880"/>
<path d="M236.276 71.8513V72.7576H235.079V71.8513H236.276ZM235.158 73.5843H236.189V77.5352H235.158V73.5843Z" fill="#2E0880"/>
<path d="M237.217 73.5843H238.248V77.5352H237.217V73.5843ZM239.763 74.4349C239.467 74.4349 239.21 74.4932 238.993 74.6098C238.777 74.7211 238.602 74.8589 238.47 75.0232C238.338 75.1874 238.245 75.3464 238.192 75.5001L238.184 75.0629C238.19 74.9993 238.211 74.9066 238.248 74.7847C238.285 74.6575 238.34 74.5224 238.414 74.3793C238.488 74.2309 238.586 74.0904 238.708 73.9579C238.829 73.8202 238.978 73.7089 239.152 73.6241C239.327 73.5393 239.53 73.4969 239.763 73.4969V74.4349Z" fill="#2E0880"/>
<path d="M240.146 73.5843H243.207V74.3872H240.146V73.5843ZM241.161 72.5032H242.192V77.5352H241.161V72.5032Z" fill="#2E0880"/>
<path d="M248.423 77.5352H247.392V73.5843H248.423V77.5352ZM247.448 75.6353L247.456 75.9055C247.445 75.9797 247.419 76.0884 247.376 76.2315C247.334 76.3693 247.268 76.5177 247.178 76.6766C247.093 76.8356 246.982 76.9893 246.845 77.1377C246.707 77.2808 246.538 77.4 246.337 77.4954C246.136 77.5855 245.898 77.6306 245.623 77.6306C245.407 77.6306 245.192 77.6041 244.981 77.5511C244.775 77.4981 244.587 77.4106 244.418 77.2888C244.249 77.1616 244.114 76.992 244.013 76.78C243.913 76.568 243.863 76.3004 243.863 75.9771V73.5843H244.894V75.8022C244.894 76.0566 244.933 76.258 245.013 76.4064C245.097 76.5495 245.219 76.6502 245.378 76.7085C245.536 76.7667 245.724 76.7959 245.941 76.7959C246.226 76.7959 246.472 76.7349 246.678 76.6131C246.885 76.4859 247.051 76.3322 247.178 76.152C247.31 75.9718 247.4 75.7996 247.448 75.6353Z" fill="#2E0880"/>
<path d="M251.282 77.6226C250.89 77.6226 250.533 77.5378 250.211 77.3682C249.893 77.1934 249.64 76.9522 249.449 76.6448C249.264 76.3322 249.172 75.9718 249.172 75.5637C249.172 75.1451 249.267 74.782 249.457 74.4747C249.648 74.1673 249.904 73.9288 250.227 73.7592C250.554 73.5843 250.925 73.4969 251.337 73.4969C251.792 73.4969 252.157 73.5896 252.432 73.7751C252.712 73.9553 252.915 74.2017 253.042 74.5144C253.169 74.8271 253.233 75.1768 253.233 75.5637C253.233 75.7969 253.196 76.0354 253.122 76.2792C253.048 76.5177 252.934 76.7402 252.781 76.9469C252.627 77.1483 252.426 77.3126 252.178 77.4398C251.929 77.5617 251.631 77.6226 251.282 77.6226ZM251.615 76.8277C251.927 76.8277 252.196 76.7747 252.424 76.6687C252.651 76.5627 252.826 76.4143 252.947 76.2235C253.069 76.0327 253.13 75.8128 253.13 75.5637C253.13 75.2934 253.066 75.0656 252.939 74.8801C252.818 74.6893 252.643 74.5462 252.416 74.4508C252.194 74.3501 251.927 74.2998 251.615 74.2998C251.176 74.2998 250.835 74.4164 250.591 74.6495C250.348 74.8774 250.227 75.1822 250.227 75.5637C250.227 75.8181 250.285 76.0407 250.401 76.2315C250.517 76.417 250.679 76.5627 250.885 76.6687C251.096 76.7747 251.34 76.8277 251.615 76.8277ZM253.13 73.5843H254.161V77.5352H253.201C253.201 77.5352 253.193 77.4848 253.177 77.3841C253.167 77.2782 253.156 77.1457 253.145 76.9867C253.135 76.8277 253.13 76.6713 253.13 76.5177V73.5843Z" fill="#2E0880"/>
<path d="M255.173 71.9944H256.204V77.5352H255.173V71.9944Z" fill="#2E0880"/>
<path d="M226.629 84.6958C226.603 85.0403 226.492 85.3371 226.296 85.5862C226.106 85.8353 225.842 86.026 225.503 86.1585C225.165 86.2857 224.763 86.3493 224.298 86.3493C223.811 86.3493 223.375 86.2725 222.989 86.1188C222.608 85.9598 222.307 85.7293 222.085 85.4272C221.868 85.1198 221.759 84.7409 221.759 84.2904C221.759 83.8399 221.868 83.461 222.085 83.1536C222.307 82.8463 222.608 82.6131 222.989 82.4541C223.375 82.2951 223.811 82.2156 224.298 82.2156C224.763 82.2156 225.162 82.2818 225.495 82.4143C225.828 82.5415 226.09 82.727 226.28 82.9708C226.476 83.2146 226.59 83.5087 226.622 83.8532H225.678C225.588 83.5882 225.421 83.3815 225.178 83.2331C224.935 83.0847 224.641 83.0106 224.298 83.0106C224.023 83.0106 223.771 83.0583 223.544 83.1536C223.322 83.249 223.142 83.3921 223.005 83.5829C222.873 83.7684 222.806 84.0042 222.806 84.2904C222.806 84.5713 222.873 84.8071 223.005 84.9979C223.137 85.1834 223.317 85.3238 223.544 85.4192C223.771 85.5093 224.023 85.5544 224.298 85.5544C224.668 85.5544 224.969 85.4802 225.202 85.3318C225.44 85.1834 225.601 84.9714 225.686 84.6958H226.629Z" fill="#2E0880"/>
<path d="M229.711 86.3493C229.214 86.3493 228.775 86.2698 228.395 86.1108C228.019 85.9518 227.726 85.7213 227.514 85.4192C227.303 85.1119 227.197 84.7356 227.197 84.2904C227.197 83.8452 227.303 83.469 227.514 83.1616C227.726 82.8489 228.019 82.6131 228.395 82.4541C228.775 82.2951 229.214 82.2156 229.711 82.2156C230.208 82.2156 230.642 82.2951 231.012 82.4541C231.388 82.6131 231.681 82.8489 231.893 83.1616C232.104 83.469 232.21 83.8452 232.21 84.2904C232.21 84.7356 232.104 85.1119 231.893 85.4192C231.681 85.7213 231.388 85.9518 231.012 86.1108C230.642 86.2698 230.208 86.3493 229.711 86.3493ZM229.711 85.5544C229.986 85.5544 230.232 85.5067 230.449 85.4113C230.671 85.3106 230.846 85.1675 230.972 84.982C231.099 84.7912 231.163 84.5607 231.163 84.2904C231.163 84.0201 231.099 83.7896 230.972 83.5988C230.846 83.4027 230.674 83.2543 230.457 83.1536C230.24 83.0529 229.992 83.0026 229.711 83.0026C229.436 83.0026 229.188 83.0529 228.966 83.1536C228.744 83.2543 228.567 83.4001 228.434 83.5909C228.307 83.7816 228.244 84.0148 228.244 84.2904C228.244 84.5607 228.307 84.7912 228.434 84.982C228.561 85.1675 228.736 85.3106 228.958 85.4113C229.18 85.5067 229.431 85.5544 229.711 85.5544Z" fill="#2E0880"/>
<path d="M232.972 82.303H234.003V86.2539H232.972V82.303ZM235.835 82.2156C236.079 82.2156 236.303 82.2474 236.51 82.311C236.716 82.3746 236.896 82.4726 237.049 82.6051C237.202 82.7376 237.321 82.9072 237.406 83.1139C237.49 83.3153 237.533 83.5564 237.533 83.8373V86.2539H236.502V84.0201C236.502 83.6863 236.42 83.4425 236.256 83.2888C236.097 83.1298 235.835 83.0503 235.471 83.0503C235.196 83.0503 234.947 83.1033 234.725 83.2093C234.503 83.3153 234.323 83.4504 234.186 83.6147C234.048 83.7737 233.969 83.9406 233.948 84.1155L233.94 83.7101C233.966 83.5246 234.027 83.3444 234.122 83.1695C234.217 82.9947 234.344 82.8357 234.503 82.6926C234.667 82.5442 234.86 82.4276 235.082 82.3428C235.304 82.258 235.555 82.2156 235.835 82.2156ZM239.27 82.2156C239.513 82.2156 239.738 82.2474 239.944 82.311C240.15 82.3746 240.33 82.4726 240.483 82.6051C240.637 82.7376 240.756 82.9072 240.84 83.1139C240.93 83.3153 240.975 83.5564 240.975 83.8373V86.2539H239.944V84.0201C239.944 83.6863 239.862 83.4425 239.698 83.2888C239.534 83.1298 239.27 83.0503 238.905 83.0503C238.63 83.0503 238.381 83.1033 238.159 83.2093C237.937 83.3153 237.757 83.4504 237.62 83.6147C237.483 83.7737 237.406 83.9406 237.39 84.1155L237.374 83.6863C237.401 83.5114 237.464 83.3365 237.564 83.1616C237.665 82.9867 237.797 82.8277 237.961 82.6846C238.125 82.5415 238.315 82.4276 238.532 82.3428C238.754 82.258 239 82.2156 239.27 82.2156Z" fill="#2E0880"/>
<path d="M241.911 82.303H242.942V86.2539H241.911V82.303ZM244.774 82.2156C245.017 82.2156 245.242 82.2474 245.448 82.311C245.654 82.3746 245.834 82.4726 245.988 82.6051C246.141 82.7376 246.26 82.9072 246.344 83.1139C246.429 83.3153 246.471 83.5564 246.471 83.8373V86.2539H245.44V84.0201C245.44 83.6863 245.358 83.4425 245.194 83.2888C245.036 83.1298 244.774 83.0503 244.409 83.0503C244.134 83.0503 243.886 83.1033 243.664 83.2093C243.441 83.3153 243.262 83.4504 243.124 83.6147C242.987 83.7737 242.907 83.9406 242.886 84.1155L242.878 83.7101C242.905 83.5246 242.966 83.3444 243.061 83.1695C243.156 82.9947 243.283 82.8357 243.441 82.6926C243.605 82.5442 243.798 82.4276 244.02 82.3428C244.243 82.258 244.494 82.2156 244.774 82.2156ZM248.208 82.2156C248.452 82.2156 248.676 82.2474 248.883 82.311C249.089 82.3746 249.269 82.4726 249.422 82.6051C249.575 82.7376 249.694 82.9072 249.779 83.1139C249.869 83.3153 249.914 83.5564 249.914 83.8373V86.2539H248.883V84.0201C248.883 83.6863 248.801 83.4425 248.637 83.2888C248.473 83.1298 248.208 83.0503 247.844 83.0503C247.569 83.0503 247.32 83.1033 247.098 83.2093C246.876 83.3153 246.696 83.4504 246.559 83.6147C246.421 83.7737 246.344 83.9406 246.329 84.1155L246.313 83.6863C246.339 83.5114 246.403 83.3365 246.503 83.1616C246.604 82.9867 246.736 82.8277 246.9 82.6846C247.064 82.5415 247.254 82.4276 247.471 82.3428C247.693 82.258 247.939 82.2156 248.208 82.2156Z" fill="#2E0880"/>
<path d="M255.41 86.2539H254.379V82.303H255.41V86.2539ZM254.434 84.354L254.442 84.6243C254.432 84.6985 254.405 84.8071 254.363 84.9502C254.321 85.088 254.255 85.2364 254.165 85.3954C254.08 85.5544 253.969 85.7081 253.832 85.8564C253.694 85.9995 253.525 86.1188 253.324 86.2142C253.123 86.3043 252.885 86.3493 252.61 86.3493C252.393 86.3493 252.179 86.3228 251.968 86.2698C251.761 86.2168 251.574 86.1294 251.404 86.0075C251.235 85.8803 251.1 85.7107 251 85.4987C250.899 85.2867 250.849 85.0191 250.849 84.6958V82.303H251.88V84.5209C251.88 84.7753 251.92 84.9767 251.999 85.1251C252.084 85.2682 252.206 85.3689 252.364 85.4272C252.523 85.4855 252.711 85.5146 252.927 85.5146C253.213 85.5146 253.459 85.4537 253.665 85.3318C253.871 85.2046 254.038 85.0509 254.165 84.8707C254.297 84.6905 254.387 84.5183 254.434 84.354Z" fill="#2E0880"/>
<path d="M256.349 82.303H257.38V86.2539H256.349V82.303ZM259.212 82.2156C259.455 82.2156 259.68 82.2474 259.886 82.311C260.092 82.3746 260.272 82.4726 260.426 82.6051C260.579 82.7376 260.698 82.9072 260.783 83.1139C260.867 83.3153 260.909 83.5564 260.909 83.8373V86.2539H259.878V84.0201C259.878 83.6863 259.796 83.4425 259.632 83.2888C259.474 83.1298 259.212 83.0503 258.847 83.0503C258.572 83.0503 258.324 83.1033 258.102 83.2093C257.88 83.3153 257.7 83.4504 257.562 83.6147C257.425 83.7737 257.345 83.9406 257.324 84.1155L257.316 83.7101C257.343 83.5246 257.404 83.3444 257.499 83.1695C257.594 82.9947 257.721 82.8357 257.88 82.6926C258.043 82.5442 258.236 82.4276 258.459 82.3428C258.681 82.258 258.932 82.2156 259.212 82.2156Z" fill="#2E0880"/>
<path d="M263.03 80.5701V81.4763H261.832V80.5701H263.03ZM261.912 82.303H262.943V86.2539H261.912V82.303Z" fill="#2E0880"/>
<path d="M263.693 82.303H266.755V83.1059H263.693V82.303ZM264.708 81.2219H265.739V86.2539H264.708V81.2219Z" fill="#2E0880"/>
<path d="M267.053 82.303H268.147L269.853 86.0949L268.964 86.2539L267.053 82.303ZM271.875 82.303L269.147 87.8438H268.076L269.242 85.6657L270.773 82.303H271.875Z" fill="#2E0880"/>
<path d="M221.672 91.0933H224.845V91.8803H221.672V91.0933ZM224.083 89.4319H224.9V90.2666H224.329C224.176 90.2613 224.044 90.2772 223.933 90.3143C223.822 90.3514 223.737 90.4203 223.679 90.521C223.621 90.6164 223.592 90.7542 223.592 90.9343V94.9727H222.561V90.8071C222.561 90.4892 222.619 90.2295 222.735 90.0281C222.851 89.8214 223.023 89.6704 223.251 89.575C223.478 89.4796 223.756 89.4319 224.083 89.4319Z" fill="#2E0880"/>
<path d="M227.759 95.068C227.262 95.068 226.823 94.9885 226.443 94.8296C226.067 94.6706 225.774 94.44 225.562 94.138C225.351 93.8306 225.245 93.4543 225.245 93.0091C225.245 92.564 225.351 92.1877 225.562 91.8803C225.774 91.5676 226.067 91.3318 226.443 91.1728C226.823 91.0138 227.262 90.9343 227.759 90.9343C228.256 90.9343 228.69 91.0138 229.06 91.1728C229.436 91.3318 229.729 91.5676 229.941 91.8803C230.152 92.1877 230.258 92.564 230.258 93.0091C230.258 93.4543 230.152 93.8306 229.941 94.138C229.729 94.44 229.436 94.6706 229.06 94.8296C228.69 94.9885 228.256 95.068 227.759 95.068ZM227.759 94.2731C228.034 94.2731 228.28 94.2254 228.497 94.13C228.719 94.0293 228.894 93.8862 229.021 93.7007C229.147 93.51 229.211 93.2794 229.211 93.0091C229.211 92.7389 229.147 92.5083 229.021 92.3175C228.894 92.1215 228.722 91.9731 228.505 91.8724C228.288 91.7717 228.04 91.7213 227.759 91.7213C227.484 91.7213 227.236 91.7717 227.014 91.8724C226.792 91.9731 226.615 92.1188 226.482 92.3096C226.355 92.5004 226.292 92.7336 226.292 93.0091C226.292 93.2794 226.355 93.51 226.482 93.7007C226.609 93.8862 226.784 94.0293 227.006 94.13C227.228 94.2254 227.479 94.2731 227.759 94.2731Z" fill="#2E0880"/>
<path d="M231.02 91.0218H232.051V94.9727H231.02V91.0218ZM233.566 91.8724C233.27 91.8724 233.014 91.9307 232.797 92.0473C232.58 92.1586 232.405 92.2963 232.273 92.4606C232.141 92.6249 232.049 92.7839 231.996 92.9376L231.988 92.5004C231.993 92.4368 232.014 92.344 232.051 92.2221C232.088 92.095 232.144 91.9598 232.218 91.8167C232.292 91.6683 232.39 91.5279 232.511 91.3954C232.633 91.2576 232.781 91.1463 232.955 91.0615C233.13 90.9767 233.334 90.9343 233.566 90.9343V91.8724Z" fill="#2E0880"/>
<path d="M241.257 94.2572L240.931 94.2493L242.216 91.0218H243.35L241.613 94.9727H240.646L239.377 91.7849H239.726L238.417 94.9727H237.449L235.76 91.0218H236.894L238.131 94.2572H237.806L238.964 91.0218H240.146L241.257 94.2572Z" fill="#2E0880"/>
<path d="M246.101 95.068C245.604 95.068 245.165 94.9885 244.785 94.8296C244.409 94.6706 244.116 94.44 243.904 94.138C243.693 93.8306 243.587 93.4543 243.587 93.0091C243.587 92.564 243.693 92.1877 243.904 91.8803C244.116 91.5676 244.409 91.3318 244.785 91.1728C245.165 91.0138 245.604 90.9343 246.101 90.9343C246.598 90.9343 247.032 91.0138 247.402 91.1728C247.778 91.3318 248.071 91.5676 248.283 91.8803C248.494 92.1877 248.6 92.564 248.6 93.0091C248.6 93.4543 248.494 93.8306 248.283 94.138C248.071 94.44 247.778 94.6706 247.402 94.8296C247.032 94.9885 246.598 95.068 246.101 95.068ZM246.101 94.2731C246.376 94.2731 246.622 94.2254 246.839 94.13C247.061 94.0293 247.236 93.8862 247.362 93.7007C247.489 93.51 247.553 93.2794 247.553 93.0091C247.553 92.7389 247.489 92.5083 247.362 92.3175C247.236 92.1215 247.064 91.9731 246.847 91.8724C246.63 91.7717 246.382 91.7213 246.101 91.7213C245.826 91.7213 245.578 91.7717 245.356 91.8724C245.134 91.9731 244.957 92.1188 244.824 92.3096C244.697 92.5004 244.634 92.7336 244.634 93.0091C244.634 93.2794 244.697 93.51 244.824 93.7007C244.951 93.8862 245.126 94.0293 245.348 94.13C245.57 94.2254 245.821 94.2731 246.101 94.2731Z" fill="#2E0880"/>
<path d="M249.362 91.0218H250.393V94.9727H249.362V91.0218ZM252.225 90.9343C252.469 90.9343 252.693 90.9661 252.9 91.0297C253.106 91.0933 253.286 91.1914 253.439 91.3239C253.592 91.4564 253.711 91.6259 253.796 91.8326C253.88 92.034 253.923 92.2751 253.923 92.556V94.9727H252.892V92.7389C252.892 92.405 252.81 92.1612 252.646 92.0075C252.487 91.8485 252.225 91.769 251.861 91.769C251.586 91.769 251.337 91.822 251.115 91.928C250.893 92.034 250.713 92.1692 250.576 92.3334C250.438 92.4924 250.359 92.6594 250.338 92.8343L250.33 92.4288C250.356 92.2433 250.417 92.0632 250.512 91.8883C250.607 91.7134 250.734 91.5544 250.893 91.4113C251.057 91.2629 251.25 91.1463 251.472 91.0615C251.694 90.9767 251.945 90.9343 252.225 90.9343ZM255.66 90.9343C255.903 90.9343 256.128 90.9661 256.334 91.0297C256.54 91.0933 256.72 91.1914 256.873 91.3239C257.027 91.4564 257.146 91.6259 257.23 91.8326C257.32 92.034 257.365 92.2751 257.365 92.556V94.9727H256.334V92.7389C256.334 92.405 256.252 92.1612 256.088 92.0075C255.924 91.8485 255.66 91.769 255.295 91.769C255.02 91.769 254.771 91.822 254.549 91.928C254.327 92.034 254.148 92.1692 254.01 92.3334C253.873 92.4924 253.796 92.6594 253.78 92.8343L253.764 92.405C253.791 92.2301 253.854 92.0552 253.955 91.8803C254.055 91.7054 254.187 91.5464 254.351 91.4034C254.515 91.2603 254.705 91.1463 254.922 91.0615C255.144 90.9767 255.39 90.9343 255.66 90.9343Z" fill="#2E0880"/>
<path d="M261.894 93.661H262.893C262.851 93.9313 262.737 94.1724 262.552 94.3844C262.372 94.5964 262.126 94.7633 261.814 94.8852C261.502 95.0071 261.122 95.068 260.672 95.068C260.17 95.068 259.726 94.9885 259.34 94.8296C258.954 94.6653 258.652 94.4294 258.436 94.1221C258.219 93.8147 258.11 93.4437 258.11 93.0091C258.11 92.5746 258.216 92.2036 258.428 91.8962C258.639 91.5835 258.933 91.3451 259.308 91.1808C259.689 91.0165 260.133 90.9343 260.641 90.9343C261.159 90.9343 261.59 91.0165 261.933 91.1808C262.277 91.3451 262.531 91.5941 262.695 91.928C262.864 92.2566 262.935 92.6779 262.909 93.192H259.149C259.176 93.3934 259.25 93.5762 259.371 93.7405C259.498 93.9048 259.668 94.0346 259.879 94.13C260.096 94.2254 260.352 94.2731 260.648 94.2731C260.976 94.2731 261.249 94.2175 261.465 94.1062C261.688 93.9896 261.83 93.8412 261.894 93.661ZM260.593 91.7213C260.212 91.7213 259.903 91.8061 259.665 91.9757C259.427 92.14 259.274 92.344 259.205 92.5878H261.886C261.859 92.3228 261.732 92.1135 261.505 91.9598C261.283 91.8008 260.979 91.7213 260.593 91.7213Z" fill="#2E0880"/>
<path d="M263.676 91.0218H264.707V94.9727H263.676V91.0218ZM266.54 90.9343C266.783 90.9343 267.008 90.9661 267.214 91.0297C267.42 91.0933 267.6 91.1914 267.753 91.3239C267.906 91.4564 268.025 91.6259 268.11 91.8326C268.195 92.034 268.237 92.2751 268.237 92.556V94.9727H267.206V92.7389C267.206 92.405 267.124 92.1612 266.96 92.0075C266.801 91.8485 266.54 91.769 266.175 91.769C265.9 91.769 265.651 91.822 265.429 91.928C265.207 92.034 265.027 92.1692 264.89 92.3334C264.752 92.4924 264.673 92.6594 264.652 92.8343L264.644 92.4288C264.67 92.2433 264.731 92.0632 264.826 91.8883C264.922 91.7134 265.048 91.5544 265.207 91.4113C265.371 91.2629 265.564 91.1463 265.786 91.0615C266.008 90.9767 266.259 90.9343 266.54 90.9343Z" fill="#2E0880"/>
<path d="M272.699 95.0601C272.456 95.0601 272.223 95.0283 272.001 94.9647C271.784 94.9011 271.594 94.811 271.43 94.6944C271.266 94.5778 271.137 94.4374 271.041 94.2731C270.946 94.1035 270.899 93.9154 270.899 93.7087C270.899 93.4543 270.959 93.2397 271.081 93.0648C271.203 92.8846 271.369 92.7389 271.581 92.6276C271.798 92.5163 272.046 92.4341 272.326 92.3811C272.607 92.3228 272.905 92.2884 273.223 92.2778L273.254 92.3255C272.953 92.3149 272.67 92.291 272.406 92.2539C272.146 92.2115 271.919 92.1453 271.723 92.0552C271.533 91.9651 271.382 91.8485 271.271 91.7054C271.166 91.5571 271.113 91.3716 271.113 91.149C271.113 90.8628 271.203 90.6137 271.382 90.4017C271.562 90.1844 271.821 90.0175 272.16 89.9009C272.498 89.7843 272.9 89.726 273.365 89.726C273.688 89.726 273.981 89.7578 274.246 89.8214C274.515 89.885 274.745 89.9831 274.936 90.1155C275.131 90.2427 275.282 90.4044 275.388 90.6005C275.494 90.7913 275.547 91.0165 275.547 91.2762H274.579C274.574 91.0589 274.463 90.8946 274.246 90.7833C274.034 90.6667 273.746 90.6084 273.381 90.6084C272.99 90.6084 272.694 90.672 272.493 90.7992C272.292 90.9211 272.191 91.0907 272.191 91.308C272.191 91.4617 272.239 91.5941 272.334 91.7054C272.429 91.8167 272.575 91.9015 272.77 91.9598C272.971 92.0181 273.223 92.0473 273.524 92.0473H276.609V92.6435H275.61V94.9727H274.65C274.629 94.819 274.613 94.6679 274.603 94.5195C274.592 94.3659 274.584 94.1963 274.579 94.0108C274.579 93.82 274.579 93.5921 274.579 93.3271L274.65 93.5418C274.608 93.7219 274.542 93.9021 274.452 94.0823C274.367 94.2625 274.248 94.4268 274.095 94.5752C273.947 94.7236 273.757 94.8428 273.524 94.9329C273.297 95.0177 273.022 95.0601 272.699 95.0601ZM273.135 94.2652C273.458 94.2652 273.725 94.2095 273.936 94.0982C274.148 93.9816 274.307 93.8332 274.412 93.6531C274.523 93.4676 274.579 93.2768 274.579 93.0807V92.6435H273.524C273.064 92.6435 272.694 92.7124 272.414 92.8502C272.133 92.9826 271.993 93.1946 271.993 93.4861C271.993 93.714 272.091 93.9021 272.287 94.0505C272.482 94.1936 272.765 94.2652 273.135 94.2652Z" fill="#2E0880"/>
<path d="M221.95 99.7405H222.981V103.691H221.95V99.7405ZM224.813 99.6531C225.056 99.6531 225.281 99.6849 225.487 99.7485C225.694 99.8121 225.873 99.9101 226.027 100.043C226.18 100.175 226.299 100.345 226.384 100.551C226.468 100.753 226.511 100.994 226.511 101.275V103.691H225.479V101.458C225.479 101.124 225.397 100.88 225.234 100.726C225.075 100.567 224.813 100.488 224.448 100.488C224.173 100.488 223.925 100.541 223.703 100.647C223.481 100.753 223.301 100.888 223.163 101.052C223.026 101.211 222.947 101.378 222.925 101.553L222.917 101.148C222.944 100.962 223.005 100.782 223.1 100.607C223.195 100.432 223.322 100.273 223.481 100.13C223.645 99.9817 223.838 99.8651 224.06 99.7803C224.282 99.6955 224.533 99.6531 224.813 99.6531Z" fill="#2E0880"/>
<path d="M229.773 103.787C229.276 103.787 228.837 103.707 228.457 103.548C228.081 103.389 227.788 103.159 227.576 102.857C227.365 102.549 227.259 102.173 227.259 101.728C227.259 101.283 227.365 100.906 227.576 100.599C227.788 100.286 228.081 100.051 228.457 99.8916C228.837 99.7326 229.276 99.6531 229.773 99.6531C230.27 99.6531 230.704 99.7326 231.074 99.8916C231.45 100.051 231.743 100.286 231.954 100.599C232.166 100.906 232.272 101.283 232.272 101.728C232.272 102.173 232.166 102.549 231.954 102.857C231.743 103.159 231.45 103.389 231.074 103.548C230.704 103.707 230.27 103.787 229.773 103.787ZM229.773 102.992C230.048 102.992 230.294 102.944 230.511 102.849C230.733 102.748 230.908 102.605 231.034 102.419C231.161 102.229 231.225 101.998 231.225 101.728C231.225 101.458 231.161 101.227 231.034 101.036C230.908 100.84 230.736 100.692 230.519 100.591C230.302 100.49 230.054 100.44 229.773 100.44C229.498 100.44 229.25 100.49 229.028 100.591C228.806 100.692 228.628 100.838 228.496 101.028C228.369 101.219 228.306 101.452 228.306 101.728C228.306 101.998 228.369 102.229 228.496 102.419C228.623 102.605 228.798 102.748 229.02 102.849C229.242 102.944 229.493 102.992 229.773 102.992Z" fill="#2E0880"/>
<path d="M233.034 99.7405H234.065V103.691H233.034V99.7405ZM235.897 99.6531C236.141 99.6531 236.365 99.6849 236.572 99.7485C236.778 99.8121 236.958 99.9101 237.111 100.043C237.264 100.175 237.383 100.345 237.468 100.551C237.552 100.753 237.595 100.994 237.595 101.275V103.691H236.564V101.458C236.564 101.124 236.482 100.88 236.318 100.726C236.159 100.567 235.897 100.488 235.532 100.488C235.258 100.488 235.009 100.541 234.787 100.647C234.565 100.753 234.385 100.888 234.248 101.052C234.11 101.211 234.031 101.378 234.01 101.553L234.002 101.148C234.028 100.962 234.089 100.782 234.184 100.607C234.279 100.432 234.406 100.273 234.565 100.13C234.729 99.9817 234.922 99.8651 235.144 99.7803C235.366 99.6955 235.617 99.6531 235.897 99.6531Z" fill="#2E0880"/>
<path d="M238.692 101.148H241.341V101.927H238.692V101.148Z" fill="#2E0880"/>
<path d="M245.491 103.779C245.142 103.779 244.843 103.718 244.594 103.596C244.346 103.469 244.145 103.305 243.992 103.103C243.838 102.896 243.725 102.674 243.651 102.435C243.577 102.192 243.539 101.953 243.539 101.72C243.539 101.428 243.574 101.158 243.643 100.909C243.717 100.66 243.83 100.443 243.984 100.257C244.137 100.066 244.338 99.9181 244.586 99.8121C244.835 99.7061 245.136 99.6531 245.491 99.6531C245.898 99.6531 246.257 99.7405 246.569 99.9154C246.887 100.085 247.135 100.323 247.315 100.631C247.5 100.938 247.593 101.301 247.593 101.72C247.593 102.128 247.5 102.488 247.315 102.801C247.13 103.108 246.879 103.35 246.561 103.524C246.244 103.694 245.887 103.779 245.491 103.779ZM245.158 102.984C245.438 102.984 245.681 102.931 245.887 102.825C246.093 102.719 246.252 102.573 246.363 102.388C246.479 102.197 246.538 101.974 246.538 101.72C246.538 101.338 246.416 101.031 246.173 100.798C245.935 100.565 245.596 100.448 245.158 100.448C244.851 100.448 244.584 100.498 244.356 100.599C244.129 100.7 243.952 100.845 243.825 101.036C243.703 101.222 243.643 101.45 243.643 101.72C243.643 101.969 243.703 102.189 243.825 102.38C243.947 102.571 244.121 102.719 244.349 102.825C244.576 102.931 244.846 102.984 245.158 102.984ZM243.643 98.1506V102.674C243.643 102.843 243.635 103.026 243.619 103.222C243.603 103.413 243.587 103.569 243.571 103.691H242.611V98.1506H243.643Z" fill="#2E0880"/>
<path d="M249.537 98.0075V98.9138H248.339V98.0075H249.537ZM248.419 99.7405H249.45V103.691H248.419V99.7405Z" fill="#2E0880"/>
<path d="M250.477 99.7405H251.509V103.691H250.477V99.7405ZM253.341 99.6531C253.584 99.6531 253.809 99.6849 254.015 99.7485C254.221 99.8121 254.401 99.9101 254.554 100.043C254.708 100.175 254.827 100.345 254.911 100.551C254.996 100.753 255.038 100.994 255.038 101.275V103.691H254.007V101.458C254.007 101.124 253.925 100.88 253.761 100.726C253.603 100.567 253.341 100.488 252.976 100.488C252.701 100.488 252.452 100.541 252.23 100.647C252.008 100.753 251.828 100.888 251.691 101.052C251.554 101.211 251.474 101.378 251.453 101.553L251.445 101.148C251.472 100.962 251.532 100.782 251.628 100.607C251.723 100.432 251.85 100.273 252.008 100.13C252.172 99.9817 252.365 99.8651 252.587 99.7803C252.809 99.6955 253.061 99.6531 253.341 99.6531Z" fill="#2E0880"/>
<path d="M257.896 103.779C257.505 103.779 257.148 103.694 256.826 103.524C256.508 103.35 256.255 103.108 256.064 102.801C255.879 102.488 255.787 102.128 255.787 101.72C255.787 101.301 255.882 100.938 256.072 100.631C256.262 100.323 256.519 100.085 256.842 99.9154C257.169 99.7405 257.539 99.6531 257.952 99.6531C258.407 99.6531 258.772 99.7458 259.047 99.9313C259.327 100.111 259.53 100.358 259.657 100.671C259.784 100.983 259.848 101.333 259.848 101.72C259.848 101.953 259.811 102.192 259.737 102.435C259.663 102.674 259.549 102.896 259.395 103.103C259.242 103.305 259.041 103.469 258.793 103.596C258.544 103.718 258.245 103.779 257.896 103.779ZM258.23 102.984C258.542 102.984 258.811 102.931 259.039 102.825C259.266 102.719 259.44 102.571 259.562 102.38C259.684 102.189 259.744 101.969 259.744 101.72C259.744 101.45 259.681 101.222 259.554 101.036C259.433 100.845 259.258 100.702 259.031 100.607C258.809 100.506 258.542 100.456 258.23 100.456C257.791 100.456 257.45 100.573 257.206 100.806C256.963 101.034 256.842 101.338 256.842 101.72C256.842 101.974 256.9 102.197 257.016 102.388C257.132 102.573 257.294 102.719 257.5 102.825C257.711 102.931 257.955 102.984 258.23 102.984ZM259.744 99.7405H260.776V103.691H259.816C259.816 103.691 259.808 103.641 259.792 103.54C259.782 103.434 259.771 103.302 259.76 103.143C259.75 102.984 259.744 102.828 259.744 102.674V99.7405Z" fill="#2E0880"/>
<path d="M261.709 99.7405H262.74V103.691H261.709V99.7405ZM264.255 100.591C263.959 100.591 263.702 100.649 263.486 100.766C263.269 100.877 263.094 101.015 262.962 101.179C262.83 101.344 262.737 101.503 262.684 101.656L262.676 101.219C262.682 101.156 262.703 101.063 262.74 100.941C262.777 100.814 262.832 100.679 262.907 100.535C262.981 100.387 263.078 100.247 263.2 100.114C263.322 99.9763 263.47 99.8651 263.644 99.7803C263.819 99.6955 264.022 99.6531 264.255 99.6531V100.591Z" fill="#2E0880"/>
<path d="M264.535 99.7405H265.63L267.335 103.532L266.447 103.691L264.535 99.7405ZM269.358 99.7405L266.629 105.281H265.559L266.725 103.103L268.255 99.7405H269.358Z" fill="#2E0880"/>
<path d="M222.085 112.41V107.267H225.567C225.963 107.267 226.307 107.322 226.598 107.434C226.894 107.54 227.124 107.709 227.288 107.943C227.452 108.17 227.534 108.465 227.534 108.825C227.534 109.069 227.491 109.275 227.407 109.445C227.322 109.615 227.203 109.752 227.05 109.858C226.902 109.964 226.73 110.046 226.534 110.105C226.339 110.158 226.13 110.192 225.908 110.208L225.797 110.145C226.167 110.15 226.471 110.182 226.709 110.24C226.947 110.293 227.124 110.394 227.24 110.542C227.362 110.685 227.423 110.9 227.423 111.186V112.41H226.368V111.257C226.368 111.061 226.333 110.91 226.265 110.804C226.196 110.693 226.072 110.616 225.892 110.574C225.717 110.531 225.464 110.51 225.13 110.51H223.14V112.41H222.085ZM223.14 109.683H225.567C225.863 109.683 226.087 109.612 226.241 109.469C226.399 109.326 226.479 109.132 226.479 108.889C226.479 108.655 226.399 108.478 226.241 108.356C226.087 108.234 225.863 108.173 225.567 108.173H223.14V109.683Z" fill="#2E0880"/>
<path d="M233.063 112.41H232.032V108.459H233.063V112.41ZM232.088 110.51L232.096 110.78C232.085 110.855 232.059 110.963 232.016 111.106C231.974 111.244 231.908 111.393 231.818 111.552C231.734 111.711 231.623 111.864 231.485 112.013C231.348 112.156 231.178 112.275 230.977 112.37C230.776 112.46 230.539 112.506 230.264 112.506C230.047 112.506 229.833 112.479 229.621 112.426C229.415 112.373 229.227 112.286 229.058 112.164C228.889 112.036 228.754 111.867 228.653 111.655C228.553 111.443 228.503 111.175 228.503 110.852V108.459H229.534V110.677C229.534 110.932 229.573 111.133 229.653 111.281C229.737 111.424 229.859 111.525 230.018 111.583C230.176 111.642 230.364 111.671 230.581 111.671C230.866 111.671 231.112 111.61 231.318 111.488C231.525 111.361 231.691 111.207 231.818 111.027C231.95 110.847 232.04 110.674 232.088 110.51Z" fill="#2E0880"/>
<path d="M237.04 112.498C236.691 112.498 236.392 112.437 236.144 112.315C235.895 112.188 235.694 112.023 235.541 111.822C235.388 111.615 235.274 111.393 235.2 111.154C235.126 110.91 235.089 110.672 235.089 110.439C235.089 110.147 235.123 109.877 235.192 109.628C235.266 109.379 235.38 109.161 235.533 108.976C235.686 108.785 235.887 108.637 236.136 108.531C236.384 108.425 236.686 108.372 237.04 108.372C237.447 108.372 237.807 108.459 238.119 108.634C238.436 108.804 238.685 109.042 238.864 109.35C239.049 109.657 239.142 110.02 239.142 110.439C239.142 110.847 239.049 111.207 238.864 111.52C238.679 111.827 238.428 112.068 238.111 112.243C237.794 112.413 237.437 112.498 237.04 112.498ZM236.707 111.703C236.987 111.703 237.23 111.65 237.437 111.544C237.643 111.438 237.801 111.292 237.913 111.106C238.029 110.916 238.087 110.693 238.087 110.439C238.087 110.057 237.965 109.75 237.722 109.517C237.484 109.283 237.146 109.167 236.707 109.167C236.4 109.167 236.133 109.217 235.906 109.318C235.678 109.418 235.501 109.564 235.374 109.755C235.253 109.94 235.192 110.168 235.192 110.439C235.192 110.688 235.253 110.908 235.374 111.098C235.496 111.289 235.671 111.438 235.898 111.544C236.125 111.65 236.395 111.703 236.707 111.703ZM235.192 106.869V111.393C235.192 111.562 235.184 111.745 235.168 111.941C235.152 112.132 235.136 112.288 235.121 112.41H234.161V106.869H235.192Z" fill="#2E0880"/>
<path d="M239.393 108.459H240.487L242.193 112.251L241.304 112.41L239.393 108.459ZM244.215 108.459L241.487 114H240.416L241.582 111.822L243.113 108.459H244.215Z" fill="#2E0880"/>
<path d="M245.997 106.726V107.633H244.799V106.726H245.997ZM244.879 108.459H245.91V112.41H244.879V108.459Z" fill="#2E0880"/>
<path d="M246.779 111.098H247.731C247.789 111.279 247.908 111.427 248.088 111.544C248.273 111.655 248.513 111.711 248.81 111.711C249.01 111.711 249.166 111.692 249.277 111.655C249.389 111.618 249.465 111.565 249.508 111.496C249.55 111.422 249.571 111.34 249.571 111.25C249.571 111.138 249.537 111.053 249.468 110.995C249.399 110.932 249.293 110.881 249.151 110.844C249.008 110.807 248.825 110.773 248.603 110.741C248.381 110.704 248.167 110.659 247.961 110.606C247.755 110.553 247.572 110.484 247.414 110.399C247.255 110.309 247.128 110.198 247.033 110.065C246.943 109.927 246.898 109.76 246.898 109.564C246.898 109.373 246.943 109.204 247.033 109.055C247.128 108.907 247.258 108.783 247.421 108.682C247.591 108.581 247.786 108.504 248.008 108.451C248.236 108.398 248.479 108.372 248.738 108.372C249.129 108.372 249.455 108.43 249.714 108.547C249.973 108.658 250.166 108.817 250.293 109.024C250.425 109.225 250.491 109.458 250.491 109.723H249.579C249.537 109.527 249.452 109.387 249.325 109.302C249.198 109.212 249.003 109.167 248.738 109.167C248.479 109.167 248.283 109.206 248.151 109.286C248.019 109.365 247.953 109.474 247.953 109.612C247.953 109.723 247.993 109.811 248.072 109.874C248.156 109.933 248.278 109.98 248.437 110.017C248.601 110.054 248.804 110.094 249.047 110.137C249.254 110.179 249.449 110.227 249.634 110.28C249.825 110.333 249.994 110.402 250.142 110.486C250.29 110.566 250.406 110.674 250.491 110.812C250.581 110.945 250.626 111.114 250.626 111.321C250.626 111.575 250.552 111.79 250.404 111.965C250.261 112.14 250.055 112.275 249.785 112.37C249.515 112.46 249.193 112.506 248.817 112.506C248.484 112.506 248.196 112.471 247.953 112.402C247.715 112.328 247.517 112.235 247.358 112.124C247.199 112.007 247.075 111.885 246.985 111.758C246.901 111.626 246.842 111.501 246.811 111.385C246.779 111.268 246.768 111.173 246.779 111.098Z" fill="#2E0880"/>
<path d="M251.137 108.459H254.199V109.262H251.137V108.459ZM252.152 107.378H253.183V112.41H252.152V107.378Z" fill="#2E0880"/>
<path d="M254.695 111.098H255.647C255.705 111.279 255.824 111.427 256.004 111.544C256.189 111.655 256.43 111.711 256.726 111.711C256.927 111.711 257.083 111.692 257.194 111.655C257.305 111.618 257.381 111.565 257.424 111.496C257.466 111.422 257.487 111.34 257.487 111.25C257.487 111.138 257.453 111.053 257.384 110.995C257.315 110.932 257.21 110.881 257.067 110.844C256.924 110.807 256.742 110.773 256.519 110.741C256.297 110.704 256.083 110.659 255.877 110.606C255.671 110.553 255.488 110.484 255.33 110.399C255.171 110.309 255.044 110.198 254.949 110.065C254.859 109.927 254.814 109.76 254.814 109.564C254.814 109.373 254.859 109.204 254.949 109.055C255.044 108.907 255.174 108.783 255.338 108.682C255.507 108.581 255.702 108.504 255.925 108.451C256.152 108.398 256.395 108.372 256.654 108.372C257.046 108.372 257.371 108.43 257.63 108.547C257.889 108.658 258.082 108.817 258.209 109.024C258.341 109.225 258.407 109.458 258.407 109.723H257.495C257.453 109.527 257.368 109.387 257.241 109.302C257.114 109.212 256.919 109.167 256.654 109.167C256.395 109.167 256.2 109.206 256.067 109.286C255.935 109.365 255.869 109.474 255.869 109.612C255.869 109.723 255.909 109.811 255.988 109.874C256.073 109.933 256.194 109.98 256.353 110.017C256.517 110.054 256.72 110.094 256.964 110.137C257.17 110.179 257.366 110.227 257.551 110.28C257.741 110.333 257.91 110.402 258.058 110.486C258.206 110.566 258.323 110.674 258.407 110.812C258.497 110.945 258.542 111.114 258.542 111.321C258.542 111.575 258.468 111.79 258.32 111.965C258.177 112.14 257.971 112.275 257.701 112.37C257.432 112.46 257.109 112.506 256.734 112.506C256.4 112.506 256.112 112.471 255.869 112.402C255.631 112.328 255.433 112.235 255.274 112.124C255.116 112.007 254.991 111.885 254.901 111.758C254.817 111.626 254.759 111.501 254.727 111.385C254.695 111.268 254.685 111.173 254.695 111.098Z" fill="#2E0880"/>
<path d="M260.529 111.504V112.41H259.331V111.504H260.529Z" fill="#2E0880"/>
</svg>
