<svg width="370" height="341" viewBox="0 0 370 341" fill="none" xmlns="http://www.w3.org/2000/svg">
<path d="M84.5932 101.511L84.5933 2.30434C84.5933 1.0331 85.6238 0.00255423 86.895 0.0025544C141.685 0.00256159 186.102 44.4189 186.102 99.2093V101.511L84.5932 101.511Z" fill="#FFDD19"/>
<path d="M186.101 101.051V99.2677C186.101 44.4437 230.545 2.39643e-06 285.369 0C286.607 -5.40956e-08 287.61 1.00324 287.61 2.24081V87.8254C287.61 95.1298 281.688 101.051 274.384 101.051H186.101Z" fill="#B0A6F3"/>
<path d="M84.5932 101.051H186.101L186.102 152.462C186.102 179.878 163.877 202.102 136.462 202.102C107.816 202.102 84.5932 178.88 84.5932 150.234V101.051Z" fill="#2E0880"/>
<path d="M237.573 101.051C265.213 101.051 287.62 123.458 287.62 151.098C287.62 179.267 264.784 202.102 236.615 202.102L189.277 202.102C187.529 202.102 186.111 200.685 186.111 198.937V101.051H237.573Z" fill="#449C7C"/>
<path d="M121.626 101.511L121.626 50.7568C149.656 50.7568 172.38 73.4803 172.38 101.511L121.626 101.511Z" fill="#449C7C"/>
<path d="M199.813 101.051C199.813 73.273 222.789 50.7542 250.567 50.7542V101.051H199.813Z" fill="#2E0880"/>
<path d="M121.626 101.051H172.38V126.528C172.38 140.236 161.267 151.348 147.56 151.348C133.237 151.348 121.626 139.737 121.626 125.414V101.051Z" fill="#FFF099"/>
<path d="M225.657 101.051C239.414 101.051 250.567 112.204 250.567 125.961C250.567 139.982 239.201 151.348 225.18 151.348H199.813L199.813 101.051H225.657Z" fill="#BFE444"/>
<path d="M186.068 15.0884C193.013 15.0884 198.757 20.7181 198.757 27.6626C198.757 34.6072 193.013 40.2369 186.068 40.2369C179.123 40.2369 173.379 34.6072 173.379 27.6626C173.379 20.7181 179.123 15.0884 186.068 15.0884Z" fill="#B33C3C"/>
<path d="M33.7619 286.949L43.9045 256.349C44.0727 255.839 44.3082 255.499 44.6109 255.329C44.9137 255.159 45.4183 255.074 46.1247 255.074H51.3222C52.2305 255.074 52.8696 255.142 53.2397 255.278C53.6097 255.414 53.9125 255.805 54.148 256.451L64.6942 285.878C65.0306 286.66 65.2493 287.306 65.3502 287.816C65.4847 288.292 65.6866 288.53 65.9557 288.53C66.2921 288.53 66.5276 288.292 66.6622 287.816C66.7967 287.34 66.9817 286.694 67.2172 285.878L73.2725 264.866C73.508 264.186 73.5248 263.744 73.3229 263.54C73.1547 263.336 72.667 263.234 71.8596 263.234H66.4603C65.7875 263.234 65.3502 263.132 65.1483 262.928C64.9465 262.69 64.8456 262.265 64.8456 261.653V256.451C64.8456 255.873 64.9465 255.499 65.1483 255.329C65.3502 255.159 65.737 255.074 66.3089 255.074H90.429C91.0682 255.074 91.4887 255.21 91.6906 255.482C91.8924 255.72 91.9933 256.179 91.9933 256.859V261.398C91.9933 262.146 91.8924 262.639 91.6906 262.877C91.5224 263.115 91.0514 263.234 90.2777 263.234H85.1307C84.1888 263.234 83.5664 263.319 83.2637 263.489C82.9945 263.659 82.7422 264.118 82.5068 264.866L69.6898 307.349C69.4543 308.131 69.2188 308.658 68.9833 308.93C68.7815 309.236 68.1423 309.389 67.0658 309.389H61.3133C60.2369 309.389 59.5472 309.27 59.2445 309.032C58.9753 308.828 58.6726 308.352 58.3362 307.604L47.8909 278.84C47.5545 277.99 47.319 277.276 47.1844 276.698C47.0498 276.086 46.8312 275.78 46.5284 275.78C46.2593 275.78 46.0238 276.069 45.822 276.647C45.6201 277.191 45.3846 277.854 45.1155 278.636L35.3262 307.502C35.0571 308.25 34.7879 308.743 34.5188 308.981C34.2833 309.253 33.6105 309.389 32.5004 309.389H27.0507C25.9405 309.389 25.2173 309.27 24.8809 309.032C24.5445 308.828 24.2417 308.318 23.9726 307.502L9.59134 264.662C9.42314 264.084 9.2213 263.71 8.98582 263.54C8.75033 263.336 8.24573 263.234 7.472 263.234H1.97181C1.33264 263.234 0.945778 263.098 0.811217 262.826C0.676656 262.52 0.609375 262.061 0.609375 261.449V256.757C0.609375 256.077 0.693476 255.635 0.861677 255.431C1.06352 255.193 1.48402 255.074 2.12319 255.074H32.2481C32.9882 255.074 33.476 255.193 33.7115 255.431C33.9469 255.635 34.0647 256.145 34.0647 256.961V261.143C34.0647 261.959 33.9806 262.52 33.8124 262.826C33.6442 263.098 33.1396 263.234 32.2986 263.234H25.8901C25.1164 263.234 24.679 263.319 24.5781 263.489C24.5108 263.625 24.5613 263.965 24.7295 264.509L31.6426 287C31.8781 287.68 32.0126 288.224 32.0463 288.632C32.1135 289.006 32.2986 289.193 32.6013 289.193C32.9377 289.193 33.1396 289.006 33.2068 288.632C33.3078 288.224 33.4928 287.663 33.7619 286.949Z" fill="#2E0880"/>
<path d="M95.4357 263.234H89.9355C89.1281 263.234 88.6235 263.115 88.4217 262.877C88.2198 262.605 88.1189 262.078 88.1189 261.296V257.012C88.1189 256.23 88.3039 255.72 88.674 255.482C89.044 255.21 89.5823 255.074 90.2887 255.074H109.161C109.834 255.074 110.372 255.244 110.776 255.584C111.179 255.89 111.381 256.451 111.381 257.267V261.143C111.381 262.435 111.499 263.132 111.734 263.234C112.004 263.336 112.39 263.047 112.895 262.367C114.611 259.953 116.78 257.879 119.404 256.145C122.028 254.411 125.51 253.544 129.85 253.544C133.954 253.544 137.284 254.207 139.841 255.533C142.398 256.825 144.265 258.729 145.442 261.245C146.619 263.761 147.208 266.838 147.208 270.476V297.71C147.208 298.662 147.309 299.274 147.511 299.546C147.746 299.818 148.352 299.954 149.327 299.954H154.727C155.332 299.954 155.736 300.073 155.938 300.311C156.173 300.549 156.291 300.991 156.291 301.637V306.227C156.291 307.111 156.123 307.655 155.786 307.859C155.484 308.029 154.895 308.114 154.02 308.114H126.57C125.83 308.114 125.376 307.978 125.207 307.706C125.073 307.4 125.006 306.873 125.006 306.125V301.841C125.006 301.195 125.073 300.719 125.207 300.413C125.376 300.107 125.779 299.954 126.418 299.954H129.951C130.825 299.954 131.38 299.852 131.616 299.648C131.885 299.41 132.02 298.849 132.02 297.965V271.853C132.02 268.589 131.464 266.209 130.354 264.713C129.244 263.183 127.461 262.418 125.006 262.418C122.718 262.418 120.615 263.098 118.698 264.458C116.78 265.784 115.25 267.705 114.106 270.221C112.962 272.737 112.39 275.746 112.39 279.248V297.914C112.39 298.662 112.508 299.189 112.744 299.495C113.013 299.801 113.551 299.954 114.358 299.954H117.537C118.277 299.954 118.782 300.056 119.051 300.26C119.32 300.464 119.455 300.957 119.455 301.739V306.38C119.455 307.162 119.287 307.655 118.95 307.859C118.647 308.029 118.16 308.114 117.487 308.114H89.6327C88.9599 308.114 88.5394 307.995 88.3712 307.757C88.203 307.485 88.1189 306.975 88.1189 306.227V301.841C88.1189 301.025 88.2535 300.515 88.5226 300.311C88.7917 300.073 89.2963 299.954 90.0364 299.954H95.0824C95.9571 299.954 96.529 299.869 96.7981 299.699C97.0672 299.529 97.2018 299.019 97.2018 298.169V264.866C97.2018 264.152 97.0841 263.71 96.8486 263.54C96.6131 263.336 96.1421 263.234 95.4357 263.234Z" fill="#2E0880"/>
<path d="M177.445 281.594C177.445 285.13 177.933 288.343 178.908 291.233C179.918 294.123 181.314 296.435 183.097 298.169C184.88 299.903 186.965 300.77 189.354 300.77C191.507 300.77 193.407 299.903 195.056 298.169C196.738 296.435 198.05 294.123 198.992 291.233C199.934 288.343 200.405 285.13 200.405 281.594C200.405 278.058 199.934 274.845 198.992 271.955C198.05 269.065 196.738 266.753 195.056 265.019C193.407 263.285 191.507 262.418 189.354 262.418C186.965 262.418 184.88 263.285 183.097 265.019C181.314 266.753 179.918 269.065 178.908 271.955C177.933 274.845 177.445 278.058 177.445 281.594ZM154.536 236.713C153.998 236.713 153.628 236.628 153.426 236.458C153.258 236.254 153.174 235.88 153.174 235.336V229.726C153.174 229.25 153.258 228.944 153.426 228.808C153.628 228.638 153.947 228.553 154.385 228.553H175.83C176.368 228.553 176.772 228.621 177.041 228.757C177.31 228.893 177.445 229.25 177.445 229.828V261.959C177.445 262.843 177.479 263.353 177.546 263.489C177.647 263.591 177.832 263.455 178.101 263.081C179.884 260.191 182.037 257.896 184.56 256.196C187.083 254.496 190.296 253.646 194.198 253.646C198.369 253.646 202.137 254.734 205.501 256.91C208.899 259.086 211.59 262.265 213.575 266.447C215.593 270.595 216.602 275.644 216.602 281.594C216.602 287.544 215.56 292.61 213.474 296.792C211.388 300.974 208.613 304.17 205.148 306.38C201.683 308.556 197.865 309.644 193.693 309.644C189.993 309.644 186.932 308.913 184.509 307.451C182.087 305.955 180.052 303.796 178.404 300.974C178.067 300.396 177.815 300.175 177.647 300.311C177.512 300.413 177.445 301.008 177.445 302.096V306.278C177.445 306.958 177.31 307.434 177.041 307.706C176.806 307.978 176.352 308.114 175.679 308.114H154.536C153.998 308.114 153.628 308.046 153.426 307.91C153.258 307.74 153.174 307.366 153.174 306.788V301.178C153.174 300.634 153.291 300.294 153.527 300.158C153.796 300.022 154.183 299.954 154.687 299.954H160.894C161.499 299.954 161.87 299.852 162.004 299.648C162.172 299.444 162.256 299.036 162.256 298.424V237.937C162.256 237.121 161.937 236.713 161.298 236.713H154.536Z" fill="#2E0880"/>
<path d="M225.178 300.464C225.178 298.764 225.582 297.234 226.389 295.874C227.23 294.48 228.34 293.375 229.72 292.559C231.099 291.709 232.63 291.284 234.312 291.284C235.96 291.284 237.474 291.709 238.853 292.559C240.232 293.375 241.326 294.48 242.133 295.874C242.974 297.234 243.395 298.764 243.395 300.464C243.395 302.13 242.974 303.66 242.133 305.054C241.326 306.448 240.232 307.553 238.853 308.369C237.474 309.219 235.96 309.644 234.312 309.644C232.63 309.644 231.099 309.219 229.72 308.369C228.34 307.553 227.23 306.448 226.389 305.054C225.582 303.66 225.178 302.13 225.178 300.464Z" fill="#2E0880"/>
<path d="M260.737 265.325C260.737 264.475 260.636 263.914 260.434 263.642C260.266 263.37 259.778 263.234 258.971 263.234H253.319C252.579 263.234 252.108 263.132 251.907 262.928C251.738 262.69 251.654 262.214 251.654 261.5V257.012C251.654 256.23 251.772 255.72 252.007 255.482C252.243 255.21 252.714 255.074 253.42 255.074H273.201C273.806 255.074 274.244 255.176 274.513 255.38C274.782 255.55 274.917 255.975 274.917 256.655V261.347C274.917 262.333 274.984 262.928 275.118 263.132C275.253 263.336 275.522 263.064 275.926 262.316C277.339 259.8 279.273 257.709 281.729 256.043C284.218 254.377 287.414 253.544 291.316 253.544C295.084 253.544 298.297 254.564 300.954 256.604C303.645 258.61 304.991 261.466 304.991 265.172C304.991 266.77 304.638 268.368 303.931 269.966C303.225 271.53 302.182 272.839 300.803 273.893C299.424 274.947 297.725 275.474 295.706 275.474C293.217 275.474 291.148 274.828 289.5 273.536C287.851 272.244 287.027 270.561 287.027 268.487C287.027 267.093 287.246 266.005 287.683 265.223C288.12 264.441 288.558 263.829 288.995 263.387C289.466 262.945 289.701 262.52 289.701 262.112C289.701 261.738 289.533 261.432 289.197 261.194C288.894 260.956 288.305 260.837 287.431 260.837C285.48 260.837 283.613 261.738 281.83 263.54C280.08 265.308 278.651 267.671 277.54 270.629C276.464 273.553 275.926 276.766 275.926 280.268V298.016C275.926 298.798 276.027 299.325 276.229 299.597C276.43 299.835 276.935 299.954 277.742 299.954H283.646C284.285 299.954 284.672 300.073 284.807 300.311C284.941 300.549 285.009 300.991 285.009 301.637V306.278C285.009 306.992 284.925 307.485 284.756 307.757C284.622 307.995 284.218 308.114 283.545 308.114H253.471C252.832 308.114 252.361 308.012 252.058 307.808C251.789 307.604 251.654 307.179 251.654 306.533V301.433C251.654 300.753 251.772 300.345 252.007 300.209C252.277 300.039 252.714 299.954 253.319 299.954H258.517C259.358 299.954 259.93 299.852 260.233 299.648C260.569 299.444 260.737 298.934 260.737 298.118V265.325Z" fill="#2E0880"/>
<path d="M329.319 281.594C329.319 285.13 329.807 288.343 330.783 291.233C331.792 294.123 333.188 296.435 334.971 298.169C336.754 299.903 338.839 300.77 341.228 300.77C343.381 300.77 345.282 299.903 346.93 298.169C348.612 296.435 349.924 294.123 350.866 291.233C351.808 288.343 352.279 285.13 352.279 281.594C352.279 278.058 351.808 274.845 350.866 271.955C349.924 269.065 348.612 266.753 346.93 265.019C345.282 263.285 343.381 262.418 341.228 262.418C338.839 262.418 336.754 263.285 334.971 265.019C333.188 266.753 331.792 269.065 330.783 271.955C329.807 274.845 329.319 278.058 329.319 281.594ZM306.41 236.713C305.872 236.713 305.502 236.628 305.3 236.458C305.132 236.254 305.048 235.88 305.048 235.336V229.726C305.048 229.25 305.132 228.944 305.3 228.808C305.502 228.638 305.822 228.553 306.259 228.553H327.704C328.243 228.553 328.646 228.621 328.916 228.757C329.185 228.893 329.319 229.25 329.319 229.828V261.959C329.319 262.843 329.353 263.353 329.42 263.489C329.521 263.591 329.706 263.455 329.975 263.081C331.758 260.191 333.911 257.896 336.434 256.196C338.957 254.496 342.17 253.646 346.072 253.646C350.243 253.646 354.011 254.734 357.375 256.91C360.773 259.086 363.464 262.265 365.449 266.447C367.467 270.595 368.477 275.644 368.477 281.594C368.477 287.544 367.434 292.61 365.348 296.792C363.262 300.974 360.487 304.17 357.022 306.38C353.557 308.556 349.739 309.644 345.568 309.644C341.867 309.644 338.806 308.913 336.384 307.451C333.962 305.955 331.926 303.796 330.278 300.974C329.942 300.396 329.689 300.175 329.521 300.311C329.387 300.413 329.319 301.008 329.319 302.096V306.278C329.319 306.958 329.185 307.434 328.916 307.706C328.68 307.978 328.226 308.114 327.553 308.114H306.41C305.872 308.114 305.502 308.046 305.3 307.91C305.132 307.74 305.048 307.366 305.048 306.788V301.178C305.048 300.634 305.165 300.294 305.401 300.158C305.67 300.022 306.057 299.954 306.562 299.954H312.768C313.374 299.954 313.744 299.852 313.878 299.648C314.047 299.444 314.131 299.036 314.131 298.424V237.937C314.131 237.121 313.811 236.713 313.172 236.713H306.41Z" fill="#2E0880"/>
<path d="M5.26599 336.724V335.342H10.5416V336.724H5.26599ZM3.28147 338.481L7.02864 330.421H8.80362L12.5878 338.481H10.8005L7.52169 331.218H8.31057L5.05645 338.481H3.28147Z" fill="#2E0880"/>
<path d="M19.8883 337.422H19.3089L21.5523 332.289H23.3026L20.3567 338.481H18.8405L15.9562 332.289H17.7189L19.8883 337.422Z" fill="#2E0880"/>
<path d="M26.0755 329.573V330.994H24.2142V329.573H26.0755ZM24.3375 332.289H25.9399V338.481H24.3375V332.289Z" fill="#2E0880"/>
<path d="M27.5371 332.289H29.1395V338.481H27.5371V332.289ZM31.4938 333.622C31.0336 333.622 30.6351 333.714 30.2981 333.896C29.9612 334.071 29.6901 334.287 29.4846 334.544C29.2792 334.802 29.1354 335.051 29.0532 335.292L29.0409 334.607C29.0491 334.507 29.082 334.362 29.1395 334.171C29.197 333.971 29.2833 333.759 29.3983 333.535C29.5134 333.303 29.6654 333.083 29.8544 332.875C30.0434 332.659 30.2735 332.484 30.5447 332.352C30.8159 332.219 31.1322 332.152 31.4938 332.152V333.622Z" fill="#2E0880"/>
<path d="M32.0891 332.289H36.847V333.548H32.0891V332.289ZM33.6669 330.595H35.2693V338.481H33.6669V330.595Z" fill="#2E0880"/>
<path d="M44.9527 338.481H43.3503V332.289H44.9527V338.481ZM43.4366 335.504L43.4489 335.927C43.4324 336.043 43.3914 336.214 43.3256 336.438C43.2599 336.654 43.1572 336.886 43.0175 337.136C42.886 337.385 42.7134 337.626 42.4998 337.858C42.2861 338.082 42.0231 338.269 41.7109 338.419C41.3986 338.56 41.0288 338.631 40.6015 338.631C40.2646 338.631 39.9318 338.589 39.6031 338.506C39.2826 338.423 38.9909 338.286 38.7279 338.095C38.465 337.896 38.2554 337.63 38.0993 337.298C37.9432 336.965 37.8651 336.546 37.8651 336.039V332.289H39.4675V335.765C39.4675 336.164 39.5291 336.479 39.6524 336.712C39.7839 336.936 39.9729 337.094 40.2194 337.185C40.4659 337.277 40.7577 337.322 41.0946 337.322C41.5383 337.322 41.9204 337.227 42.2409 337.036C42.5614 336.837 42.8202 336.596 43.0175 336.313C43.2229 336.031 43.3626 335.761 43.4366 335.504Z" fill="#2E0880"/>
<path d="M49.3946 338.618C48.7865 338.618 48.2318 338.485 47.7305 338.219C47.2375 337.945 46.843 337.567 46.5472 337.086C46.2596 336.596 46.1158 336.031 46.1158 335.391C46.1158 334.735 46.2637 334.166 46.5595 333.685C46.8554 333.203 47.2539 332.829 47.7552 332.563C48.2646 332.289 48.8399 332.152 49.4808 332.152C50.1875 332.152 50.7546 332.298 51.1819 332.588C51.6174 332.871 51.9338 333.257 52.131 333.747C52.3282 334.237 52.4268 334.785 52.4268 335.391C52.4268 335.757 52.3693 336.131 52.2542 336.513C52.1392 336.886 51.9625 337.235 51.7242 337.559C51.4859 337.875 51.1736 338.132 50.7874 338.332C50.4012 338.523 49.9369 338.618 49.3946 338.618ZM49.9123 337.372C50.3971 337.372 50.8162 337.289 51.1695 337.123C51.5229 336.957 51.7941 336.724 51.9831 336.425C52.1721 336.126 52.2666 335.782 52.2666 335.391C52.2666 334.968 52.168 334.611 51.9707 334.32C51.7817 334.021 51.5106 333.797 51.1572 333.647C50.8121 333.489 50.3971 333.411 49.9123 333.411C49.2302 333.411 48.7002 333.593 48.3222 333.959C47.9442 334.316 47.7552 334.793 47.7552 335.391C47.7552 335.79 47.8456 336.139 48.0263 336.438C48.2071 336.729 48.4578 336.957 48.7782 337.123C49.1069 337.289 49.4849 337.372 49.9123 337.372ZM52.2666 332.289H53.869V338.481H52.3775C52.3775 338.481 52.3652 338.402 52.3405 338.244C52.3241 338.078 52.3076 337.871 52.2912 337.621C52.2748 337.372 52.2666 337.127 52.2666 336.886V332.289Z" fill="#2E0880"/>
<path d="M55.4425 329.798H57.0449V338.481H55.4425V329.798Z" fill="#2E0880"/>
<path d="M68.9113 336.039C68.8702 336.579 68.6976 337.044 68.3936 337.435C68.0978 337.825 67.6869 338.124 67.161 338.332C66.6351 338.531 66.0105 338.631 65.2874 338.631C64.5314 338.631 63.8534 338.51 63.2536 338.269C62.6619 338.02 62.1935 337.659 61.8484 337.185C61.5115 336.704 61.343 336.11 61.343 335.404C61.343 334.698 61.5115 334.104 61.8484 333.622C62.1935 333.141 62.6619 332.775 63.2536 332.526C63.8534 332.277 64.5314 332.152 65.2874 332.152C66.0105 332.152 66.631 332.256 67.1487 332.464C67.6664 332.663 68.0731 332.954 68.3689 333.336C68.673 333.718 68.8497 334.179 68.899 334.719H67.4322C67.2925 334.303 67.0336 333.979 66.6556 333.747C66.2776 333.514 65.8215 333.398 65.2874 333.398C64.8601 333.398 64.4698 333.473 64.1164 333.622C63.7713 333.772 63.4919 333.996 63.2782 334.295C63.0728 334.586 62.9701 334.955 62.9701 335.404C62.9701 335.844 63.0728 336.214 63.2782 336.513C63.4837 336.803 63.7631 337.023 64.1164 337.173C64.4698 337.314 64.8601 337.385 65.2874 337.385C65.8626 337.385 66.331 337.268 66.6926 337.036C67.0624 336.803 67.313 336.471 67.4445 336.039H68.9113Z" fill="#2E0880"/>
<path d="M73.7006 338.631C72.9282 338.631 72.2461 338.506 71.6545 338.257C71.071 338.008 70.615 337.646 70.2863 337.173C69.9576 336.691 69.7932 336.102 69.7932 335.404C69.7932 334.706 69.9576 334.117 70.2863 333.635C70.615 333.145 71.071 332.775 71.6545 332.526C72.2461 332.277 72.9282 332.152 73.7006 332.152C74.4731 332.152 75.1469 332.277 75.7221 332.526C76.3056 332.775 76.7616 333.145 77.0903 333.635C77.419 334.117 77.5834 334.706 77.5834 335.404C77.5834 336.102 77.419 336.691 77.0903 337.173C76.7616 337.646 76.3056 338.008 75.7221 338.257C75.1469 338.506 74.4731 338.631 73.7006 338.631ZM73.7006 337.385C74.1279 337.385 74.51 337.31 74.847 337.16C75.1921 337.003 75.4633 336.778 75.6605 336.488C75.8577 336.189 75.9563 335.827 75.9563 335.404C75.9563 334.98 75.8577 334.619 75.6605 334.32C75.4633 334.013 75.1962 333.78 74.8593 333.622C74.5224 333.465 74.1361 333.386 73.7006 333.386C73.2733 333.386 72.8871 333.465 72.542 333.622C72.1968 333.78 71.9215 334.009 71.7161 334.308C71.5189 334.607 71.4203 334.972 71.4203 335.404C71.4203 335.827 71.5189 336.189 71.7161 336.488C71.9133 336.778 72.1845 337.003 72.5296 337.16C72.8748 337.31 73.2651 337.385 73.7006 337.385Z" fill="#2E0880"/>
<path d="M78.768 332.289H80.3704V338.481H78.768V332.289ZM83.2177 332.152C83.5957 332.152 83.945 332.202 84.2654 332.302C84.5859 332.401 84.8653 332.555 85.1036 332.763C85.3419 332.97 85.5268 333.236 85.6583 333.56C85.7898 333.876 85.8555 334.254 85.8555 334.694V338.481H84.2531V334.98C84.2531 334.457 84.1257 334.075 83.871 333.834C83.6245 333.585 83.2177 333.46 82.6507 333.46C82.2234 333.46 81.8372 333.543 81.492 333.71C81.1469 333.876 80.8675 334.087 80.6539 334.345C80.4402 334.594 80.3169 334.856 80.2841 335.13L80.2718 334.494C80.3128 334.204 80.4073 333.921 80.5553 333.647C80.7032 333.373 80.9004 333.124 81.1469 332.9C81.4017 332.667 81.7016 332.484 82.0467 332.352C82.3919 332.219 82.7822 332.152 83.2177 332.152ZM88.555 332.152C88.933 332.152 89.2822 332.202 89.6027 332.302C89.9232 332.401 90.2026 332.555 90.4409 332.763C90.6792 332.97 90.8641 333.236 90.9956 333.56C91.1353 333.876 91.2051 334.254 91.2051 334.694V338.481H89.6027V334.98C89.6027 334.457 89.4753 334.075 89.2206 333.834C88.9659 333.585 88.555 333.46 87.988 333.46C87.5607 333.46 87.1744 333.543 86.8293 333.71C86.4842 333.876 86.2048 334.087 85.9911 334.345C85.7775 334.594 85.6583 334.856 85.6337 335.13L85.609 334.457C85.6501 334.183 85.7487 333.909 85.9048 333.635C86.061 333.361 86.2664 333.112 86.5211 332.887C86.7759 332.663 87.0717 332.484 87.4086 332.352C87.7538 332.219 88.1359 332.152 88.555 332.152Z" fill="#2E0880"/>
<path d="M92.659 332.289H94.2614V338.481H92.659V332.289ZM97.1088 332.152C97.4868 332.152 97.8361 332.202 98.1565 332.302C98.477 332.401 98.7564 332.555 98.9947 332.763C99.233 332.97 99.4179 333.236 99.5494 333.56C99.6809 333.876 99.7466 334.254 99.7466 334.694V338.481H98.1442V334.98C98.1442 334.457 98.0168 334.075 97.7621 333.834C97.5156 333.585 97.1088 333.46 96.5418 333.46C96.1145 333.46 95.7282 333.543 95.3831 333.71C95.038 333.876 94.7586 334.087 94.5449 334.345C94.3313 334.594 94.208 334.856 94.1751 335.13L94.1628 334.494C94.2039 334.204 94.2984 333.921 94.4463 333.647C94.5942 333.373 94.7915 333.124 95.038 332.9C95.2927 332.667 95.5927 332.484 95.9378 332.352C96.2829 332.219 96.6733 332.152 97.1088 332.152ZM102.446 332.152C102.824 332.152 103.173 332.202 103.494 332.302C103.814 332.401 104.094 332.555 104.332 332.763C104.57 332.97 104.755 333.236 104.887 333.56C105.026 333.876 105.096 334.254 105.096 334.694V338.481H103.494V334.98C103.494 334.457 103.366 334.075 103.112 333.834C102.857 333.585 102.446 333.46 101.879 333.46C101.452 333.46 101.066 333.543 100.72 333.71C100.375 333.876 100.096 334.087 99.8822 334.345C99.6685 334.594 99.5494 334.856 99.5247 335.13L99.5001 334.457C99.5412 334.183 99.6398 333.909 99.7959 333.635C99.952 333.361 100.157 333.112 100.412 332.887C100.667 332.663 100.963 332.484 101.3 332.352C101.645 332.219 102.027 332.152 102.446 332.152Z" fill="#2E0880"/>
<path d="M113.638 338.481H112.035V332.289H113.638V338.481ZM112.122 335.504L112.134 335.927C112.117 336.043 112.076 336.214 112.011 336.438C111.945 336.654 111.842 336.886 111.702 337.136C111.571 337.385 111.398 337.626 111.185 337.858C110.971 338.082 110.708 338.269 110.396 338.419C110.084 338.56 109.714 338.631 109.287 338.631C108.95 338.631 108.617 338.589 108.288 338.506C107.968 338.423 107.676 338.286 107.413 338.095C107.15 337.896 106.94 337.63 106.784 337.298C106.628 336.965 106.55 336.546 106.55 336.039V332.289H108.153V335.765C108.153 336.164 108.214 336.479 108.337 336.712C108.469 336.936 108.658 337.094 108.904 337.185C109.151 337.277 109.443 337.322 109.78 337.322C110.223 337.322 110.605 337.227 110.926 337.036C111.246 336.837 111.505 336.596 111.702 336.313C111.908 336.031 112.048 335.761 112.122 335.504Z" fill="#2E0880"/>
<path d="M115.097 332.289H116.699V338.481H115.097V332.289ZM119.546 332.152C119.924 332.152 120.274 332.202 120.594 332.302C120.915 332.401 121.194 332.555 121.432 332.763C121.671 332.97 121.855 333.236 121.987 333.56C122.118 333.876 122.184 334.254 122.184 334.694V338.481H120.582V334.98C120.582 334.457 120.454 334.075 120.2 333.834C119.953 333.585 119.546 333.46 118.979 333.46C118.552 333.46 118.166 333.543 117.821 333.71C117.476 333.876 117.196 334.087 116.983 334.345C116.769 334.594 116.646 334.856 116.613 335.13L116.6 334.494C116.642 334.204 116.736 333.921 116.884 333.647C117.032 333.373 117.229 333.124 117.476 332.9C117.73 332.667 118.03 332.484 118.375 332.352C118.721 332.219 119.111 332.152 119.546 332.152Z" fill="#2E0880"/>
<path d="M125.48 329.573V330.994H123.618V329.573H125.48ZM123.742 332.289H125.344V338.481H123.742V332.289Z" fill="#2E0880"/>
<path d="M126.51 332.289H131.268V333.548H126.51V332.289ZM128.088 330.595H129.69V338.481H128.088V330.595Z" fill="#2E0880"/>
<path d="M131.731 332.289H133.432L136.082 338.232L134.702 338.481L131.731 332.289ZM139.226 332.289L134.985 340.973H133.321L135.133 337.559L137.512 332.289H139.226Z" fill="#2E0880"/>
<path d="M142.7 332.401H147.631V333.635H142.7V332.401ZM146.447 329.798H147.717V331.106H146.829C146.591 331.098 146.386 331.122 146.213 331.181C146.041 331.239 145.909 331.347 145.819 331.504C145.728 331.654 145.683 331.87 145.683 332.152V338.481H144.081V331.953C144.081 331.455 144.171 331.048 144.352 330.732C144.533 330.408 144.8 330.171 145.153 330.022C145.506 329.872 145.938 329.798 146.447 329.798Z" fill="#2E0880"/>
<path d="M152.16 338.631C151.387 338.631 150.705 338.506 150.114 338.257C149.53 338.008 149.074 337.646 148.746 337.173C148.417 336.691 148.253 336.102 148.253 335.404C148.253 334.706 148.417 334.117 148.746 333.635C149.074 333.145 149.53 332.775 150.114 332.526C150.705 332.277 151.387 332.152 152.16 332.152C152.932 332.152 153.606 332.277 154.181 332.526C154.765 332.775 155.221 333.145 155.55 333.635C155.878 334.117 156.043 334.706 156.043 335.404C156.043 336.102 155.878 336.691 155.55 337.173C155.221 337.646 154.765 338.008 154.181 338.257C153.606 338.506 152.932 338.631 152.16 338.631ZM152.16 337.385C152.587 337.385 152.969 337.31 153.306 337.16C153.651 337.003 153.923 336.778 154.12 336.488C154.317 336.189 154.416 335.827 154.416 335.404C154.416 334.98 154.317 334.619 154.12 334.32C153.923 334.013 153.656 333.78 153.319 333.622C152.982 333.465 152.595 333.386 152.16 333.386C151.733 333.386 151.346 333.465 151.001 333.622C150.656 333.78 150.381 334.009 150.175 334.308C149.978 334.607 149.88 334.972 149.88 335.404C149.88 335.827 149.978 336.189 150.175 336.488C150.373 336.778 150.644 337.003 150.989 337.16C151.334 337.31 151.724 337.385 152.16 337.385Z" fill="#2E0880"/>
<path d="M157.227 332.289H158.83V338.481H157.227V332.289ZM161.184 333.622C160.724 333.622 160.325 333.714 159.988 333.896C159.651 334.071 159.38 334.287 159.175 334.544C158.969 334.802 158.826 335.051 158.743 335.292L158.731 334.607C158.739 334.507 158.772 334.362 158.83 334.171C158.887 333.971 158.973 333.759 159.089 333.535C159.204 333.303 159.356 333.083 159.545 332.875C159.734 332.659 159.964 332.484 160.235 332.352C160.506 332.219 160.822 332.152 161.184 332.152V333.622Z" fill="#2E0880"/>
<path d="M173.135 337.36L172.63 337.347L174.627 332.289H176.389L173.69 338.481H172.186L170.214 333.485H170.756L168.722 338.481H167.219L164.593 332.289H166.356L168.279 337.36H167.773L169.573 332.289H171.41L173.135 337.36Z" fill="#2E0880"/>
<path d="M180.664 338.631C179.892 338.631 179.21 338.506 178.618 338.257C178.035 338.008 177.579 337.646 177.25 337.173C176.921 336.691 176.757 336.102 176.757 335.404C176.757 334.706 176.921 334.117 177.25 333.635C177.579 333.145 178.035 332.775 178.618 332.526C179.21 332.277 179.892 332.152 180.664 332.152C181.437 332.152 182.111 332.277 182.686 332.526C183.269 332.775 183.725 333.145 184.054 333.635C184.383 334.117 184.547 334.706 184.547 335.404C184.547 336.102 184.383 336.691 184.054 337.173C183.725 337.646 183.269 338.008 182.686 338.257C182.111 338.506 181.437 338.631 180.664 338.631ZM180.664 337.385C181.092 337.385 181.474 337.31 181.811 337.16C182.156 337.003 182.427 336.778 182.624 336.488C182.821 336.189 182.92 335.827 182.92 335.404C182.92 334.98 182.821 334.619 182.624 334.32C182.427 334.013 182.16 333.78 181.823 333.622C181.486 333.465 181.1 333.386 180.664 333.386C180.237 333.386 179.851 333.465 179.506 333.622C179.161 333.78 178.885 334.009 178.68 334.308C178.483 334.607 178.384 334.972 178.384 335.404C178.384 335.827 178.483 336.189 178.68 336.488C178.877 336.778 179.148 337.003 179.493 337.16C179.838 337.31 180.229 337.385 180.664 337.385Z" fill="#2E0880"/>
<path d="M185.732 332.289H187.334V338.481H185.732V332.289ZM190.181 332.152C190.559 332.152 190.909 332.202 191.229 332.302C191.55 332.401 191.829 332.555 192.067 332.763C192.306 332.97 192.491 333.236 192.622 333.56C192.753 333.876 192.819 334.254 192.819 334.694V338.481H191.217V334.98C191.217 334.457 191.089 334.075 190.835 333.834C190.588 333.585 190.181 333.46 189.614 333.46C189.187 333.46 188.801 333.543 188.456 333.71C188.111 333.876 187.831 334.087 187.618 334.345C187.404 334.594 187.281 334.856 187.248 335.13L187.235 334.494C187.277 334.204 187.371 333.921 187.519 333.647C187.667 333.373 187.864 333.124 188.111 332.9C188.365 332.667 188.665 332.484 189.01 332.352C189.356 332.219 189.746 332.152 190.181 332.152ZM195.519 332.152C195.897 332.152 196.246 332.202 196.566 332.302C196.887 332.401 197.166 332.555 197.405 332.763C197.643 332.97 197.828 333.236 197.959 333.56C198.099 333.876 198.169 334.254 198.169 334.694V338.481H196.566V334.98C196.566 334.457 196.439 334.075 196.184 333.834C195.93 333.585 195.519 333.46 194.952 333.46C194.524 333.46 194.138 333.543 193.793 333.71C193.448 333.876 193.168 334.087 192.955 334.345C192.741 334.594 192.622 334.856 192.597 335.13L192.573 334.457C192.614 334.183 192.712 333.909 192.869 333.635C193.025 333.361 193.23 333.112 193.485 332.887C193.74 332.663 194.035 332.484 194.372 332.352C194.717 332.219 195.1 332.152 195.519 332.152Z" fill="#2E0880"/>
<path d="M205.207 336.425H206.76C206.694 336.849 206.517 337.227 206.23 337.559C205.95 337.891 205.568 338.153 205.083 338.344C204.598 338.535 204.007 338.631 203.308 338.631C202.528 338.631 201.837 338.506 201.237 338.257C200.638 337.999 200.169 337.63 199.832 337.148C199.495 336.666 199.327 336.085 199.327 335.404C199.327 334.723 199.491 334.141 199.82 333.66C200.149 333.17 200.605 332.796 201.188 332.538C201.78 332.281 202.47 332.152 203.259 332.152C204.064 332.152 204.734 332.281 205.268 332.538C205.802 332.796 206.197 333.186 206.451 333.71C206.714 334.224 206.825 334.885 206.784 335.69H200.942C200.983 336.006 201.098 336.293 201.287 336.55C201.484 336.807 201.747 337.011 202.076 337.16C202.413 337.31 202.811 337.385 203.271 337.385C203.781 337.385 204.204 337.298 204.541 337.123C204.886 336.94 205.108 336.708 205.207 336.425ZM203.185 333.386C202.593 333.386 202.113 333.519 201.743 333.784C201.373 334.042 201.135 334.362 201.028 334.744H205.194C205.153 334.328 204.956 334 204.603 333.759C204.257 333.51 203.785 333.386 203.185 333.386Z" fill="#2E0880"/>
<path d="M207.977 332.289H209.579V338.481H207.977V332.289ZM212.426 332.152C212.804 332.152 213.154 332.202 213.474 332.302C213.795 332.401 214.074 332.555 214.312 332.763C214.551 332.97 214.736 333.236 214.867 333.56C214.998 333.876 215.064 334.254 215.064 334.694V338.481H213.462V334.98C213.462 334.457 213.334 334.075 213.08 333.834C212.833 333.585 212.426 333.46 211.859 333.46C211.432 333.46 211.046 333.543 210.701 333.71C210.356 333.876 210.076 334.087 209.863 334.345C209.649 334.594 209.526 334.856 209.493 335.13L209.48 334.494C209.522 334.204 209.616 333.921 209.764 333.647C209.912 333.373 210.109 333.124 210.356 332.9C210.61 332.667 210.91 332.484 211.255 332.352C211.601 332.219 211.991 332.152 212.426 332.152Z" fill="#2E0880"/>
<path d="M221.999 338.618C221.621 338.618 221.259 338.568 220.914 338.469C220.577 338.369 220.281 338.228 220.026 338.045C219.772 337.862 219.57 337.642 219.422 337.385C219.274 337.119 219.201 336.824 219.201 336.5C219.201 336.102 219.295 335.765 219.484 335.491C219.673 335.209 219.932 334.98 220.261 334.806C220.598 334.631 220.984 334.503 221.419 334.42C221.855 334.328 222.319 334.274 222.812 334.258L222.861 334.332C222.393 334.316 221.953 334.279 221.543 334.22C221.14 334.154 220.787 334.05 220.482 333.909C220.187 333.768 219.952 333.585 219.78 333.361C219.616 333.128 219.533 332.837 219.533 332.489C219.533 332.04 219.673 331.65 219.952 331.318C220.232 330.977 220.634 330.715 221.16 330.533C221.686 330.35 222.311 330.259 223.034 330.259C223.535 330.259 223.991 330.308 224.402 330.408C224.821 330.508 225.179 330.661 225.475 330.869C225.779 331.068 226.013 331.322 226.177 331.629C226.342 331.928 226.424 332.281 226.424 332.688H224.92C224.912 332.347 224.739 332.09 224.402 331.916C224.074 331.733 223.626 331.642 223.059 331.642C222.451 331.642 221.99 331.741 221.678 331.94C221.366 332.132 221.21 332.397 221.21 332.738C221.21 332.979 221.284 333.186 221.432 333.361C221.58 333.535 221.805 333.668 222.11 333.759C222.422 333.851 222.812 333.896 223.281 333.896H228.075V334.831H226.522V338.481H225.031C224.998 338.24 224.973 338.003 224.957 337.771C224.94 337.53 224.928 337.264 224.92 336.974C224.92 336.675 224.92 336.317 224.92 335.902L225.031 336.239C224.965 336.521 224.862 336.803 224.723 337.086C224.591 337.368 224.406 337.626 224.168 337.858C223.938 338.091 223.642 338.278 223.281 338.419C222.927 338.552 222.5 338.618 221.999 338.618ZM222.677 337.372C223.178 337.372 223.593 337.285 223.922 337.111C224.25 336.928 224.497 336.695 224.661 336.413C224.834 336.122 224.92 335.823 224.92 335.516V334.831H223.281C222.566 334.831 221.99 334.939 221.555 335.155C221.119 335.362 220.902 335.695 220.902 336.151C220.902 336.509 221.054 336.803 221.358 337.036C221.662 337.26 222.101 337.372 222.677 337.372Z" fill="#2E0880"/>
<path d="M232.075 332.289H233.678V338.481H232.075V332.289ZM236.525 332.152C236.903 332.152 237.252 332.202 237.573 332.302C237.893 332.401 238.173 332.555 238.411 332.763C238.649 332.97 238.834 333.236 238.966 333.56C239.097 333.876 239.163 334.254 239.163 334.694V338.481H237.561V334.98C237.561 334.457 237.433 334.075 237.178 333.834C236.932 333.585 236.525 333.46 235.958 333.46C235.531 333.46 235.145 333.543 234.799 333.71C234.454 333.876 234.175 334.087 233.961 334.345C233.748 334.594 233.624 334.856 233.592 335.13L233.579 334.494C233.62 334.204 233.715 333.921 233.863 333.647C234.011 333.373 234.208 333.124 234.454 332.9C234.709 332.667 235.009 332.484 235.354 332.352C235.699 332.219 236.09 332.152 236.525 332.152Z" fill="#2E0880"/>
<path d="M244.233 338.631C243.461 338.631 242.779 338.506 242.187 338.257C241.604 338.008 241.148 337.646 240.819 337.173C240.49 336.691 240.326 336.102 240.326 335.404C240.326 334.706 240.49 334.117 240.819 333.635C241.148 333.145 241.604 332.775 242.187 332.526C242.779 332.277 243.461 332.152 244.233 332.152C245.006 332.152 245.68 332.277 246.255 332.526C246.838 332.775 247.294 333.145 247.623 333.635C247.952 334.117 248.116 334.706 248.116 335.404C248.116 336.102 247.952 336.691 247.623 337.173C247.294 337.646 246.838 338.008 246.255 338.257C245.68 338.506 245.006 338.631 244.233 338.631ZM244.233 337.385C244.661 337.385 245.043 337.31 245.38 337.16C245.725 337.003 245.996 336.778 246.193 336.488C246.391 336.189 246.489 335.827 246.489 335.404C246.489 334.98 246.391 334.619 246.193 334.32C245.996 334.013 245.729 333.78 245.392 333.622C245.055 333.465 244.669 333.386 244.233 333.386C243.806 333.386 243.42 333.465 243.075 333.622C242.73 333.78 242.454 334.009 242.249 334.308C242.052 334.607 241.953 334.972 241.953 335.404C241.953 335.827 242.052 336.189 242.249 336.488C242.446 336.778 242.717 337.003 243.062 337.16C243.408 337.31 243.798 337.385 244.233 337.385Z" fill="#2E0880"/>
<path d="M249.301 332.289H250.903V338.481H249.301V332.289ZM253.751 332.152C254.129 332.152 254.478 332.202 254.798 332.302C255.119 332.401 255.398 332.555 255.636 332.763C255.875 332.97 256.06 333.236 256.191 333.56C256.323 333.876 256.388 334.254 256.388 334.694V338.481H254.786V334.98C254.786 334.457 254.659 334.075 254.404 333.834C254.157 333.585 253.751 333.46 253.184 333.46C252.756 333.46 252.37 333.543 252.025 333.71C251.68 333.876 251.4 334.087 251.187 334.345C250.973 334.594 250.85 334.856 250.817 335.13L250.805 334.494C250.846 334.204 250.94 333.921 251.088 333.647C251.236 333.373 251.433 333.124 251.68 332.9C251.935 332.667 252.234 332.484 252.58 332.352C252.925 332.219 253.315 332.152 253.751 332.152Z" fill="#2E0880"/>
<path d="M258.094 334.494H262.211V335.715H258.094V334.494Z" fill="#2E0880"/>
<path d="M268.659 338.618C268.117 338.618 267.652 338.523 267.266 338.332C266.88 338.132 266.568 337.875 266.329 337.559C266.091 337.235 265.915 336.886 265.799 336.513C265.684 336.131 265.627 335.757 265.627 335.391C265.627 334.935 265.68 334.511 265.787 334.121C265.902 333.73 266.079 333.39 266.317 333.099C266.555 332.8 266.868 332.568 267.254 332.401C267.64 332.235 268.109 332.152 268.659 332.152C269.292 332.152 269.851 332.289 270.336 332.563C270.829 332.829 271.215 333.203 271.494 333.685C271.782 334.166 271.926 334.735 271.926 335.391C271.926 336.031 271.782 336.596 271.494 337.086C271.207 337.567 270.816 337.945 270.323 338.219C269.83 338.485 269.275 338.618 268.659 338.618ZM268.141 337.372C268.577 337.372 268.955 337.289 269.275 337.123C269.596 336.957 269.842 336.729 270.015 336.438C270.196 336.139 270.286 335.79 270.286 335.391C270.286 334.793 270.097 334.312 269.719 333.946C269.349 333.581 268.823 333.398 268.141 333.398C267.665 333.398 267.25 333.477 266.896 333.635C266.543 333.793 266.268 334.021 266.071 334.32C265.882 334.611 265.787 334.968 265.787 335.391C265.787 335.782 265.882 336.126 266.071 336.425C266.26 336.724 266.531 336.957 266.884 337.123C267.238 337.289 267.657 337.372 268.141 337.372ZM265.787 329.798V336.886C265.787 337.152 265.775 337.439 265.75 337.746C265.725 338.045 265.701 338.29 265.676 338.481H264.185V329.798H265.787Z" fill="#2E0880"/>
<path d="M274.947 329.573V330.994H273.086V329.573H274.947ZM273.209 332.289H274.812V338.481H273.209V332.289Z" fill="#2E0880"/>
<path d="M276.409 332.289H278.011V338.481H276.409V332.289ZM280.859 332.152C281.237 332.152 281.586 332.202 281.906 332.302C282.227 332.401 282.506 332.555 282.745 332.763C282.983 332.97 283.168 333.236 283.299 333.56C283.431 333.876 283.496 334.254 283.496 334.694V338.481H281.894V334.98C281.894 334.457 281.767 334.075 281.512 333.834C281.265 333.585 280.859 333.46 280.292 333.46C279.864 333.46 279.478 333.543 279.133 333.71C278.788 333.876 278.508 334.087 278.295 334.345C278.081 334.594 277.958 334.856 277.925 335.13L277.913 334.494C277.954 334.204 278.048 333.921 278.196 333.647C278.344 333.373 278.541 333.124 278.788 332.9C279.043 332.667 279.343 332.484 279.688 332.352C280.033 332.219 280.423 332.152 280.859 332.152Z" fill="#2E0880"/>
<path d="M287.938 338.618C287.33 338.618 286.776 338.485 286.274 338.219C285.781 337.945 285.387 337.567 285.091 337.086C284.803 336.596 284.66 336.031 284.66 335.391C284.66 334.735 284.807 334.166 285.103 333.685C285.399 333.203 285.798 332.829 286.299 332.563C286.808 332.289 287.384 332.152 288.025 332.152C288.731 332.152 289.298 332.298 289.726 332.588C290.161 332.871 290.478 333.257 290.675 333.747C290.872 334.237 290.971 334.785 290.971 335.391C290.971 335.757 290.913 336.131 290.798 336.513C290.683 336.886 290.506 337.235 290.268 337.559C290.03 337.875 289.717 338.132 289.331 338.332C288.945 338.523 288.481 338.618 287.938 338.618ZM288.456 337.372C288.941 337.372 289.36 337.289 289.713 337.123C290.067 336.957 290.338 336.724 290.527 336.425C290.716 336.126 290.81 335.782 290.81 335.391C290.81 334.968 290.712 334.611 290.514 334.32C290.326 334.021 290.054 333.797 289.701 333.647C289.356 333.489 288.941 333.411 288.456 333.411C287.774 333.411 287.244 333.593 286.866 333.959C286.488 334.316 286.299 334.793 286.299 335.391C286.299 335.79 286.389 336.139 286.57 336.438C286.751 336.729 287.002 336.957 287.322 337.123C287.651 337.289 288.029 337.372 288.456 337.372ZM290.81 332.289H292.413V338.481H290.921C290.921 338.481 290.909 338.402 290.884 338.244C290.868 338.078 290.851 337.871 290.835 337.621C290.819 337.372 290.81 337.127 290.81 336.886V332.289Z" fill="#2E0880"/>
<path d="M293.863 332.289H295.465V338.481H293.863V332.289ZM297.82 333.622C297.36 333.622 296.961 333.714 296.624 333.896C296.287 334.071 296.016 334.287 295.811 334.544C295.605 334.802 295.461 335.051 295.379 335.292L295.367 334.607C295.375 334.507 295.408 334.362 295.465 334.171C295.523 333.971 295.609 333.759 295.724 333.535C295.839 333.303 295.991 333.083 296.18 332.875C296.369 332.659 296.599 332.484 296.871 332.352C297.142 332.219 297.458 332.152 297.82 332.152V333.622Z" fill="#2E0880"/>
<path d="M298.256 332.289H299.957L302.607 338.232L301.226 338.481L298.256 332.289ZM305.75 332.289L301.51 340.973H299.846L301.658 337.559L304.037 332.289H305.75Z" fill="#2E0880"/>
<path d="M309.866 338.481V330.421H315.277C315.893 330.421 316.427 330.508 316.879 330.682C317.339 330.848 317.697 331.114 317.952 331.48C318.206 331.837 318.334 332.298 318.334 332.862C318.334 333.244 318.268 333.568 318.136 333.834C318.005 334.1 317.82 334.316 317.582 334.482C317.352 334.648 317.085 334.777 316.781 334.868C316.477 334.951 316.152 335.005 315.807 335.03L315.634 334.93C316.209 334.939 316.682 334.989 317.052 335.08C317.422 335.163 317.697 335.321 317.878 335.553C318.067 335.778 318.161 336.114 318.161 336.562V338.481H316.522V336.675C316.522 336.367 316.468 336.131 316.361 335.964C316.255 335.79 316.061 335.67 315.782 335.603C315.511 335.537 315.117 335.504 314.599 335.504H311.505V338.481H309.866ZM311.505 334.208H315.277C315.737 334.208 316.086 334.096 316.324 333.872C316.571 333.647 316.694 333.344 316.694 332.962C316.694 332.597 316.571 332.318 316.324 332.127C316.086 331.936 315.737 331.841 315.277 331.841H311.505V334.208Z" fill="#2E0880"/>
<path d="M326.927 338.481H325.325V332.289H326.927V338.481ZM325.411 335.504L325.423 335.927C325.407 336.043 325.366 336.214 325.3 336.438C325.234 336.654 325.132 336.886 324.992 337.136C324.86 337.385 324.688 337.626 324.474 337.858C324.261 338.082 323.998 338.269 323.685 338.419C323.373 338.56 323.003 338.631 322.576 338.631C322.239 338.631 321.906 338.589 321.578 338.506C321.257 338.423 320.965 338.286 320.702 338.095C320.439 337.896 320.23 337.63 320.074 337.298C319.918 336.965 319.84 336.546 319.84 336.039V332.289H321.442V335.765C321.442 336.164 321.504 336.479 321.627 336.712C321.758 336.936 321.947 337.094 322.194 337.185C322.44 337.277 322.732 337.322 323.069 337.322C323.513 337.322 323.895 337.227 324.215 337.036C324.536 336.837 324.795 336.596 324.992 336.313C325.197 336.031 325.337 335.761 325.411 335.504Z" fill="#2E0880"/>
<path d="M333.107 338.618C332.565 338.618 332.1 338.523 331.714 338.332C331.328 338.132 331.016 337.875 330.777 337.559C330.539 337.235 330.362 336.886 330.247 336.513C330.132 336.131 330.075 335.757 330.075 335.391C330.075 334.935 330.128 334.511 330.235 334.121C330.35 333.73 330.527 333.39 330.765 333.099C331.003 332.8 331.316 332.568 331.702 332.401C332.088 332.235 332.556 332.152 333.107 332.152C333.74 332.152 334.299 332.289 334.783 332.563C335.276 332.829 335.663 333.203 335.942 333.685C336.23 334.166 336.373 334.735 336.373 335.391C336.373 336.031 336.23 336.596 335.942 337.086C335.654 337.567 335.264 337.945 334.771 338.219C334.278 338.485 333.723 338.618 333.107 338.618ZM332.589 337.372C333.025 337.372 333.403 337.289 333.723 337.123C334.044 336.957 334.29 336.729 334.463 336.438C334.644 336.139 334.734 335.79 334.734 335.391C334.734 334.793 334.545 334.312 334.167 333.946C333.797 333.581 333.271 333.398 332.589 333.398C332.113 333.398 331.698 333.477 331.344 333.635C330.991 333.793 330.716 334.021 330.518 334.32C330.329 334.611 330.235 334.968 330.235 335.391C330.235 335.782 330.329 336.126 330.518 336.425C330.707 336.724 330.979 336.957 331.332 337.123C331.685 337.289 332.104 337.372 332.589 337.372ZM330.235 329.798V336.886C330.235 337.152 330.223 337.439 330.198 337.746C330.173 338.045 330.149 338.29 330.124 338.481H328.633V329.798H330.235Z" fill="#2E0880"/>
<path d="M336.763 332.289H338.464L341.114 338.232L339.734 338.481L336.763 332.289ZM344.257 332.289L340.017 340.973H338.353L340.165 337.559L342.544 332.289H344.257Z" fill="#2E0880"/>
<path d="M347.027 329.573V330.994H345.166V329.573H347.027ZM345.289 332.289H346.891V338.481H345.289V332.289Z" fill="#2E0880"/>
<path d="M348.242 336.425H349.721C349.811 336.708 349.996 336.94 350.276 337.123C350.563 337.298 350.937 337.385 351.397 337.385C351.71 337.385 351.952 337.356 352.125 337.298C352.297 337.239 352.416 337.156 352.482 337.048C352.548 336.932 352.581 336.803 352.581 336.662C352.581 336.488 352.527 336.355 352.42 336.263C352.314 336.164 352.149 336.085 351.927 336.027C351.706 335.969 351.422 335.915 351.077 335.865C350.732 335.807 350.399 335.736 350.078 335.653C349.758 335.57 349.474 335.462 349.228 335.329C348.981 335.188 348.784 335.014 348.636 334.806C348.497 334.59 348.427 334.328 348.427 334.021C348.427 333.722 348.497 333.456 348.636 333.224C348.784 332.991 348.986 332.796 349.24 332.638C349.503 332.48 349.807 332.36 350.152 332.277C350.506 332.194 350.884 332.152 351.286 332.152C351.895 332.152 352.4 332.244 352.803 332.426C353.205 332.601 353.505 332.85 353.702 333.174C353.908 333.489 354.011 333.855 354.011 334.27H352.593C352.527 333.963 352.396 333.743 352.199 333.61C352.001 333.469 351.697 333.398 351.286 333.398C350.884 333.398 350.58 333.46 350.374 333.585C350.169 333.71 350.066 333.88 350.066 334.096C350.066 334.27 350.128 334.407 350.251 334.507C350.383 334.598 350.572 334.673 350.818 334.731C351.073 334.789 351.389 334.852 351.767 334.918C352.088 334.984 352.392 335.059 352.679 335.142C352.975 335.225 353.238 335.333 353.468 335.466C353.698 335.591 353.879 335.761 354.011 335.977C354.15 336.185 354.22 336.45 354.22 336.774C354.22 337.173 354.105 337.509 353.875 337.783C353.653 338.057 353.333 338.269 352.914 338.419C352.494 338.56 351.993 338.631 351.41 338.631C350.892 338.631 350.444 338.577 350.066 338.469C349.696 338.352 349.388 338.207 349.142 338.033C348.895 337.85 348.702 337.659 348.562 337.459C348.431 337.252 348.341 337.057 348.291 336.874C348.242 336.691 348.225 336.542 348.242 336.425Z" fill="#2E0880"/>
<path d="M355.015 332.289H359.772V333.548H355.015V332.289ZM356.592 330.595H358.195V338.481H356.592V330.595Z" fill="#2E0880"/>
<path d="M360.544 336.425H362.023C362.114 336.708 362.298 336.94 362.578 337.123C362.865 337.298 363.239 337.385 363.7 337.385C364.012 337.385 364.254 337.356 364.427 337.298C364.599 337.239 364.719 337.156 364.784 337.048C364.85 336.932 364.883 336.803 364.883 336.662C364.883 336.488 364.829 336.355 364.723 336.263C364.616 336.164 364.451 336.085 364.23 336.027C364.008 335.969 363.724 335.915 363.379 335.865C363.034 335.807 362.701 335.736 362.381 335.653C362.06 335.57 361.777 335.462 361.53 335.329C361.284 335.188 361.086 335.014 360.938 334.806C360.799 334.59 360.729 334.328 360.729 334.021C360.729 333.722 360.799 333.456 360.938 333.224C361.086 332.991 361.288 332.796 361.542 332.638C361.805 332.48 362.109 332.36 362.455 332.277C362.808 332.194 363.186 332.152 363.589 332.152C364.197 332.152 364.702 332.244 365.105 332.426C365.507 332.601 365.807 332.85 366.005 333.174C366.21 333.489 366.313 333.855 366.313 334.27H364.895C364.829 333.963 364.698 333.743 364.501 333.61C364.304 333.469 364 333.398 363.589 333.398C363.186 333.398 362.882 333.46 362.676 333.585C362.471 333.71 362.368 333.88 362.368 334.096C362.368 334.27 362.43 334.407 362.553 334.507C362.685 334.598 362.874 334.673 363.12 334.731C363.375 334.789 363.691 334.852 364.069 334.918C364.39 334.984 364.694 335.059 364.981 335.142C365.277 335.225 365.54 335.333 365.77 335.466C366 335.591 366.181 335.761 366.313 335.977C366.452 336.185 366.522 336.45 366.522 336.774C366.522 337.173 366.407 337.509 366.177 337.783C365.955 338.057 365.635 338.269 365.216 338.419C364.797 338.56 364.295 338.631 363.712 338.631C363.194 338.631 362.746 338.577 362.368 338.469C361.999 338.352 361.69 338.207 361.444 338.033C361.197 337.85 361.004 337.659 360.865 337.459C360.733 337.252 360.643 337.057 360.593 336.874C360.544 336.691 360.528 336.542 360.544 336.425Z" fill="#2E0880"/>
<path d="M369.609 337.061V338.481H367.748V337.061H369.609Z" fill="#2E0880"/>
</svg>
