<svg width="370" height="341" viewBox="0 0 370 341" fill="none" xmlns="http://www.w3.org/2000/svg">
<path d="M84.5932 101.511L84.5933 2.30434C84.5933 1.0331 85.6238 0.00255423 86.895 0.0025544C141.685 0.00256159 186.102 44.4189 186.102 99.2093V101.511L84.5932 101.511Z" fill="#FFDD19"/>
<path d="M186.101 101.051V99.2677C186.101 44.4437 230.545 2.39643e-06 285.369 0C286.607 -5.40956e-08 287.61 1.00324 287.61 2.24081V87.8254C287.61 95.1298 281.688 101.051 274.384 101.051H186.101Z" fill="#B0A6F3"/>
<path d="M84.5932 101.051H186.101L186.102 152.462C186.102 179.878 163.877 202.102 136.462 202.102C107.816 202.102 84.5932 178.88 84.5932 150.234V101.051Z" fill="#2E0880"/>
<path d="M237.573 101.051C265.213 101.051 287.62 123.458 287.62 151.098C287.62 179.267 264.784 202.102 236.615 202.102L189.277 202.102C187.529 202.102 186.111 200.685 186.111 198.937V101.051H237.573Z" fill="#449C7C"/>
<path d="M121.626 101.511L121.626 50.7568C149.656 50.7568 172.38 73.4803 172.38 101.511L121.626 101.511Z" fill="#449C7C"/>
<path d="M199.813 101.051C199.813 73.273 222.789 50.7542 250.567 50.7542V101.051H199.813Z" fill="#2E0880"/>
<path d="M121.626 101.051H172.38V126.528C172.38 140.236 161.267 151.348 147.56 151.348C133.237 151.348 121.626 139.737 121.626 125.414V101.051Z" fill="#FFF099"/>
<path d="M225.657 101.051C239.414 101.051 250.567 112.204 250.567 125.961C250.567 139.982 239.201 151.348 225.18 151.348H199.813L199.813 101.051H225.657Z" fill="#BFE444"/>
<path d="M186.068 15.0884C193.013 15.0884 198.757 20.7181 198.757 27.6626C198.757 34.6072 193.013 40.2369 186.068 40.2369C179.123 40.2369 173.379 34.6072 173.379 27.6626C173.379 20.7181 179.123 15.0884 186.068 15.0884Z" fill="#B33C3C"/>
</svg>
