<svg width="97" height="97" viewBox="0 0 97 97" fill="none" xmlns="http://www.w3.org/2000/svg">
  <path d="M0 48.9531L6.20918e-06 1.6033C6.28874e-06 0.996559 0.491868 0.504696 1.09861 0.504696C27.2492 0.504699 48.4484 21.7039 48.4484 47.8545L48.4484 48.9531L0 48.9531Z" fill="#FFDD19" stroke="#808080" stroke-width="0.2"/>
  <path d="M48.4502 48.7339L48.4502 47.8826C48.4502 21.716 69.6624 0.503699 95.8291 0.503698C96.4198 0.503698 96.8986 0.98253 96.8986 1.5732L96.8986 38.7339C96.8986 44.2567 92.4215 48.7339 86.8986 48.7339L48.4502 48.7339Z" fill="#B0A6F3" stroke="#808080" stroke-width="0.2"/>
  <path d="M0 48.7339L48.4484 48.7339L48.4484 73.2716C48.4484 86.3566 37.841 96.9641 24.756 96.9641C11.0836 96.9641 0 85.8804 0 72.2081L0 48.7339Z" fill="#2E0880" stroke="#808080" stroke-width="0.2"/>
  <path d="M73.0134 48.7339C86.2056 48.7339 96.8999 59.4283 96.8999 72.6204C96.8999 86.0651 86.0009 96.9641 72.5563 96.9641L49.9623 96.9641C49.1279 96.9641 48.4515 96.2876 48.4515 95.4532L48.4515 48.7339L73.0134 48.7339Z" fill="#449C7C" stroke="#808080" stroke-width="0.2"/>
  <path d="M17.6719 48.9531L17.6719 24.7289C31.0505 24.7289 41.8961 35.5745 41.8961 48.9531L17.6719 48.9531Z" fill="#449C7C" stroke="#808080" stroke-width="0.2"/>
  <path d="M54.9927 48.7339C54.9927 35.4758 65.9588 24.7279 79.2169 24.7279L79.2169 48.7339L54.9927 48.7339Z" fill="#2E0880" stroke="#808080" stroke-width="0.2"/>
  <path d="M17.6719 48.7344L41.8961 48.7344L41.8961 60.8941C41.8961 67.4366 36.5924 72.7404 30.0499 72.7404C23.2137 72.7404 17.6719 67.1985 17.6719 60.3624L17.6719 48.7344Z" fill="#FFF099" stroke="#808080" stroke-width="0.2"/>
  <path d="M67.3286 48.7339C73.8948 48.7339 79.2178 54.0569 79.2178 60.6231C79.2178 67.315 73.7929 72.7399 67.101 72.7399L54.9936 72.7399L54.9936 48.7339L67.3286 48.7339Z" fill="#BFE444" stroke="#808080" stroke-width="0.2"/>
  <path d="M48.9566 7.70508C52.2712 7.70508 55.0127 10.392 55.0127 13.7066C55.0127 17.0211 52.2712 19.7081 48.9566 19.7081C45.6421 19.7081 42.9006 17.0211 42.9006 13.7066C42.9006 10.392 45.6421 7.70508 48.9566 7.70508Z" fill="#B33C3C" stroke="#808080" stroke-width="0.2"/>
</svg>
