<svg width="317" height="317" viewBox="0 0 317 317" fill="none" xmlns="http://www.w3.org/2000/svg">
<rect width="317" height="317" fill="#FFDD19" style="mix-blend-mode:color"/>
<path d="M162.329 206.071C161.459 208.784 157.622 208.787 156.747 206.076L121.347 96.3829C113.271 71.3579 131.933 45.7266 158.228 45.7266C185.672 45.7266 205.167 72.4492 196.789 98.5827L162.329 206.071Z" fill="#2E0880"/>
<path d="M139.45 86.6358C139.45 75.7352 148.466 66.8984 159.367 66.8984C170.268 66.8984 179.284 75.7352 179.284 86.6358C179.284 97.5365 170.268 106.373 159.367 106.373C148.466 106.373 139.45 97.5365 139.45 86.6358Z" fill="#FFF099"/>
<path d="M84.9147 241.933V243.457H77.879V245.845H83.6432V247.273H77.879V250.814H76V241.933H84.9147Z" fill="#2E0880"/>
<path d="M88.3367 241V242.565H86.2034V241H88.3367ZM86.3446 243.992H88.1813V250.814H86.3446V243.992Z" fill="#2E0880"/>
<path d="M90.0119 243.992H91.8486V250.814H90.0119V243.992ZM95.1121 243.841C95.5454 243.841 95.9457 243.896 96.313 244.006C96.6803 244.116 97.0006 244.285 97.2737 244.514C97.5468 244.742 97.7588 245.035 97.9095 245.392C98.0602 245.74 98.1355 246.156 98.1355 246.641V250.814H96.2989V246.957C96.2989 246.38 96.1529 245.959 95.8609 245.694C95.5783 245.42 95.1121 245.282 94.4622 245.282C93.9725 245.282 93.5298 245.374 93.1342 245.557C92.7386 245.74 92.4184 245.973 92.1735 246.257C91.9286 246.531 91.7873 246.82 91.7497 247.122L91.7355 246.422C91.7826 246.101 91.891 245.79 92.0605 245.488C92.23 245.186 92.4561 244.912 92.7386 244.665C93.0306 244.408 93.3744 244.207 93.77 244.061C94.1656 243.914 94.6129 243.841 95.1121 243.841Z" fill="#2E0880"/>
<path d="M103.227 250.965C102.52 250.965 101.88 250.818 101.305 250.525C100.74 250.224 100.293 249.807 99.9631 249.276C99.6334 248.737 99.4686 248.114 99.4686 247.41C99.4686 246.687 99.6287 246.06 99.949 245.529C100.279 244.999 100.726 244.587 101.291 244.294C101.856 243.992 102.501 243.841 103.227 243.841C103.858 243.841 104.395 243.933 104.837 244.116C105.28 244.299 105.638 244.555 105.911 244.884C106.184 245.205 106.382 245.58 106.504 246.01C106.636 246.44 106.702 246.907 106.702 247.41C106.702 247.812 106.636 248.224 106.504 248.645C106.372 249.057 106.17 249.441 105.897 249.798C105.624 250.146 105.266 250.429 104.823 250.649C104.38 250.859 103.848 250.965 103.227 250.965ZM103.82 249.592C104.376 249.592 104.856 249.501 105.261 249.318C105.666 249.135 105.977 248.878 106.194 248.549C106.41 248.22 106.518 247.84 106.518 247.41C106.518 246.943 106.405 246.55 106.179 246.229C105.963 245.9 105.652 245.648 105.247 245.475C104.851 245.301 104.376 245.214 103.82 245.214C103.038 245.214 102.431 245.415 101.998 245.818C101.564 246.22 101.348 246.751 101.348 247.41C101.348 247.849 101.451 248.233 101.658 248.563C101.866 248.883 102.153 249.135 102.52 249.318C102.897 249.501 103.33 249.592 103.82 249.592ZM106.518 241.247H108.355V250.814H106.646C106.617 250.603 106.589 250.333 106.561 250.004C106.533 249.665 106.518 249.35 106.518 249.057V241.247Z" fill="#2E0880"/>
<path d="M113.107 243.992H115.056L118.094 250.539L116.512 250.814L113.107 243.992ZM121.696 243.992L116.836 253.559H114.929L117.006 249.798L119.733 243.992H121.696Z" fill="#2E0880"/>
<path d="M126.588 250.978C125.702 250.978 124.921 250.841 124.243 250.567C123.574 250.292 123.051 249.894 122.674 249.373C122.298 248.842 122.109 248.192 122.109 247.424C122.109 246.655 122.298 246.005 122.674 245.475C123.051 244.935 123.574 244.527 124.243 244.253C124.921 243.978 125.702 243.841 126.588 243.841C127.473 243.841 128.245 243.978 128.905 244.253C129.573 244.527 130.096 244.935 130.473 245.475C130.85 246.005 131.038 246.655 131.038 247.424C131.038 248.192 130.85 248.842 130.473 249.373C130.096 249.894 129.573 250.292 128.905 250.567C128.245 250.841 127.473 250.978 126.588 250.978ZM126.588 249.606C127.078 249.606 127.515 249.524 127.902 249.359C128.297 249.185 128.608 248.938 128.834 248.618C129.06 248.288 129.173 247.89 129.173 247.424C129.173 246.957 129.06 246.559 128.834 246.229C128.608 245.891 128.302 245.635 127.916 245.461C127.53 245.287 127.087 245.2 126.588 245.2C126.098 245.2 125.655 245.287 125.26 245.461C124.864 245.635 124.549 245.886 124.313 246.216C124.087 246.545 123.974 246.948 123.974 247.424C123.974 247.89 124.087 248.288 124.313 248.618C124.539 248.938 124.85 249.185 125.246 249.359C125.641 249.524 126.089 249.606 126.588 249.606Z" fill="#2E0880"/>
<path d="M140.519 250.814H138.683V243.992H140.519V250.814ZM138.782 247.533L138.796 248C138.777 248.128 138.73 248.316 138.654 248.563C138.579 248.801 138.461 249.057 138.301 249.331C138.151 249.606 137.953 249.871 137.708 250.127C137.463 250.375 137.162 250.58 136.804 250.745C136.446 250.901 136.022 250.978 135.532 250.978C135.146 250.978 134.765 250.933 134.388 250.841C134.02 250.75 133.686 250.599 133.385 250.388C133.083 250.169 132.843 249.876 132.664 249.51C132.485 249.144 132.396 248.682 132.396 248.124V243.992H134.232V247.822C134.232 248.261 134.303 248.608 134.444 248.865C134.595 249.112 134.812 249.286 135.094 249.386C135.377 249.487 135.711 249.537 136.097 249.537C136.606 249.537 137.044 249.432 137.411 249.222C137.779 249.002 138.075 248.737 138.301 248.425C138.537 248.114 138.697 247.817 138.782 247.533Z" fill="#2E0880"/>
<path d="M142.192 243.992H144.028V250.814H142.192V243.992ZM146.727 245.461C146.199 245.461 145.742 245.561 145.356 245.763C144.97 245.955 144.659 246.193 144.424 246.476C144.188 246.76 144.023 247.035 143.929 247.3L143.915 246.545C143.925 246.435 143.962 246.275 144.028 246.065C144.094 245.845 144.193 245.612 144.325 245.365C144.457 245.108 144.631 244.866 144.848 244.637C145.064 244.399 145.328 244.207 145.639 244.061C145.95 243.914 146.312 243.841 146.727 243.841V245.461Z" fill="#2E0880"/>
<path d="M159.605 248.124C159.558 248.718 159.36 249.231 159.012 249.661C158.673 250.091 158.202 250.42 157.599 250.649C156.996 250.869 156.281 250.978 155.452 250.978C154.585 250.978 153.808 250.846 153.121 250.58C152.442 250.306 151.906 249.908 151.51 249.386C151.124 248.856 150.931 248.201 150.931 247.424C150.931 246.646 151.124 245.992 151.51 245.461C151.906 244.93 152.442 244.527 153.121 244.253C153.808 243.978 154.585 243.841 155.452 243.841C156.281 243.841 156.992 243.956 157.585 244.184C158.178 244.404 158.645 244.724 158.984 245.145C159.332 245.566 159.535 246.074 159.591 246.669H157.91C157.75 246.211 157.453 245.854 157.02 245.598C156.587 245.342 156.064 245.214 155.452 245.214C154.962 245.214 154.515 245.296 154.11 245.461C153.714 245.625 153.394 245.873 153.149 246.202C152.913 246.522 152.796 246.929 152.796 247.424C152.796 247.908 152.913 248.316 153.149 248.645C153.384 248.965 153.705 249.208 154.11 249.373C154.515 249.528 154.962 249.606 155.452 249.606C156.111 249.606 156.648 249.478 157.062 249.222C157.486 248.965 157.773 248.599 157.924 248.124H159.605Z" fill="#2E0880"/>
<path d="M165.095 250.978C164.209 250.978 163.428 250.841 162.749 250.567C162.081 250.292 161.558 249.894 161.181 249.373C160.804 248.842 160.616 248.192 160.616 247.424C160.616 246.655 160.804 246.005 161.181 245.475C161.558 244.935 162.081 244.527 162.749 244.253C163.428 243.978 164.209 243.841 165.095 243.841C165.98 243.841 166.752 243.978 167.412 244.253C168.08 244.527 168.603 244.935 168.98 245.475C169.357 246.005 169.545 246.655 169.545 247.424C169.545 248.192 169.357 248.842 168.98 249.373C168.603 249.894 168.08 250.292 167.412 250.567C166.752 250.841 165.98 250.978 165.095 250.978ZM165.095 249.606C165.584 249.606 166.022 249.524 166.409 249.359C166.804 249.185 167.115 248.938 167.341 248.618C167.567 248.288 167.68 247.89 167.68 247.424C167.68 246.957 167.567 246.559 167.341 246.229C167.115 245.891 166.809 245.635 166.423 245.461C166.037 245.287 165.594 245.2 165.095 245.2C164.605 245.2 164.162 245.287 163.767 245.461C163.371 245.635 163.056 245.886 162.82 246.216C162.594 246.545 162.481 246.948 162.481 247.424C162.481 247.89 162.594 248.288 162.82 248.618C163.046 248.938 163.357 249.185 163.753 249.359C164.148 249.524 164.595 249.606 165.095 249.606Z" fill="#2E0880"/>
<path d="M170.903 243.992H172.739V250.814H170.903V243.992ZM176.003 243.841C176.436 243.841 176.836 243.896 177.204 244.006C177.571 244.116 177.891 244.285 178.164 244.514C178.438 244.742 178.65 245.035 178.8 245.392C178.951 245.74 179.026 246.156 179.026 246.641V250.814H177.19V246.957C177.19 246.38 177.044 245.959 176.752 245.694C176.469 245.42 176.003 245.282 175.353 245.282C174.863 245.282 174.421 245.374 174.025 245.557C173.629 245.74 173.309 245.973 173.064 246.257C172.819 246.531 172.678 246.82 172.64 247.122L172.626 246.422C172.673 246.101 172.782 245.79 172.951 245.488C173.121 245.186 173.347 244.912 173.629 244.665C173.921 244.408 174.265 244.207 174.661 244.061C175.056 243.914 175.504 243.841 176.003 243.841ZM182.12 243.841C182.554 243.841 182.954 243.896 183.321 244.006C183.688 244.116 184.009 244.285 184.282 244.514C184.555 244.742 184.767 245.035 184.918 245.392C185.078 245.74 185.158 246.156 185.158 246.641V250.814H183.321V246.957C183.321 246.38 183.175 245.959 182.883 245.694C182.591 245.42 182.12 245.282 181.47 245.282C180.981 245.282 180.538 245.374 180.142 245.557C179.747 245.74 179.427 245.973 179.182 246.257C178.937 246.531 178.8 246.82 178.772 247.122L178.744 246.38C178.791 246.078 178.904 245.776 179.083 245.475C179.262 245.173 179.497 244.898 179.789 244.651C180.081 244.404 180.42 244.207 180.806 244.061C181.202 243.914 181.64 243.841 182.12 243.841Z" fill="#2E0880"/>
<path d="M186.824 243.992H188.661V250.814H186.824V243.992ZM191.924 243.841C192.358 243.841 192.758 243.896 193.125 244.006C193.493 244.116 193.813 244.285 194.086 244.514C194.359 244.742 194.571 245.035 194.722 245.392C194.872 245.74 194.948 246.156 194.948 246.641V250.814H193.111V246.957C193.111 246.38 192.965 245.959 192.673 245.694C192.391 245.42 191.924 245.282 191.275 245.282C190.785 245.282 190.342 245.374 189.946 245.557C189.551 245.74 189.231 245.973 188.986 246.257C188.741 246.531 188.6 246.82 188.562 247.122L188.548 246.422C188.595 246.101 188.703 245.79 188.873 245.488C189.042 245.186 189.268 244.912 189.551 244.665C189.843 244.408 190.187 244.207 190.582 244.061C190.978 243.914 191.425 243.841 191.924 243.841ZM198.042 243.841C198.475 243.841 198.875 243.896 199.243 244.006C199.61 244.116 199.93 244.285 200.203 244.514C200.477 244.742 200.688 245.035 200.839 245.392C200.999 245.74 201.079 246.156 201.079 246.641V250.814H199.243V246.957C199.243 246.38 199.097 245.959 198.805 245.694C198.513 245.42 198.042 245.282 197.392 245.282C196.902 245.282 196.459 245.374 196.064 245.557C195.668 245.74 195.348 245.973 195.103 246.257C194.858 246.531 194.722 246.82 194.693 247.122L194.665 246.38C194.712 246.078 194.825 245.776 195.004 245.475C195.183 245.173 195.419 244.898 195.711 244.651C196.003 244.404 196.342 244.207 196.728 244.061C197.123 243.914 197.561 243.841 198.042 243.841Z" fill="#2E0880"/>
<path d="M210.869 250.814H209.033V243.992H210.869V250.814ZM209.132 247.533L209.146 248C209.127 248.128 209.08 248.316 209.004 248.563C208.929 248.801 208.811 249.057 208.651 249.331C208.501 249.606 208.303 249.871 208.058 250.127C207.813 250.375 207.512 250.58 207.154 250.745C206.796 250.901 206.372 250.978 205.882 250.978C205.496 250.978 205.115 250.933 204.738 250.841C204.37 250.75 204.036 250.599 203.735 250.388C203.433 250.169 203.193 249.876 203.014 249.51C202.835 249.144 202.746 248.682 202.746 248.124V243.992H204.582V247.822C204.582 248.261 204.653 248.608 204.794 248.865C204.945 249.112 205.162 249.286 205.444 249.386C205.727 249.487 206.061 249.537 206.447 249.537C206.956 249.537 207.394 249.432 207.761 249.222C208.128 249.002 208.425 248.737 208.651 248.425C208.887 248.114 209.047 247.817 209.132 247.533Z" fill="#2E0880"/>
<path d="M212.541 243.992H214.378V250.814H212.541V243.992ZM217.642 243.841C218.075 243.841 218.475 243.896 218.843 244.006C219.21 244.116 219.53 244.285 219.803 244.514C220.076 244.742 220.288 245.035 220.439 245.392C220.59 245.74 220.665 246.156 220.665 246.641V250.814H218.828V246.957C218.828 246.38 218.682 245.959 218.39 245.694C218.108 245.42 217.642 245.282 216.992 245.282C216.502 245.282 216.059 245.374 215.664 245.557C215.268 245.74 214.948 245.973 214.703 246.257C214.458 246.531 214.317 246.82 214.279 247.122L214.265 246.422C214.312 246.101 214.421 245.79 214.59 245.488C214.76 245.186 214.986 244.912 215.268 244.665C215.56 244.408 215.904 244.207 216.3 244.061C216.695 243.914 217.142 243.841 217.642 243.841Z" fill="#2E0880"/>
<path d="M224.442 241V242.565H222.309V241H224.442ZM222.45 243.992H224.287V250.814H222.45V243.992Z" fill="#2E0880"/>
<path d="M225.623 243.992H231.076V245.378H225.623V243.992ZM227.431 242.125H229.268V250.814H227.431V242.125Z" fill="#2E0880"/>
<path d="M231.608 243.992H233.557L236.595 250.539L235.012 250.814L231.608 243.992ZM240.197 243.992L235.337 253.559H233.43L235.507 249.798L238.234 243.992H240.197Z" fill="#2E0880"/>
<path d="M240.234 252.859L239.98 252.392C240.121 252.191 240.258 251.967 240.389 251.72C240.531 251.473 240.606 251.221 240.615 250.965L239.838 250.814V249.235H242V250.361C242 251.01 241.84 251.532 241.52 251.925C241.209 252.328 240.78 252.639 240.234 252.859Z" fill="#2E0880"/>
<path d="M100.119 265.02L99.5396 265.006L101.828 259.433H103.849L100.755 266.255H99.031L96.7705 260.751H97.3921L95.061 266.255H93.3374L90.3282 259.433H92.3485L94.5524 265.02H93.9732L96.0359 259.433H98.1409L100.119 265.02Z" fill="#2E0880"/>
<path d="M111.34 266.255V262.508C111.34 262.133 111.274 261.822 111.143 261.575C111.011 261.327 110.799 261.14 110.507 261.012C110.224 260.884 109.843 260.82 109.362 260.82C108.901 260.82 108.482 260.907 108.105 261.08C107.728 261.245 107.422 261.465 107.187 261.739C106.951 262.005 106.819 262.288 106.791 262.59L106.777 261.835C106.824 261.533 106.932 261.231 107.102 260.929C107.272 260.627 107.498 260.353 107.78 260.106C108.063 259.859 108.402 259.662 108.797 259.516C109.202 259.36 109.654 259.282 110.154 259.282C110.587 259.282 110.987 259.337 111.355 259.447C111.722 259.548 112.042 259.708 112.315 259.927C112.588 260.147 112.8 260.422 112.951 260.751C113.102 261.071 113.177 261.451 113.177 261.89V266.255H111.34ZM105.053 266.255V256.688H106.89V266.255H105.053Z" fill="#2E0880"/>
<path d="M121.246 263.99H123.026C122.951 264.457 122.748 264.873 122.419 265.239C122.099 265.605 121.661 265.893 121.105 266.104C120.549 266.314 119.871 266.42 119.07 266.42C118.176 266.42 117.385 266.282 116.697 266.008C116.009 265.724 115.473 265.317 115.086 264.786C114.7 264.256 114.507 263.615 114.507 262.865C114.507 262.114 114.696 261.474 115.072 260.943C115.449 260.403 115.972 259.992 116.64 259.708C117.319 259.424 118.11 259.282 119.014 259.282C119.937 259.282 120.705 259.424 121.317 259.708C121.929 259.992 122.381 260.422 122.673 260.998C122.974 261.565 123.102 262.293 123.055 263.18H116.358C116.405 263.528 116.537 263.844 116.753 264.127C116.98 264.411 117.281 264.635 117.658 264.8C118.044 264.965 118.501 265.047 119.028 265.047C119.612 265.047 120.097 264.951 120.483 264.759C120.879 264.558 121.133 264.301 121.246 263.99ZM118.929 260.641C118.251 260.641 117.7 260.788 117.276 261.08C116.852 261.364 116.579 261.716 116.457 262.137H121.232C121.185 261.68 120.959 261.318 120.554 261.053C120.158 260.778 119.617 260.641 118.929 260.641Z" fill="#2E0880"/>
<path d="M124.421 259.433H126.258V266.255H124.421V259.433ZM128.956 260.902C128.429 260.902 127.972 261.003 127.586 261.204C127.2 261.396 126.889 261.634 126.653 261.918C126.418 262.201 126.253 262.476 126.159 262.741L126.145 261.986C126.154 261.876 126.192 261.716 126.258 261.506C126.324 261.286 126.423 261.053 126.555 260.806C126.686 260.55 126.861 260.307 127.077 260.078C127.294 259.841 127.558 259.648 127.868 259.502C128.179 259.356 128.542 259.282 128.956 259.282V260.902Z" fill="#2E0880"/>
<path d="M136.492 263.99H138.272C138.196 264.457 137.994 264.873 137.664 265.239C137.344 265.605 136.906 265.893 136.35 266.104C135.795 266.314 135.117 266.42 134.316 266.42C133.421 266.42 132.63 266.282 131.942 266.008C131.255 265.724 130.718 265.317 130.332 264.786C129.946 264.256 129.753 263.615 129.753 262.865C129.753 262.114 129.941 261.474 130.318 260.943C130.694 260.403 131.217 259.992 131.886 259.708C132.564 259.424 133.355 259.282 134.259 259.282C135.182 259.282 135.95 259.424 136.562 259.708C137.175 259.992 137.627 260.422 137.919 260.998C138.22 261.565 138.347 262.293 138.3 263.18H131.603C131.65 263.528 131.782 263.844 131.999 264.127C132.225 264.411 132.526 264.635 132.903 264.8C133.289 264.965 133.746 265.047 134.274 265.047C134.858 265.047 135.343 264.951 135.729 264.759C136.124 264.558 136.379 264.301 136.492 263.99ZM134.175 260.641C133.497 260.641 132.946 260.788 132.522 261.08C132.098 261.364 131.825 261.716 131.702 262.137H136.478C136.43 261.68 136.204 261.318 135.799 261.053C135.404 260.778 134.862 260.641 134.175 260.641Z" fill="#2E0880"/>
<path d="M143.262 265.088H142.598L145.169 259.433H147.175L143.799 266.255H142.061L138.755 259.433H140.775L143.262 265.088Z" fill="#2E0880"/>
<path d="M154.331 263.99H156.111C156.036 264.457 155.833 264.873 155.504 265.239C155.183 265.605 154.745 265.893 154.19 266.104C153.634 266.314 152.956 266.42 152.155 266.42C151.26 266.42 150.469 266.282 149.782 266.008C149.094 265.724 148.557 265.317 148.171 264.786C147.785 264.256 147.592 263.615 147.592 262.865C147.592 262.114 147.78 261.474 148.157 260.943C148.534 260.403 149.057 259.992 149.725 259.708C150.403 259.424 151.195 259.282 152.099 259.282C153.022 259.282 153.789 259.424 154.402 259.708C155.014 259.992 155.466 260.422 155.758 260.998C156.059 261.565 156.186 262.293 156.139 263.18H149.443C149.49 263.528 149.622 263.844 149.838 264.127C150.064 264.411 150.366 264.635 150.742 264.8C151.129 264.965 151.585 265.047 152.113 265.047C152.697 265.047 153.182 264.951 153.568 264.759C153.964 264.558 154.218 264.301 154.331 263.99ZM152.014 260.641C151.336 260.641 150.785 260.788 150.361 261.08C149.937 261.364 149.664 261.716 149.542 262.137H154.317C154.27 261.68 154.044 261.318 153.639 261.053C153.243 260.778 152.702 260.641 152.014 260.641Z" fill="#2E0880"/>
<path d="M157.506 259.433H159.343V266.255H157.506V259.433ZM162.041 260.902C161.514 260.902 161.057 261.003 160.671 261.204C160.284 261.396 159.974 261.634 159.738 261.918C159.503 262.201 159.338 262.476 159.244 262.741L159.23 261.986C159.239 261.876 159.277 261.716 159.343 261.506C159.409 261.286 159.507 261.053 159.639 260.806C159.771 260.55 159.945 260.307 160.162 260.078C160.379 259.841 160.642 259.648 160.953 259.502C161.264 259.356 161.627 259.282 162.041 259.282V260.902Z" fill="#2E0880"/>
<path d="M165.949 259.433H167.898L170.936 265.98L169.353 266.255L165.949 259.433ZM174.538 259.433L169.678 269H167.771L169.848 265.239L172.575 259.433H174.538Z" fill="#2E0880"/>
<path d="M179.43 266.42C178.544 266.42 177.762 266.282 177.084 266.008C176.416 265.733 175.893 265.335 175.516 264.814C175.139 264.283 174.951 263.633 174.951 262.865C174.951 262.096 175.139 261.446 175.516 260.916C175.893 260.376 176.416 259.969 177.084 259.694C177.762 259.42 178.544 259.282 179.43 259.282C180.315 259.282 181.087 259.42 181.747 259.694C182.415 259.969 182.938 260.376 183.315 260.916C183.691 261.446 183.88 262.096 183.88 262.865C183.88 263.633 183.691 264.283 183.315 264.814C182.938 265.335 182.415 265.733 181.747 266.008C181.087 266.282 180.315 266.42 179.43 266.42ZM179.43 265.047C179.919 265.047 180.357 264.965 180.743 264.8C181.139 264.626 181.45 264.379 181.676 264.059C181.902 263.729 182.015 263.331 182.015 262.865C182.015 262.398 181.902 262 181.676 261.671C181.45 261.332 181.144 261.076 180.758 260.902C180.371 260.728 179.929 260.641 179.43 260.641C178.94 260.641 178.497 260.728 178.102 260.902C177.706 261.076 177.39 261.327 177.155 261.657C176.929 261.986 176.816 262.389 176.816 262.865C176.816 263.331 176.929 263.729 177.155 264.059C177.381 264.379 177.692 264.626 178.087 264.8C178.483 264.965 178.93 265.047 179.43 265.047Z" fill="#2E0880"/>
<path d="M193.361 266.255H191.525V259.433H193.361V266.255ZM191.623 262.975L191.638 263.441C191.619 263.569 191.572 263.757 191.496 264.004C191.421 264.242 191.303 264.498 191.143 264.773C190.992 265.047 190.795 265.312 190.55 265.569C190.305 265.816 190.003 266.022 189.646 266.186C189.288 266.342 188.864 266.42 188.374 266.42C187.988 266.42 187.606 266.374 187.23 266.282C186.862 266.191 186.528 266.04 186.227 265.829C185.925 265.61 185.685 265.317 185.506 264.951C185.327 264.585 185.238 264.123 185.238 263.565V259.433H187.074V263.263C187.074 263.702 187.145 264.05 187.286 264.306C187.437 264.553 187.653 264.727 187.936 264.827C188.219 264.928 188.553 264.978 188.939 264.978C189.448 264.978 189.886 264.873 190.253 264.663C190.62 264.443 190.917 264.178 191.143 263.867C191.379 263.556 191.539 263.258 191.623 262.975Z" fill="#2E0880"/>
<path d="M201.86 266.406C201.163 266.406 200.527 266.259 199.953 265.967C199.388 265.665 198.936 265.248 198.597 264.718C198.267 264.178 198.102 263.556 198.102 262.851C198.102 262.128 198.272 261.501 198.611 260.971C198.95 260.44 199.407 260.028 199.981 259.735C200.565 259.433 201.224 259.282 201.959 259.282C202.769 259.282 203.419 259.442 203.909 259.763C204.408 260.074 204.77 260.499 204.997 261.039C205.223 261.579 205.336 262.183 205.336 262.851C205.336 263.254 205.27 263.665 205.138 264.086C205.006 264.498 204.803 264.882 204.53 265.239C204.257 265.587 203.899 265.871 203.457 266.09C203.014 266.301 202.482 266.406 201.86 266.406ZM202.453 265.033C203.009 265.033 203.49 264.942 203.895 264.759C204.3 264.576 204.61 264.32 204.827 263.99C205.044 263.661 205.152 263.281 205.152 262.851C205.152 262.384 205.039 261.991 204.813 261.671C204.596 261.341 204.285 261.094 203.88 260.929C203.485 260.756 203.009 260.669 202.453 260.669C201.672 260.669 201.064 260.87 200.631 261.273C200.198 261.666 199.981 262.192 199.981 262.851C199.981 263.29 200.085 263.675 200.292 264.004C200.499 264.324 200.786 264.576 201.154 264.759C201.53 264.942 201.964 265.033 202.453 265.033ZM205.152 259.433H206.989V266.255H205.279C205.279 266.255 205.265 266.168 205.237 265.994C205.218 265.811 205.199 265.582 205.18 265.308C205.161 265.033 205.152 264.763 205.152 264.498V259.433Z" fill="#2E0880"/>
<path d="M208.651 259.433H210.487V266.255H208.651V259.433ZM213.186 260.902C212.658 260.902 212.202 261.003 211.815 261.204C211.429 261.396 211.118 261.634 210.883 261.918C210.648 262.201 210.483 262.476 210.389 262.741L210.374 261.986C210.384 261.876 210.421 261.716 210.487 261.506C210.553 261.286 210.652 261.053 210.784 260.806C210.916 260.55 211.09 260.307 211.307 260.078C211.523 259.841 211.787 259.648 212.098 259.502C212.409 259.356 212.771 259.282 213.186 259.282V260.902Z" fill="#2E0880"/>
<path d="M220.721 263.99H222.501C222.426 264.457 222.223 264.873 221.894 265.239C221.574 265.605 221.136 265.893 220.58 266.104C220.024 266.314 219.346 266.42 218.546 266.42C217.651 266.42 216.86 266.282 216.172 266.008C215.484 265.724 214.948 265.317 214.561 264.786C214.175 264.256 213.982 263.615 213.982 262.865C213.982 262.114 214.171 261.474 214.547 260.943C214.924 260.403 215.447 259.992 216.116 259.708C216.794 259.424 217.585 259.282 218.489 259.282C219.412 259.282 220.18 259.424 220.792 259.708C221.404 259.992 221.856 260.422 222.148 260.998C222.45 261.565 222.577 262.293 222.53 263.18H215.833C215.88 263.528 216.012 263.844 216.229 264.127C216.455 264.411 216.756 264.635 217.133 264.8C217.519 264.965 217.976 265.047 218.503 265.047C219.087 265.047 219.572 264.951 219.958 264.759C220.354 264.558 220.608 264.301 220.721 263.99ZM218.404 260.641C217.726 260.641 217.175 260.788 216.751 261.08C216.327 261.364 216.054 261.716 215.932 262.137H220.707C220.66 261.68 220.434 261.318 220.029 261.053C219.633 260.778 219.092 260.641 218.404 260.641Z" fill="#2E0880"/>
<path d="M224.264 257.155H226.128V263.482H224.264V257.155ZM226.27 264.69V266.255H224.136V264.69H226.27Z" fill="#2E0880"/>
</svg>
