<svg width="1440" height="209" viewBox="0 0 1440 209" fill="none" xmlns="http://www.w3.org/2000/svg">
<circle cx="113.306" cy="2.33818" r="1.73625" fill="#FFE2E2"/>
<circle cx="8.15911" cy="2.33818" r="1.73625" fill="#FFE2E2"/>
<circle cx="29.1884" cy="2.33818" r="1.73625" fill="#FFE2E2"/>
<circle cx="50.2177" cy="2.33818" r="1.73625" fill="#FFE2E2"/>
<circle cx="71.247" cy="2.33818" r="1.73625" fill="#FFE2E2"/>
<circle cx="92.2763" cy="2.33818" r="1.73625" fill="#FFE2E2"/>
<circle cx="113.306" cy="26.8362" r="1.73625" fill="#FFE2E2"/>
<circle cx="8.15911" cy="26.8362" r="1.73625" fill="#FFE2E2"/>
<circle cx="29.1884" cy="26.8362" r="1.73625" fill="#FFE2E2"/>
<circle cx="50.2177" cy="26.8362" r="1.73625" fill="#FFE2E2"/>
<circle cx="71.247" cy="26.8362" r="1.73625" fill="#FFE2E2"/>
<circle cx="92.2763" cy="26.8362" r="1.73625" fill="#FFE2E2"/>
<circle cx="113.306" cy="51.3362" r="1.73625" fill="#FFE2E2"/>
<circle cx="8.15911" cy="51.3362" r="1.73625" fill="#FFE2E2"/>
<circle cx="29.1884" cy="51.3362" r="1.73625" fill="#FFE2E2"/>
<circle cx="50.2177" cy="51.3362" r="1.73625" fill="#FFE2E2"/>
<circle cx="71.247" cy="51.3362" r="1.73625" fill="#FFE2E2"/>
<circle cx="92.2763" cy="51.3362" r="1.73625" fill="#FFE2E2"/>
<circle cx="113.306" cy="75.8343" r="1.73625" fill="#FFE2E2"/>
<circle cx="8.15911" cy="75.8343" r="1.73625" fill="#FFE2E2"/>
<circle cx="29.1884" cy="75.8343" r="1.73625" fill="#FFE2E2"/>
<circle cx="50.2177" cy="75.8343" r="1.73625" fill="#FFE2E2"/>
<circle cx="71.247" cy="75.8343" r="1.73625" fill="#FFE2E2"/>
<circle cx="92.2763" cy="75.8343" r="1.73625" fill="#FFE2E2"/>
<circle cx="113.306" cy="100.336" r="1.73625" fill="#FFE2E2"/>
<circle cx="8.15911" cy="100.336" r="1.73625" fill="#FFE2E2"/>
<circle cx="29.1884" cy="100.336" r="1.73625" fill="#FFE2E2"/>
<circle cx="50.2177" cy="100.336" r="1.73625" fill="#FFE2E2"/>
<circle cx="71.247" cy="100.336" r="1.73625" fill="#FFE2E2"/>
<circle cx="92.2763" cy="100.336" r="1.73625" fill="#FFE2E2"/>
<circle cx="113.306" cy="124.834" r="1.73625" fill="#FFE2E2"/>
<circle cx="8.15911" cy="124.834" r="1.73625" fill="#FFE2E2"/>
<circle cx="29.1884" cy="124.834" r="1.73625" fill="#FFE2E2"/>
<circle cx="50.2177" cy="124.834" r="1.73625" fill="#FFE2E2"/>
<circle cx="71.247" cy="124.834" r="1.73625" fill="#FFE2E2"/>
<circle cx="92.2763" cy="124.834" r="1.73625" fill="#FFE2E2"/>
<circle cx="113.306" cy="149.336" r="1.73625" fill="#FFE2E2"/>
<circle cx="8.15911" cy="149.336" r="1.73625" fill="#FFE2E2"/>
<circle cx="29.1884" cy="149.336" r="1.73625" fill="#FFE2E2"/>
<circle cx="50.2177" cy="149.336" r="1.73625" fill="#FFE2E2"/>
<circle cx="71.247" cy="149.336" r="1.73625" fill="#FFE2E2"/>
<circle cx="92.2763" cy="149.336" r="1.73625" fill="#FFE2E2"/>
<circle cx="113.306" cy="173.834" r="1.73625" fill="#FFE2E2"/>
<circle cx="8.15911" cy="173.834" r="1.73625" fill="#FFE2E2"/>
<circle cx="29.1884" cy="173.834" r="1.73625" fill="#FFE2E2"/>
<circle cx="50.2177" cy="173.834" r="1.73625" fill="#FFE2E2"/>
<circle cx="71.247" cy="173.834" r="1.73625" fill="#FFE2E2"/>
<circle cx="92.2763" cy="173.834" r="1.73625" fill="#FFE2E2"/>
<circle cx="113.306" cy="198.336" r="1.73625" fill="#FFE2E2"/>
<circle cx="8.15911" cy="198.336" r="1.73625" fill="#FFE2E2"/>
<circle cx="29.1884" cy="198.336" r="1.73625" fill="#FFE2E2"/>
<circle cx="50.2177" cy="198.336" r="1.73625" fill="#FFE2E2"/>
<circle cx="71.247" cy="198.336" r="1.73625" fill="#FFE2E2"/>
<circle cx="92.2763" cy="198.336" r="1.73625" fill="#FFE2E2"/>
<circle cx="113.306" cy="149.336" r="1.73625" fill="#FFE2E2"/>
<circle cx="8.15911" cy="149.336" r="1.73625" fill="#FFE2E2"/>
<circle cx="29.1884" cy="149.336" r="1.73625" fill="#FFE2E2"/>
<circle cx="50.2177" cy="149.336" r="1.73625" fill="#FFE2E2"/>
<circle cx="71.247" cy="149.336" r="1.73625" fill="#FFE2E2"/>
<circle cx="92.2763" cy="149.336" r="1.73625" fill="#FFE2E2"/>
<circle cx="113.306" cy="173.834" r="1.73625" fill="#FFE2E2"/>
<circle cx="8.15911" cy="173.834" r="1.73625" fill="#FFE2E2"/>
<circle cx="29.1884" cy="173.834" r="1.73625" fill="#FFE2E2"/>
<circle cx="50.2177" cy="173.834" r="1.73625" fill="#FFE2E2"/>
<circle cx="71.247" cy="173.834" r="1.73625" fill="#FFE2E2"/>
<circle cx="92.2763" cy="173.834" r="1.73625" fill="#FFE2E2"/>
<circle cx="134.351" cy="2.33818" r="1.73625" fill="#FFE2E2"/>
<circle cx="155.381" cy="2.33818" r="1.73625" fill="#FFE2E2"/>
<circle cx="176.41" cy="2.33818" r="1.73625" fill="#FFE2E2"/>
<circle cx="344.644" cy="2.33818" r="1.73625" fill="#FFE2E2"/>
<circle cx="197.439" cy="2.33818" r="1.73625" fill="#FFE2E2"/>
<circle cx="218.469" cy="2.33818" r="1.73625" fill="#FFE2E2"/>
<circle cx="239.498" cy="2.33818" r="1.73625" fill="#FFE2E2"/>
<circle cx="260.527" cy="2.33818" r="1.73625" fill="#FFE2E2"/>
<circle cx="281.557" cy="2.33818" r="1.73625" fill="#FFE2E2"/>
<circle cx="302.586" cy="2.33818" r="1.73625" fill="#FFE2E2"/>
<circle cx="323.615" cy="2.33818" r="1.73625" fill="#FFE2E2"/>
<circle cx="365.674" cy="2.33818" r="1.73625" fill="#FFE2E2"/>
<circle cx="386.703" cy="2.33818" r="1.73625" fill="#FFE2E2"/>
<circle cx="407.732" cy="2.33818" r="1.73625" fill="#FFE2E2"/>
<circle cx="575.967" cy="2.33818" r="1.73625" fill="#FFE2E2"/>
<circle cx="428.762" cy="2.33818" r="1.73625" fill="#FFE2E2"/>
<circle cx="449.791" cy="2.33818" r="1.73625" fill="#FFE2E2"/>
<circle cx="470.82" cy="2.33818" r="1.73625" fill="#FFE2E2"/>
<circle cx="491.85" cy="2.33818" r="1.73625" fill="#FFE2E2"/>
<circle cx="512.879" cy="2.33818" r="1.73625" fill="#FFE2E2"/>
<circle cx="533.908" cy="2.33818" r="1.73625" fill="#FFE2E2"/>
<circle cx="554.937" cy="2.33818" r="1.73625" fill="#FFE2E2"/>
<circle cx="134.351" cy="26.8362" r="1.73625" fill="#FFE2E2"/>
<circle cx="155.381" cy="26.8362" r="1.73625" fill="#FFE2E2"/>
<circle cx="176.41" cy="26.8362" r="1.73625" fill="#FFE2E2"/>
<circle cx="344.644" cy="26.8362" r="1.73625" fill="#FFE2E2"/>
<circle cx="197.439" cy="26.8362" r="1.73625" fill="#FFE2E2"/>
<circle cx="218.469" cy="26.8362" r="1.73625" fill="#FFE2E2"/>
<circle cx="239.498" cy="26.8362" r="1.73625" fill="#FFE2E2"/>
<circle cx="260.527" cy="26.8362" r="1.73625" fill="#FFE2E2"/>
<circle cx="281.557" cy="26.8362" r="1.73625" fill="#FFE2E2"/>
<circle cx="302.586" cy="26.8362" r="1.73625" fill="#FFE2E2"/>
<circle cx="323.615" cy="26.8362" r="1.73625" fill="#FFE2E2"/>
<circle cx="365.674" cy="26.8362" r="1.73625" fill="#FFE2E2"/>
<circle cx="386.703" cy="26.8362" r="1.73625" fill="#FFE2E2"/>
<circle cx="407.732" cy="26.8362" r="1.73625" fill="#FFE2E2"/>
<circle cx="575.967" cy="26.8362" r="1.73625" fill="#FFE2E2"/>
<circle cx="428.762" cy="26.8362" r="1.73625" fill="#FFE2E2"/>
<circle cx="449.791" cy="26.8362" r="1.73625" fill="#FFE2E2"/>
<circle cx="470.82" cy="26.8362" r="1.73625" fill="#FFE2E2"/>
<circle cx="491.85" cy="26.8362" r="1.73625" fill="#FFE2E2"/>
<circle cx="512.879" cy="26.8362" r="1.73625" fill="#FFE2E2"/>
<circle cx="533.908" cy="26.8362" r="1.73625" fill="#FFE2E2"/>
<circle cx="554.937" cy="26.8362" r="1.73625" fill="#FFE2E2"/>
<circle cx="134.351" cy="51.3362" r="1.73625" fill="#FFE2E2"/>
<circle cx="155.381" cy="51.3362" r="1.73625" fill="#FFE2E2"/>
<circle cx="176.41" cy="51.3362" r="1.73625" fill="#FFE2E2"/>
<circle cx="344.644" cy="51.3362" r="1.73625" fill="#FFE2E2"/>
<circle cx="197.439" cy="51.3362" r="1.73625" fill="#FFE2E2"/>
<circle cx="218.469" cy="51.3362" r="1.73625" fill="#FFE2E2"/>
<circle cx="239.498" cy="51.3362" r="1.73625" fill="#FFE2E2"/>
<circle cx="260.527" cy="51.3362" r="1.73625" fill="#FFE2E2"/>
<circle cx="281.557" cy="51.3362" r="1.73625" fill="#FFE2E2"/>
<circle cx="302.586" cy="51.3362" r="1.73625" fill="#FFE2E2"/>
<circle cx="323.615" cy="51.3362" r="1.73625" fill="#FFE2E2"/>
<circle cx="365.674" cy="51.3362" r="1.73625" fill="#FFE2E2"/>
<circle cx="386.703" cy="51.3362" r="1.73625" fill="#FFE2E2"/>
<circle cx="407.732" cy="51.3362" r="1.73625" fill="#FFE2E2"/>
<circle cx="575.967" cy="51.3362" r="1.73625" fill="#FFE2E2"/>
<circle cx="428.762" cy="51.3362" r="1.73625" fill="#FFE2E2"/>
<circle cx="449.791" cy="51.3362" r="1.73625" fill="#FFE2E2"/>
<circle cx="470.82" cy="51.3362" r="1.73625" fill="#FFE2E2"/>
<circle cx="491.85" cy="51.3362" r="1.73625" fill="#FFE2E2"/>
<circle cx="512.879" cy="51.3362" r="1.73625" fill="#FFE2E2"/>
<circle cx="533.908" cy="51.3362" r="1.73625" fill="#FFE2E2"/>
<circle cx="554.937" cy="51.3362" r="1.73625" fill="#FFE2E2"/>
<circle cx="134.351" cy="75.8343" r="1.73625" fill="#FFE2E2"/>
<circle cx="155.381" cy="75.8343" r="1.73625" fill="#FFE2E2"/>
<circle cx="176.41" cy="75.8343" r="1.73625" fill="#FFE2E2"/>
<circle cx="344.644" cy="75.8343" r="1.73625" fill="#FFE2E2"/>
<circle cx="197.439" cy="75.8343" r="1.73625" fill="#FFE2E2"/>
<circle cx="218.469" cy="75.8343" r="1.73625" fill="#FFE2E2"/>
<circle cx="239.498" cy="75.8343" r="1.73625" fill="#FFE2E2"/>
<circle cx="260.527" cy="75.8343" r="1.73625" fill="#FFE2E2"/>
<circle cx="281.557" cy="75.8343" r="1.73625" fill="#FFE2E2"/>
<circle cx="302.586" cy="75.8343" r="1.73625" fill="#FFE2E2"/>
<circle cx="323.615" cy="75.8343" r="1.73625" fill="#FFE2E2"/>
<circle cx="365.674" cy="75.8343" r="1.73625" fill="#FFE2E2"/>
<circle cx="386.703" cy="75.8343" r="1.73625" fill="#FFE2E2"/>
<circle cx="407.732" cy="75.8343" r="1.73625" fill="#FFE2E2"/>
<circle cx="575.967" cy="75.8343" r="1.73625" fill="#FFE2E2"/>
<circle cx="428.762" cy="75.8343" r="1.73625" fill="#FFE2E2"/>
<circle cx="449.791" cy="75.8343" r="1.73625" fill="#FFE2E2"/>
<circle cx="470.82" cy="75.8343" r="1.73625" fill="#FFE2E2"/>
<circle cx="491.85" cy="75.8343" r="1.73625" fill="#FFE2E2"/>
<circle cx="512.879" cy="75.8343" r="1.73625" fill="#FFE2E2"/>
<circle cx="533.908" cy="75.8343" r="1.73625" fill="#FFE2E2"/>
<circle cx="554.937" cy="75.8343" r="1.73625" fill="#FFE2E2"/>
<circle cx="134.351" cy="100.336" r="1.73625" fill="#FFE2E2"/>
<circle cx="155.381" cy="100.336" r="1.73625" fill="#FFE2E2"/>
<circle cx="176.41" cy="100.336" r="1.73625" fill="#FFE2E2"/>
<circle cx="344.644" cy="100.336" r="1.73625" fill="#FFE2E2"/>
<circle cx="197.439" cy="100.336" r="1.73625" fill="#FFE2E2"/>
<circle cx="218.469" cy="100.336" r="1.73625" fill="#FFE2E2"/>
<circle cx="239.498" cy="100.336" r="1.73625" fill="#FFE2E2"/>
<circle cx="260.527" cy="100.336" r="1.73625" fill="#FFE2E2"/>
<circle cx="281.557" cy="100.336" r="1.73625" fill="#FFE2E2"/>
<circle cx="302.586" cy="100.336" r="1.73625" fill="#FFE2E2"/>
<circle cx="323.615" cy="100.336" r="1.73625" fill="#FFE2E2"/>
<circle cx="365.674" cy="100.336" r="1.73625" fill="#FFE2E2"/>
<circle cx="386.703" cy="100.336" r="1.73625" fill="#FFE2E2"/>
<circle cx="407.732" cy="100.336" r="1.73625" fill="#FFE2E2"/>
<circle cx="575.967" cy="100.336" r="1.73625" fill="#FFE2E2"/>
<circle cx="428.762" cy="100.336" r="1.73625" fill="#FFE2E2"/>
<circle cx="449.791" cy="100.336" r="1.73625" fill="#FFE2E2"/>
<circle cx="470.82" cy="100.336" r="1.73625" fill="#FFE2E2"/>
<circle cx="491.85" cy="100.336" r="1.73625" fill="#FFE2E2"/>
<circle cx="512.879" cy="100.336" r="1.73625" fill="#FFE2E2"/>
<circle cx="533.908" cy="100.336" r="1.73625" fill="#FFE2E2"/>
<circle cx="554.937" cy="100.336" r="1.73625" fill="#FFE2E2"/>
<circle cx="134.351" cy="124.834" r="1.73625" fill="#FFE2E2"/>
<circle cx="155.381" cy="124.834" r="1.73625" fill="#FFE2E2"/>
<circle cx="176.41" cy="124.834" r="1.73625" fill="#FFE2E2"/>
<circle cx="344.644" cy="124.834" r="1.73625" fill="#FFE2E2"/>
<circle cx="197.439" cy="124.834" r="1.73625" fill="#FFE2E2"/>
<circle cx="218.469" cy="124.834" r="1.73625" fill="#FFE2E2"/>
<circle cx="239.498" cy="124.834" r="1.73625" fill="#FFE2E2"/>
<circle cx="260.527" cy="124.834" r="1.73625" fill="#FFE2E2"/>
<circle cx="281.557" cy="124.834" r="1.73625" fill="#FFE2E2"/>
<circle cx="302.586" cy="124.834" r="1.73625" fill="#FFE2E2"/>
<circle cx="323.615" cy="124.834" r="1.73625" fill="#FFE2E2"/>
<circle cx="365.674" cy="124.834" r="1.73625" fill="#FFE2E2"/>
<circle cx="386.703" cy="124.834" r="1.73625" fill="#FFE2E2"/>
<circle cx="407.732" cy="124.834" r="1.73625" fill="#FFE2E2"/>
<circle cx="575.967" cy="124.834" r="1.73625" fill="#FFE2E2"/>
<circle cx="428.762" cy="124.834" r="1.73625" fill="#FFE2E2"/>
<circle cx="449.791" cy="124.834" r="1.73625" fill="#FFE2E2"/>
<circle cx="470.82" cy="124.834" r="1.73625" fill="#FFE2E2"/>
<circle cx="491.85" cy="124.834" r="1.73625" fill="#FFE2E2"/>
<circle cx="512.879" cy="124.834" r="1.73625" fill="#FFE2E2"/>
<circle cx="533.908" cy="124.834" r="1.73625" fill="#FFE2E2"/>
<circle cx="554.937" cy="124.834" r="1.73625" fill="#FFE2E2"/>
<circle cx="134.351" cy="149.336" r="1.73625" fill="#FFE2E2"/>
<circle cx="155.381" cy="149.336" r="1.73625" fill="#FFE2E2"/>
<circle cx="176.41" cy="149.336" r="1.73625" fill="#FFE2E2"/>
<circle cx="344.644" cy="149.336" r="1.73625" fill="#FFE2E2"/>
<circle cx="197.439" cy="149.336" r="1.73625" fill="#FFE2E2"/>
<circle cx="218.469" cy="149.336" r="1.73625" fill="#FFE2E2"/>
<circle cx="239.498" cy="149.336" r="1.73625" fill="#FFE2E2"/>
<circle cx="260.527" cy="149.336" r="1.73625" fill="#FFE2E2"/>
<circle cx="281.557" cy="149.336" r="1.73625" fill="#FFE2E2"/>
<circle cx="302.586" cy="149.336" r="1.73625" fill="#FFE2E2"/>
<circle cx="323.615" cy="149.336" r="1.73625" fill="#FFE2E2"/>
<circle cx="365.674" cy="149.336" r="1.73625" fill="#FFE2E2"/>
<circle cx="386.703" cy="149.336" r="1.73625" fill="#FFE2E2"/>
<circle cx="407.732" cy="149.336" r="1.73625" fill="#FFE2E2"/>
<circle cx="575.967" cy="149.336" r="1.73625" fill="#FFE2E2"/>
<circle cx="428.762" cy="149.336" r="1.73625" fill="#FFE2E2"/>
<circle cx="449.791" cy="149.336" r="1.73625" fill="#FFE2E2"/>
<circle cx="470.82" cy="149.336" r="1.73625" fill="#FFE2E2"/>
<circle cx="491.85" cy="149.336" r="1.73625" fill="#FFE2E2"/>
<circle cx="512.879" cy="149.336" r="1.73625" fill="#FFE2E2"/>
<circle cx="533.908" cy="149.336" r="1.73625" fill="#FFE2E2"/>
<circle cx="554.937" cy="149.336" r="1.73625" fill="#FFE2E2"/>
<circle cx="134.351" cy="173.834" r="1.73625" fill="#FFE2E2"/>
<circle cx="155.381" cy="173.834" r="1.73625" fill="#FFE2E2"/>
<circle cx="176.41" cy="173.834" r="1.73625" fill="#FFE2E2"/>
<circle cx="344.644" cy="173.834" r="1.73625" fill="#FFE2E2"/>
<circle cx="197.439" cy="173.834" r="1.73625" fill="#FFE2E2"/>
<circle cx="218.469" cy="173.834" r="1.73625" fill="#FFE2E2"/>
<circle cx="239.498" cy="173.834" r="1.73625" fill="#FFE2E2"/>
<circle cx="260.527" cy="173.834" r="1.73625" fill="#FFE2E2"/>
<circle cx="281.557" cy="173.834" r="1.73625" fill="#FFE2E2"/>
<circle cx="302.586" cy="173.834" r="1.73625" fill="#FFE2E2"/>
<circle cx="323.615" cy="173.834" r="1.73625" fill="#FFE2E2"/>
<circle cx="365.674" cy="173.834" r="1.73625" fill="#FFE2E2"/>
<circle cx="386.703" cy="173.834" r="1.73625" fill="#FFE2E2"/>
<circle cx="407.732" cy="173.834" r="1.73625" fill="#FFE2E2"/>
<circle cx="575.967" cy="173.834" r="1.73625" fill="#FFE2E2"/>
<circle cx="428.762" cy="173.834" r="1.73625" fill="#FFE2E2"/>
<circle cx="449.791" cy="173.834" r="1.73625" fill="#FFE2E2"/>
<circle cx="470.82" cy="173.834" r="1.73625" fill="#FFE2E2"/>
<circle cx="491.85" cy="173.834" r="1.73625" fill="#FFE2E2"/>
<circle cx="512.879" cy="173.834" r="1.73625" fill="#FFE2E2"/>
<circle cx="533.908" cy="173.834" r="1.73625" fill="#FFE2E2"/>
<circle cx="554.937" cy="173.834" r="1.73625" fill="#FFE2E2"/>
<circle cx="134.351" cy="198.336" r="1.73625" fill="#FFE2E2"/>
<circle cx="155.381" cy="198.336" r="1.73625" fill="#FFE2E2"/>
<circle cx="176.41" cy="198.336" r="1.73625" fill="#FFE2E2"/>
<circle cx="344.644" cy="198.336" r="1.73625" fill="#FFE2E2"/>
<circle cx="197.439" cy="198.336" r="1.73625" fill="#FFE2E2"/>
<circle cx="218.469" cy="198.336" r="1.73625" fill="#FFE2E2"/>
<circle cx="239.498" cy="198.336" r="1.73625" fill="#FFE2E2"/>
<circle cx="260.527" cy="198.336" r="1.73625" fill="#FFE2E2"/>
<circle cx="281.557" cy="198.336" r="1.73625" fill="#FFE2E2"/>
<circle cx="302.586" cy="198.336" r="1.73625" fill="#FFE2E2"/>
<circle cx="323.615" cy="198.336" r="1.73625" fill="#FFE2E2"/>
<circle cx="365.674" cy="198.336" r="1.73625" fill="#FFE2E2"/>
<circle cx="386.703" cy="198.336" r="1.73625" fill="#FFE2E2"/>
<circle cx="407.732" cy="198.336" r="1.73625" fill="#FFE2E2"/>
<circle cx="575.967" cy="198.336" r="1.73625" fill="#FFE2E2"/>
<circle cx="428.762" cy="198.336" r="1.73625" fill="#FFE2E2"/>
<circle cx="449.791" cy="198.336" r="1.73625" fill="#FFE2E2"/>
<circle cx="470.82" cy="198.336" r="1.73625" fill="#FFE2E2"/>
<circle cx="491.85" cy="198.336" r="1.73625" fill="#FFE2E2"/>
<circle cx="512.879" cy="198.336" r="1.73625" fill="#FFE2E2"/>
<circle cx="533.908" cy="198.336" r="1.73625" fill="#FFE2E2"/>
<circle cx="554.937" cy="198.336" r="1.73625" fill="#FFE2E2"/>
<circle cx="134.351" cy="149.336" r="1.73625" fill="#FFE2E2"/>
<circle cx="155.381" cy="149.336" r="1.73625" fill="#FFE2E2"/>
<circle cx="176.41" cy="149.336" r="1.73625" fill="#FFE2E2"/>
<circle cx="344.644" cy="149.336" r="1.73625" fill="#FFE2E2"/>
<circle cx="197.439" cy="149.336" r="1.73625" fill="#FFE2E2"/>
<circle cx="218.469" cy="149.336" r="1.73625" fill="#FFE2E2"/>
<circle cx="239.498" cy="149.336" r="1.73625" fill="#FFE2E2"/>
<circle cx="260.527" cy="149.336" r="1.73625" fill="#FFE2E2"/>
<circle cx="281.557" cy="149.336" r="1.73625" fill="#FFE2E2"/>
<circle cx="302.586" cy="149.336" r="1.73625" fill="#FFE2E2"/>
<circle cx="323.615" cy="149.336" r="1.73625" fill="#FFE2E2"/>
<circle cx="365.674" cy="149.336" r="1.73625" fill="#FFE2E2"/>
<circle cx="386.703" cy="149.336" r="1.73625" fill="#FFE2E2"/>
<circle cx="407.732" cy="149.336" r="1.73625" fill="#FFE2E2"/>
<circle cx="575.967" cy="149.336" r="1.73625" fill="#FFE2E2"/>
<circle cx="428.762" cy="149.336" r="1.73625" fill="#FFE2E2"/>
<circle cx="449.791" cy="149.336" r="1.73625" fill="#FFE2E2"/>
<circle cx="470.82" cy="149.336" r="1.73625" fill="#FFE2E2"/>
<circle cx="491.85" cy="149.336" r="1.73625" fill="#FFE2E2"/>
<circle cx="512.879" cy="149.336" r="1.73625" fill="#FFE2E2"/>
<circle cx="533.908" cy="149.336" r="1.73625" fill="#FFE2E2"/>
<circle cx="554.937" cy="149.336" r="1.73625" fill="#FFE2E2"/>
<circle cx="134.351" cy="173.834" r="1.73625" fill="#FFE2E2"/>
<circle cx="155.381" cy="173.834" r="1.73625" fill="#FFE2E2"/>
<circle cx="176.41" cy="173.834" r="1.73625" fill="#FFE2E2"/>
<circle cx="344.644" cy="173.834" r="1.73625" fill="#FFE2E2"/>
<circle cx="197.439" cy="173.834" r="1.73625" fill="#FFE2E2"/>
<circle cx="218.469" cy="173.834" r="1.73625" fill="#FFE2E2"/>
<circle cx="239.498" cy="173.834" r="1.73625" fill="#FFE2E2"/>
<circle cx="260.527" cy="173.834" r="1.73625" fill="#FFE2E2"/>
<circle cx="281.557" cy="173.834" r="1.73625" fill="#FFE2E2"/>
<circle cx="302.586" cy="173.834" r="1.73625" fill="#FFE2E2"/>
<circle cx="323.615" cy="173.834" r="1.73625" fill="#FFE2E2"/>
<circle cx="365.674" cy="173.834" r="1.73625" fill="#FFE2E2"/>
<circle cx="386.703" cy="173.834" r="1.73625" fill="#FFE2E2"/>
<circle cx="407.732" cy="173.834" r="1.73625" fill="#FFE2E2"/>
<circle cx="575.967" cy="173.834" r="1.73625" fill="#FFE2E2"/>
<circle cx="428.762" cy="173.834" r="1.73625" fill="#FFE2E2"/>
<circle cx="449.791" cy="173.834" r="1.73625" fill="#FFE2E2"/>
<circle cx="470.82" cy="173.834" r="1.73625" fill="#FFE2E2"/>
<circle cx="491.85" cy="173.834" r="1.73625" fill="#FFE2E2"/>
<circle cx="512.879" cy="173.834" r="1.73625" fill="#FFE2E2"/>
<circle cx="533.908" cy="173.834" r="1.73625" fill="#FFE2E2"/>
<circle cx="554.937" cy="173.834" r="1.73625" fill="#FFE2E2"/>
<circle cx="597.013" cy="4.07451" r="1.73625" fill="#FFE2E2"/>
<circle cx="618.042" cy="4.07451" r="1.73625" fill="#FFE2E2"/>
<circle cx="639.071" cy="4.07451" r="1.73625" fill="#FFE2E2"/>
<circle cx="807.306" cy="4.07451" r="1.73625" fill="#FFE2E2"/>
<circle cx="660.101" cy="4.07451" r="1.73625" fill="#FFE2E2"/>
<circle cx="681.13" cy="4.07451" r="1.73625" fill="#FFE2E2"/>
<circle cx="702.159" cy="4.07451" r="1.73625" fill="#FFE2E2"/>
<circle cx="723.188" cy="4.07451" r="1.73625" fill="#FFE2E2"/>
<circle cx="744.218" cy="4.07451" r="1.73625" fill="#FFE2E2"/>
<circle cx="765.247" cy="4.07451" r="1.73625" fill="#FFE2E2"/>
<circle cx="786.276" cy="4.07451" r="1.73625" fill="#FFE2E2"/>
<circle cx="828.335" cy="4.07451" r="1.73625" fill="#FFE2E2"/>
<circle cx="849.364" cy="4.07451" r="1.73625" fill="#FFE2E2"/>
<circle cx="870.393" cy="4.07451" r="1.73625" fill="#FFE2E2"/>
<circle cx="1038.63" cy="4.07451" r="1.73625" fill="#FFE2E2"/>
<circle cx="891.423" cy="4.07451" r="1.73625" fill="#FFE2E2"/>
<circle cx="912.452" cy="4.07451" r="1.73625" fill="#FFE2E2"/>
<circle cx="933.481" cy="4.07451" r="1.73625" fill="#FFE2E2"/>
<circle cx="954.511" cy="4.07451" r="1.73625" fill="#FFE2E2"/>
<circle cx="975.54" cy="4.07451" r="1.73625" fill="#FFE2E2"/>
<circle cx="996.569" cy="4.07451" r="1.73625" fill="#FFE2E2"/>
<circle cx="1017.6" cy="4.07451" r="1.73625" fill="#FFE2E2"/>
<circle cx="597.013" cy="28.5726" r="1.73625" fill="#FFE2E2"/>
<circle cx="618.042" cy="28.5726" r="1.73625" fill="#FFE2E2"/>
<circle cx="639.071" cy="28.5726" r="1.73625" fill="#FFE2E2"/>
<circle cx="807.306" cy="28.5726" r="1.73625" fill="#FFE2E2"/>
<circle cx="660.101" cy="28.5726" r="1.73625" fill="#FFE2E2"/>
<circle cx="681.13" cy="28.5726" r="1.73625" fill="#FFE2E2"/>
<circle cx="702.159" cy="28.5726" r="1.73625" fill="#FFE2E2"/>
<circle cx="723.188" cy="28.5726" r="1.73625" fill="#FFE2E2"/>
<circle cx="744.218" cy="28.5726" r="1.73625" fill="#FFE2E2"/>
<circle cx="765.247" cy="28.5726" r="1.73625" fill="#FFE2E2"/>
<circle cx="786.276" cy="28.5726" r="1.73625" fill="#FFE2E2"/>
<circle cx="828.335" cy="28.5726" r="1.73625" fill="#FFE2E2"/>
<circle cx="849.364" cy="28.5726" r="1.73625" fill="#FFE2E2"/>
<circle cx="870.393" cy="28.5726" r="1.73625" fill="#FFE2E2"/>
<circle cx="1038.63" cy="28.5726" r="1.73625" fill="#FFE2E2"/>
<circle cx="891.423" cy="28.5726" r="1.73625" fill="#FFE2E2"/>
<circle cx="912.452" cy="28.5726" r="1.73625" fill="#FFE2E2"/>
<circle cx="933.481" cy="28.5726" r="1.73625" fill="#FFE2E2"/>
<circle cx="954.511" cy="28.5726" r="1.73625" fill="#FFE2E2"/>
<circle cx="975.54" cy="28.5726" r="1.73625" fill="#FFE2E2"/>
<circle cx="996.569" cy="28.5726" r="1.73625" fill="#FFE2E2"/>
<circle cx="1017.6" cy="28.5726" r="1.73625" fill="#FFE2E2"/>
<circle cx="597.013" cy="53.0726" r="1.73625" fill="#FFE2E2"/>
<circle cx="618.042" cy="53.0726" r="1.73625" fill="#FFE2E2"/>
<circle cx="639.071" cy="53.0726" r="1.73625" fill="#FFE2E2"/>
<circle cx="807.306" cy="53.0726" r="1.73625" fill="#FFE2E2"/>
<circle cx="660.101" cy="53.0726" r="1.73625" fill="#FFE2E2"/>
<circle cx="681.13" cy="53.0726" r="1.73625" fill="#FFE2E2"/>
<circle cx="702.159" cy="53.0726" r="1.73625" fill="#FFE2E2"/>
<circle cx="723.188" cy="53.0726" r="1.73625" fill="#FFE2E2"/>
<circle cx="744.218" cy="53.0726" r="1.73625" fill="#FFE2E2"/>
<circle cx="765.247" cy="53.0726" r="1.73625" fill="#FFE2E2"/>
<circle cx="786.276" cy="53.0726" r="1.73625" fill="#FFE2E2"/>
<circle cx="828.335" cy="53.0726" r="1.73625" fill="#FFE2E2"/>
<circle cx="849.364" cy="53.0726" r="1.73625" fill="#FFE2E2"/>
<circle cx="870.393" cy="53.0726" r="1.73625" fill="#FFE2E2"/>
<circle cx="1038.63" cy="53.0726" r="1.73625" fill="#FFE2E2"/>
<circle cx="891.423" cy="53.0726" r="1.73625" fill="#FFE2E2"/>
<circle cx="912.452" cy="53.0726" r="1.73625" fill="#FFE2E2"/>
<circle cx="933.481" cy="53.0726" r="1.73625" fill="#FFE2E2"/>
<circle cx="954.511" cy="53.0726" r="1.73625" fill="#FFE2E2"/>
<circle cx="975.54" cy="53.0726" r="1.73625" fill="#FFE2E2"/>
<circle cx="996.569" cy="53.0726" r="1.73625" fill="#FFE2E2"/>
<circle cx="1017.6" cy="53.0726" r="1.73625" fill="#FFE2E2"/>
<circle cx="597.013" cy="77.5706" r="1.73625" fill="#FFE2E2"/>
<circle cx="618.042" cy="77.5706" r="1.73625" fill="#FFE2E2"/>
<circle cx="639.071" cy="77.5706" r="1.73625" fill="#FFE2E2"/>
<circle cx="807.306" cy="77.5706" r="1.73625" fill="#FFE2E2"/>
<circle cx="660.101" cy="77.5706" r="1.73625" fill="#FFE2E2"/>
<circle cx="681.13" cy="77.5706" r="1.73625" fill="#FFE2E2"/>
<circle cx="702.159" cy="77.5706" r="1.73625" fill="#FFE2E2"/>
<circle cx="723.188" cy="77.5706" r="1.73625" fill="#FFE2E2"/>
<circle cx="744.218" cy="77.5706" r="1.73625" fill="#FFE2E2"/>
<circle cx="765.247" cy="77.5706" r="1.73625" fill="#FFE2E2"/>
<circle cx="786.276" cy="77.5706" r="1.73625" fill="#FFE2E2"/>
<circle cx="828.335" cy="77.5706" r="1.73625" fill="#FFE2E2"/>
<circle cx="849.364" cy="77.5706" r="1.73625" fill="#FFE2E2"/>
<circle cx="870.393" cy="77.5706" r="1.73625" fill="#FFE2E2"/>
<circle cx="1038.63" cy="77.5706" r="1.73625" fill="#FFE2E2"/>
<circle cx="891.423" cy="77.5706" r="1.73625" fill="#FFE2E2"/>
<circle cx="912.452" cy="77.5706" r="1.73625" fill="#FFE2E2"/>
<circle cx="933.481" cy="77.5706" r="1.73625" fill="#FFE2E2"/>
<circle cx="954.511" cy="77.5706" r="1.73625" fill="#FFE2E2"/>
<circle cx="975.54" cy="77.5706" r="1.73625" fill="#FFE2E2"/>
<circle cx="996.569" cy="77.5706" r="1.73625" fill="#FFE2E2"/>
<circle cx="1017.6" cy="77.5706" r="1.73625" fill="#FFE2E2"/>
<circle cx="597.013" cy="102.073" r="1.73625" fill="#FFE2E2"/>
<circle cx="618.042" cy="102.073" r="1.73625" fill="#FFE2E2"/>
<circle cx="639.071" cy="102.073" r="1.73625" fill="#FFE2E2"/>
<circle cx="807.306" cy="102.073" r="1.73625" fill="#FFE2E2"/>
<circle cx="660.101" cy="102.073" r="1.73625" fill="#FFE2E2"/>
<circle cx="681.13" cy="102.073" r="1.73625" fill="#FFE2E2"/>
<circle cx="702.159" cy="102.073" r="1.73625" fill="#FFE2E2"/>
<circle cx="723.188" cy="102.073" r="1.73625" fill="#FFE2E2"/>
<circle cx="744.218" cy="102.073" r="1.73625" fill="#FFE2E2"/>
<circle cx="765.247" cy="102.073" r="1.73625" fill="#FFE2E2"/>
<circle cx="786.276" cy="102.073" r="1.73625" fill="#FFE2E2"/>
<circle cx="828.335" cy="102.073" r="1.73625" fill="#FFE2E2"/>
<circle cx="849.364" cy="102.073" r="1.73625" fill="#FFE2E2"/>
<circle cx="870.393" cy="102.073" r="1.73625" fill="#FFE2E2"/>
<circle cx="1038.63" cy="102.073" r="1.73625" fill="#FFE2E2"/>
<circle cx="891.423" cy="102.073" r="1.73625" fill="#FFE2E2"/>
<circle cx="912.452" cy="102.073" r="1.73625" fill="#FFE2E2"/>
<circle cx="933.481" cy="102.073" r="1.73625" fill="#FFE2E2"/>
<circle cx="954.511" cy="102.073" r="1.73625" fill="#FFE2E2"/>
<circle cx="975.54" cy="102.073" r="1.73625" fill="#FFE2E2"/>
<circle cx="996.569" cy="102.073" r="1.73625" fill="#FFE2E2"/>
<circle cx="1017.6" cy="102.073" r="1.73625" fill="#FFE2E2"/>
<circle cx="597.013" cy="126.571" r="1.73625" fill="#FFE2E2"/>
<circle cx="618.042" cy="126.571" r="1.73625" fill="#FFE2E2"/>
<circle cx="639.071" cy="126.571" r="1.73625" fill="#FFE2E2"/>
<circle cx="807.306" cy="126.571" r="1.73625" fill="#FFE2E2"/>
<circle cx="660.101" cy="126.571" r="1.73625" fill="#FFE2E2"/>
<circle cx="681.13" cy="126.571" r="1.73625" fill="#FFE2E2"/>
<circle cx="702.159" cy="126.571" r="1.73625" fill="#FFE2E2"/>
<circle cx="723.188" cy="126.571" r="1.73625" fill="#FFE2E2"/>
<circle cx="744.218" cy="126.571" r="1.73625" fill="#FFE2E2"/>
<circle cx="765.247" cy="126.571" r="1.73625" fill="#FFE2E2"/>
<circle cx="786.276" cy="126.571" r="1.73625" fill="#FFE2E2"/>
<circle cx="828.335" cy="126.571" r="1.73625" fill="#FFE2E2"/>
<circle cx="849.364" cy="126.571" r="1.73625" fill="#FFE2E2"/>
<circle cx="870.393" cy="126.571" r="1.73625" fill="#FFE2E2"/>
<circle cx="1038.63" cy="126.571" r="1.73625" fill="#FFE2E2"/>
<circle cx="891.423" cy="126.571" r="1.73625" fill="#FFE2E2"/>
<circle cx="912.452" cy="126.571" r="1.73625" fill="#FFE2E2"/>
<circle cx="933.481" cy="126.571" r="1.73625" fill="#FFE2E2"/>
<circle cx="954.511" cy="126.571" r="1.73625" fill="#FFE2E2"/>
<circle cx="975.54" cy="126.571" r="1.73625" fill="#FFE2E2"/>
<circle cx="996.569" cy="126.571" r="1.73625" fill="#FFE2E2"/>
<circle cx="1017.6" cy="126.571" r="1.73625" fill="#FFE2E2"/>
<circle cx="597.013" cy="151.073" r="1.73625" fill="#FFE2E2"/>
<circle cx="618.042" cy="151.073" r="1.73625" fill="#FFE2E2"/>
<circle cx="639.071" cy="151.073" r="1.73625" fill="#FFE2E2"/>
<circle cx="807.306" cy="151.073" r="1.73625" fill="#FFE2E2"/>
<circle cx="660.101" cy="151.073" r="1.73625" fill="#FFE2E2"/>
<circle cx="681.13" cy="151.073" r="1.73625" fill="#FFE2E2"/>
<circle cx="702.159" cy="151.073" r="1.73625" fill="#FFE2E2"/>
<circle cx="723.188" cy="151.073" r="1.73625" fill="#FFE2E2"/>
<circle cx="744.218" cy="151.073" r="1.73625" fill="#FFE2E2"/>
<circle cx="765.247" cy="151.073" r="1.73625" fill="#FFE2E2"/>
<circle cx="786.276" cy="151.073" r="1.73625" fill="#FFE2E2"/>
<circle cx="828.335" cy="151.073" r="1.73625" fill="#FFE2E2"/>
<circle cx="849.364" cy="151.073" r="1.73625" fill="#FFE2E2"/>
<circle cx="870.393" cy="151.073" r="1.73625" fill="#FFE2E2"/>
<circle cx="1038.63" cy="151.073" r="1.73625" fill="#FFE2E2"/>
<circle cx="891.423" cy="151.073" r="1.73625" fill="#FFE2E2"/>
<circle cx="912.452" cy="151.073" r="1.73625" fill="#FFE2E2"/>
<circle cx="933.481" cy="151.073" r="1.73625" fill="#FFE2E2"/>
<circle cx="954.511" cy="151.073" r="1.73625" fill="#FFE2E2"/>
<circle cx="975.54" cy="151.073" r="1.73625" fill="#FFE2E2"/>
<circle cx="996.569" cy="151.073" r="1.73625" fill="#FFE2E2"/>
<circle cx="1017.6" cy="151.073" r="1.73625" fill="#FFE2E2"/>
<circle cx="597.013" cy="175.571" r="1.73625" fill="#FFE2E2"/>
<circle cx="618.042" cy="175.571" r="1.73625" fill="#FFE2E2"/>
<circle cx="639.071" cy="175.571" r="1.73625" fill="#FFE2E2"/>
<circle cx="807.306" cy="175.571" r="1.73625" fill="#FFE2E2"/>
<circle cx="660.101" cy="175.571" r="1.73625" fill="#FFE2E2"/>
<circle cx="681.13" cy="175.571" r="1.73625" fill="#FFE2E2"/>
<circle cx="702.159" cy="175.571" r="1.73625" fill="#FFE2E2"/>
<circle cx="723.188" cy="175.571" r="1.73625" fill="#FFE2E2"/>
<circle cx="744.218" cy="175.571" r="1.73625" fill="#FFE2E2"/>
<circle cx="765.247" cy="175.571" r="1.73625" fill="#FFE2E2"/>
<circle cx="786.276" cy="175.571" r="1.73625" fill="#FFE2E2"/>
<circle cx="828.335" cy="175.571" r="1.73625" fill="#FFE2E2"/>
<circle cx="849.364" cy="175.571" r="1.73625" fill="#FFE2E2"/>
<circle cx="870.393" cy="175.571" r="1.73625" fill="#FFE2E2"/>
<circle cx="1038.63" cy="175.571" r="1.73625" fill="#FFE2E2"/>
<circle cx="891.423" cy="175.571" r="1.73625" fill="#FFE2E2"/>
<circle cx="912.452" cy="175.571" r="1.73625" fill="#FFE2E2"/>
<circle cx="933.481" cy="175.571" r="1.73625" fill="#FFE2E2"/>
<circle cx="954.511" cy="175.571" r="1.73625" fill="#FFE2E2"/>
<circle cx="975.54" cy="175.571" r="1.73625" fill="#FFE2E2"/>
<circle cx="996.569" cy="175.571" r="1.73625" fill="#FFE2E2"/>
<circle cx="1017.6" cy="175.571" r="1.73625" fill="#FFE2E2"/>
<circle cx="597.013" cy="200.073" r="1.73625" fill="#FFE2E2"/>
<circle cx="618.042" cy="200.073" r="1.73625" fill="#FFE2E2"/>
<circle cx="639.071" cy="200.073" r="1.73625" fill="#FFE2E2"/>
<circle cx="807.306" cy="200.073" r="1.73625" fill="#FFE2E2"/>
<circle cx="660.101" cy="200.073" r="1.73625" fill="#FFE2E2"/>
<circle cx="681.13" cy="200.073" r="1.73625" fill="#FFE2E2"/>
<circle cx="702.159" cy="200.073" r="1.73625" fill="#FFE2E2"/>
<circle cx="723.188" cy="200.073" r="1.73625" fill="#FFE2E2"/>
<circle cx="744.218" cy="200.073" r="1.73625" fill="#FFE2E2"/>
<circle cx="765.247" cy="200.073" r="1.73625" fill="#FFE2E2"/>
<circle cx="786.276" cy="200.073" r="1.73625" fill="#FFE2E2"/>
<circle cx="828.335" cy="200.073" r="1.73625" fill="#FFE2E2"/>
<circle cx="849.364" cy="200.073" r="1.73625" fill="#FFE2E2"/>
<circle cx="870.393" cy="200.073" r="1.73625" fill="#FFE2E2"/>
<circle cx="1038.63" cy="200.073" r="1.73625" fill="#FFE2E2"/>
<circle cx="891.423" cy="200.073" r="1.73625" fill="#FFE2E2"/>
<circle cx="912.452" cy="200.073" r="1.73625" fill="#FFE2E2"/>
<circle cx="933.481" cy="200.073" r="1.73625" fill="#FFE2E2"/>
<circle cx="954.511" cy="200.073" r="1.73625" fill="#FFE2E2"/>
<circle cx="975.54" cy="200.073" r="1.73625" fill="#FFE2E2"/>
<circle cx="996.569" cy="200.073" r="1.73625" fill="#FFE2E2"/>
<circle cx="1017.6" cy="200.073" r="1.73625" fill="#FFE2E2"/>
<circle cx="597.013" cy="151.073" r="1.73625" fill="#FFE2E2"/>
<circle cx="618.042" cy="151.073" r="1.73625" fill="#FFE2E2"/>
<circle cx="639.071" cy="151.073" r="1.73625" fill="#FFE2E2"/>
<circle cx="807.306" cy="151.073" r="1.73625" fill="#FFE2E2"/>
<circle cx="660.101" cy="151.073" r="1.73625" fill="#FFE2E2"/>
<circle cx="681.13" cy="151.073" r="1.73625" fill="#FFE2E2"/>
<circle cx="702.159" cy="151.073" r="1.73625" fill="#FFE2E2"/>
<circle cx="723.188" cy="151.073" r="1.73625" fill="#FFE2E2"/>
<circle cx="744.218" cy="151.073" r="1.73625" fill="#FFE2E2"/>
<circle cx="765.247" cy="151.073" r="1.73625" fill="#FFE2E2"/>
<circle cx="786.276" cy="151.073" r="1.73625" fill="#FFE2E2"/>
<circle cx="828.335" cy="151.073" r="1.73625" fill="#FFE2E2"/>
<circle cx="849.364" cy="151.073" r="1.73625" fill="#FFE2E2"/>
<circle cx="870.393" cy="151.073" r="1.73625" fill="#FFE2E2"/>
<circle cx="1038.63" cy="151.073" r="1.73625" fill="#FFE2E2"/>
<circle cx="891.423" cy="151.073" r="1.73625" fill="#FFE2E2"/>
<circle cx="912.452" cy="151.073" r="1.73625" fill="#FFE2E2"/>
<circle cx="933.481" cy="151.073" r="1.73625" fill="#FFE2E2"/>
<circle cx="954.511" cy="151.073" r="1.73625" fill="#FFE2E2"/>
<circle cx="975.54" cy="151.073" r="1.73625" fill="#FFE2E2"/>
<circle cx="996.569" cy="151.073" r="1.73625" fill="#FFE2E2"/>
<circle cx="1017.6" cy="151.073" r="1.73625" fill="#FFE2E2"/>
<circle cx="597.013" cy="175.571" r="1.73625" fill="#FFE2E2"/>
<circle cx="618.042" cy="175.571" r="1.73625" fill="#FFE2E2"/>
<circle cx="639.071" cy="175.571" r="1.73625" fill="#FFE2E2"/>
<circle cx="807.306" cy="175.571" r="1.73625" fill="#FFE2E2"/>
<circle cx="660.101" cy="175.571" r="1.73625" fill="#FFE2E2"/>
<circle cx="681.13" cy="175.571" r="1.73625" fill="#FFE2E2"/>
<circle cx="702.159" cy="175.571" r="1.73625" fill="#FFE2E2"/>
<circle cx="723.188" cy="175.571" r="1.73625" fill="#FFE2E2"/>
<circle cx="744.218" cy="175.571" r="1.73625" fill="#FFE2E2"/>
<circle cx="765.247" cy="175.571" r="1.73625" fill="#FFE2E2"/>
<circle cx="786.276" cy="175.571" r="1.73625" fill="#FFE2E2"/>
<circle cx="828.335" cy="175.571" r="1.73625" fill="#FFE2E2"/>
<circle cx="849.364" cy="175.571" r="1.73625" fill="#FFE2E2"/>
<circle cx="870.393" cy="175.571" r="1.73625" fill="#FFE2E2"/>
<circle cx="1038.63" cy="175.571" r="1.73625" fill="#FFE2E2"/>
<circle cx="891.423" cy="175.571" r="1.73625" fill="#FFE2E2"/>
<circle cx="912.452" cy="175.571" r="1.73625" fill="#FFE2E2"/>
<circle cx="933.481" cy="175.571" r="1.73625" fill="#FFE2E2"/>
<circle cx="954.511" cy="175.571" r="1.73625" fill="#FFE2E2"/>
<circle cx="975.54" cy="175.571" r="1.73625" fill="#FFE2E2"/>
<circle cx="996.569" cy="175.571" r="1.73625" fill="#FFE2E2"/>
<circle cx="1017.6" cy="175.571" r="1.73625" fill="#FFE2E2"/>
<circle cx="1059.67" cy="4.07451" r="1.73625" fill="#FFE2E2"/>
<circle cx="1080.7" cy="4.07451" r="1.73625" fill="#FFE2E2"/>
<circle cx="1101.73" cy="4.07451" r="1.73625" fill="#FFE2E2"/>
<circle cx="1269.97" cy="4.07451" r="1.73625" fill="#FFE2E2"/>
<circle cx="1122.76" cy="4.07451" r="1.73625" fill="#FFE2E2"/>
<circle cx="1143.79" cy="4.07451" r="1.73625" fill="#FFE2E2"/>
<circle cx="1164.82" cy="4.07451" r="1.73625" fill="#FFE2E2"/>
<circle cx="1185.85" cy="4.07451" r="1.73625" fill="#FFE2E2"/>
<circle cx="1206.88" cy="4.07451" r="1.73625" fill="#FFE2E2"/>
<circle cx="1227.91" cy="4.07451" r="1.73625" fill="#FFE2E2"/>
<circle cx="1248.94" cy="4.07451" r="1.73625" fill="#FFE2E2"/>
<circle cx="1291" cy="4.07451" r="1.73625" fill="#FFE2E2"/>
<circle cx="1312.03" cy="4.07451" r="1.73625" fill="#FFE2E2"/>
<circle cx="1333.05" cy="4.07451" r="1.73625" fill="#FFE2E2"/>
<circle cx="1354.08" cy="4.07451" r="1.73625" fill="#FFE2E2"/>
<circle cx="1375.11" cy="4.07451" r="1.73625" fill="#FFE2E2"/>
<circle cx="1396.14" cy="4.07451" r="1.73625" fill="#FFE2E2"/>
<circle cx="1417.17" cy="4.07451" r="1.73625" fill="#FFE2E2"/>
<circle cx="1438.2" cy="4.07451" r="1.73625" fill="#FFE2E2"/>
<circle cx="1059.67" cy="28.5726" r="1.73625" fill="#FFE2E2"/>
<circle cx="1080.7" cy="28.5726" r="1.73625" fill="#FFE2E2"/>
<circle cx="1101.73" cy="28.5726" r="1.73625" fill="#FFE2E2"/>
<circle cx="1269.97" cy="28.5726" r="1.73625" fill="#FFE2E2"/>
<circle cx="1122.76" cy="28.5726" r="1.73625" fill="#FFE2E2"/>
<circle cx="1143.79" cy="28.5726" r="1.73625" fill="#FFE2E2"/>
<circle cx="1164.82" cy="28.5726" r="1.73625" fill="#FFE2E2"/>
<circle cx="1185.85" cy="28.5726" r="1.73625" fill="#FFE2E2"/>
<circle cx="1206.88" cy="28.5726" r="1.73625" fill="#FFE2E2"/>
<circle cx="1227.91" cy="28.5726" r="1.73625" fill="#FFE2E2"/>
<circle cx="1248.94" cy="28.5726" r="1.73625" fill="#FFE2E2"/>
<circle cx="1291" cy="28.5726" r="1.73625" fill="#FFE2E2"/>
<circle cx="1312.03" cy="28.5726" r="1.73625" fill="#FFE2E2"/>
<circle cx="1333.05" cy="28.5726" r="1.73625" fill="#FFE2E2"/>
<circle cx="1354.08" cy="28.5726" r="1.73625" fill="#FFE2E2"/>
<circle cx="1375.11" cy="28.5726" r="1.73625" fill="#FFE2E2"/>
<circle cx="1396.14" cy="28.5726" r="1.73625" fill="#FFE2E2"/>
<circle cx="1417.17" cy="28.5726" r="1.73625" fill="#FFE2E2"/>
<circle cx="1438.2" cy="28.5726" r="1.73625" fill="#FFE2E2"/>
<circle cx="1059.67" cy="53.0726" r="1.73625" fill="#FFE2E2"/>
<circle cx="1080.7" cy="53.0726" r="1.73625" fill="#FFE2E2"/>
<circle cx="1101.73" cy="53.0726" r="1.73625" fill="#FFE2E2"/>
<circle cx="1269.97" cy="53.0726" r="1.73625" fill="#FFE2E2"/>
<circle cx="1122.76" cy="53.0726" r="1.73625" fill="#FFE2E2"/>
<circle cx="1143.79" cy="53.0726" r="1.73625" fill="#FFE2E2"/>
<circle cx="1164.82" cy="53.0726" r="1.73625" fill="#FFE2E2"/>
<circle cx="1185.85" cy="53.0726" r="1.73625" fill="#FFE2E2"/>
<circle cx="1206.88" cy="53.0726" r="1.73625" fill="#FFE2E2"/>
<circle cx="1227.91" cy="53.0726" r="1.73625" fill="#FFE2E2"/>
<circle cx="1248.94" cy="53.0726" r="1.73625" fill="#FFE2E2"/>
<circle cx="1291" cy="53.0726" r="1.73625" fill="#FFE2E2"/>
<circle cx="1312.03" cy="53.0726" r="1.73625" fill="#FFE2E2"/>
<circle cx="1333.05" cy="53.0726" r="1.73625" fill="#FFE2E2"/>
<circle cx="1354.08" cy="53.0726" r="1.73625" fill="#FFE2E2"/>
<circle cx="1375.11" cy="53.0726" r="1.73625" fill="#FFE2E2"/>
<circle cx="1396.14" cy="53.0726" r="1.73625" fill="#FFE2E2"/>
<circle cx="1417.17" cy="53.0726" r="1.73625" fill="#FFE2E2"/>
<circle cx="1438.2" cy="53.0726" r="1.73625" fill="#FFE2E2"/>
<circle cx="1059.67" cy="77.5706" r="1.73625" fill="#FFE2E2"/>
<circle cx="1080.7" cy="77.5706" r="1.73625" fill="#FFE2E2"/>
<circle cx="1101.73" cy="77.5706" r="1.73625" fill="#FFE2E2"/>
<circle cx="1269.97" cy="77.5706" r="1.73625" fill="#FFE2E2"/>
<circle cx="1122.76" cy="77.5706" r="1.73625" fill="#FFE2E2"/>
<circle cx="1143.79" cy="77.5706" r="1.73625" fill="#FFE2E2"/>
<circle cx="1164.82" cy="77.5706" r="1.73625" fill="#FFE2E2"/>
<circle cx="1185.85" cy="77.5706" r="1.73625" fill="#FFE2E2"/>
<circle cx="1206.88" cy="77.5706" r="1.73625" fill="#FFE2E2"/>
<circle cx="1227.91" cy="77.5706" r="1.73625" fill="#FFE2E2"/>
<circle cx="1248.94" cy="77.5706" r="1.73625" fill="#FFE2E2"/>
<circle cx="1291" cy="77.5706" r="1.73625" fill="#FFE2E2"/>
<circle cx="1312.03" cy="77.5706" r="1.73625" fill="#FFE2E2"/>
<circle cx="1333.05" cy="77.5706" r="1.73625" fill="#FFE2E2"/>
<circle cx="1354.08" cy="77.5706" r="1.73625" fill="#FFE2E2"/>
<circle cx="1375.11" cy="77.5706" r="1.73625" fill="#FFE2E2"/>
<circle cx="1396.14" cy="77.5706" r="1.73625" fill="#FFE2E2"/>
<circle cx="1417.17" cy="77.5706" r="1.73625" fill="#FFE2E2"/>
<circle cx="1438.2" cy="77.5706" r="1.73625" fill="#FFE2E2"/>
<circle cx="1059.67" cy="102.073" r="1.73625" fill="#FFE2E2"/>
<circle cx="1080.7" cy="102.073" r="1.73625" fill="#FFE2E2"/>
<circle cx="1101.73" cy="102.073" r="1.73625" fill="#FFE2E2"/>
<circle cx="1269.97" cy="102.073" r="1.73625" fill="#FFE2E2"/>
<circle cx="1122.76" cy="102.073" r="1.73625" fill="#FFE2E2"/>
<circle cx="1143.79" cy="102.073" r="1.73625" fill="#FFE2E2"/>
<circle cx="1164.82" cy="102.073" r="1.73625" fill="#FFE2E2"/>
<circle cx="1185.85" cy="102.073" r="1.73625" fill="#FFE2E2"/>
<circle cx="1206.88" cy="102.073" r="1.73625" fill="#FFE2E2"/>
<circle cx="1227.91" cy="102.073" r="1.73625" fill="#FFE2E2"/>
<circle cx="1248.94" cy="102.073" r="1.73625" fill="#FFE2E2"/>
<circle cx="1291" cy="102.073" r="1.73625" fill="#FFE2E2"/>
<circle cx="1312.03" cy="102.073" r="1.73625" fill="#FFE2E2"/>
<circle cx="1333.05" cy="102.073" r="1.73625" fill="#FFE2E2"/>
<circle cx="1354.08" cy="102.073" r="1.73625" fill="#FFE2E2"/>
<circle cx="1375.11" cy="102.073" r="1.73625" fill="#FFE2E2"/>
<circle cx="1396.14" cy="102.073" r="1.73625" fill="#FFE2E2"/>
<circle cx="1417.17" cy="102.073" r="1.73625" fill="#FFE2E2"/>
<circle cx="1438.2" cy="102.073" r="1.73625" fill="#FFE2E2"/>
<circle cx="1059.67" cy="126.571" r="1.73625" fill="#FFE2E2"/>
<circle cx="1080.7" cy="126.571" r="1.73625" fill="#FFE2E2"/>
<circle cx="1101.73" cy="126.571" r="1.73625" fill="#FFE2E2"/>
<circle cx="1269.97" cy="126.571" r="1.73625" fill="#FFE2E2"/>
<circle cx="1122.76" cy="126.571" r="1.73625" fill="#FFE2E2"/>
<circle cx="1143.79" cy="126.571" r="1.73625" fill="#FFE2E2"/>
<circle cx="1164.82" cy="126.571" r="1.73625" fill="#FFE2E2"/>
<circle cx="1185.85" cy="126.571" r="1.73625" fill="#FFE2E2"/>
<circle cx="1206.88" cy="126.571" r="1.73625" fill="#FFE2E2"/>
<circle cx="1227.91" cy="126.571" r="1.73625" fill="#FFE2E2"/>
<circle cx="1248.94" cy="126.571" r="1.73625" fill="#FFE2E2"/>
<circle cx="1291" cy="126.571" r="1.73625" fill="#FFE2E2"/>
<circle cx="1312.03" cy="126.571" r="1.73625" fill="#FFE2E2"/>
<circle cx="1333.05" cy="126.571" r="1.73625" fill="#FFE2E2"/>
<circle cx="1354.08" cy="126.571" r="1.73625" fill="#FFE2E2"/>
<circle cx="1375.11" cy="126.571" r="1.73625" fill="#FFE2E2"/>
<circle cx="1396.14" cy="126.571" r="1.73625" fill="#FFE2E2"/>
<circle cx="1417.17" cy="126.571" r="1.73625" fill="#FFE2E2"/>
<circle cx="1438.2" cy="126.571" r="1.73625" fill="#FFE2E2"/>
<circle cx="1059.67" cy="151.073" r="1.73625" fill="#FFE2E2"/>
<circle cx="1080.7" cy="151.073" r="1.73625" fill="#FFE2E2"/>
<circle cx="1101.73" cy="151.073" r="1.73625" fill="#FFE2E2"/>
<circle cx="1269.97" cy="151.073" r="1.73625" fill="#FFE2E2"/>
<circle cx="1122.76" cy="151.073" r="1.73625" fill="#FFE2E2"/>
<circle cx="1143.79" cy="151.073" r="1.73625" fill="#FFE2E2"/>
<circle cx="1164.82" cy="151.073" r="1.73625" fill="#FFE2E2"/>
<circle cx="1185.85" cy="151.073" r="1.73625" fill="#FFE2E2"/>
<circle cx="1206.88" cy="151.073" r="1.73625" fill="#FFE2E2"/>
<circle cx="1227.91" cy="151.073" r="1.73625" fill="#FFE2E2"/>
<circle cx="1248.94" cy="151.073" r="1.73625" fill="#FFE2E2"/>
<circle cx="1291" cy="151.073" r="1.73625" fill="#FFE2E2"/>
<circle cx="1312.03" cy="151.073" r="1.73625" fill="#FFE2E2"/>
<circle cx="1333.05" cy="151.073" r="1.73625" fill="#FFE2E2"/>
<circle cx="1354.08" cy="151.073" r="1.73625" fill="#FFE2E2"/>
<circle cx="1375.11" cy="151.073" r="1.73625" fill="#FFE2E2"/>
<circle cx="1396.14" cy="151.073" r="1.73625" fill="#FFE2E2"/>
<circle cx="1417.17" cy="151.073" r="1.73625" fill="#FFE2E2"/>
<circle cx="1438.2" cy="151.073" r="1.73625" fill="#FFE2E2"/>
<circle cx="1059.67" cy="175.571" r="1.73625" fill="#FFE2E2"/>
<circle cx="1080.7" cy="175.571" r="1.73625" fill="#FFE2E2"/>
<circle cx="1101.73" cy="175.571" r="1.73625" fill="#FFE2E2"/>
<circle cx="1269.97" cy="175.571" r="1.73625" fill="#FFE2E2"/>
<circle cx="1122.76" cy="175.571" r="1.73625" fill="#FFE2E2"/>
<circle cx="1143.79" cy="175.571" r="1.73625" fill="#FFE2E2"/>
<circle cx="1164.82" cy="175.571" r="1.73625" fill="#FFE2E2"/>
<circle cx="1185.85" cy="175.571" r="1.73625" fill="#FFE2E2"/>
<circle cx="1206.88" cy="175.571" r="1.73625" fill="#FFE2E2"/>
<circle cx="1227.91" cy="175.571" r="1.73625" fill="#FFE2E2"/>
<circle cx="1248.94" cy="175.571" r="1.73625" fill="#FFE2E2"/>
<circle cx="1291" cy="175.571" r="1.73625" fill="#FFE2E2"/>
<circle cx="1312.03" cy="175.571" r="1.73625" fill="#FFE2E2"/>
<circle cx="1333.05" cy="175.571" r="1.73625" fill="#FFE2E2"/>
<circle cx="1354.08" cy="175.571" r="1.73625" fill="#FFE2E2"/>
<circle cx="1375.11" cy="175.571" r="1.73625" fill="#FFE2E2"/>
<circle cx="1396.14" cy="175.571" r="1.73625" fill="#FFE2E2"/>
<circle cx="1417.17" cy="175.571" r="1.73625" fill="#FFE2E2"/>
<circle cx="1438.2" cy="175.571" r="1.73625" fill="#FFE2E2"/>
<circle cx="1059.67" cy="200.073" r="1.73625" fill="#FFE2E2"/>
<circle cx="1080.7" cy="200.073" r="1.73625" fill="#FFE2E2"/>
<circle cx="1101.73" cy="200.073" r="1.73625" fill="#FFE2E2"/>
<circle cx="1269.97" cy="200.073" r="1.73625" fill="#FFE2E2"/>
<circle cx="1122.76" cy="200.073" r="1.73625" fill="#FFE2E2"/>
<circle cx="1143.79" cy="200.073" r="1.73625" fill="#FFE2E2"/>
<circle cx="1164.82" cy="200.073" r="1.73625" fill="#FFE2E2"/>
<circle cx="1185.85" cy="200.073" r="1.73625" fill="#FFE2E2"/>
<circle cx="1206.88" cy="200.073" r="1.73625" fill="#FFE2E2"/>
<circle cx="1227.91" cy="200.073" r="1.73625" fill="#FFE2E2"/>
<circle cx="1248.94" cy="200.073" r="1.73625" fill="#FFE2E2"/>
<circle cx="1291" cy="200.073" r="1.73625" fill="#FFE2E2"/>
<circle cx="1312.03" cy="200.073" r="1.73625" fill="#FFE2E2"/>
<circle cx="1333.05" cy="200.073" r="1.73625" fill="#FFE2E2"/>
<circle cx="1354.08" cy="200.073" r="1.73625" fill="#FFE2E2"/>
<circle cx="1375.11" cy="200.073" r="1.73625" fill="#FFE2E2"/>
<circle cx="1396.14" cy="200.073" r="1.73625" fill="#FFE2E2"/>
<circle cx="1417.17" cy="200.073" r="1.73625" fill="#FFE2E2"/>
<circle cx="1438.2" cy="200.073" r="1.73625" fill="#FFE2E2"/>
<circle cx="1059.67" cy="151.073" r="1.73625" fill="#FFE2E2"/>
<circle cx="1080.7" cy="151.073" r="1.73625" fill="#FFE2E2"/>
<circle cx="1101.73" cy="151.073" r="1.73625" fill="#FFE2E2"/>
<circle cx="1269.97" cy="151.073" r="1.73625" fill="#FFE2E2"/>
<circle cx="1122.76" cy="151.073" r="1.73625" fill="#FFE2E2"/>
<circle cx="1143.79" cy="151.073" r="1.73625" fill="#FFE2E2"/>
<circle cx="1164.82" cy="151.073" r="1.73625" fill="#FFE2E2"/>
<circle cx="1185.85" cy="151.073" r="1.73625" fill="#FFE2E2"/>
<circle cx="1206.88" cy="151.073" r="1.73625" fill="#FFE2E2"/>
<circle cx="1227.91" cy="151.073" r="1.73625" fill="#FFE2E2"/>
<circle cx="1248.94" cy="151.073" r="1.73625" fill="#FFE2E2"/>
<circle cx="1291" cy="151.073" r="1.73625" fill="#FFE2E2"/>
<circle cx="1312.03" cy="151.073" r="1.73625" fill="#FFE2E2"/>
<circle cx="1333.05" cy="151.073" r="1.73625" fill="#FFE2E2"/>
<circle cx="1354.08" cy="151.073" r="1.73625" fill="#FFE2E2"/>
<circle cx="1375.11" cy="151.073" r="1.73625" fill="#FFE2E2"/>
<circle cx="1396.14" cy="151.073" r="1.73625" fill="#FFE2E2"/>
<circle cx="1417.17" cy="151.073" r="1.73625" fill="#FFE2E2"/>
<circle cx="1438.2" cy="151.073" r="1.73625" fill="#FFE2E2"/>
<circle cx="1059.67" cy="175.571" r="1.73625" fill="#FFE2E2"/>
<circle cx="1080.7" cy="175.571" r="1.73625" fill="#FFE2E2"/>
<circle cx="1101.73" cy="175.571" r="1.73625" fill="#FFE2E2"/>
<circle cx="1269.97" cy="175.571" r="1.73625" fill="#FFE2E2"/>
<circle cx="1122.76" cy="175.571" r="1.73625" fill="#FFE2E2"/>
<circle cx="1143.79" cy="175.571" r="1.73625" fill="#FFE2E2"/>
<circle cx="1164.82" cy="175.571" r="1.73625" fill="#FFE2E2"/>
<circle cx="1185.85" cy="175.571" r="1.73625" fill="#FFE2E2"/>
<circle cx="1206.88" cy="175.571" r="1.73625" fill="#FFE2E2"/>
<circle cx="1227.91" cy="175.571" r="1.73625" fill="#FFE2E2"/>
<circle cx="1248.94" cy="175.571" r="1.73625" fill="#FFE2E2"/>
<circle cx="1291" cy="175.571" r="1.73625" fill="#FFE2E2"/>
<circle cx="1312.03" cy="175.571" r="1.73625" fill="#FFE2E2"/>
<circle cx="1333.05" cy="175.571" r="1.73625" fill="#FFE2E2"/>
<circle cx="1354.08" cy="175.571" r="1.73625" fill="#FFE2E2"/>
<circle cx="1375.11" cy="175.571" r="1.73625" fill="#FFE2E2"/>
<circle cx="1396.14" cy="175.571" r="1.73625" fill="#FFE2E2"/>
<circle cx="1417.17" cy="175.571" r="1.73625" fill="#FFE2E2"/>
<circle cx="1438.2" cy="175.571" r="1.73625" fill="#FFE2E2"/>
</svg>
