<svg width="1440" height="450" fill="none" xmlns="http://www.w3.org/2000/svg">
<g clip-path="url(#clip0_107_400)"><path fill="#FFF3F3" d="M-.181.431h1440v449.294h-1440z"/>
<path d="m171.094 99.104-23.846-30.007a9.001 9.001 0 0 0-7.046-3.4H83.544a9 9 0 0 0-7.045 3.4L52.652 99.105a9 9 0 0 0 .099 11.32l52.175 63.359c3.6 4.371 10.295 4.371 13.895 0l52.174-63.359a8.998 8.998 0 0 0 .099-11.32Zm238.15 150.459-50.817-63.943a8.999 8.999 0 0 0-7.046-3.401H238.016a8.997 8.997 0 0 0-7.045 3.401l-50.817 63.943a9 9 0 0 0 .098 11.321l107.499 130.541c3.6 4.372 10.295 4.372 13.895 0l107.499-130.541a9 9 0 0 0 .099-11.321Zm213.145-88.012-27.173-34.192a8.999 8.999 0 0 0-7.046-3.401h-63.653a9 9 0 0 0-7.046 3.401l-27.173 34.192a9 9 0 0 0 .099 11.321l58.999 71.646c3.6 4.371 10.295 4.371 13.895 0l59-71.646a9 9 0 0 0 .098-11.321Zm213.328 138.26-44.766-56.331a9.002 9.002 0 0 0-7.046-3.401H683.261a9.003 9.003 0 0 0-7.046 3.401l-44.766 56.331a9 9 0 0 0 .098 11.32l95.089 115.47c3.6 4.372 10.295 4.372 13.895 0l95.088-115.47a9 9 0 0 0 .098-11.32Zm-283.903 66.058-17.266-21.726a9 9 0 0 0-7.046-3.401H484.68a9 9 0 0 0-7.046 3.401l-17.265 21.726a9 9 0 0 0 .098 11.32l38.677 46.967c3.6 4.372 10.295 4.372 13.895 0l38.676-46.967a9 9 0 0 0 .099-11.32ZM730.659 47.705l-12.711-15.994a9.001 9.001 0 0 0-7.046-3.4h-33.246a9.001 9.001 0 0 0-7.046 3.4l-12.711 15.994a9.001 9.001 0 0 0 .099 11.32l29.334 35.622c3.6 4.372 10.294 4.372 13.895 0l29.333-35.621a8.999 8.999 0 0 0 .099-11.32ZM107.343 300.953l-5.175-6.512a9 9 0 0 0-7.046-3.4h-17.4a9 9 0 0 0-7.045 3.4l-5.175 6.512a9 9 0 0 0 .098 11.32l13.875 16.849c3.6 4.372 10.295 4.372 13.895 0l13.875-16.849a9 9 0 0 0 .098-11.32Zm78.966 127.386-18.219-22.926a9 9 0 0 0-7.046-3.4h-44.826a9 9 0 0 0-7.046 3.4l-18.22 22.926a9 9 0 0 0 .099 11.321l40.632 49.341c3.6 4.372 10.295 4.372 13.895 0l40.633-49.341a9 9 0 0 0 .098-11.321Zm272.86-412.693L425.207-27.09a8.998 8.998 0 0 0-7.045-3.4h-77.926a9.001 9.001 0 0 0-7.046 3.4l-33.961 42.735a9 9 0 0 0 .098 11.32l72.924 88.555c3.6 4.372 10.295 4.372 13.895 0l72.924-88.555a8.999 8.999 0 0 0 .099-11.32ZM1147.31 124.48l-75.62-97.307a9.013 9.013 0 0 0-7.11-3.477H899.518a9 9 0 0 0-7.106 3.477l-75.624 97.307a9 9 0 0 0 .096 11.168l158.157 196.39c3.603 4.474 10.417 4.474 14.02 0l158.159-196.39a9.011 9.011 0 0 0 .09-11.168Zm175.73-47.465-20.83-26.803a9.012 9.012 0 0 0-7.11-3.478h-49.86c-2.78 0-5.4 1.284-7.11 3.478l-20.83 26.803a8.997 8.997 0 0 0 .1 11.168l45.76 56.823c3.6 4.474 10.42 4.474 14.02 0l45.76-56.823a8.997 8.997 0 0 0 .1-11.168ZM1208.56 265.36l-9.93-12.783a8.997 8.997 0 0 0-7.11-3.477h-26.94a8.997 8.997 0 0 0-7.11 3.477l-9.94 12.783a8.998 8.998 0 0 0 .1 11.168l23.41 29.067c3.6 4.474 10.42 4.474 14.02 0l23.41-29.067a8.984 8.984 0 0 0 .09-11.168Zm268.93 13.478-39.08-50.282a9.013 9.013 0 0 0-7.11-3.478h-88.22c-2.78 0-5.4 1.284-7.11 3.478l-39.08 50.282a8.998 8.998 0 0 0 .1 11.168l83.19 103.303c3.6 4.473 10.42 4.473 14.02 0l83.19-103.303a8.998 8.998 0 0 0 .1-11.168Zm-303.81 165.276-31.69-40.775a8.997 8.997 0 0 0-7.11-3.477h-72.68a8.997 8.997 0 0 0-7.11 3.477l-31.69 40.775a8.998 8.998 0 0 0 .1 11.168l68.03 84.48c3.6 4.474 10.42 4.474 14.02 0l68.03-84.48a8.998 8.998 0 0 0 .1-11.168Z" stroke="#FFD3D2" stroke-width="10"/>
</g></svg>