<svg width="1440" height="450" viewBox="0 0 1440 450" fill="none" xmlns="http://www.w3.org/2000/svg">
<g clip-path="url(#clip0_107_400)">
<rect width="1440" height="449.294" transform="translate(-0.181152 0.431396)" fill="#FFF3F3"/>
<path d="M171.094 99.1036L147.248 69.0975C145.54 66.949 142.946 65.697 140.202 65.697H83.5444C80.8002 65.697 78.2058 66.949 76.4985 69.0975L52.6523 99.1036C50.0105 102.428 50.0515 107.146 52.7508 110.424L104.926 173.783C108.526 178.154 115.221 178.154 118.821 173.783L170.995 110.424C173.695 107.146 173.736 102.428 171.094 99.1036Z" stroke="#FFD3D2" stroke-width="10"/>
<path d="M409.244 249.563L358.427 185.62C356.72 183.471 354.125 182.219 351.381 182.219H238.016C235.272 182.219 232.678 183.471 230.971 185.62L180.154 249.563C177.512 252.888 177.553 257.606 180.252 260.884L287.751 391.425C291.351 395.797 298.046 395.797 301.646 391.425L409.145 260.884C411.845 257.606 411.886 252.888 409.244 249.563Z" stroke="#FFD3D2" stroke-width="10"/>
<path d="M622.389 161.551L595.216 127.359C593.509 125.21 590.914 123.958 588.17 123.958H524.517C521.773 123.958 519.179 125.21 517.471 127.359L490.298 161.551C487.656 164.875 487.697 169.594 490.397 172.872L549.396 244.518C552.996 248.889 559.691 248.889 563.291 244.518L622.291 172.872C624.99 169.594 625.031 164.875 622.389 161.551Z" stroke="#FFD3D2" stroke-width="10"/>
<path d="M835.717 299.811L790.951 243.48C789.244 241.332 786.649 240.079 783.905 240.079H683.261C680.517 240.079 677.923 241.332 676.215 243.48L631.449 299.811C628.807 303.135 628.848 307.853 631.547 311.131L726.636 426.601C730.236 430.973 736.931 430.973 740.531 426.601L835.619 311.131C838.318 307.853 838.359 303.135 835.717 299.811Z" stroke="#FFD3D2" stroke-width="10"/>
<path d="M551.814 365.869L534.548 344.143C532.84 341.994 530.246 340.742 527.502 340.742H484.68C481.936 340.742 479.342 341.994 477.634 344.143L460.369 365.869C457.727 369.193 457.768 373.911 460.467 377.189L499.144 424.156C502.744 428.528 509.439 428.528 513.039 424.156L551.715 377.189C554.414 373.911 554.455 369.193 551.814 365.869Z" stroke="#FFD3D2" stroke-width="10"/>
<path d="M730.659 47.7052L717.948 31.7106C716.24 29.5621 713.646 28.3101 710.902 28.3101H677.656C674.912 28.3101 672.318 29.5621 670.61 31.7106L657.899 47.7052C655.258 51.0295 655.299 55.748 657.998 59.0259L687.332 94.6471C690.932 99.0189 697.626 99.0189 701.227 94.6471L730.56 59.0259C733.26 55.748 733.301 51.0295 730.659 47.7052Z" stroke="#FFD3D2" stroke-width="10"/>
<path d="M107.343 300.953L102.168 294.441C100.461 292.293 97.8667 291.041 95.1224 291.041H77.7226C74.9783 291.041 72.384 292.293 70.6766 294.441L65.5018 300.953C62.86 304.277 62.901 308.995 65.6003 312.273L79.475 329.122C83.0751 333.494 89.7699 333.494 93.37 329.122L107.245 312.273C109.944 308.995 109.985 304.277 107.343 300.953Z" stroke="#FFD3D2" stroke-width="10"/>
<path d="M186.309 428.339L168.09 405.413C166.383 403.265 163.788 402.013 161.044 402.013H116.218C113.473 402.013 110.879 403.265 109.172 405.413L90.9525 428.339C88.3106 431.663 88.3516 436.382 91.0509 439.66L131.683 489.001C135.283 493.373 141.978 493.373 145.578 489.001L186.211 439.66C188.91 436.382 188.951 431.663 186.309 428.339Z" stroke="#FFD3D2" stroke-width="10"/>
<path d="M459.169 15.6457L425.207 -27.0886C423.5 -29.2371 420.906 -30.4891 418.162 -30.4891H340.236C337.492 -30.4891 334.898 -29.2371 333.19 -27.0886L299.229 15.6457C296.587 18.97 296.628 23.6886 299.327 26.9664L372.251 115.521C375.851 119.893 382.546 119.893 386.146 115.521L459.07 26.9664C461.77 23.6886 461.811 18.97 459.169 15.6457Z" stroke="#FFD3D2" stroke-width="10"/>
<path d="M1147.31 124.48L1071.69 27.1734C1069.98 24.9796 1067.36 23.6962 1064.58 23.6962H899.518C896.74 23.6962 894.117 24.9796 892.412 27.1734L816.788 124.48C814.227 127.775 814.267 132.398 816.884 135.648L975.041 332.038C978.644 336.512 985.458 336.512 989.061 332.038L1147.22 135.648C1149.83 132.398 1149.87 127.775 1147.31 124.48Z" stroke="#FFD3D2" stroke-width="10"/>
<path d="M1323.04 77.0153L1302.21 50.2117C1300.5 48.0178 1297.88 46.7345 1295.1 46.7345H1245.24C1242.46 46.7345 1239.84 48.0178 1238.13 50.2117L1217.3 77.0153C1214.74 80.3102 1214.78 84.933 1217.4 88.1831L1263.16 145.006C1266.76 149.48 1273.58 149.48 1277.18 145.006L1322.94 88.1831C1325.56 84.933 1325.6 80.3102 1323.04 77.0153Z" stroke="#FFD3D2" stroke-width="10"/>
<path d="M1208.56 265.36L1198.63 252.577C1196.93 250.383 1194.3 249.1 1191.52 249.1H1164.58C1161.8 249.1 1159.17 250.383 1157.47 252.577L1147.53 265.36C1144.97 268.655 1145.01 273.278 1147.63 276.528L1171.04 305.595C1174.64 310.069 1181.46 310.069 1185.06 305.595L1208.47 276.528C1211.09 273.278 1211.13 268.655 1208.56 265.36Z" stroke="#FFD3D2" stroke-width="10"/>
<path d="M1477.49 278.838L1438.41 228.556C1436.7 226.362 1434.08 225.078 1431.3 225.078H1343.08C1340.3 225.078 1337.68 226.362 1335.97 228.556L1296.89 278.838C1294.33 282.133 1294.37 286.756 1296.99 290.006L1380.18 393.309C1383.78 397.782 1390.6 397.782 1394.2 393.309L1477.39 290.006C1480.01 286.756 1480.05 282.133 1477.49 278.838Z" stroke="#FFD3D2" stroke-width="10"/>
<path d="M1173.68 444.114L1141.99 403.339C1140.29 401.145 1137.66 399.862 1134.88 399.862H1062.2C1059.42 399.862 1056.79 401.145 1055.09 403.339L1023.4 444.114C1020.84 447.409 1020.88 452.032 1023.5 455.282L1091.53 539.762C1095.13 544.236 1101.95 544.236 1105.55 539.762L1173.58 455.282C1176.2 452.032 1176.24 447.409 1173.68 444.114Z" stroke="#FFD3D2" stroke-width="10"/>
<g filter="url(#filter0_d_107_400)">
<rect x="182.164" y="107.078" width="1102.84" height="246" rx="16" fill="white"/>
<path d="M664.071 183.318C662.743 183.318 661.591 183.11 660.615 182.694C659.655 182.278 658.919 181.734 658.407 181.062C657.895 180.374 657.623 179.638 657.591 178.854C657.591 178.726 657.639 178.614 657.735 178.518C657.847 178.406 657.975 178.35 658.119 178.35H659.343C659.647 178.35 659.855 178.51 659.967 178.83C660.111 179.502 660.519 180.078 661.191 180.558C661.879 181.038 662.839 181.278 664.071 181.278C665.399 181.278 666.399 181.046 667.071 180.582C667.743 180.102 668.079 179.438 668.079 178.59C668.079 178.046 667.911 177.606 667.575 177.27C667.255 176.934 666.775 176.638 666.135 176.382C665.495 176.126 664.535 175.806 663.255 175.422C662.007 175.07 661.015 174.694 660.279 174.294C659.543 173.894 658.991 173.398 658.623 172.806C658.255 172.214 658.071 171.47 658.071 170.574C658.071 169.71 658.303 168.934 658.767 168.246C659.247 167.558 659.927 167.022 660.807 166.638C661.687 166.238 662.735 166.038 663.951 166.038C665.199 166.038 666.271 166.262 667.167 166.71C668.063 167.142 668.743 167.694 669.207 168.366C669.671 169.038 669.919 169.71 669.951 170.382C669.951 170.51 669.903 170.622 669.807 170.718C669.727 170.814 669.607 170.862 669.447 170.862H668.175C667.839 170.862 667.631 170.71 667.551 170.406C667.455 169.734 667.079 169.182 666.423 168.75C665.767 168.302 664.943 168.078 663.951 168.078C662.863 168.078 662.007 168.286 661.383 168.702C660.759 169.118 660.447 169.734 660.447 170.55C660.447 171.094 660.591 171.542 660.879 171.894C661.183 172.246 661.639 172.558 662.247 172.83C662.855 173.086 663.743 173.382 664.911 173.718C666.271 174.086 667.343 174.47 668.127 174.87C668.911 175.254 669.495 175.742 669.879 176.334C670.263 176.91 670.455 177.646 670.455 178.542C670.455 180.03 669.879 181.198 668.727 182.046C667.575 182.894 666.023 183.318 664.071 183.318ZM673.865 187.638C673.705 187.638 673.569 187.582 673.457 187.47C673.361 187.374 673.313 187.246 673.313 187.086V171.15C673.313 170.99 673.361 170.862 673.457 170.766C673.569 170.654 673.705 170.598 673.865 170.598H674.969C675.129 170.598 675.257 170.654 675.353 170.766C675.465 170.862 675.521 170.99 675.521 171.15V172.206C676.417 170.974 677.729 170.358 679.457 170.358C681.137 170.358 682.393 170.886 683.225 171.942C684.073 172.998 684.529 174.358 684.593 176.022C684.609 176.198 684.617 176.47 684.617 176.838C684.617 177.206 684.609 177.478 684.593 177.654C684.529 179.302 684.073 180.662 683.225 181.734C682.377 182.79 681.121 183.318 679.457 183.318C677.793 183.318 676.497 182.718 675.569 181.518V187.086C675.569 187.246 675.521 187.374 675.425 187.47C675.329 187.582 675.201 187.638 675.041 187.638H673.865ZM678.953 181.374C680.089 181.374 680.913 181.022 681.425 180.318C681.953 179.614 682.241 178.686 682.289 177.534C682.305 177.374 682.313 177.142 682.313 176.838C682.313 173.814 681.193 172.302 678.953 172.302C677.849 172.302 677.017 172.67 676.457 173.406C675.913 174.126 675.617 174.99 675.569 175.998L675.545 176.91L675.569 177.846C675.601 178.79 675.905 179.614 676.481 180.318C677.057 181.022 677.881 181.374 678.953 181.374ZM692.698 183.318C690.938 183.318 689.57 182.822 688.594 181.83C687.634 180.838 687.122 179.518 687.058 177.87L687.034 176.838L687.058 175.806C687.122 174.174 687.642 172.862 688.618 171.87C689.594 170.862 690.954 170.358 692.698 170.358C694.442 170.358 695.802 170.862 696.778 171.87C697.754 172.862 698.274 174.174 698.338 175.806C698.354 175.982 698.362 176.326 698.362 176.838C698.362 177.35 698.354 177.694 698.338 177.87C698.274 179.518 697.754 180.838 696.778 181.83C695.818 182.822 694.458 183.318 692.698 183.318ZM692.698 181.47C693.706 181.47 694.498 181.15 695.074 180.51C695.666 179.87 695.986 178.95 696.034 177.75C696.05 177.59 696.058 177.286 696.058 176.838C696.058 176.39 696.05 176.086 696.034 175.926C695.986 174.726 695.666 173.806 695.074 173.166C694.498 172.526 693.706 172.206 692.698 172.206C691.69 172.206 690.89 172.526 690.298 173.166C689.706 173.806 689.394 174.726 689.362 175.926L689.338 176.838L689.362 177.75C689.394 178.95 689.706 179.87 690.298 180.51C690.89 181.15 691.69 181.47 692.698 181.47ZM701.919 183.078C701.759 183.078 701.623 183.03 701.511 182.934C701.415 182.822 701.367 182.686 701.367 182.526V171.15C701.367 170.99 701.415 170.862 701.511 170.766C701.623 170.654 701.759 170.598 701.919 170.598H703.047C703.207 170.598 703.335 170.654 703.431 170.766C703.543 170.862 703.599 170.99 703.599 171.15V172.206C704.063 171.614 704.607 171.158 705.231 170.838C705.871 170.518 706.663 170.358 707.607 170.358C709.143 170.358 710.335 170.854 711.183 171.846C712.047 172.822 712.479 174.126 712.479 175.758V182.526C712.479 182.686 712.423 182.822 712.311 182.934C712.215 183.03 712.087 183.078 711.927 183.078H710.727C710.567 183.078 710.431 183.03 710.319 182.934C710.223 182.822 710.175 182.686 710.175 182.526V175.878C710.175 174.742 709.895 173.862 709.335 173.238C708.791 172.614 707.999 172.302 706.959 172.302C705.951 172.302 705.151 172.622 704.559 173.262C703.967 173.886 703.671 174.758 703.671 175.878V182.526C703.671 182.686 703.615 182.822 703.503 182.934C703.407 183.03 703.279 183.078 703.119 183.078H701.919ZM720.242 183.318C719.122 183.318 718.178 183.142 717.41 182.79C716.658 182.422 716.09 182.006 715.706 181.542C715.338 181.078 715.154 180.694 715.154 180.39C715.154 180.23 715.21 180.11 715.322 180.03C715.45 179.934 715.578 179.886 715.706 179.886H716.786C716.946 179.886 717.09 179.966 717.218 180.126C717.602 180.574 718.018 180.926 718.466 181.182C718.914 181.438 719.514 181.566 720.266 181.566C721.098 181.566 721.77 181.406 722.282 181.086C722.81 180.75 723.074 180.294 723.074 179.718C723.074 179.334 722.962 179.022 722.738 178.782C722.53 178.526 722.162 178.31 721.634 178.134C721.122 177.942 720.354 177.734 719.33 177.51C717.938 177.206 716.946 176.766 716.354 176.19C715.778 175.614 715.49 174.87 715.49 173.958C715.49 173.35 715.666 172.774 716.018 172.23C716.386 171.67 716.914 171.222 717.602 170.886C718.306 170.534 719.146 170.358 720.122 170.358C721.146 170.358 722.018 170.526 722.738 170.862C723.458 171.198 723.994 171.598 724.346 172.062C724.714 172.51 724.898 172.886 724.898 173.19C724.898 173.334 724.842 173.454 724.73 173.55C724.634 173.646 724.514 173.694 724.37 173.694H723.362C723.17 173.694 723.01 173.614 722.882 173.454C722.626 173.15 722.402 172.918 722.21 172.758C722.034 172.582 721.77 172.43 721.418 172.302C721.082 172.174 720.65 172.11 720.122 172.11C719.354 172.11 718.762 172.278 718.346 172.614C717.93 172.934 717.722 173.358 717.722 173.886C717.722 174.222 717.81 174.51 717.986 174.75C718.162 174.974 718.498 175.182 718.994 175.374C719.506 175.566 720.242 175.766 721.202 175.974C722.722 176.294 723.794 176.758 724.418 177.366C725.058 177.958 725.378 178.718 725.378 179.646C725.378 180.334 725.178 180.958 724.778 181.518C724.378 182.078 723.786 182.518 723.002 182.838C722.234 183.158 721.314 183.318 720.242 183.318ZM733.268 183.318C731.508 183.318 730.14 182.822 729.164 181.83C728.204 180.838 727.692 179.518 727.628 177.87L727.604 176.838L727.628 175.806C727.692 174.174 728.212 172.862 729.188 171.87C730.164 170.862 731.524 170.358 733.268 170.358C735.012 170.358 736.372 170.862 737.348 171.87C738.324 172.862 738.844 174.174 738.908 175.806C738.924 175.982 738.932 176.326 738.932 176.838C738.932 177.35 738.924 177.694 738.908 177.87C738.844 179.518 738.324 180.838 737.348 181.83C736.388 182.822 735.028 183.318 733.268 183.318ZM733.268 181.47C734.276 181.47 735.068 181.15 735.644 180.51C736.236 179.87 736.556 178.95 736.604 177.75C736.62 177.59 736.628 177.286 736.628 176.838C736.628 176.39 736.62 176.086 736.604 175.926C736.556 174.726 736.236 173.806 735.644 173.166C735.068 172.526 734.276 172.206 733.268 172.206C732.26 172.206 731.46 172.526 730.868 173.166C730.276 173.806 729.964 174.726 729.932 175.926L729.908 176.838L729.932 177.75C729.964 178.95 730.276 179.87 730.868 180.51C731.46 181.15 732.26 181.47 733.268 181.47ZM742.489 183.078C742.329 183.078 742.193 183.03 742.081 182.934C741.985 182.822 741.937 182.686 741.937 182.526V171.174C741.937 171.014 741.985 170.878 742.081 170.766C742.193 170.654 742.329 170.598 742.489 170.598H743.593C743.753 170.598 743.889 170.654 744.001 170.766C744.113 170.878 744.169 171.014 744.169 171.174V172.23C744.825 171.142 745.945 170.598 747.529 170.598H748.465C748.625 170.598 748.753 170.654 748.849 170.766C748.961 170.862 749.017 170.99 749.017 171.15V172.134C749.017 172.294 748.961 172.422 748.849 172.518C748.753 172.614 748.625 172.662 748.465 172.662H747.025C746.161 172.662 745.481 172.918 744.985 173.43C744.489 173.926 744.241 174.606 744.241 175.47V182.526C744.241 182.686 744.185 182.822 744.073 182.934C743.961 183.03 743.825 183.078 743.665 183.078H742.489ZM755.812 183.318C754.164 183.318 752.844 182.814 751.852 181.806C750.876 180.782 750.34 179.39 750.244 177.63L750.22 176.814L750.244 176.022C750.356 174.294 750.9 172.918 751.876 171.894C752.868 170.87 754.172 170.358 755.788 170.358C757.564 170.358 758.94 170.926 759.916 172.062C760.892 173.182 761.38 174.702 761.38 176.622V177.03C761.38 177.19 761.324 177.326 761.212 177.438C761.116 177.534 760.988 177.582 760.828 177.582H752.524V177.798C752.572 178.838 752.884 179.726 753.46 180.462C754.052 181.182 754.828 181.542 755.788 181.542C756.524 181.542 757.124 181.398 757.588 181.11C758.068 180.806 758.42 180.494 758.644 180.174C758.788 179.982 758.892 179.87 758.956 179.838C759.036 179.79 759.172 179.766 759.364 179.766H760.54C760.684 179.766 760.804 179.806 760.9 179.886C760.996 179.966 761.044 180.078 761.044 180.222C761.044 180.574 760.82 180.998 760.372 181.494C759.94 181.99 759.324 182.422 758.524 182.79C757.74 183.142 756.836 183.318 755.812 183.318ZM759.1 175.926V175.854C759.1 174.75 758.796 173.854 758.188 173.166C757.596 172.462 756.796 172.11 755.788 172.11C754.78 172.11 753.98 172.462 753.388 173.166C752.812 173.854 752.524 174.75 752.524 175.854V175.926H759.1ZM768.81 183.318C767.146 183.318 765.89 182.774 765.042 181.686C764.194 180.598 763.746 179.222 763.698 177.558L763.674 176.838L763.698 176.118C763.746 174.47 764.194 173.102 765.042 172.014C765.89 170.91 767.146 170.358 768.81 170.358C770.458 170.358 771.754 170.942 772.698 172.11V166.59C772.698 166.43 772.746 166.302 772.842 166.206C772.954 166.094 773.09 166.038 773.25 166.038H774.402C774.562 166.038 774.69 166.094 774.786 166.206C774.898 166.302 774.954 166.43 774.954 166.59V182.526C774.954 182.686 774.898 182.822 774.786 182.934C774.69 183.03 774.562 183.078 774.402 183.078H773.322C773.162 183.078 773.026 183.03 772.914 182.934C772.818 182.822 772.77 182.686 772.77 182.526V181.518C771.842 182.718 770.522 183.318 768.81 183.318ZM769.314 181.374C770.418 181.374 771.242 181.014 771.786 180.294C772.346 179.558 772.65 178.686 772.698 177.678C772.714 177.502 772.722 177.198 772.722 176.766C772.722 176.318 772.714 176.006 772.698 175.83C772.666 174.886 772.362 174.062 771.786 173.358C771.21 172.654 770.386 172.302 769.314 172.302C768.178 172.302 767.346 172.654 766.818 173.358C766.306 174.062 766.026 174.99 765.978 176.142L765.954 176.838C765.954 179.862 767.074 181.374 769.314 181.374ZM790.574 183.318C788.846 183.318 787.534 182.718 786.638 181.518V182.526C786.638 182.686 786.582 182.822 786.47 182.934C786.374 183.03 786.246 183.078 786.086 183.078H784.982C784.822 183.078 784.686 183.03 784.574 182.934C784.478 182.822 784.43 182.686 784.43 182.526V166.59C784.43 166.43 784.478 166.302 784.574 166.206C784.686 166.094 784.822 166.038 784.982 166.038H786.158C786.318 166.038 786.446 166.094 786.542 166.206C786.638 166.302 786.686 166.43 786.686 166.59V172.11C787.63 170.942 788.926 170.358 790.574 170.358C792.238 170.358 793.494 170.91 794.342 172.014C795.19 173.102 795.646 174.47 795.71 176.118C795.726 176.294 795.734 176.534 795.734 176.838C795.734 177.142 795.726 177.382 795.71 177.558C795.646 179.222 795.19 180.598 794.342 181.686C793.494 182.774 792.238 183.318 790.574 183.318ZM790.07 181.374C791.206 181.374 792.03 181.022 792.542 180.318C793.07 179.614 793.358 178.686 793.406 177.534C793.422 177.374 793.43 177.142 793.43 176.838C793.43 173.814 792.31 172.302 790.07 172.302C788.998 172.302 788.174 172.654 787.598 173.358C787.022 174.062 786.718 174.886 786.686 175.83L786.662 176.766L786.686 177.678C786.734 178.686 787.03 179.558 787.574 180.294C788.134 181.014 788.966 181.374 790.07 181.374ZM800.395 187.638C800.267 187.638 800.155 187.59 800.059 187.494C799.963 187.398 799.915 187.286 799.915 187.158C799.915 187.046 799.955 186.902 800.035 186.726L801.883 182.334L797.299 171.51C797.219 171.302 797.179 171.166 797.179 171.102C797.179 170.958 797.227 170.838 797.323 170.742C797.419 170.646 797.539 170.598 797.683 170.598H798.859C799.115 170.598 799.307 170.734 799.435 171.006L803.083 179.742L806.827 171.006C806.955 170.734 807.155 170.598 807.427 170.598H808.555C808.699 170.598 808.819 170.646 808.915 170.742C809.011 170.838 809.059 170.95 809.059 171.078C809.059 171.126 809.019 171.27 808.939 171.51L802.123 187.23C801.995 187.502 801.795 187.638 801.523 187.638H800.395Z" fill="black"/>
<g clip-path="url(#clip1_107_400)">
<path d="M353.54 229.442C353.498 229.144 353.234 228.979 353.014 228.961C352.796 228.943 348.525 228.879 348.525 228.879C348.525 228.879 344.952 225.467 344.599 225.12C344.247 224.773 343.557 224.878 343.289 224.956C343.286 224.958 342.619 225.161 341.495 225.503C341.307 224.904 341.031 224.167 340.636 223.427C339.364 221.04 337.502 219.777 335.251 219.774C335.248 219.774 335.246 219.774 335.243 219.774C335.086 219.774 334.931 219.789 334.775 219.802C334.708 219.723 334.642 219.646 334.572 219.571C333.591 218.539 332.335 218.037 330.828 218.081C327.922 218.163 325.027 220.228 322.68 223.895C321.029 226.476 319.772 229.717 319.416 232.227C316.078 233.244 313.744 233.955 313.693 233.971C312.008 234.492 311.955 234.543 311.735 236.105C311.572 237.285 307.164 270.811 307.164 270.811L344.103 277.095L360.114 273.18C360.114 273.18 353.582 229.74 353.54 229.442ZM339.646 226.066C338.795 226.325 337.828 226.62 336.779 226.939C336.758 225.492 336.583 223.478 335.897 221.737C338.103 222.148 339.188 224.602 339.646 226.066ZM334.847 227.528C332.911 228.118 330.798 228.761 328.679 229.406C329.275 227.162 330.405 224.927 331.794 223.461C332.31 222.916 333.032 222.309 333.888 221.961C334.692 223.612 334.867 225.948 334.847 227.528ZM330.886 219.984C331.569 219.969 332.143 220.116 332.634 220.434C331.849 220.835 331.09 221.411 330.377 222.163C328.531 224.111 327.116 227.135 326.552 230.053C324.792 230.588 323.071 231.114 321.486 231.595C322.487 227.003 326.4 220.111 330.886 219.984Z" fill="#95BF47"/>
<path d="M353.016 228.963C352.798 228.945 348.526 228.881 348.526 228.881C348.526 228.881 344.954 225.469 344.601 225.122C344.47 224.992 344.292 224.925 344.105 224.897L344.107 277.093L360.115 273.18C360.115 273.18 353.583 229.742 353.542 229.444C353.5 229.146 353.234 228.981 353.016 228.963Z" fill="#5E8E3E"/>
<path d="M335.231 237.059L333.372 243.902C333.372 243.902 331.298 242.973 328.839 243.125C325.233 243.35 325.195 245.586 325.232 246.148C325.428 249.208 333.613 249.876 334.073 257.044C334.434 262.683 331.031 266.541 326.129 266.845C320.245 267.21 317.005 263.797 317.005 263.797L318.252 258.58C318.252 258.58 321.513 261 324.123 260.838C325.828 260.732 326.437 259.368 326.375 258.403C326.119 254.411 319.454 254.647 319.033 248.088C318.678 242.569 322.364 236.976 330.495 236.471C333.628 236.273 335.231 237.059 335.231 237.059Z" fill="white"/>
<path d="M381.196 251.387C379.356 250.404 378.409 249.576 378.409 248.438C378.409 246.989 379.724 246.059 381.776 246.059C384.165 246.059 386.298 247.041 386.298 247.041L387.98 241.971C387.98 241.971 386.433 240.781 381.88 240.781C375.543 240.781 371.152 244.35 371.152 249.368C371.152 252.213 373.202 254.386 375.938 255.937C378.147 257.178 378.936 258.058 378.936 259.351C378.936 260.695 377.832 261.782 375.781 261.782C372.725 261.782 369.839 260.229 369.839 260.229L368.051 265.299C368.051 265.299 370.717 267.058 375.203 267.058C381.725 267.058 386.405 263.903 386.405 258.212C386.404 255.163 384.038 252.99 381.196 251.387Z" fill="black"/>
<path d="M407.177 240.73C403.969 240.73 401.445 242.231 399.5 244.506L399.394 244.454L402.181 230.126H394.923L387.876 266.594H395.134L397.553 254.128C398.499 249.42 400.971 246.525 403.286 246.525C404.915 246.525 405.547 247.611 405.547 249.164C405.547 250.146 405.442 251.337 405.232 252.319L402.498 266.595H409.756L412.595 251.853C412.911 250.3 413.122 248.439 413.122 247.197C413.119 243.162 410.963 240.73 407.177 240.73Z" fill="black"/>
<path d="M429.527 240.73C420.796 240.73 415.013 248.49 415.013 257.128C415.013 262.662 418.483 267.11 425.005 267.11C433.577 267.11 439.362 259.559 439.362 250.713C439.362 245.593 436.311 240.73 429.527 240.73ZM425.951 261.629C423.479 261.629 422.427 259.56 422.427 256.973C422.427 252.887 424.584 246.215 428.528 246.215C431.105 246.215 431.945 248.387 431.945 250.508C431.945 254.904 429.791 261.629 425.951 261.629Z" fill="black"/>
<path d="M457.926 240.73C453.027 240.73 450.247 244.972 450.247 244.972H450.143L450.564 241.145H444.148C443.833 243.732 443.253 247.662 442.676 250.611L437.627 276.732H444.885L446.882 266.18H447.041C447.041 266.18 448.53 267.11 451.301 267.11C459.82 267.11 465.394 258.524 465.394 249.833C465.394 245.024 463.237 240.73 457.926 240.73ZM450.984 261.732C449.1 261.732 447.985 260.697 447.985 260.697L449.195 254.024C450.037 249.576 452.403 246.627 454.928 246.627C457.137 246.627 457.82 248.644 457.82 250.559C457.82 255.163 455.033 261.732 450.984 261.732Z" fill="black"/>
<path d="M475.754 230.488C473.441 230.488 471.6 232.299 471.6 234.626C471.6 236.747 472.967 238.196 475.018 238.196H475.123C477.385 238.196 479.33 236.695 479.383 234.058C479.383 231.989 477.963 230.488 475.754 230.488Z" fill="black"/>
<path d="M465.605 266.594H472.861L477.806 241.3H470.495L465.605 266.594Z" fill="black"/>
<path d="M496.265 241.249H491.216L491.478 240.058C491.899 237.627 493.372 235.454 495.791 235.454C497.082 235.454 498.104 235.816 498.104 235.816L499.524 230.23C499.524 230.23 498.262 229.61 495.579 229.61C493.002 229.61 490.427 230.334 488.48 231.989C486.008 234.058 484.851 237.057 484.273 240.058L484.064 241.249H480.697L479.645 246.629H483.012L479.173 266.595H486.431L490.27 246.629H495.266L496.265 241.249Z" fill="black"/>
<path d="M513.724 241.3C513.724 241.3 509.187 252.543 507.15 258.68H507.044C506.906 256.704 505.256 241.3 505.256 241.3H497.63L501.997 264.525C502.103 265.041 502.05 265.353 501.839 265.715C500.996 267.318 499.577 268.87 497.894 270.009C496.527 270.991 495.002 271.612 493.793 272.026L495.791 278.078C497.264 277.768 500.313 276.578 502.89 274.199C506.204 271.147 509.253 266.439 512.408 260.025L521.296 241.299H513.724V241.3Z" fill="black"/>
</g>
<path fill-rule="evenodd" clip-rule="evenodd" d="M626.164 278.078C609.596 278.078 596.164 264.647 596.164 248.078C596.164 231.51 609.596 218.078 626.164 218.078C642.734 218.078 656.165 231.51 656.165 248.078C656.165 264.647 642.734 278.078 626.164 278.078Z" fill="black"/>
<path fill-rule="evenodd" clip-rule="evenodd" d="M625.175 246.301C624.508 244.73 623.834 243.193 623.153 241.688C622.472 240.184 621.818 238.786 621.191 237.494C620.563 236.202 620.009 235.117 619.528 234.239H613.577C613.31 236.076 613.064 238.133 612.838 240.41C612.611 242.686 612.412 245.056 612.239 247.519C612.066 249.983 611.906 252.452 611.76 254.929C611.613 257.405 611.487 259.735 611.38 261.918H617.451C617.531 259.23 617.637 256.3 617.771 253.131C617.904 249.962 618.104 246.767 618.37 243.545C618.851 244.663 619.385 245.902 619.973 247.26C620.56 248.618 621.141 249.975 621.715 251.334C622.29 252.692 622.844 253.99 623.379 255.228C623.913 256.467 624.367 257.525 624.741 258.404H626.897C626.897 255.699 626.897 253.011 626.897 250.357C626.355 249.081 625.783 247.732 625.175 246.301Z" fill="#FFFFFE"/>
<path fill-rule="evenodd" clip-rule="evenodd" d="M642.076 254.929C641.93 252.452 641.77 249.983 641.597 247.519C641.424 245.056 641.224 242.686 640.998 240.41C640.772 238.133 640.525 236.076 640.259 234.239H634.588C634.107 235.117 633.552 236.202 632.926 237.494C632.298 238.786 631.643 240.184 630.963 241.688C630.282 243.193 629.608 244.73 628.941 246.301C628.272 247.873 627.645 249.351 627.058 250.735C627.005 250.611 626.951 250.482 626.898 250.357C626.898 253.011 626.898 255.699 626.898 258.404H629.095C629.469 257.525 629.924 256.467 630.458 255.228C630.992 253.99 631.546 252.692 632.121 251.334C632.694 249.975 633.276 248.618 633.863 247.26C634.45 245.902 634.985 244.663 635.466 243.545C635.732 246.767 635.932 249.962 636.065 253.131C636.198 256.3 636.304 259.23 636.385 261.918H642.456C642.35 259.735 642.223 257.405 642.076 254.929Z" fill="#890000"/>
<path fill-rule="evenodd" clip-rule="evenodd" d="M678.628 235.652C679.094 236.505 679.631 237.558 680.241 238.811C680.85 240.065 681.485 241.422 682.146 242.882C682.806 244.342 683.46 245.835 684.108 247.359C684.756 248.884 685.365 250.319 685.935 251.662C686.505 250.319 687.114 248.884 687.762 247.359C688.409 245.835 689.064 244.342 689.725 242.882C690.386 241.422 691.02 240.065 691.63 238.811C692.238 237.558 692.776 236.505 693.242 235.652H698.747C699.006 237.435 699.245 239.431 699.464 241.641C699.684 243.851 699.878 246.151 700.046 248.542C700.214 250.932 700.369 253.329 700.511 255.732C700.653 258.136 700.776 260.398 700.879 262.517H694.987C694.91 259.907 694.806 257.064 694.677 253.988C694.547 250.913 694.353 247.812 694.095 244.684C693.628 245.77 693.11 246.971 692.54 248.289C691.97 249.607 691.406 250.925 690.848 252.244C690.291 253.562 689.753 254.821 689.234 256.023C688.716 257.225 688.275 258.252 687.912 259.105H683.687C683.324 258.252 682.883 257.225 682.365 256.023C681.846 254.821 681.308 253.562 680.75 252.244C680.193 250.925 679.629 249.607 679.059 248.289C678.488 246.971 677.97 245.77 677.504 244.684C677.245 247.812 677.052 250.913 676.922 253.988C676.793 257.064 676.69 259.907 676.612 262.517H670.72C670.823 260.398 670.946 258.136 671.088 255.732C671.23 253.329 671.385 250.932 671.553 248.542C671.721 246.151 671.914 243.851 672.135 241.641C672.354 239.431 672.593 237.435 672.852 235.652H678.628Z" fill="black"/>
<path fill-rule="evenodd" clip-rule="evenodd" d="M705.88 262.517H711.656V242.126H705.88V262.517ZM712.199 236.233C712.199 237.293 711.856 238.127 711.172 238.734C710.486 239.341 709.679 239.644 708.749 239.644C707.818 239.644 707.01 239.341 706.325 238.734C705.641 238.127 705.298 237.293 705.298 236.233C705.298 235.174 705.641 234.341 706.325 233.733C707.01 233.126 707.818 232.822 708.749 232.822C709.679 232.822 710.486 233.126 711.172 233.733C711.856 234.341 712.199 235.174 712.199 236.233Z" fill="black"/>
<path fill-rule="evenodd" clip-rule="evenodd" d="M729.372 247.243C728.855 247.113 728.248 246.978 727.55 246.835C726.852 246.694 726.102 246.622 725.302 246.622C724.939 246.622 724.507 246.655 724.003 246.719C723.499 246.784 723.117 246.855 722.859 246.932V262.516H717.083V243.211C718.116 242.849 719.337 242.507 720.746 242.184C722.154 241.861 723.725 241.699 725.457 241.699C725.766 241.699 726.141 241.719 726.581 241.757C727.02 241.796 727.459 241.848 727.898 241.913C728.338 241.977 728.777 242.055 729.216 242.145C729.656 242.236 730.031 242.345 730.341 242.474L729.372 247.243Z" fill="black"/>
<path fill-rule="evenodd" clip-rule="evenodd" d="M745.731 247.243C745.213 247.113 744.606 246.978 743.909 246.835C743.211 246.694 742.461 246.622 741.66 246.622C741.297 246.622 740.865 246.655 740.361 246.719C739.857 246.784 739.476 246.855 739.218 246.932V262.516H733.441V243.211C734.475 242.849 735.696 242.507 737.105 242.184C738.513 241.861 740.083 241.699 741.815 241.699C742.125 241.699 742.499 241.719 742.939 241.757C743.378 241.796 743.818 241.848 744.257 241.913C744.696 241.977 745.136 242.055 745.575 242.145C746.014 242.236 746.389 242.345 746.699 242.474L745.731 247.243Z" fill="black"/>
<path fill-rule="evenodd" clip-rule="evenodd" d="M791.862 247.243C791.344 247.113 790.738 246.978 790.04 246.835C789.342 246.694 788.593 246.622 787.792 246.622C787.429 246.622 786.997 246.655 786.493 246.719C785.989 246.784 785.607 246.855 785.349 246.932V262.516H779.573V243.211C780.606 242.849 781.828 242.507 783.236 242.184C784.645 241.861 786.215 241.699 787.946 241.699C788.257 241.699 788.631 241.719 789.071 241.757C789.51 241.796 789.949 241.848 790.389 241.913C790.828 241.977 791.267 242.055 791.707 242.145C792.146 242.236 792.521 242.345 792.831 242.474L791.862 247.243Z" fill="black"/>
<path fill-rule="evenodd" clip-rule="evenodd" d="M747.964 251.862C750.917 248.908 753.87 245.954 756.823 243.001C757.485 242.34 758.156 242.358 758.816 243.002C759.19 243.367 759.539 243.757 759.917 244.117C760.741 244.902 760.713 245.625 759.882 246.417C757.756 248.445 755.663 250.508 753.407 252.703C755.491 254.789 757.49 256.732 759.405 258.753C759.877 259.25 760.635 260.222 760.442 260.505C759.804 261.442 758.737 262.268 757.823 262.979C757.667 263.1 757.006 262.785 756.737 262.515C753.792 259.553 750.878 256.56 747.955 253.575C747.655 253.301 747.441 252.891 747.442 252.589C747.444 252.32 747.641 252.302 747.964 251.862Z" fill="#890000"/>
<path fill-rule="evenodd" clip-rule="evenodd" d="M775.243 251.856C772.321 248.872 769.399 245.888 766.475 242.905C765.82 242.237 765.149 242.248 764.483 242.885C764.105 243.247 763.752 243.633 763.37 243.989C762.537 244.766 762.559 245.489 763.381 246.289C765.487 248.339 767.558 250.423 769.791 252.641C767.687 254.706 765.668 256.628 763.732 258.629C763.255 259.122 762.487 260.086 762.677 260.37C763.306 261.315 764.364 262.151 765.271 262.871C765.426 262.994 766.09 262.686 766.362 262.418C769.337 259.487 772.281 256.524 775.234 253.569C775.537 253.299 775.756 252.89 775.758 252.589C775.759 252.319 775.563 252.299 775.243 251.856Z" fill="#890000"/>
<path d="M885.279 259.732C882.109 256.756 880.206 252.659 880.206 247.976C880.206 243.293 882.06 239.195 885.084 236.22C887.719 233.585 887.719 229.488 885.084 226.854C882.45 224.22 878.353 224.22 875.719 226.854C870.499 232.268 867.133 239.732 867.133 247.976C867.133 256.22 870.499 263.683 875.914 269.098C878.548 271.732 882.645 271.732 885.279 269.098C887.67 266.464 887.67 262.366 885.279 259.732Z" fill="#FFD85F"/>
<path d="M885.279 236.22C888.255 233.049 892.401 231.195 897.036 231.195C901.67 231.195 905.816 233.049 908.792 236.073C911.426 238.707 915.523 238.707 918.158 236.073C920.792 233.439 920.792 229.342 918.158 226.707C912.743 221.488 905.279 218.122 897.036 218.122C888.792 218.122 881.328 221.488 875.914 226.903C873.279 229.537 873.279 233.634 875.914 236.268C878.548 238.61 882.645 238.61 885.279 236.22Z" fill="#3BB4E7"/>
<path d="M908.792 259.732C905.816 262.903 901.67 264.756 897.036 264.756C892.401 264.756 888.255 262.903 885.279 259.878C882.645 257.244 878.548 257.244 875.914 259.878C873.279 262.512 873.279 266.61 875.914 269.244C881.328 274.464 888.792 277.829 897.036 277.829C905.279 277.829 912.743 274.464 918.158 269.049C920.792 266.415 920.792 262.317 918.158 259.683C915.523 257.342 911.426 257.342 908.792 259.732Z" fill="#ED5C68"/>
<path d="M880.597 238.073C884.207 238.073 887.133 235.147 887.133 231.537C887.133 227.927 884.207 225 880.597 225C876.987 225 874.06 227.927 874.06 231.537C874.06 235.147 876.987 238.073 880.597 238.073Z" fill="#308BC5"/>
<path d="M880.597 270.951C884.207 270.951 887.133 268.025 887.133 264.415C887.133 260.805 884.207 257.878 880.597 257.878C876.987 257.878 874.06 260.805 874.06 264.415C874.06 268.025 876.987 270.951 880.597 270.951Z" fill="#D5465F"/>
<path d="M947.523 254.122C949.377 252.61 949.767 253.586 951.28 255.049C952.011 255.781 954.255 257.293 952.792 258.415C949.816 260.854 947.182 261.976 943.279 261.976C934.694 261.976 928.499 255.439 928.889 247C929.084 243.098 930.548 239.537 933.572 237.098C936.353 234.854 939.719 233.732 943.279 233.927C945.133 233.927 946.645 234.317 948.304 234.854C949.426 235.244 950.548 235.781 951.475 236.512C953.328 238.025 952.401 238.756 951.084 240.268C950.694 240.659 950.548 241 950.158 241.195C949.426 241.927 948.84 242.512 947.914 241.732C946.06 240.415 943.426 239.683 941.182 240.22C933.719 242.073 934.06 255.342 943.231 255.342C944.694 255.634 946.401 255.098 947.523 254.122ZM1155.13 261.439C1153.82 261.439 1152.89 260.512 1152.89 259.195V229.829C1152.89 228.512 1153.82 227.586 1155.13 227.586H1157.57C1158.89 227.586 1159.82 228.512 1159.82 229.829V259.195C1159.82 260.512 1158.89 261.439 1157.57 261.439H1155.13ZM1142.26 258.073C1139.62 260.512 1137.04 261.829 1133.28 261.829C1125.62 261.829 1122.06 255.488 1122.06 248.561V236.61C1122.06 235.293 1122.99 234.366 1124.3 234.366H1126.74C1128.06 234.366 1128.99 235.293 1128.99 236.61V248.561C1128.99 252.464 1131.04 255.488 1135.33 255.488C1139.43 255.488 1142.06 251.927 1142.06 248.22V236.61C1142.06 235.293 1142.99 234.366 1144.3 234.366H1146.74C1148.06 234.366 1148.99 235.293 1148.99 236.61V259.195C1148.99 260.512 1148.06 261.439 1146.74 261.439H1144.69C1143.38 261.439 1142.65 260.317 1142.45 259.195L1142.26 258.073ZM1113.08 234.512H1117.77C1119.08 234.512 1120.01 235.634 1120.01 236.756V238.268C1120.01 239.586 1119.08 240.512 1117.77 240.512H1113.08V259.195C1113.08 260.512 1112.16 261.439 1110.84 261.439H1108.4C1107.08 261.439 1106.16 260.512 1106.16 259.195V233.586C1106.16 227.976 1109.33 223.488 1115.13 222.951H1118.69C1120.01 222.951 1120.94 224.073 1120.94 225.195V226.708C1120.94 228.025 1120.01 228.951 1118.69 228.951H1116.84C1114.06 228.951 1112.94 231 1112.94 233.634V234.561H1113.08V234.512ZM1096.06 234.512H1101.28C1102.6 234.512 1103.52 235.439 1103.52 236.756V238.268C1103.52 239.586 1102.6 240.512 1101.28 240.512H1096.06V251.878C1096.06 254.122 1097.18 255.244 1099.43 255.244H1100.55C1101.86 255.244 1102.79 256.171 1102.79 257.488V259.147C1102.79 260.464 1101.86 261.39 1100.55 261.39H1097.38C1091.77 261 1089.33 257.488 1089.33 251.878V229.829C1089.33 228.512 1090.26 227.586 1091.57 227.586H1094.01C1095.33 227.586 1096.26 228.512 1096.26 229.829V234.512H1096.06ZM1021.13 234.512H1026.35C1027.67 234.512 1028.6 235.439 1028.6 236.756V238.268C1028.6 239.586 1027.67 240.512 1026.35 240.512H1021.13V251.878C1021.13 254.122 1022.26 255.439 1024.5 255.439H1025.62C1026.94 255.439 1027.86 256.366 1027.86 257.683V259.195C1027.86 260.512 1026.94 261.439 1025.62 261.439H1024.11C1017.96 261.439 1014.4 258.805 1014.4 251.927V229.878C1014.4 228.561 1015.33 227.634 1016.65 227.634H1019.08C1020.4 227.634 1021.33 228.561 1021.33 229.878V234.561C1021.33 234.512 1021.13 234.512 1021.13 234.512ZM990.694 237.683C993.133 235.244 995.914 233.927 999.28 233.927C1006.94 233.927 1010.89 240.073 1010.89 247.195V259.195C1010.89 260.512 1009.96 261.439 1008.65 261.439H1006.21C1004.89 261.439 1003.96 260.512 1003.96 259.195V247.244C1003.96 243.342 1001.91 240.317 997.621 240.317C993.523 240.317 990.889 243.683 990.889 247.586V259.195C990.889 260.512 989.962 261.439 988.645 261.439H986.206C984.889 261.439 983.962 260.512 983.962 259.195V236.561C983.962 235.244 984.889 234.317 986.206 234.317H988.255C989.572 234.317 990.304 235.439 990.499 236.561L990.694 237.683ZM1065.82 237.683C1068.26 235.244 1071.04 233.927 1074.4 233.927C1082.06 233.927 1086.01 240.073 1086.01 247.195V259.195C1086.01 260.512 1085.08 261.439 1083.77 261.439H1081.33C1080.01 261.439 1079.08 260.512 1079.08 259.195V247.244C1079.08 243.342 1077.04 240.317 1072.74 240.317C1068.65 240.317 1066.01 243.683 1066.01 247.586V259.195C1066.01 260.512 1065.08 261.439 1063.77 261.439H1061.33C1060.01 261.439 1059.08 260.512 1059.08 259.195V236.561C1059.08 235.244 1060.01 234.317 1061.33 234.317H1063.38C1064.69 234.317 1065.43 235.439 1065.62 236.561L1065.82 237.683ZM967.67 233.781C959.426 233.781 953.67 239.781 953.67 247.976C953.67 256.171 959.475 262.171 967.67 262.171C976.06 262.171 981.865 256.366 981.865 247.976C981.865 239.732 975.914 233.781 967.67 233.781ZM1036.11 250.415C1036.65 254.171 1040.4 255.829 1043.96 255.829C1045.62 255.829 1047.52 255.439 1048.99 254.708C1049.18 254.512 1049.52 254.512 1049.72 254.317C1050.65 253.781 1051.38 253.586 1052.16 254.317L1053.47 255.634L1054.6 256.756C1055.72 258.268 1054.99 258.61 1053.67 259.39C1050.89 261.244 1047.33 262.171 1043.96 262.171C1034.99 262.171 1028.99 256.756 1028.99 247.781C1028.99 239.195 1034.99 233.586 1043.38 233.586C1052.16 233.586 1057.04 238.61 1057.23 247.439C1057.23 249.878 1057.43 250.61 1054.99 250.61H1036.11V250.415ZM967.67 240.122C971.962 240.122 974.792 243.878 974.792 247.976C974.792 252.268 972.158 255.634 967.67 255.634C963.182 255.634 960.548 252.268 960.548 247.976C960.548 243.683 963.377 240.122 967.67 240.122ZM1036.26 244.61H1050.26C1049.72 241.049 1046.89 239.732 1043.52 239.732C1040.01 239.732 1037.23 241.439 1036.26 244.61Z" fill="#2A3039"/>
</g>
</g>
</svg>
