<svg width="838" height="132" viewBox="0 0 838 132" fill="none" xmlns="http://www.w3.org/2000/svg">
<path d="M33.2322 103.062C21.9442 103.062 13.5845 100.389 8.15313 95.0429C2.72176 89.6966 0 82.2117 0 72.6127H14.1556C14.1556 79.7694 15.7595 85.2737 18.9551 89.1012C22.1507 92.9408 26.9138 94.8485 33.2322 94.8485C38.5421 94.8485 42.8191 93.5605 46.0633 90.9967C49.3076 88.4329 50.9236 84.8727 50.9236 80.3162C50.9236 76.7803 49.9151 73.7062 47.886 71.0938C45.8689 68.4814 42.5396 66.2457 37.8981 64.3988L26.2698 59.7207C18.0924 56.4401 12.3087 52.7341 8.89432 48.6028C5.47997 44.4716 3.77887 39.7571 3.77887 34.4473C3.77887 30.9965 4.47146 27.8616 5.86879 25.0305C7.25397 22.2115 9.22239 19.7814 11.7497 17.7643C14.2771 15.7473 17.3148 14.1677 20.8506 13.0256C24.3865 11.8834 28.3112 11.3245 32.6004 11.3245C36.8896 11.3245 40.9357 11.8712 44.4838 12.9648C48.0196 14.0584 51.0573 15.6137 53.5846 17.6428C56.112 19.6599 58.0683 22.1143 59.4656 24.9697C60.8508 27.8373 61.5555 30.9965 61.5555 34.4473C61.5555 36.1362 61.3489 38.0317 60.9237 40.1338L46.9017 38.7486C46.9868 38.1654 47.0476 37.5943 47.0962 37.0475C47.1326 36.5007 47.1569 35.9297 47.1569 35.3464C47.1569 30.3768 45.8689 26.525 43.3051 23.7789C40.7292 21.045 37.1812 19.672 32.6247 19.672C28.3233 19.672 24.8118 20.8263 22.0778 23.1471C19.3439 25.4679 17.9709 28.5177 17.9709 32.3087C17.9709 35.2614 18.943 37.9588 20.8749 40.4011C22.8069 42.8434 26.3063 45.0791 31.361 47.0962L43.1107 51.7742C51.033 54.8969 56.7195 58.615 60.1703 62.9528C63.6211 67.2906 65.3465 72.321 65.3465 78.0562C65.3465 85.8083 62.5276 91.9201 56.8775 96.3794C51.2274 100.851 43.3537 103.074 33.2443 103.074L33.2322 103.062Z" fill="#01382E"/>
<path d="M73.8008 130.11V44.9334H87.7012V55.9298C89.6332 52.2238 92.4643 49.1862 96.1702 46.8289C99.8762 44.4717 104.007 43.2931 108.552 43.2931C112.258 43.2931 115.672 44.0464 118.783 45.5652C121.893 47.0841 124.591 49.1862 126.875 51.8836C129.147 54.5811 130.933 57.7403 132.246 61.3612C133.546 64.9821 134.202 68.9068 134.202 73.1109C134.202 77.3151 133.546 81.264 132.246 84.9214C130.933 88.5909 129.147 91.7623 126.875 94.4597C124.603 97.1572 121.905 99.2592 118.783 100.778C115.66 102.297 112.258 103.05 108.552 103.05C104.007 103.05 99.8762 101.872 96.1702 99.5144C92.4643 97.1572 89.6453 94.1195 87.7012 90.4135V130.098H73.8008V130.11ZM103.752 92.71C106.11 92.71 108.284 92.224 110.265 91.2519C112.246 90.2799 113.947 88.919 115.381 87.145C116.814 85.371 117.932 83.2932 118.734 80.8874C119.536 78.4815 119.937 75.8934 119.937 73.1109C119.937 70.3284 119.536 67.7646 118.734 65.4074C117.932 63.0501 116.814 60.9845 115.381 59.2105C113.947 57.4365 112.246 56.0756 110.265 55.1036C108.284 54.1315 106.11 53.6455 103.752 53.6455C101.395 53.6455 99.05 54.1315 96.9965 55.1036C94.9309 56.0756 93.1569 57.4365 91.6866 59.2105C90.2164 60.9845 89.0499 63.0501 88.2115 65.4074C87.3731 67.7646 86.9478 70.3405 86.9478 73.1109C86.9478 75.8813 87.3731 78.4815 88.2115 80.8874C89.0499 83.2932 90.2164 85.371 91.6866 87.145C93.1569 88.919 94.9309 90.2799 96.9965 91.2519C99.0621 92.224 101.31 92.71 103.752 92.71V92.71Z" fill="#01382E"/>
<path d="M172.359 59.976C172.614 58.1291 172.469 56.7803 171.922 55.9298C171.375 55.0914 170.512 54.6661 169.334 54.6661C167.985 54.6661 166.575 55.2372 165.105 56.3672C163.635 57.5094 162.286 59.2348 161.059 61.5434C159.832 63.8642 158.823 66.7925 158.021 70.3284C157.219 73.8642 156.818 77.9955 156.818 82.71V101.41H142.918V44.9334H156.818V58.3235C158.337 54.0221 160.464 50.4498 163.198 47.5823C165.931 44.7147 169.492 43.2809 173.878 43.2809C176.49 43.2809 178.678 43.8034 180.452 44.8605C182.226 45.9176 183.586 47.3028 184.558 49.0282C185.531 50.7536 186.162 52.6977 186.454 54.8362C186.746 56.9869 186.721 59.1497 186.393 61.349L172.371 59.9638L172.359 59.976Z" fill="#01382E"/>
<path d="M200.037 37.3633C197.509 37.3633 195.492 36.61 193.973 35.0912C192.455 33.5723 191.701 31.5918 191.701 29.1495C191.701 26.7072 192.455 24.7266 193.973 23.2078C195.492 21.6889 197.509 20.9356 200.037 20.9356C202.564 20.9356 204.581 21.6889 206.1 23.2078C207.619 24.7266 208.372 26.7072 208.372 29.1495C208.372 31.5918 207.619 33.5723 206.1 35.0912C204.581 36.61 202.564 37.3633 200.037 37.3633ZM193.086 101.422V44.9332H206.987V101.422H193.086V101.422Z" fill="#01382E"/>
<path d="M232.262 101.422H218.361V44.9334H232.262V62.1145C236.478 49.5628 243.72 43.2809 253.999 43.2809C259.978 43.2809 264.57 45.3465 267.778 49.4778C270.974 53.609 272.578 59.5021 272.578 67.1692V101.41H258.677V67.1692C258.677 62.7099 258.021 59.4656 256.721 57.4365C255.409 55.4195 253.282 54.3988 250.342 54.3988C244.607 54.3988 240.172 57.7888 237.013 64.5689C233.853 71.349 232.274 80.8509 232.274 93.0624V101.398L232.262 101.422Z" fill="#01382E"/>
<path d="M309.602 87.8983C306.395 87.8983 303.867 88.0198 302.02 88.275C300.161 88.5302 298.752 88.8461 297.792 89.2227C296.82 89.5994 296.212 90.0247 295.957 90.4864C295.702 90.9482 295.581 91.3977 295.581 91.8109C295.581 92.9044 296.407 93.7307 298.047 94.2774C299.687 94.8242 302.737 95.1037 307.209 95.1037H312.263C321.777 95.1037 329.044 96.4889 334.062 99.2714C339.068 102.054 341.583 105.966 341.583 111.021C341.583 117.254 338.545 122.2 332.482 125.869C326.419 129.539 317.828 131.361 306.698 131.361C297.853 131.361 290.842 130.122 285.653 127.631C280.477 125.14 277.877 121.75 277.877 117.461C277.877 114.095 279.286 111.143 282.105 108.615C284.924 106.088 288.825 104.229 293.794 103.05C289.918 102.54 287.051 101.616 285.204 100.268C283.345 98.919 282.421 97.3151 282.421 95.4682C282.421 93.111 283.454 91.0211 285.52 89.2106C287.585 87.4001 290.805 85.9421 295.192 84.8485C291.146 82.9165 287.962 80.2798 285.653 76.9505C283.333 73.6212 282.178 69.8059 282.178 65.5167C282.178 62.3211 282.847 59.3442 284.195 56.6102C285.544 53.8763 287.44 51.5191 289.882 49.5385C292.324 47.558 295.228 46.027 298.606 44.9213C301.972 43.8277 305.641 43.2809 309.602 43.2809C314.195 43.2809 317.828 44.5446 320.089 44.5446C324.888 44.5446 327.294 41.592 327.294 35.6989L341.449 37.5944C341.449 38.9431 341.073 40.2311 340.307 41.4462C339.554 42.6734 338.521 43.7426 337.209 44.6661C335.897 45.5895 334.366 46.3672 332.592 46.999C330.818 47.6309 328.922 48.0318 326.905 48.2019C330.271 50.219 332.822 52.7342 334.548 55.7232C336.273 58.7123 337.136 61.9809 337.136 65.5167C337.136 68.7245 336.456 71.6893 335.119 74.4232C333.77 77.1571 331.875 79.5265 329.432 81.4949C326.99 83.4755 324.086 85.0308 320.708 86.1729C317.342 87.3151 313.636 87.874 309.59 87.874L309.602 87.8983ZM308.217 123.658C314.28 123.658 318.995 122.734 322.373 120.875C325.739 119.016 327.428 116.623 327.428 113.67C327.428 111.143 326.14 109.308 323.576 108.178C321 107.036 317.318 106.477 312.519 106.477H307.585C302.616 106.477 298.776 107.279 296.091 108.883C293.393 110.486 292.045 112.589 292.045 115.201C292.045 117.813 293.418 119.976 296.152 121.459C298.886 122.929 302.907 123.67 308.217 123.67V123.658ZM309.736 80.4378C314.28 80.4378 317.719 79.004 320.04 76.1364C322.361 73.2689 323.515 69.733 323.515 65.5167C323.515 61.3004 322.361 57.7889 320.04 54.9699C317.719 52.1509 314.293 50.7414 309.736 50.7414C305.18 50.7414 301.729 52.1509 299.372 54.9699C297.014 57.7889 295.836 61.3126 295.836 65.5167C295.836 69.7209 297.014 73.2689 299.372 76.1364C301.729 79.004 305.18 80.4378 309.736 80.4378V80.4378Z" fill="#01382E"/>
<path d="M387.947 101.422H373.791V14.2283H387.947V52.8919H427.752V14.2283H441.908V101.422H427.752V60.9843H387.947V101.422V101.422Z" fill="#01382E"/>
<path d="M465.786 73.7549C465.871 77.8861 466.308 81.3369 467.11 84.1194C467.912 86.902 468.957 89.1377 470.269 90.8145C471.569 92.5034 473.052 93.6821 474.692 94.3503C476.332 95.0308 477.961 95.3589 479.552 95.3589C483.088 95.3589 485.895 94.241 487.961 92.0053C490.026 89.7695 491.521 86.258 492.444 81.4584L505.713 82.8436C504.109 89.0769 500.998 94.0101 496.357 97.631C491.727 101.252 486.126 103.062 479.552 103.062C475.421 103.062 471.654 102.346 468.24 100.912C464.826 99.4779 461.897 97.4609 459.455 94.8485C457.013 92.2361 455.142 89.1012 453.829 85.4317C452.517 81.7622 451.873 77.7039 451.873 73.2324C451.873 68.4329 452.541 64.1558 453.89 60.4013C455.239 56.6588 457.134 53.5118 459.577 50.9845C462.019 48.4571 464.947 46.5373 468.362 45.2372C471.776 43.937 475.543 43.2809 479.674 43.2809C484.473 43.2809 488.605 44.1193 492.055 45.8082C495.506 47.4972 498.35 49.7694 500.585 52.6369C502.821 55.5045 504.413 58.7488 505.385 62.3697C506.357 65.9906 506.709 69.7816 506.454 73.7427H465.761L465.786 73.7549ZM479.686 51.0088C475.895 51.0088 472.845 52.236 470.524 54.6783C468.204 57.1206 466.709 61.1181 466.041 66.6832H492.201C491.776 61.5434 490.597 57.643 488.665 54.9942C486.721 52.3453 483.732 51.0088 479.698 51.0088H479.686Z" fill="#01382E"/>
<path d="M564.851 101.422H551.206V89.4172C549.018 93.8886 546.175 97.2787 542.676 99.5873C539.176 101.908 535.033 103.062 530.233 103.062C525.009 103.062 520.865 101.75 517.791 99.1499C514.717 96.5375 513.174 92.8801 513.174 88.1535C513.174 81.3248 516.455 76.0635 523.028 72.3576C529.602 68.6516 538.994 66.2458 551.206 65.1522C550.95 60.4377 549.978 56.9019 548.302 54.5325C546.613 52.1752 544 50.9966 540.464 50.9966C536.928 50.9966 534.085 52.1145 532.445 54.3502C530.805 56.5859 529.808 59.5507 529.48 63.2567L516.09 61.8715C516.673 56.3065 519.103 51.8229 523.356 48.4085C527.609 44.9942 533.32 43.2931 540.476 43.2931C544.012 43.2931 547.281 43.7791 550.27 44.7511C553.259 45.7232 555.835 47.1691 557.973 49.1133C560.124 51.0574 561.801 53.4754 563.028 56.3794C564.243 59.2834 564.863 62.722 564.863 66.6832V101.434L564.851 101.422ZM551.072 71.8472C543.15 72.2725 537.172 73.7427 533.125 76.2701C529.079 78.7974 527.062 82.2118 527.062 86.501C527.062 89.1985 527.755 91.2884 529.152 92.7586C530.537 94.2288 532.421 94.97 534.778 94.97C537.135 94.97 539.14 94.3382 541.035 93.0745C542.931 91.8109 544.596 90.1219 546.029 88.0198C547.463 85.9178 548.617 83.4755 549.504 80.693C550.391 77.9104 550.914 74.97 551.084 71.8472H551.072Z" fill="#01382E"/>
<path d="M589.75 101.422H575.85V14.2283H589.75V101.422Z" fill="#01382E"/>
<path d="M623.491 103.062C612.203 103.062 606.552 96.8655 606.552 84.484V52.2603H597.33V44.9334H606.552V25.9783H620.453V44.9334H638.266V52.2603H620.453V87.0113C620.453 89.9639 620.72 92.0903 621.279 93.3904C621.826 94.7027 622.81 95.3467 624.244 95.3467C625.678 95.3467 626.686 94.6906 627.282 93.3904C627.865 92.0903 628.254 89.9518 628.424 87.0113L641.061 88.3965C640.465 93.196 638.655 96.8412 635.629 99.3321C632.604 101.823 628.557 103.062 623.503 103.062H623.491Z" fill="#01382E"/>
<path d="M661.145 101.422H647.244V14.2283H661.145V62.1265C665.361 49.5748 672.603 43.2928 682.882 43.2928C688.86 43.2928 693.453 45.3585 696.661 49.4897C699.857 53.621 701.461 59.514 701.461 67.1811V101.422H687.56V67.1811C687.56 62.7218 686.904 59.4776 685.604 57.4484C684.292 55.4314 682.165 54.4108 679.225 54.4108C673.49 54.4108 669.055 57.8008 665.896 64.5809C662.736 71.361 661.157 80.8629 661.157 93.0743V101.41L661.145 101.422Z" fill="#01382E"/>
<path d="M780.908 29.903C772.39 37.1084 765.294 44.8119 759.377 52.5276C772.889 43.1837 788.77 38.3599 804.602 39.4534C816.607 40.2918 827.579 44.6904 835.477 49.3198C835.477 49.3198 838.515 44.2044 836.765 20.8507C835.829 8.28686 836.656 7.62939e-05 836.656 7.62939e-05C825.052 0.716968 796.388 16.7924 780.932 29.8908L780.908 29.903Z" fill="#01382E"/>
<path d="M804.036 47.4609C785.895 46.1972 767.62 53.7914 753.854 67.5096C762.335 62.7465 773.513 59.0648 787.183 60.1341C805.555 61.5922 818.362 71.2763 825.822 79.0649C830.026 72.8923 832.906 65.7477 834.036 58.0442C826.612 53.0381 816.49 48.3114 804.048 47.4487L804.036 47.4609Z" fill="#01382E"/>
<path d="M786.55 68.1656C761.896 66.2094 746.465 82.2726 742.333 87.2301C739.32 90.8632 736.817 94.9458 734.885 99.3808C734.654 100.11 734.423 100.827 734.217 101.519C734.217 101.519 753.852 105.772 784.12 102.431C814.375 99.0892 820.742 85.3832 820.742 85.3832C814.424 78.5302 803.087 69.49 786.538 68.1778L786.55 68.1656Z" fill="#01382E"/>
<path d="M775.71 23.779C787.132 14.107 800.012 6.09973 813.778 0.0122223L783.791 0.206634C755.905 0.376744 733.438 23.1472 733.62 51.0452L733.802 79.8303C741.506 62.7099 754.422 41.8107 775.698 23.779H775.71Z" fill="#01382E"/>
</svg>
