<svg width="24" height="24" viewBox="0 0 24 24" fill="none" xmlns="http://www.w3.org/2000/svg">
<path d="M11.2972 8.61325C9.98292 9.72485 8.88795 10.9133 7.97485 12.1036C10.0598 10.6621 12.5103 9.91793 14.9534 10.0866C16.8058 10.216 18.4989 10.8946 19.7176 11.6088C19.7176 11.6088 20.1863 10.8196 19.9163 7.21671C19.772 5.27844 19.8995 4 19.8995 4C18.1089 4.1106 13.6859 6.59062 11.301 8.61137L11.2972 8.61325Z" fill="#00CC76"/>
<path d="M14.8658 11.3218C12.0665 11.1268 9.24659 12.2984 7.12228 14.4148C8.43099 13.68 10.1559 13.112 12.2652 13.2769C15.1001 13.5019 17.0763 14.9959 18.2275 16.1975C18.8763 15.2452 19.3206 14.143 19.495 12.9545C18.3494 12.1822 16.7876 11.453 14.8676 11.3199L14.8658 11.3218Z" fill="#00CC76"/>
<path d="M12.1675 14.5156C8.3633 14.2138 5.98213 16.6919 5.34465 17.4567C4.87967 18.0172 4.49343 18.6471 4.19531 19.3313C4.15969 19.4437 4.12407 19.5543 4.09219 19.6612C4.09219 19.6612 7.12209 20.3173 11.7926 19.8018C16.4611 19.2863 17.4436 17.1718 17.4436 17.1718C16.4686 16.1146 14.7193 14.7199 12.1657 14.5175L12.1675 14.5156Z" fill="#00CC76"/>
<path d="M10.4949 7.66856C12.2574 6.17642 14.2448 4.9411 16.3691 4.00195L11.7418 4.03195C7.4388 4.05819 3.97205 7.57108 4.00017 11.875L4.02829 16.3158C5.217 13.6746 7.21006 10.4504 10.4931 7.66856H10.4949Z" fill="#00CC76"/>
</svg>
