<svg width="1293" height="200" fill="none" xmlns="http://www.w3.org/2000/svg">
  <path d="M4.187 116.181v-31.84M25.066 129.757V70.765M45.945 142.802V57.198M66.824 135.495v-70.99M87.703 148.022V51.978M108.582 138.626V61.374M129.462 153.242V46.758M150.341 127.143V72.857M171.22 116.181v-31.84M192.099 116.181v-31.84M212.978 168.901V31.099M233.857 151.154V48.846M254.736 133.407V66.593M275.615 116.181v-31.84M296.495 124.011V75.989M317.374 138.626V61.374M338.253 153.242V46.758M359.132 127.143V72.857M380.011 116.181v-31.84M400.89 124.011V75.989M421.769 135.495v-70.99M442.648 195V5M463.527 178.297V21.703M484.407 157.418V42.582M505.286 168.901V31.099M526.165 142.802V57.198M547.044 151.154V48.846M567.923 163.681V36.319M588.802 163.681V36.319M609.681 172.033V27.967M630.56 160.549V39.451M651.44 142.802V57.198M672.319 127.143V72.857M693.198 116.181v-31.84M714.077 116.181v-31.84M734.956 116.181v-31.84M755.835 154.286V45.714M776.714 172.033V27.967M797.593 163.681V36.319M818.473 149.066V50.934M839.352 165.769V34.231M860.231 139.67V60.33M881.11 154.286V45.714M901.989 142.802V57.198M922.868 127.143V72.857M943.747 116.181v-31.84M964.626 116.181v-31.84M985.505 124.011V75.989M1006.38 142.802V57.198M1027.26 127.143V72.857M1048.14 116.181v-31.84M1069.02 116.181v-31.84M1089.9 135.495v-70.99M1110.78 129.231V70.769M1131.66 116.181v-31.84M1152.54 116.181v-31.84M1173.42 116.181v-31.84M1194.3 120.879V79.121M1215.18 131.319V68.681M1236.05 149.066V50.934M1256.93 131.319V68.681M1277.81 116.181v-31.84" stroke="#449c7c" stroke-width="8.352" stroke-linecap="round"/>
</svg>