<svg width="84" height="60" viewBox="0 0 84 60" fill="none" xmlns="http://www.w3.org/2000/svg">
<rect width="84" height="60" fill="#341CFF"/>
<path d="M75.1611 19.0004C74.2207 16.091 72.6957 13.8367 70.6201 12.2799C68.5952 10.7656 66.1298 10 63.2917 10H20.7106C17.8725 10 15.4071 10.7656 13.3823 12.2884C11.3066 13.8452 9.77315 16.108 8.83274 19.0174C7.92622 21.8588 7.49414 25.3467 7.49414 30V48.0009C7.49414 48.4687 7.5365 48.8175 7.62969 49.0983C7.72289 49.3875 7.87539 49.6172 8.08719 49.7703C8.29052 49.9234 8.53621 50 8.81579 50H63.2917C66.1298 50 68.5952 49.2344 70.6201 47.7116C72.6957 46.1548 74.2292 43.892 75.1696 40.9826C76.0761 38.1412 76.5082 34.6533 76.5082 30C76.4997 25.3467 76.0761 21.8503 75.1611 19.0004Z" fill="white"/>
<path d="M14.4151 38.7962C13.6865 36.5248 13.4238 33.5218 13.4238 29.9999C13.4238 26.478 13.6865 23.475 14.4151 21.2037C15.4063 18.1241 17.2956 16.5503 20.7099 16.5503C25.4797 16.5503 27.3012 19.6979 27.3012 26.6311V26.6652H22.4975V26.5886C22.4975 22.7775 21.9976 21.3823 20.5743 21.3823C19.6508 21.3823 19.0832 21.8927 18.7189 22.9986C18.2868 24.3172 18.2191 26.8098 18.2191 29.9999C18.2191 33.3687 18.3207 35.8272 18.7528 37.1798C19.0832 38.1326 19.5492 38.609 20.3117 38.609C21.6333 38.609 22.201 37.1798 22.201 33.3347H27.0047C27.0047 40.5571 25.1154 43.4495 20.4133 43.4495C17.2956 43.4495 15.4148 41.8757 14.4151 38.7962V38.7962Z" fill="#341CFF"/>
<path d="M40.4748 43.1349V38.303H34.6799V16.8652H30.0117V43.1349H40.4748Z" fill="#341CFF"/>
<path d="M47.635 27.5841V21.6973H53.7265V16.8652H42.9668V43.1349H53.7265V38.303H47.635V32.4161H53.3961V27.5841H47.635Z" fill="#341CFF"/>
<path fill-rule="evenodd" clip-rule="evenodd" d="M56.0391 29.9999C56.0391 33.5218 56.3018 36.5248 57.0304 38.7962C58.0216 41.8757 59.9109 43.4495 63.2913 43.4495C66.6717 43.4495 68.5949 41.8757 69.5861 38.7962C70.3147 36.5248 70.5774 33.5218 70.5774 29.9999C70.5774 26.478 70.3147 23.475 69.5861 21.2037C68.5864 18.1241 66.6717 16.5503 63.2913 16.5503C59.9109 16.5503 58.0216 18.1241 57.0304 21.2037C56.3018 23.475 56.0391 26.478 56.0391 29.9999ZM65.7398 29.9999C65.7398 32.6031 65.6805 35.3168 65.1806 36.8566C64.8163 37.988 64.2148 38.609 63.2913 38.6175C62.3933 38.6175 61.8002 37.9965 61.4359 36.8566C60.9445 35.3168 60.8429 32.6031 60.8429 29.9999C60.8429 27.3968 60.9361 24.683 61.4359 23.1433C61.8002 22.0033 62.3933 21.3823 63.2913 21.3823C64.2233 21.3823 64.8163 22.0033 65.1806 23.1433C65.672 24.683 65.7398 27.3968 65.7398 29.9999Z" fill="#341CFF"/>
</svg>
