<svg width="295" height="61" viewBox="0 0 295 61" fill="none" xmlns="http://www.w3.org/2000/svg">
<path d="M19.2795 41.7318C16.1088 38.7562 14.2063 34.6587 14.2063 29.9757C14.2063 25.2928 16.06 21.1952 19.0844 18.2196C21.7185 15.5855 21.7185 11.4879 19.0844 8.85378C16.4502 6.21964 12.3527 6.21964 9.71852 8.85378C4.499 14.2684 1.13315 21.7318 1.13315 29.9757C1.13315 38.2196 4.499 45.683 9.91364 51.0977C12.5478 53.7318 16.6453 53.7318 19.2795 51.0977C21.6697 48.4635 21.6697 44.366 19.2795 41.7318Z" fill="#FFD85F"/>
<path d="M19.2795 18.2196C22.2551 15.0489 26.4014 13.1953 31.0356 13.1953C35.6697 13.1953 39.8161 15.0489 42.7917 18.0733C45.4258 20.7074 49.5234 20.7074 52.1575 18.0733C54.7917 15.4392 54.7917 11.3416 52.1575 8.70744C46.7429 3.48793 39.2795 0.12207 31.0356 0.12207C22.7917 0.12207 15.3283 3.48792 9.91363 8.90256C7.27948 11.5367 7.27948 15.6343 9.91363 18.2684C12.5478 20.6099 16.6453 20.6099 19.2795 18.2196Z" fill="#3BB4E7"/>
<path d="M42.7917 41.7319C39.8161 44.9026 35.6697 46.7562 31.0356 46.7562C26.4014 46.7562 22.2551 44.9026 19.2795 41.8782C16.6453 39.2441 12.5478 39.2441 9.91363 41.8782C7.27948 44.5123 7.27948 48.6099 9.91363 51.2441C15.3283 56.4636 22.7917 59.8294 31.0356 59.8294C39.2795 59.8294 46.7429 56.4636 52.1575 51.0489C54.7917 48.4148 54.7917 44.3172 52.1575 41.6831C49.5234 39.3416 45.4258 39.3416 42.7917 41.7319Z" fill="#ED5C68"/>
<path d="M14.5966 20.0733C18.2066 20.0733 21.1332 17.1468 21.1332 13.5367C21.1332 9.92665 18.2066 7.00012 14.5966 7.00012C10.9865 7.00012 8.05998 9.92665 8.05998 13.5367C8.05998 17.1468 10.9865 20.0733 14.5966 20.0733Z" fill="#308BC5"/>
<path d="M14.5966 52.9514C18.2066 52.9514 21.1332 50.0248 21.1332 46.4148C21.1332 42.8047 18.2066 39.8782 14.5966 39.8782C10.9865 39.8782 8.05998 42.8047 8.05998 46.4148C8.05998 50.0248 10.9865 52.9514 14.5966 52.9514Z" fill="#D5465F"/>
<path d="M81.5234 36.1221C83.3771 34.61 83.7673 35.5856 85.2795 37.049C86.0112 37.7807 88.2551 39.2929 86.7917 40.4148C83.8161 42.8538 81.1819 43.9758 77.2795 43.9758C68.6941 43.9758 62.499 37.4392 62.8893 29.0002C63.0844 25.0978 64.5478 21.5368 67.5722 19.0978C70.3527 16.8539 73.7185 15.7319 77.2795 15.927C79.1332 15.927 80.6454 16.3173 82.3039 16.8539C83.4258 17.2441 84.5478 17.7807 85.4746 18.5124C87.3283 20.0246 86.4015 20.7563 85.0844 22.2685C84.6941 22.6587 84.5478 23.0002 84.1576 23.1953C83.4258 23.927 82.8405 24.5124 81.9136 23.7319C80.06 22.4148 77.4258 21.6831 75.1819 22.2197C67.7185 24.0734 68.06 37.3417 77.2307 37.3417C78.6941 37.6343 80.4015 37.0978 81.5234 36.1221ZM289.133 43.4392C287.816 43.4392 286.889 42.5124 286.889 41.1953V11.8295C286.889 10.5124 287.816 9.58556 289.133 9.58556H291.572C292.889 9.58556 293.816 10.5124 293.816 11.8295V41.1953C293.816 42.5124 292.889 43.4392 291.572 43.4392H289.133ZM276.255 40.0734C273.621 42.5124 271.036 43.8295 267.28 43.8295C259.621 43.8295 256.06 37.488 256.06 30.5612V18.61C256.06 17.2929 256.987 16.366 258.304 16.366H260.743C262.06 16.366 262.987 17.2929 262.987 18.61V30.5612C262.987 34.4636 265.036 37.488 269.328 37.488C273.426 37.488 276.06 33.927 276.06 30.2197V18.61C276.06 17.2929 276.987 16.366 278.304 16.366H280.743C282.06 16.366 282.987 17.2929 282.987 18.61V41.1953C282.987 42.5124 282.06 43.4392 280.743 43.4392H278.694C277.377 43.4392 276.645 42.3173 276.45 41.1953L276.255 40.0734ZM247.084 16.5124H251.767C253.084 16.5124 254.011 17.6343 254.011 18.7563V20.2685C254.011 21.5856 253.084 22.5124 251.767 22.5124H247.084V41.1953C247.084 42.5124 246.158 43.4392 244.841 43.4392H242.402C241.084 43.4392 240.158 42.5124 240.158 41.1953V15.5856C240.158 9.9758 243.328 5.488 249.133 4.95142H252.694C254.011 4.95142 254.938 6.07336 254.938 7.19531V8.7075C254.938 10.0246 254.011 10.9514 252.694 10.9514H250.841C248.06 10.9514 246.938 13.0002 246.938 15.6343V16.5612H247.084V16.5124ZM230.06 16.5124H235.28C236.597 16.5124 237.523 17.4392 237.523 18.7563V20.2685C237.523 21.5856 236.597 22.5124 235.28 22.5124H230.06V33.8782C230.06 36.1221 231.182 37.2441 233.426 37.2441H234.548C235.865 37.2441 236.792 38.1709 236.792 39.488V41.1465C236.792 42.4636 235.865 43.3904 234.548 43.3904H231.377C225.767 43.0002 223.328 39.488 223.328 33.8782V11.8295C223.328 10.5124 224.255 9.58556 225.572 9.58556H228.011C229.328 9.58556 230.255 10.5124 230.255 11.8295V16.5124H230.06ZM155.133 16.5124H160.353C161.67 16.5124 162.597 17.4392 162.597 18.7563V20.2685C162.597 21.5856 161.67 22.5124 160.353 22.5124H155.133V33.8782C155.133 36.1221 156.255 37.4392 158.499 37.4392H159.621C160.938 37.4392 161.865 38.366 161.865 39.6831V41.1953C161.865 42.5124 160.938 43.4392 159.621 43.4392H158.109C151.962 43.4392 148.401 40.8051 148.401 33.927V11.8782C148.401 10.5612 149.328 9.63433 150.645 9.63433H153.084C154.401 9.63433 155.328 10.5612 155.328 11.8782V16.5612C155.328 16.5124 155.133 16.5124 155.133 16.5124ZM124.694 19.6831C127.133 17.2441 129.914 15.927 133.28 15.927C140.938 15.927 144.889 22.0734 144.889 29.1953V41.1953C144.889 42.5124 143.962 43.4392 142.645 43.4392H140.206C138.889 43.4392 137.962 42.5124 137.962 41.1953V29.2441C137.962 25.3417 135.914 22.3173 131.621 22.3173C127.523 22.3173 124.889 25.6831 124.889 29.5856V41.1953C124.889 42.5124 123.962 43.4392 122.645 43.4392H120.206C118.889 43.4392 117.962 42.5124 117.962 41.1953V18.5612C117.962 17.2441 118.889 16.3173 120.206 16.3173H122.255C123.572 16.3173 124.304 17.4392 124.499 18.5612L124.694 19.6831ZM199.816 19.6831C202.255 17.2441 205.036 15.927 208.401 15.927C216.06 15.927 220.011 22.0734 220.011 29.1953V41.1953C220.011 42.5124 219.084 43.4392 217.767 43.4392H215.328C214.011 43.4392 213.084 42.5124 213.084 41.1953V29.2441C213.084 25.3417 211.036 22.3173 206.743 22.3173C202.645 22.3173 200.011 25.6831 200.011 29.5856V41.1953C200.011 42.5124 199.084 43.4392 197.767 43.4392H195.328C194.011 43.4392 193.084 42.5124 193.084 41.1953V18.5612C193.084 17.2441 194.011 16.3173 195.328 16.3173H197.377C198.694 16.3173 199.426 17.4392 199.621 18.5612L199.816 19.6831ZM101.67 15.7807C93.4258 15.7807 87.6697 21.7807 87.6697 29.9758C87.6697 38.1709 93.4746 44.1709 101.67 44.1709C110.06 44.1709 115.865 38.366 115.865 29.9758C115.865 21.7319 109.914 15.7807 101.67 15.7807ZM170.109 32.4148C170.645 36.1709 174.401 37.8295 177.962 37.8295C179.621 37.8295 181.523 37.4392 182.987 36.7075C183.182 36.5124 183.523 36.5124 183.719 36.3173C184.645 35.7807 185.377 35.5856 186.158 36.3173L187.475 37.6343L188.597 38.7563C189.719 40.2685 188.987 40.6099 187.67 41.3904C184.889 43.2441 181.328 44.1709 177.962 44.1709C168.987 44.1709 162.987 38.7563 162.987 29.7807C162.987 21.1953 168.987 15.5856 177.377 15.5856C186.158 15.5856 191.036 20.6099 191.231 29.4392C191.231 31.8782 191.426 32.6099 188.987 32.6099H170.109V32.4148ZM101.67 22.1221C105.962 22.1221 108.792 25.8782 108.792 29.9758C108.792 34.2685 106.158 37.6343 101.67 37.6343C97.1819 37.6343 94.5478 34.2685 94.5478 29.9758C94.5478 25.6831 97.3771 22.1221 101.67 22.1221ZM170.255 26.61H184.255C183.719 23.049 180.889 21.7319 177.523 21.7319C174.011 21.7319 171.231 23.4392 170.255 26.61Z" fill="#2A3039"/>
</svg>
