<svg id="Layer_1" data-name="Layer 1" xmlns="http://www.w3.org/2000/svg" viewBox="0 0 339.65 261.72"><defs><style>.cls-1{fill:#e86335;}</style></defs><polygon class="cls-1" points="10.17 123.9 24.08 123.9 24.08 63.27 105.49 63.27 105.49 49.92 24.08 49.92 24.08 27.79 105.49 27.79 105.49 14.46 10.17 14.46 10.17 123.9"/><polygon class="cls-1" points="135.57 14.46 121.67 14.46 121.67 123.9 248.7 123.9 248.7 110.56 135.57 110.56 135.57 14.46"/><path class="cls-1" d="M289.47,13.32c-6.78,0-12.63,2.22-16.45,6.21-7.11,7.29-8.27,14.25-8.27,49.65s1.16,42.36,8.24,49.61c3.86,4,9.71,6.25,16.48,6.25,11.22,0,23.3-7.79,23.3-24.87V62.51H285.36V75.85h13.51v24c0,7.39-3.52,11.81-9.4,11.81-2.89,0-5.15-.78-6.49-2.22-3.51-3.83-4.33-8-4.33-40.3s.82-36.47,4.29-40.27c1.38-1.47,3.64-2.25,6.53-2.25s9.4,0,9.4,13.8v4.11h13.9V40.46c0-8.92-2.28-15.89-6.89-20.82C301.69,15.45,296.17,13.32,289.47,13.32Z"/><path class="cls-1" d="M80.32,183.61c3.63-3.52,5.47-8.73,5.47-15.51,0-28.72-14.79-28.72-24.58-28.72h-51V248.82h13.9V189.47H51.79l25.54,59.35H91.24L64.91,188.74C69.92,188.69,75.88,187.89,80.32,183.61Zm-8.43-16.68c0,7.95-1.54,9.34-10.25,9.34H24.07V152.72H61.64C68.93,152.72,71.89,153.26,71.89,166.93Z"/><path class="cls-1" d="M129.65,139.38H123.9L100.38,248.82h13.84l6-30.42h16.86l6.11,30.42h13.91L134,139.38ZM123,205.06l5.69-28.82,5.76,28.82Z"/><polygon class="cls-1" points="248.43 230.91 185.97 167.6 172.69 167.6 172.69 248.82 186.6 248.82 186.6 188.1 246.36 248.82 261.75 248.82 262.23 167.6 248.32 167.6 248.43 230.91"/><polygon class="cls-1" points="172.69 139.38 172.69 152.72 278.02 152.72 278.02 248.82 291.92 248.82 291.92 152.72 317.59 152.72 317.59 139.38 172.69 139.38"/><path class="cls-1" d="M234.42,95.7H248.3L208.1,14.45l-15.87.13L152,95.7h14.11L176.36,75h47.81ZM182.19,63.21,200.27,26.7l18.07,36.51Z"/><path class="cls-1" d="M324,30.92c-5.33,0-8.19-3.56-8.19-8.58,0-5.68,3.7-9,8.41-9,5,0,8.14,3.34,8.14,8.71S328.93,30.92,324,30.92ZM324.09,16c-3.48,0-5.33,2.2-5.33,6.3,0,3.87,1.81,6,5.24,6s5.32-2.24,5.32-6.33S327.48,16,324.09,16Zm3.56,10.26h-2.51L323.73,23h-.43v3.26h-2.25V17.85h3.08c2.33,0,3.13,1,3.13,2.38a2.34,2.34,0,0,1-1.46,2.24Zm-3.87-4.93c.66,0,1-.18,1-1s-.35-.84-1.06-.84h-.43v1.81Z"/></svg>