<svg width="193" height="52" viewBox="0 0 193 52" fill="none" xmlns="http://www.w3.org/2000/svg">
<path d="M0.535156 0.859863H10.2303V21.7001H32.1651V0.859863H41.8744V51.1692H32.1651V30.329H10.2303V51.1692H0.535156V0.859863Z" fill="black"/>
<path d="M47.9434 26.0215C47.9434 9.84408 58.0081 0.134766 72.3801 0.134766C86.7522 0.134766 96.8311 9.84408 96.8311 26.0215C96.8311 42.199 86.7664 51.8941 72.3801 51.8941C57.9938 51.8941 47.9434 42.1848 47.9434 26.0215ZM72.7497 43.2652C81.734 43.2652 87.1218 36.797 87.1218 26.0215C87.1218 15.246 81.734 8.76369 72.7497 8.76369H72.0389C63.0546 8.76369 57.6669 15.2318 57.6669 26.0215C57.6669 36.8112 63.0404 43.2652 72.0389 43.2652H72.7497Z" fill="black"/>
<path d="M112.611 0.859863H102.901V51.1834H112.611V0.859863Z" fill="black"/>
<path d="M139.308 9.48878H138.598C133.196 9.48878 129.969 11.6354 129.969 14.8765C129.969 18.1177 131.76 19.6956 136.081 20.5628L143.63 22.0697C152.245 23.804 157.576 28.2535 157.576 36.4559C157.576 45.0849 150.667 51.9084 138.228 51.9084C124.425 51.9084 118.099 44.7152 117.743 34.2951H127.481C127.836 39.3275 131.433 43.2795 138.981 43.2795H139.706C145.094 43.2795 147.895 40.4363 147.895 37.1667C147.895 34.3236 146.672 32.5751 142.208 31.6368L133.167 29.7604C124.183 27.8839 120.231 22.6525 120.231 15.2319C120.231 7.81133 126.912 0.859863 139.28 0.859863L139.308 9.48878Z" fill="black"/>
<path d="M164.869 9.47456H147.469V0.859863H192.035V9.47456H174.578V51.1692H164.869V9.47456Z" fill="black"/>
</svg>
