<svg width="216" height="61" viewBox="0 0 216 61" fill="none" xmlns="http://www.w3.org/2000/svg">
<g clip-path="url(#clip0_107_432)">
<path d="M46.5401 11.4424C46.4985 11.1443 46.2338 10.979 46.0141 10.961C45.7961 10.943 41.5247 10.8792 41.5247 10.8792C41.5247 10.8792 37.9524 7.46698 37.5995 7.11986C37.2467 6.77276 36.5575 6.87754 36.2895 6.95613C36.2862 6.95777 35.6187 7.1608 34.4951 7.503C34.307 6.90374 34.0306 6.16694 33.6361 5.42688C32.3644 3.03967 30.5017 1.7773 28.2511 1.77404C28.2478 1.77404 28.2461 1.77404 28.2428 1.77404C28.0863 1.77404 27.9315 1.78877 27.7751 1.80186C27.7085 1.72327 27.6419 1.64633 27.572 1.571C26.5915 0.539499 25.3348 0.0368431 23.8283 0.0810506C20.9219 0.162916 18.0272 2.22757 15.6801 5.89515C14.0288 8.47556 12.772 11.7175 12.4158 14.2275C9.07823 15.2442 6.74445 15.9548 6.69285 15.9712C5.00827 16.4918 4.95501 16.5426 4.73528 18.1046C4.57215 19.2851 0.164276 52.8108 0.164276 52.8108L37.1035 59.0948L53.1136 55.1799C53.1136 55.1799 46.5817 11.7404 46.5401 11.4424ZM32.6457 8.06623C31.7951 8.32493 30.8279 8.61965 29.7792 8.93892C29.7576 7.49154 29.5828 5.47764 28.897 3.73717C31.1026 4.14814 32.1879 6.60247 32.6457 8.06623ZM27.8466 9.52835C25.9107 10.1177 23.7983 10.7612 21.6793 11.4064C22.2752 9.16159 23.4055 6.92666 24.7938 5.46126C25.3098 4.91604 26.0322 4.3086 26.8878 3.96148C27.6918 5.61189 27.8666 7.94834 27.8466 9.52835ZM23.8865 1.98361C24.569 1.96887 25.1433 2.11623 25.6344 2.43387C24.8487 2.83502 24.0896 3.41135 23.3772 4.16287C21.5311 6.11128 20.1162 9.1354 19.5519 12.0531C17.7924 12.5885 16.0712 13.1141 14.4865 13.5955C15.487 9.00278 19.4004 2.11132 23.8865 1.98361Z" fill="#95BF47"/>
<path d="M46.0157 10.9627C45.7977 10.9447 41.5263 10.8808 41.5263 10.8808C41.5263 10.8808 37.9541 7.46863 37.6012 7.12153C37.4697 6.99217 37.2916 6.92504 37.1051 6.89722L37.1068 59.0932L53.1153 55.18C53.1153 55.18 46.5834 11.7421 46.5418 11.444C46.5001 11.146 46.2338 10.9807 46.0157 10.9627Z" fill="#5E8E3E"/>
<path d="M28.2311 19.0593L26.3718 25.9015C26.3718 25.9015 24.2977 24.9732 21.8391 25.1255C18.2335 25.3498 18.1952 27.5864 18.2319 28.148C18.4283 31.2081 26.6131 31.8762 27.0726 39.0443C27.4338 44.6832 24.0313 48.5407 19.1291 48.8452C13.2447 49.2104 10.0054 45.7965 10.0054 45.7965L11.2522 40.5801C11.2522 40.5801 14.5131 43.0001 17.1232 42.838C18.8278 42.7315 19.437 41.3677 19.3754 40.4032C19.1191 36.4115 12.454 36.6472 12.0329 30.0882C11.6783 24.5688 15.3638 18.9758 23.4953 18.4715C26.6281 18.2734 28.2311 19.0593 28.2311 19.0593Z" fill="white"/>
<path d="M74.1965 33.3869C72.3556 32.4044 71.4095 31.5762 71.4095 30.4377C71.4095 28.9892 72.7237 28.0586 74.776 28.0586C77.165 28.0586 79.2981 29.0411 79.2981 29.0411L80.9805 23.9711C80.9805 23.9711 79.4335 22.7808 74.88 22.7808C68.5433 22.7808 64.1516 26.3502 64.1516 31.3682C64.1516 34.2134 66.2022 36.3863 68.9379 37.9372C71.147 39.1779 71.9362 40.0581 71.9362 41.3508C71.9362 42.6955 70.8317 43.7818 68.7811 43.7818C65.725 43.7818 62.839 42.2293 62.839 42.2293L61.051 47.2993C61.051 47.2993 63.7174 49.0581 68.2032 49.0581C74.7248 49.0581 79.4055 45.9027 79.4055 40.2123C79.4038 37.1626 77.0379 34.9897 74.1965 33.3869Z" fill="black"/>
<path d="M100.177 22.7304C96.9691 22.7304 94.4447 24.231 92.4998 26.5062L92.3941 26.4542L95.181 12.126H87.9231L80.8765 48.5937H88.1344L90.5532 36.1281C91.4992 31.4203 93.9708 28.5248 96.2856 28.5248C97.9151 28.5248 98.5475 29.6112 98.5475 31.1637C98.5475 32.1462 98.4418 33.3366 98.2321 34.3191L95.498 48.5954H102.756L105.595 33.853C105.911 32.3004 106.122 30.4395 106.122 29.1971C106.119 25.1615 103.963 22.7304 100.177 22.7304Z" fill="black"/>
<path d="M122.527 22.7305C113.796 22.7305 108.013 30.4898 108.013 39.1277C108.013 44.6621 111.483 49.1102 118.005 49.1102C126.577 49.1102 132.362 41.5588 132.362 32.713C132.362 27.5926 129.311 22.7305 122.527 22.7305ZM118.951 43.6293C116.479 43.6293 115.427 41.5603 115.427 38.9734C115.427 34.8875 117.584 28.2147 121.528 28.2147C124.105 28.2147 124.945 30.3875 124.945 32.5084C124.945 36.9044 122.791 43.6293 118.951 43.6293Z" fill="black"/>
<path d="M150.926 22.7305C146.027 22.7305 143.247 26.9723 143.247 26.9723H143.143L143.564 23.1446H137.148C136.833 25.7316 136.253 29.6616 135.676 32.6107L130.627 58.7321H137.885L139.882 48.1796H140.041C140.041 48.1796 141.53 49.1102 144.301 49.1102C152.82 49.1102 158.394 40.5243 158.394 31.8329C158.394 27.0243 156.237 22.7305 150.926 22.7305ZM143.984 43.7315C142.1 43.7315 140.985 42.6971 140.985 42.6971L142.195 36.0243C143.037 31.5762 145.403 28.6271 147.928 28.6271C150.137 28.6271 150.82 30.6441 150.82 32.5588C150.82 37.1626 148.033 43.7315 143.984 43.7315Z" fill="black"/>
<path d="M168.754 12.4882C166.441 12.4882 164.6 14.2989 164.6 16.626C164.6 18.7469 165.967 20.1955 168.018 20.1955H168.123C170.385 20.1955 172.33 18.6949 172.383 16.0577C172.383 13.9887 170.963 12.4882 168.754 12.4882Z" fill="black"/>
<path d="M158.605 48.5937H165.861L170.806 23.3004H163.495L158.605 48.5937Z" fill="black"/>
<path d="M189.265 23.2485H184.216L184.478 22.0582C184.899 19.6271 186.372 17.4542 188.791 17.4542C190.082 17.4542 191.104 17.8164 191.104 17.8164L192.524 12.23C192.524 12.23 191.262 11.6096 188.579 11.6096C186.002 11.6096 183.427 12.3338 181.48 13.9887C179.008 16.0577 177.851 19.0571 177.273 22.0582L177.064 23.2485H173.697L172.645 28.6288H176.012L172.173 48.5954H179.431L183.27 28.6288H188.266L189.265 23.2485Z" fill="black"/>
<path d="M206.724 23.3005C206.724 23.3005 202.187 34.5431 200.15 40.6801H200.044C199.906 38.7038 198.256 23.3005 198.256 23.3005H190.63L194.997 46.5247C195.103 47.0412 195.05 47.353 194.839 47.7151C193.996 49.318 192.577 50.8705 190.894 52.0089C189.527 52.9914 188.002 53.6117 186.793 54.0258L188.791 60.0783C190.264 59.7682 193.313 58.5778 195.89 56.1987C199.204 53.1472 202.253 48.4394 205.408 42.0247L214.296 23.2988H206.724V23.3005Z" fill="black"/>
</g>
<defs>
<clipPath id="clip0_107_432">
<rect width="215" height="60" fill="white" transform="translate(0.164276 0.0783691)"/>
</clipPath>
</defs>
</svg>
