<?xml version="1.0" encoding="UTF-8"?>
<svg width="600px" height="600px" viewBox="0 0 600 600" version="1.1" xmlns="http://www.w3.org/2000/svg" xmlns:xlink="http://www.w3.org/1999/xlink">
    <!-- Generator: Sketch 53.2 (72643) - https://sketchapp.com -->
    <title>SQUARE LOGO</title>
    <desc>Created with Sketch.</desc>
    <g id="SQUARE-LOGO" stroke="none" stroke-width="1" fill="none" fill-rule="evenodd">
        <rect fill="#FFFFFF" x="0" y="0" width="600" height="600"></rect>
        <g id="Logo" transform="translate(168.000000, 75.000000)" fill="#2C405A">
            <g id="Group" transform="translate(0.000000, 361.000000)">
                <path d="M0,1.575 L10.2500452,1.575 L10.2500452,47.3104258 C10.2500452,51.7565097 11.9856648,53.9364 15.7055932,53.9364 C19.4260999,53.9364 21.1622978,51.7565097 21.1622978,47.3104258 L21.1622978,1.575 L31.4117647,1.575 L31.4117647,46.8906516 C31.4117647,57.2928323 25.459995,63 15.7055932,63 C5.95119141,63 0,57.2928323 0,46.8906516 L0,1.575 Z" id="Fill-1"></path>
                <polygon id="Fill-3" points="42.4058824 62.2125 42.4058824 1.575 51.9114199 1.575 64.3948117 36.2594996 64.5590592 36.2594996 64.5590592 1.575 73.8176471 1.575 73.8176471 62.2125 64.890446 62.2125 51.8287178 24.334481 51.6638919 24.334481 51.6638919 62.2125"></polygon>
                <polygon id="Fill-5" points="86.3823529 62.2125 96.5911765 62.2125 96.5911765 1.575 86.3823529 1.575"></polygon>
                <polygon id="Fill-7" points="112.969521 10.6461227 102.873529 10.6461227 102.873529 1.575 133.5 1.575 133.5 10.6461227 123.404008 10.6461227 123.404008 62.2125 112.969521 62.2125"></polygon>
                <polygon id="Fill-8" points="139.782353 62.2125 139.782353 1.575 167.664248 1.575 167.664248 10.6461227 150.195464 10.6461227 150.195464 26.2664574 163.632855 26.2664574 163.632855 35.3375802 150.195464 35.3375802 150.195464 53.1407897 168.838235 53.1407897 168.838235 62.2125"></polygon>
                <path d="M196.323529,1.575 L206.574731,1.575 L206.574731,47.3104258 C206.574731,51.7565097 208.310351,53.9364 212.029701,53.9364 C215.750208,53.9364 217.484671,51.7565097 217.484671,47.3104258 L217.484671,1.575 L227.735294,1.575 L227.735294,46.8906516 C227.735294,57.2928323 221.784103,63 212.029701,63 C202.275878,63 196.323529,57.2928323 196.323529,46.8906516 L196.323529,1.575 Z" id="Fill-9"></path>
                <path d="M256.802683,15.76269 C256.392489,10.5653608 253.679341,9.05602353 251.375236,9.05602353 C248.087356,9.05602353 246.27744,11.2358514 246.27744,15.0089013 C246.27744,25.3208483 267,30.2700431 267,46.7026372 C267,56.6802188 260.421364,62.2125 250.883348,62.2125 C241.425301,62.2125 236.000155,54.4992176 235.588235,45.4426075 L245.290789,44.0189147 C245.703284,50.140735 248.087356,53.1558899 251.375236,53.1558899 C254.912799,53.1558899 257.296296,51.2283025 257.296296,47.623022 C257.296296,35.6357283 236.576037,32.4475246 236.576037,15.0921993 C236.576037,5.4501564 242.331409,0 252.363038,0 C260.668171,0 265.602004,6.12064707 266.505811,14.6739492 L256.802683,15.76269 Z" id="Fill-10"></path>
            </g>
            <g id="Group-2">
                <path d="M172.812374,330.068337 C176.292361,330.068337 178.323992,328.842314 180.842778,326.850579 C190.804323,318.969947 194.909091,307.95344 194.909091,293.641717 L194.909091,243.014027 L194.909091,223.517154 L194.909091,124.107448 L194.909091,77.8018223 C163.69625,114.522776 144.79116,162.277942 144.79116,214.536642 L144.79116,242.867966 L144.79116,293.641717 C144.79116,299.931174 143.545967,305.888674 141.466276,311.438976 C147.635443,322.544005 159.099958,330.068337 172.812374,330.068337" id="Fill-12"></path>
                <path d="M217.304604,293.436233 L217.304604,251.123168 L217.304604,124.310118 L217.304604,87.9301771 C217.304604,50.3529892 237.7087,17.5581513 268,0 L268,45.7985809 L268,175.86478 L268,251.123168 L267.628816,251.123168 C263.329263,303.235514 219.757072,344.214123 166.615836,344.214123 C194.611537,344.214123 217.304604,321.479703 217.304604,293.436233" id="Fill-13"></path>
                <path d="M74.6838389,336.349603 C60.4486136,327.336721 50.9717922,311.53319 50.9717922,293.483079 L50.9717922,251.16326 L50.9717922,124.329964 L50.9717922,87.9442149 C50.9717922,50.3610279 30.4564511,17.5609544 0,0 L0,45.8036792 L0,175.892857 L0,251.16326 L0.373208154,251.16326 C4.09196083,295.986411 37.0364663,332.485042 80.1642229,341.856492 C78.2293163,340.123416 76.3988192,338.290737 74.6838389,336.349603" id="Fill-14"></path>
                <path d="M79.4901723,341.711701 C86.3768861,343.23162 93.3838559,343.85877 100.721408,343.85877 C90.8813783,343.85877 81.7673438,340.765585 73.9806976,335.905197 C75.6620838,337.831452 77.593168,339.991909 79.4901723,341.711701 Z" id="Fill-15"></path>
                <path d="M123.000382,293.478716 L123.000382,242.743309 L123.000382,214.433381 C123.000382,162.214146 103.871127,114.495045 72.3049853,77.8018223 L72.3049853,124.072478 L72.3049853,223.407111 L72.3049853,242.889259 L72.3049853,293.478716 C72.3049853,321.496744 95.0090992,344.214123 123.000382,344.214123 L173.68915,344.214123 C145.689029,344.214123 123.000382,321.496744 123.000382,293.478716" id="Fill-16"></path>
                <polygon id="Fill-17" points="110.119394 85.6605923 119.389287 57.4372842 95.0967742 40.0070558 125.126412 40.0070558 134.396305 11.7881549 143.679571 40.0070558 173.68915 40.0070558 149.407781 57.4483021 158.686589 85.6605923 134.396305 68.2193459"></polygon>
            </g>
        </g>
    </g>
</svg>