<svg width="100" height="100" viewBox="0 0 100 100" fill="none" xmlns="http://www.w3.org/2000/svg">
<rect width="100" height="100" fill="black"/>
<path fill-rule="evenodd" clip-rule="evenodd" d="M54.832 41.3559V43.1283H54.8838C55.3585 42.4543 55.9316 41.9303 56.6031 41.5578C57.2732 41.1865 58.0429 41.0015 58.9084 41.0015C59.7402 41.0015 60.4996 41.1619 61.1891 41.4814C61.8761 41.8023 62.3987 42.3689 62.7545 43.18C63.1451 42.6043 63.6768 42.0985 64.347 41.6587C65.0184 41.2188 65.8114 41.0002 66.7299 41.0002C67.3836 40.9954 68.0348 41.0807 68.6652 41.2537C69.2603 41.4219 69.7687 41.6923 70.1931 42.0636C70.6187 42.4362 70.9486 42.9213 71.1866 43.5216C71.4259 44.1205 71.5437 44.8437 71.5437 45.6885V54.4531H67.9266V47.0313C67.9266 46.5914 67.9097 46.1775 67.8748 45.7894C67.8513 45.4359 67.7562 45.0908 67.5954 44.7751C67.4407 44.4872 67.2062 44.25 66.9201 44.0921C66.6225 43.9239 66.2189 43.8372 65.7105 43.8372C65.2008 43.8372 64.7894 43.9355 64.475 44.1296C64.168 44.3161 63.9138 44.5779 63.7364 44.8903C63.5578 45.2007 63.4388 45.5578 63.3793 45.9549C63.3192 46.3532 63.2889 46.7553 63.2887 47.1581V54.4531H59.6729V47.105C59.6729 46.7169 59.6652 46.3327 59.6484 45.9537C59.6357 45.5935 59.5627 45.2379 59.4323 44.9019C59.3069 44.5838 59.0841 44.3135 58.7958 44.1296C58.4983 43.9355 58.0597 43.8372 57.4828 43.8372C57.3133 43.8372 57.0882 43.876 56.8075 43.9523C56.528 44.0274 56.2551 44.1723 55.9924 44.3831C55.7285 44.594 55.5047 44.898 55.3184 45.2952C55.1296 45.6923 55.0377 46.2124 55.0377 46.854V54.4531H51.4193V41.3559H54.832ZM41.5603 54.4531L39.2161 45.6613H39.1644L36.9237 54.4518H33.1786L29 41.3559H32.8228L35.242 50.2473H35.2937L37.4839 41.3559H41.0001L43.242 50.2228H43.2938L45.7129 41.3559H49.4322L45.2796 54.4531H41.5615H41.5603Z" fill="#00CDBE"/>
<path fill-rule="evenodd" clip-rule="evenodd" d="M49.6622 61.8278C57.4825 61.8278 61.4398 58.8744 61.4398 58.8744L63.1229 61.1383C63.1229 61.1383 57.2833 66.0607 49.6622 66.0607C42.0412 66.0607 36.2016 61.1383 36.2016 61.1383L37.8847 58.8744C37.8847 58.8744 41.8433 61.8278 49.6622 61.8278Z" fill="white"/>
<path d="M74.8717 35.8542C75.3184 35.8542 75.7253 35.9643 76.0922 36.1844C76.4592 36.4046 76.7495 36.6997 76.9633 37.0699C77.1803 37.4368 77.2888 37.8452 77.2888 38.2952C77.2888 38.7419 77.1803 39.1487 76.9633 39.5156C76.7495 39.8794 76.4592 40.1698 76.0922 40.3867C75.7253 40.6037 75.3184 40.7122 74.8717 40.7122C74.425 40.7122 74.0166 40.6037 73.6465 40.3867C73.2795 40.1698 72.9876 39.8794 72.7706 39.5156C72.5536 39.1487 72.4451 38.7419 72.4451 38.2952C72.4451 37.9569 72.5073 37.641 72.6318 37.3475C72.7562 37.0539 72.9301 36.7955 73.1535 36.5721C73.3768 36.3456 73.6353 36.1701 73.9288 36.0456C74.2224 35.918 74.5367 35.8542 74.8717 35.8542ZM74.8717 36.3041C74.5048 36.3041 74.1745 36.3934 73.881 36.5721C73.5906 36.7508 73.3609 36.9917 73.1918 37.2948C73.0258 37.5948 72.9429 37.9282 72.9429 38.2952C72.9429 38.6589 73.0258 38.9907 73.1918 39.2907C73.3609 39.5874 73.5906 39.8251 73.881 40.0038C74.1745 40.1793 74.5048 40.2671 74.8717 40.2671C75.2387 40.2671 75.5657 40.1793 75.8529 40.0038C76.1433 39.8251 76.3714 39.5874 76.5373 39.2907C76.7064 38.9907 76.791 38.6589 76.791 38.2952C76.791 37.9282 76.7064 37.5948 76.5373 37.2948C76.3714 36.9917 76.1433 36.7508 75.8529 36.5721C75.5657 36.3934 75.2387 36.3041 74.8717 36.3041ZM74.7329 36.9119C75.5179 36.9119 75.9103 37.1816 75.9103 37.7208C75.9103 37.925 75.8481 38.0893 75.7237 38.2138C75.6024 38.3382 75.4509 38.426 75.269 38.477L76.0922 39.6066H75.4604L74.7329 38.568H74.4649V39.6066H73.9193V36.9119H74.7329ZM74.7473 37.3283H74.4649V38.1516H74.7664C74.9515 38.1516 75.0951 38.1197 75.1972 38.0558C75.2993 37.9888 75.3503 37.8772 75.3503 37.7208C75.3503 37.4592 75.1493 37.3283 74.7473 37.3283Z" fill="#00CDBE"/>
</svg>
